<svg width="24" height="24" viewBox="0 0 24 24" fill="none" xmlns="http://www.w3.org/2000/svg">
<g clip-path="url(#clip0_1_997040)">
<path d="M23.4894 12.27C23.4894 11.28 23.4145 10.56 23.2347 9.81H11.9844V14.265H18.5908C18.4559 15.375 17.7369 17.04 16.134 18.165L16.119 18.315L19.6694 21.075L19.909 21.105C22.1861 19.005 23.4894 15.915 23.4894 12.27Z" fill="#4285F4"/>
<path d="M11.9844 24C15.2202 24 17.9316 22.935 19.924 21.09L16.1489 18.15C15.1303 18.855 13.782 19.35 11.9994 19.35C8.8235 19.35 6.142 17.25 5.18325 14.37L5.04843 14.385L1.33327 17.25L1.28833 17.385C3.25077 21.3 7.2955 24 11.9844 24Z" fill="#34A853"/>
<path d="M5.16826 14.37C4.91359 13.62 4.76379 12.825 4.76379 12C4.76379 11.175 4.91359 10.38 5.15328 9.62999V9.46499L1.40816 6.55499L1.28832 6.61499C0.464394 8.23499 0 10.065 0 12C0 13.935 0.464394 15.765 1.27334 17.385L5.16826 14.37Z" fill="#FBBC05"/>
<path d="M11.9844 4.635C14.2315 4.635 15.7595 5.61 16.6134 6.42L19.999 3.12C17.9167 1.185 15.2202 0 11.9844 0C7.29552 0 3.2508 2.7 1.27338 6.615L5.15332 9.63C6.12705 6.735 8.80855 4.635 11.9844 4.635Z" fill="#EB4335"/>
</g>
<defs>
<clipPath id="clip0_1_997040">
<rect width="24" height="24" rx="12" fill="white"/>
</clipPath>
</defs>
</svg>
