<svg width="18" height="18" viewBox="0 0 18 18" fill="none" xmlns="http://www.w3.org/2000/svg">
<g clip-path="url(#clip0_1_482357)">
<path d="M17.617 9.20248C17.617 8.45998 17.5609 7.91998 17.426 7.35748H8.98828V10.6987H13.9431C13.842 11.5312 13.3027 12.78 12.1005 13.6237L12.0892 13.7362L14.752 15.8062L14.9318 15.8287C16.6396 14.2537 17.617 11.9362 17.617 9.20248Z" fill="#4285F4"/>
<path d="M8.98828 18C11.4151 18 13.4487 17.2012 14.943 15.8175L12.1117 13.6125C11.3477 14.1412 10.3365 14.5125 8.99952 14.5125C6.61763 14.5125 4.6065 12.9375 3.88744 10.7775L3.78632 10.7887L0.999954 12.9375L0.966248 13.0387C2.43808 15.975 5.47162 18 8.98828 18Z" fill="#34A853"/>
<path d="M3.87619 10.7775C3.68519 10.215 3.57284 9.61876 3.57284 9.00001C3.57284 8.38126 3.68519 7.78501 3.86496 7.22251V7.09876L1.05612 4.91626L0.96624 4.96126C0.348296 6.17626 0 7.54876 0 9.00001C0 10.4513 0.348296 11.8238 0.955004 13.0388L3.87619 10.7775Z" fill="#FBBC05"/>
<path d="M8.98829 3.47625C10.6736 3.47625 11.8196 4.2075 12.46 4.815L14.9992 2.34C13.4375 0.88875 11.4151 0 8.98829 0C5.47163 0 2.43808 2.025 0.955017 4.96125L3.86497 7.2225C4.59527 5.05125 6.6064 3.47625 8.98829 3.47625Z" fill="#EB4335"/>
</g>
<defs>
<clipPath id="clip0_1_482357">
<rect width="18" height="18" rx="9" fill="white"/>
</clipPath>
</defs>
</svg>
