<svg width="64" height="64" viewBox="0 0 64 64" fill="none" xmlns="http://www.w3.org/2000/svg">
<g clip-path="url(#clip0_1_482787)">
<g clip-path="url(#clip1_1_482787)">
<path d="M32 64C49.6731 64 64 49.6731 64 32C64 14.3269 49.6731 0 32 0C14.3269 0 0 14.3269 0 32C0 49.6731 14.3269 64 32 64Z" fill="#F4E0F7"/>
<path d="M39.7867 38.9333C39.4533 38.9333 39.1867 39.1867 39.1733 39.52C39.1333 41.2667 37.6933 42.6933 35.9333 42.6933C34.4533 42.6933 33.1733 41.6933 32.8 40.2533C32.7333 40.0133 32.7067 39.76 32.7067 39.52C32.7067 39.5067 32.7067 39.4933 32.7067 39.48V38.88C32.9333 38.8 33.12 38.6667 33.2667 38.5067L35.24 36.2933C35.5333 35.96 35.6133 35.5333 35.4267 35.1467C35.2133 34.68 34.68 34.3733 34.08 34.3733H30.1333C29.52 34.3733 29 34.68 28.7867 35.1467C28.6133 35.5333 28.68 35.96 28.9733 36.2933L30.9467 38.5067C31.0933 38.6667 31.2933 38.8 31.5067 38.88V39.48C31.5067 39.48 31.5067 39.5067 31.5067 39.52C31.5067 39.7733 31.4667 40.0133 31.4133 40.2533C31.04 41.6933 29.7467 42.6933 28.28 42.6933C26.5333 42.6933 25.08 41.2667 25.04 39.52C25.04 39.1867 24.76 38.92 24.4267 38.9333C24.0933 38.9333 23.84 39.2133 23.84 39.5467C23.8933 41.9333 25.8667 43.88 28.2667 43.88C29.88 43.88 31.32 43.0133 32.1067 41.6667C32.88 43.0133 34.3333 43.88 35.9467 43.88C38.3467 43.88 40.3333 41.9333 40.3733 39.5467C40.3733 39.2133 40.12 38.9467 39.7867 38.9333ZM32.1067 37.7867C31.9733 37.7867 31.8667 37.7467 31.84 37.7067L29.9467 35.5867C29.9467 35.5867 30.0533 35.56 30.1333 35.56H34.08C34.16 35.56 34.2267 35.5733 34.2667 35.5867L32.3733 37.7067C32.3733 37.7067 32.2267 37.7867 32.1067 37.7867Z" fill="#154734"/>
<path d="M38.68 28.4533C39.88 28.4533 40.8533 29.4267 40.8533 30.6267C40.8533 31.8267 39.88 29.4533 38.68 29.4533C37.48 29.4533 36.5067 31.8267 36.5067 30.6267C36.5067 29.4267 37.48 28.4533 38.68 28.4533Z" fill="#154734"/>
<path d="M26.0267 27.9733C27.2267 27.9733 28.2 28.9467 28.2 30.1467C28.2 31.3467 27.2267 28.9733 26.0267 28.9733C24.8267 28.9733 23.8533 31.3467 23.8533 30.1467C23.8533 28.9467 24.8267 27.9733 26.0267 27.9733Z" fill="#154734"/>
<path d="M36.2667 41.3333C36.5244 41.3333 36.7333 41.1244 36.7333 40.8667C36.7333 40.6089 36.5244 40.4 36.2667 40.4C36.0089 40.4 35.8 40.6089 35.8 40.8667C35.8 41.1244 36.0089 41.3333 36.2667 41.3333Z" fill="#154734"/>
<path d="M37.4533 39.6267C37.7111 39.6267 37.92 39.4177 37.92 39.16C37.92 38.9023 37.7111 38.6933 37.4533 38.6933C37.1956 38.6933 36.9867 38.9023 36.9867 39.16C36.9867 39.4177 37.1956 39.6267 37.4533 39.6267Z" fill="#154734"/>
<path d="M35.0667 39.6267C35.3244 39.6267 35.5333 39.4177 35.5333 39.16C35.5333 38.9023 35.3244 38.6933 35.0667 38.6933C34.8089 38.6933 34.6 38.9023 34.6 39.16C34.6 39.4177 34.8089 39.6267 35.0667 39.6267Z" fill="#154734"/>
<path d="M27.96 41.3333C28.2177 41.3333 28.4267 41.1244 28.4267 40.8667C28.4267 40.6089 28.2177 40.4 27.96 40.4C27.7023 40.4 27.4933 40.6089 27.4933 40.8667C27.4933 41.1244 27.7023 41.3333 27.96 41.3333Z" fill="#154734"/>
<path d="M29.16 39.6267C29.4177 39.6267 29.6267 39.4177 29.6267 39.16C29.6267 38.9023 29.4177 38.6933 29.16 38.6933C28.9023 38.6933 28.6933 38.9023 28.6933 39.16C28.6933 39.4177 28.9023 39.6267 29.16 39.6267Z" fill="#154734"/>
<path d="M26.7733 39.6267C27.0311 39.6267 27.24 39.4177 27.24 39.16C27.24 38.9023 27.0311 38.6933 26.7733 38.6933C26.5156 38.6933 26.3067 38.9023 26.3067 39.16C26.3067 39.4177 26.5156 39.6267 26.7733 39.6267Z" fill="#154734"/>
<path d="M22.2533 34.5067C22.1733 34.5067 22.08 34.4933 22 34.4533L16.7867 31.9867C16.4933 31.84 16.36 31.4933 16.5067 31.1867C16.6533 30.8933 17 30.76 17.3067 30.9067L22.52 33.3733C22.8133 33.52 22.9467 33.8667 22.8 34.1733C22.6933 34.3867 22.48 34.52 22.2533 34.52V34.5067Z" fill="#154734"/>
<path d="M22.0533 36.7067C22.0533 36.7067 22.0267 36.7067 22 36.7067L16.2533 36.2533C15.92 36.2267 15.68 35.9333 15.7067 35.6133C15.7333 35.28 16.0133 35.0267 16.3467 35.0667L22.0933 35.52C22.4267 35.5467 22.6667 35.84 22.64 36.16C22.6133 36.48 22.36 36.7067 22.04 36.7067H22.0533Z" fill="#154734"/>
<path d="M16.3867 40.2533C16.12 40.2533 15.8667 40.0667 15.8 39.8C15.72 39.48 15.92 39.16 16.24 39.08L21.84 37.72C22.16 37.64 22.48 37.84 22.56 38.16C22.64 38.48 22.44 38.8 22.12 38.88L16.52 40.24C16.52 40.24 16.4267 40.2533 16.3733 40.2533H16.3867Z" fill="#154734"/>
<path d="M41.64 34.5067C41.4133 34.5067 41.2 34.3867 41.0933 34.16C40.9467 33.8667 41.08 33.5067 41.3733 33.36L46.5867 30.8933C46.88 30.7467 47.24 30.8933 47.3867 31.1733C47.5333 31.4667 47.4 31.8267 47.1067 31.9733L41.8933 34.44C41.8133 34.48 41.72 34.4933 41.64 34.4933V34.5067Z" fill="#154734"/>
<path d="M41.84 36.7067C41.5333 36.7067 41.2667 36.4667 41.24 36.16C41.2133 35.8267 41.4533 35.5467 41.7867 35.52L47.5333 35.0667C47.8667 35.04 48.1467 35.2934 48.1733 35.6134C48.2 35.9467 47.96 36.2267 47.6267 36.2534L41.88 36.7067C41.88 36.7067 41.8533 36.7067 41.8267 36.7067H41.84Z" fill="#154734"/>
<path d="M47.52 40.2533C47.52 40.2533 47.4267 40.2533 47.3733 40.24L41.7733 38.88C41.4533 38.8 41.2533 38.48 41.3333 38.16C41.4133 37.84 41.7333 37.64 42.0533 37.72L47.6533 39.08C47.9733 39.16 48.1733 39.48 48.0933 39.8C48.0267 40.08 47.7867 40.2533 47.5067 40.2533H47.52Z" fill="#154734"/>
<path d="M43.8267 26.24C43.5733 26.24 43.3467 26.0533 43.3067 25.7867L42.6667 21.1067C42.64 20.92 42.52 20.8133 42.4533 20.7733C42.3867 20.7333 42.24 20.6667 42.0533 20.7333L36.8933 22.5733C36.6267 22.6667 36.32 22.5333 36.2267 22.2533C36.1333 21.9733 36.2667 21.68 36.5467 21.5867L41.7067 19.7467C42.1333 19.5867 42.6133 19.64 43 19.88C43.3867 20.12 43.6533 20.5067 43.7067 20.96L44.3467 25.64C44.3867 25.92 44.1867 26.1867 43.8933 26.2267C43.8667 26.2267 43.84 26.2267 43.8267 26.2267V26.24Z" fill="#154734"/>
<path d="M19.6533 26.24C19.6533 26.24 19.6 26.24 19.5867 26.24C19.3067 26.2 19.1067 25.9333 19.1333 25.6533L19.7733 20.9733C19.84 20.52 20.0933 20.12 20.48 19.8933C20.8667 19.6533 21.3467 19.6 21.7733 19.76L26.9333 21.6C27.2 21.6933 27.3467 22 27.2533 22.2667C27.16 22.5333 26.8533 22.68 26.5867 22.5867L21.4267 20.7467C21.24 20.68 21.0933 20.7467 21.0267 20.7867C20.96 20.8267 20.84 20.9333 20.8133 21.12L20.1733 25.8C20.1333 26.0667 19.92 26.2533 19.6533 26.2533V26.24Z" fill="#154734"/>
<path d="M20.6267 11.9867C21.2933 13.5067 22.68 13.96 23.96 13.4C25.3733 12.7867 25.7067 11.5067 25.4267 10.2667L26.8933 10.2133C27.2533 12.0533 26.4933 13.7867 24.4933 14.6533C22.24 15.64 20.1333 14.68 19.2133 12.6C18.2933 10.52 19.1733 8.25333 21.28 7.33333C23.1867 6.49333 24.76 7.14666 25.6133 8.26666L24.6 9.37333C23.96 8.46666 22.9467 8.07999 21.8133 8.57333C20.5467 9.13333 19.96 10.4933 20.6133 11.9867H20.6267Z" fill="#154734"/>
<path d="M30.6 5.24L32.72 5.2L35.9733 12.92L34.32 12.9467L33.6133 11.2L29.9067 11.2667L29.2667 13.04L27.6 13.0667L30.6 5.24ZM33.08 9.86666L31.68 6.41333L30.4 9.90666L33.08 9.86666Z" fill="#154734"/>
<path d="M43.24 8.97333L40.64 8.12L38.6533 14.1733L37.2267 13.7067L39.2133 7.65333L36.6 6.8L37.0267 5.48L43.6667 7.65333L43.24 8.97333Z" fill="#154734"/>
<path d="M13.1333 35.4133L14.4267 39.0133C14.92 40.4 14.48 41.64 13.3733 42.04C12.6133 42.32 11.8933 42.1067 11.3067 41.4667C11.3867 42.4 10.9867 43.2 10.08 43.52C8.85333 43.96 7.70666 43.2267 7.17333 41.7733L5.82666 38.04L13.1333 35.4133ZM8.47999 41.32C8.70666 41.9467 9.21333 42.24 9.74666 42.04C10.2533 41.8533 10.52 41.32 10.2933 40.6667L9.45333 38.32L7.65333 38.9733L8.49333 41.32H8.47999ZM11.48 40.0133C11.72 40.6933 12.16 40.92 12.68 40.7333C13.1867 40.56 13.3067 40.04 13.0933 39.4267L12.32 37.2933L10.7067 37.8667L11.48 40.0133Z" fill="#154734"/>
<path d="M12.2267 44.04C13.8933 42.5733 16.4133 42.7467 17.92 44.4533C19.4267 46.16 19.28 48.68 17.6133 50.1467C15.9467 51.6133 13.4267 51.44 11.92 49.7333C10.4133 48.0267 10.5467 45.4933 12.2133 44.0267L12.2267 44.04ZM16.6133 49.0133C17.8 47.9733 17.8 46.44 16.8667 45.3867C15.92 44.32 14.4133 44.1467 13.24 45.1867C12.0533 46.2267 12.0667 47.76 13 48.8C13.9333 49.84 15.44 50.0533 16.6133 49.0133Z" fill="#154734"/>
<path d="M22.5867 48.4267L24.48 49.3733L23.7733 57.7067L22.2933 56.96L22.48 55.0933L19.1733 53.4267L17.7867 54.6933L16.3067 53.9467L22.5867 48.4133V48.4267ZM22.64 53.6667L23 49.96L20.2533 52.4667L22.64 53.6667Z" fill="#154734"/>
<path d="M31.1333 58.7067C30.9867 58.3067 30.9467 57.9333 31.04 56.92C31.1333 55.96 30.68 55.5733 29.9067 55.4933L28.2533 55.3467L27.9733 58.4133L26.48 58.28L27.1867 50.5467L30.9733 50.8933C32.6 51.04 33.4267 52.0933 33.32 53.3067C33.24 54.2533 32.56 54.96 31.6133 55.2133C32.2533 55.4933 32.7067 56.0933 32.6533 57.0533C32.6267 57.76 32.6133 58.28 32.9067 58.7067V58.88L31.1467 58.72L31.1333 58.7067ZM30.5867 54.16C31.3333 54.2267 31.76 53.88 31.8133 53.3067C31.8667 52.72 31.5067 52.3333 30.76 52.2667L28.5467 52.0667L28.3733 53.9733L30.5867 54.1733V54.16Z" fill="#154734"/>
<path d="M33.8 51.1067L36.6933 50.3067C39.2133 49.6133 41 50.7867 41.6267 53.04C42.2133 55.1467 41.2533 57.12 38.7867 57.8L35.8667 58.6L33.8 51.1067ZM36.9467 56.88L38.3867 56.48C40.04 56.0267 40.5333 54.7333 40.1733 53.4267C39.76 51.9467 38.68 51.16 37.0267 51.6133L35.6 52L36.9467 56.8667V56.88Z" fill="#154734"/>
<path d="M40.8533 48.72L42.1467 47.96L46.0667 54.6667L44.7733 55.4267L40.8533 48.72Z" fill="#154734"/>
<path d="M49.5733 52.1733L48.5333 53.24L42.9733 47.8133L44.7733 45.96L51.84 48.36L47.0267 43.6533L48.08 42.5867L53.64 48.0133L51.84 49.8667L44.7733 47.4667L49.5867 52.1733H49.5733Z" fill="#154734"/>
<path d="M56.9467 41.76C56.16 43.8133 54.0667 44.7867 51.84 43.9333C49.72 43.12 48.7333 40.8667 49.5333 38.7733C50.3067 36.76 51.8533 36.0533 53.4 36.2267L53.3067 37.76C52.12 37.5733 51.24 38.16 50.8267 39.24C50.3333 40.5333 50.92 41.9333 52.3733 42.4933C53.8267 43.0533 55.1733 42.4933 55.6933 41.1333C56.16 39.9067 55.4933 39 54.9867 38.6933L53.8667 41.6267L52.6533 41.16L54.4533 36.4533L58.28 37.92L57.8133 39.1333L56.3067 38.56C57.1067 39.36 57.4267 40.44 56.92 41.76H56.9467Z" fill="#154734"/>
</g>
</g>
<defs>
<clipPath id="clip0_1_482787">
<rect width="64" height="64" fill="white"/>
</clipPath>
<clipPath id="clip1_1_482787">
<rect width="64" height="64" fill="white"/>
</clipPath>
</defs>
</svg>
