<svg width="16" height="16" viewBox="0 0 16 16" fill="none" xmlns="http://www.w3.org/2000/svg">
<path d="M7.43728 8.88879C7.43728 9.22447 7.1841 9.49104 6.86528 9.49104C6.54646 9.49104 6.29327 9.22447 6.29327 8.88879C6.29327 8.5531 6.54646 8.28653 6.86528 8.28653C7.1841 8.28653 7.43728 8.5531 7.43728 8.88879Z" fill="#010101"/>
<path d="M10.5886 8.88879C10.5886 9.22447 10.3355 9.49104 10.0166 9.49104C9.69782 9.49104 9.44464 9.22447 9.44464 8.88879C9.44464 8.5531 9.69782 8.28653 10.0166 8.28653C10.3355 8.28653 10.5886 8.5531 10.5886 8.88879Z" fill="#010101"/>
<path d="M10.2045 10.893C10.2045 10.7844 10.1201 10.6956 10.0169 10.6956C9.9138 10.6956 9.82941 10.7844 9.82941 10.893C9.82941 11.0017 9.9138 11.0905 10.0169 11.0905C10.1201 11.0905 10.2045 11.0017 10.2045 10.893Z" fill="#010101"/>
<path d="M9.53843 11.2485C9.43528 11.2485 9.35089 11.3374 9.35089 11.446C9.35089 11.5546 9.43528 11.6435 9.53843 11.6435C9.64158 11.6435 9.72597 11.5546 9.72597 11.446C9.72597 11.3374 9.64158 11.2485 9.53843 11.2485Z" fill="#010101"/>
<path d="M10.2035 11.3372C10.1003 11.3372 10.0159 11.4261 10.0159 11.5347C10.0159 11.6433 10.1003 11.7322 10.2035 11.7322C10.3066 11.7322 10.391 11.6433 10.391 11.5347C10.391 11.4261 10.3066 11.3372 10.2035 11.3372Z" fill="#010101"/>
<path d="M6.848 10.6857C6.74486 10.6857 6.66046 10.7746 6.66046 10.8832C6.66046 10.9918 6.74486 11.0806 6.848 11.0806C6.95115 11.0806 7.03555 10.9918 7.03555 10.8832C7.03555 10.7746 6.95115 10.6857 6.848 10.6857Z" fill="#010101"/>
<path d="M7.11847 11.4556C7.11847 11.5642 7.20286 11.6531 7.30601 11.6531C7.40916 11.6531 7.49355 11.5642 7.49355 11.4556C7.49355 11.347 7.40916 11.2582 7.30601 11.2582C7.20286 11.2582 7.11847 11.347 7.11847 11.4556Z" fill="#010101"/>
<path d="M6.65074 11.3372C6.54759 11.3372 6.4632 11.4261 6.4632 11.5347C6.4632 11.6433 6.54759 11.7322 6.65074 11.7322C6.75389 11.7322 6.83828 11.6433 6.83828 11.5347C6.83828 11.4261 6.75389 11.3372 6.65074 11.3372Z" fill="#010101"/>
<path d="M9.05152 12.8381C8.92024 12.7591 8.79834 12.6604 8.71395 12.5616C8.54516 12.3839 8.46077 12.2161 8.46077 12.2161C8.46077 12.2161 8.37637 12.3839 8.20759 12.5616C8.11382 12.6604 8.00129 12.7591 7.87001 12.8381L7.41991 13.0158C7.30739 13.0454 7.19486 13.0553 7.07296 13.0553H6.96043C6.96043 13.0553 6.90417 13.0553 6.87604 13.0553C6.54784 13.0355 6.22902 12.8973 5.99459 12.6604C5.73203 12.4037 5.52574 12.0976 5.3382 11.7718C5.51636 11.6731 5.54449 11.6829 5.69453 11.5645C5.86331 11.8903 6.01335 12.0877 6.27591 12.3444C6.44469 12.5123 6.66974 12.611 6.91355 12.6308C6.9323 12.6308 6.95106 12.6308 6.96981 12.6308H7.08234C7.20424 12.6308 7.31676 12.611 7.42929 12.5814C7.61683 12.5221 7.79499 12.4135 7.92627 12.2655C7.99191 12.1963 8.04818 12.1174 8.09506 12.0384C8.14195 11.9495 8.18883 11.8607 8.21696 11.7619C8.25447 11.6533 8.26385 11.5447 8.27323 11.4262C7.66371 11.2485 7.23237 10.3106 7.23237 9.88604C7.23237 9.7182 7.29801 9.62934 7.36365 9.57998C7.51368 9.4615 7.70122 9.52074 7.9169 9.57998C8.08568 9.62934 8.2826 9.68858 8.47952 9.68858C8.68582 9.68858 8.87336 9.62934 9.04215 9.57998C9.25782 9.51087 9.44536 9.4615 9.5954 9.57998C9.65166 9.62934 9.72668 9.7182 9.72668 9.88604C9.72668 10.3106 9.29533 11.2485 8.68582 11.4262C8.68582 11.5348 8.70457 11.6533 8.74208 11.7619C8.77021 11.8607 8.80772 11.9495 8.86398 12.0384C8.91087 12.1174 8.96713 12.1963 9.03277 12.2655C9.17343 12.4135 9.34221 12.5221 9.52976 12.5814C9.64228 12.6209 9.76418 12.6308 9.87671 12.6308H9.98923C9.98923 12.6308 10.0267 12.6308 10.0455 12.6308C10.2799 12.6209 10.505 12.5123 10.6831 12.3444C10.9832 12.0482 11.2176 11.7027 11.3958 11.3176C11.5083 11.4065 11.6115 11.5052 11.7052 11.6237C11.5083 12.0088 11.2739 12.3642 10.9645 12.6604C10.7206 12.8973 10.4112 13.0355 10.083 13.0553C10.0549 13.0553 10.0267 13.0553 9.99861 13.0553H9.88609C9.77356 13.0553 9.65166 13.0454 9.53913 13.0158L9.08903 12.8381" fill="#010101"/>
<path d="M13.3642 10.182C13.3642 12.8379 11.1419 15.0001 8.39438 15.0001C5.64689 15.0001 3.4339 12.8379 3.4339 10.182C3.4339 8.97753 3.89338 7.88163 4.64354 7.04242L4.69981 4.72225C4.69981 4.56428 4.84046 4.47542 4.94361 4.5544L6.48145 5.73917C7.07221 5.50222 7.70985 5.37387 8.385 5.37387C9.19143 5.37387 9.9416 5.56146 10.6074 5.88727L12.1452 4.78148C12.2296 4.72225 12.3421 4.80123 12.3421 4.91971V7.28924C12.9798 8.08896 13.3455 9.09601 13.3455 10.182H13.3642Z" stroke="#010101" stroke-width="0.75" stroke-miterlimit="10"/>
<path d="M6.84645 10.893L3.13312 10.7252" stroke="#010101" stroke-width="0.5" stroke-miterlimit="10" stroke-linecap="round"/>
<path d="M13.6642 11.0509L9.96027 10.8929" stroke="#010101" stroke-width="0.5" stroke-miterlimit="10" stroke-linecap="round"/>
<path d="M6.65024 11.5445L3.4339 12.591" stroke="#010101" stroke-width="0.5" stroke-miterlimit="10" stroke-linecap="round"/>
<path d="M10.2034 11.5445L13.4198 12.591" stroke="#010101" stroke-width="0.5" stroke-miterlimit="10" stroke-linecap="round"/>
<path d="M15.3333 5.14669L8.32862 1L1.33331 5.14669" stroke="#010101" stroke-width="0.75" stroke-miterlimit="10" stroke-linecap="round"/>
</svg>
