<svg width="65" height="64" viewBox="0 0 65 64" fill="none" xmlns="http://www.w3.org/2000/svg">
<g clip-path="url(#clip0_1_482816)">
<g clip-path="url(#clip1_1_482816)">
<path d="M32.3333 64C50.0064 64 64.3333 49.6731 64.3333 32C64.3333 14.3269 50.0064 0 32.3333 0C14.6602 0 0.333313 14.3269 0.333313 32C0.333313 49.6731 14.6602 64 32.3333 64Z" fill="#F4E0F7"/>
<path d="M40.12 38.9333C39.7866 38.9333 39.52 39.1867 39.5066 39.52C39.4666 41.2667 38.0266 42.6933 36.2666 42.6933C34.7866 42.6933 33.5066 41.6933 33.1333 40.2533C33.0666 40.0133 33.04 39.76 33.04 39.52C33.04 39.5067 33.04 39.4933 33.04 39.48V38.88C33.2666 38.8 33.4533 38.6667 33.6 38.5067L35.5733 36.2933C35.8666 35.96 35.9466 35.5333 35.76 35.1467C35.5466 34.68 35.0133 34.3733 34.4133 34.3733H30.4666C29.8533 34.3733 29.3333 34.68 29.12 35.1467C28.9466 35.5333 29.0133 35.96 29.3066 36.2933L31.28 38.5067C31.4266 38.6667 31.6266 38.8 31.84 38.88V39.48C31.84 39.48 31.84 39.5067 31.84 39.52C31.84 39.7733 31.8 40.0133 31.7466 40.2533C31.3733 41.6933 30.08 42.6933 28.6133 42.6933C26.8666 42.6933 25.4133 41.2667 25.3733 39.52C25.3733 39.1867 25.0933 38.92 24.76 38.9333C24.4266 38.9333 24.1733 39.2133 24.1733 39.5467C24.2266 41.9333 26.2 43.88 28.6 43.88C30.2133 43.88 31.6533 43.0133 32.44 41.6667C33.2133 43.0133 34.6666 43.88 36.28 43.88C38.68 43.88 40.6666 41.9333 40.7066 39.5467C40.7066 39.2133 40.4533 38.9467 40.12 38.9333ZM32.44 37.7867C32.3066 37.7867 32.2 37.7467 32.1733 37.7067L30.28 35.5867C30.28 35.5867 30.3866 35.56 30.4666 35.56H34.4133C34.4933 35.56 34.56 35.5733 34.6 35.5867L32.7066 37.7067C32.7066 37.7067 32.56 37.7867 32.44 37.7867Z" fill="#154734"/>
<path d="M39.0133 28.4533C40.2133 28.4533 41.1866 29.4267 41.1866 30.6267C41.1866 31.8267 40.2133 29.4533 39.0133 29.4533C37.8133 29.4533 36.84 31.8267 36.84 30.6267C36.84 29.4267 37.8133 28.4533 39.0133 28.4533Z" fill="#154734"/>
<path d="M26.36 27.9733C27.56 27.9733 28.5333 28.9467 28.5333 30.1467C28.5333 31.3467 27.56 28.9733 26.36 28.9733C25.16 28.9733 24.1866 31.3467 24.1866 30.1467C24.1866 28.9467 25.16 27.9733 26.36 27.9733Z" fill="#154734"/>
<path d="M36.6 41.3333C36.8577 41.3333 37.0666 41.1244 37.0666 40.8667C37.0666 40.6089 36.8577 40.4 36.6 40.4C36.3422 40.4 36.1333 40.6089 36.1333 40.8667C36.1333 41.1244 36.3422 41.3333 36.6 41.3333Z" fill="#154734"/>
<path d="M37.7867 39.6267C38.0444 39.6267 38.2533 39.4177 38.2533 39.16C38.2533 38.9023 38.0444 38.6933 37.7867 38.6933C37.5289 38.6933 37.32 38.9023 37.32 39.16C37.32 39.4177 37.5289 39.6267 37.7867 39.6267Z" fill="#154734"/>
<path d="M35.4 39.6267C35.6577 39.6267 35.8667 39.4177 35.8667 39.16C35.8667 38.9023 35.6577 38.6933 35.4 38.6933C35.1423 38.6933 34.9333 38.9023 34.9333 39.16C34.9333 39.4177 35.1423 39.6267 35.4 39.6267Z" fill="#154734"/>
<path d="M28.2933 41.3333C28.5511 41.3333 28.76 41.1244 28.76 40.8667C28.76 40.6089 28.5511 40.4 28.2933 40.4C28.0356 40.4 27.8267 40.6089 27.8267 40.8667C27.8267 41.1244 28.0356 41.3333 28.2933 41.3333Z" fill="#154734"/>
<path d="M29.4933 39.6267C29.751 39.6267 29.96 39.4177 29.96 39.16C29.96 38.9023 29.751 38.6933 29.4933 38.6933C29.2356 38.6933 29.0266 38.9023 29.0266 39.16C29.0266 39.4177 29.2356 39.6267 29.4933 39.6267Z" fill="#154734"/>
<path d="M27.1067 39.6267C27.3644 39.6267 27.5733 39.4177 27.5733 39.16C27.5733 38.9023 27.3644 38.6933 27.1067 38.6933C26.8489 38.6933 26.64 38.9023 26.64 39.16C26.64 39.4177 26.8489 39.6267 27.1067 39.6267Z" fill="#154734"/>
<path d="M22.5866 34.5067C22.5066 34.5067 22.4133 34.4933 22.3333 34.4533L17.12 31.9867C16.8266 31.84 16.6933 31.4933 16.84 31.1867C16.9866 30.8933 17.3333 30.76 17.64 30.9067L22.8533 33.3733C23.1466 33.52 23.28 33.8667 23.1333 34.1733C23.0266 34.3867 22.8133 34.52 22.5866 34.52V34.5067Z" fill="#154734"/>
<path d="M22.3867 36.7067C22.3867 36.7067 22.36 36.7067 22.3333 36.7067L16.5867 36.2533C16.2533 36.2267 16.0133 35.9333 16.04 35.6133C16.0667 35.28 16.3467 35.0267 16.68 35.0667L22.4267 35.52C22.76 35.5467 23 35.84 22.9733 36.16C22.9467 36.48 22.6933 36.7067 22.3733 36.7067H22.3867Z" fill="#154734"/>
<path d="M16.72 40.2533C16.4533 40.2533 16.2 40.0667 16.1333 39.8C16.0533 39.48 16.2533 39.16 16.5733 39.08L22.1733 37.72C22.4933 37.64 22.8133 37.84 22.8933 38.16C22.9733 38.48 22.7733 38.8 22.4533 38.88L16.8533 40.24C16.8533 40.24 16.76 40.2533 16.7067 40.2533H16.72Z" fill="#154734"/>
<path d="M41.9733 34.5067C41.7467 34.5067 41.5333 34.3867 41.4267 34.16C41.28 33.8667 41.4133 33.5067 41.7067 33.36L46.92 30.8933C47.2133 30.7467 47.5733 30.8933 47.72 31.1733C47.8667 31.4667 47.7333 31.8267 47.44 31.9733L42.2267 34.44C42.1467 34.48 42.0533 34.4933 41.9733 34.4933V34.5067Z" fill="#154734"/>
<path d="M42.1734 36.7067C41.8667 36.7067 41.6 36.4667 41.5734 36.16C41.5467 35.8267 41.7867 35.5467 42.12 35.52L47.8667 35.0667C48.2 35.04 48.48 35.2934 48.5067 35.6134C48.5334 35.9467 48.2934 36.2267 47.96 36.2534L42.2134 36.7067C42.2134 36.7067 42.1867 36.7067 42.16 36.7067H42.1734Z" fill="#154734"/>
<path d="M47.8534 40.2533C47.8534 40.2533 47.76 40.2533 47.7067 40.24L42.1067 38.88C41.7867 38.8 41.5867 38.48 41.6667 38.16C41.7467 37.84 42.0667 37.64 42.3867 37.72L47.9867 39.08C48.3067 39.16 48.5067 39.48 48.4267 39.8C48.36 40.08 48.12 40.2533 47.84 40.2533H47.8534Z" fill="#154734"/>
<path d="M44.16 26.24C43.9066 26.24 43.68 26.0533 43.64 25.7867L43 21.1067C42.9733 20.92 42.8533 20.8133 42.7866 20.7733C42.72 20.7333 42.5733 20.6667 42.3866 20.7333L37.2266 22.5733C36.96 22.6667 36.6533 22.5333 36.56 22.2533C36.4666 21.9733 36.6 21.68 36.88 21.5867L42.04 19.7467C42.4666 19.5867 42.9466 19.64 43.3333 19.88C43.72 20.12 43.9866 20.5067 44.04 20.96L44.68 25.64C44.72 25.92 44.52 26.1867 44.2266 26.2267C44.2 26.2267 44.1733 26.2267 44.16 26.2267V26.24Z" fill="#154734"/>
<path d="M19.9866 26.24C19.9866 26.24 19.9333 26.24 19.92 26.24C19.64 26.2 19.44 25.9333 19.4666 25.6533L20.1066 20.9733C20.1733 20.52 20.4266 20.12 20.8133 19.8933C21.2 19.6533 21.68 19.6 22.1066 19.76L27.2666 21.6C27.5333 21.6933 27.68 22 27.5866 22.2667C27.4933 22.5333 27.1866 22.68 26.92 22.5867L21.76 20.7467C21.5733 20.68 21.4266 20.7467 21.36 20.7867C21.2933 20.8267 21.1733 20.9333 21.1466 21.12L20.5066 25.8C20.4666 26.0667 20.2533 26.2533 19.9866 26.2533V26.24Z" fill="#154734"/>
<path d="M20.96 11.9867C21.6266 13.5067 23.0133 13.96 24.2933 13.4C25.7066 12.7867 26.04 11.5067 25.76 10.2667L27.2266 10.2133C27.5866 12.0533 26.8267 13.7867 24.8267 14.6533C22.5733 15.64 20.4666 14.68 19.5466 12.6C18.6266 10.52 19.5066 8.25333 21.6133 7.33333C23.52 6.49333 25.0933 7.14666 25.9466 8.26666L24.9333 9.37333C24.2933 8.46666 23.28 8.07999 22.1467 8.57333C20.88 9.13333 20.2933 10.4933 20.9466 11.9867H20.96Z" fill="#154734"/>
<path d="M30.9333 5.24L33.0533 5.2L36.3067 12.92L34.6533 12.9467L33.9467 11.2L30.24 11.2667L29.6 13.04L27.9333 13.0667L30.9333 5.24ZM33.4133 9.86666L32.0133 6.41333L30.7333 9.90666L33.4133 9.86666Z" fill="#154734"/>
<path d="M43.5733 8.97333L40.9733 8.12L38.9866 14.1733L37.56 13.7067L39.5466 7.65333L36.9333 6.8L37.36 5.48L44 7.65333L43.5733 8.97333Z" fill="#154734"/>
<path d="M13.4666 35.4133L14.76 39.0133C15.2533 40.4 14.8133 41.64 13.7066 42.04C12.9466 42.32 12.2266 42.1067 11.64 41.4667C11.72 42.4 11.32 43.2 10.4133 43.52C9.18664 43.96 8.03997 43.2267 7.50664 41.7733L6.15997 38.04L13.4666 35.4133ZM8.81331 41.32C9.03997 41.9467 9.54664 42.24 10.08 42.04C10.5866 41.8533 10.8533 41.32 10.6266 40.6667L9.78664 38.32L7.98664 38.9733L8.82664 41.32H8.81331ZM11.8133 40.0133C12.0533 40.6933 12.4933 40.92 13.0133 40.7333C13.52 40.56 13.64 40.04 13.4266 39.4267L12.6533 37.2933L11.04 37.8667L11.8133 40.0133Z" fill="#154734"/>
<path d="M12.56 44.04C14.2266 42.5733 16.7466 42.7467 18.2533 44.4533C19.76 46.16 19.6133 48.68 17.9466 50.1467C16.28 51.6133 13.76 51.44 12.2533 49.7333C10.7466 48.0267 10.88 45.4933 12.5466 44.0267L12.56 44.04ZM16.9466 49.0133C18.1333 47.9733 18.1333 46.44 17.2 45.3867C16.2533 44.32 14.7466 44.1467 13.5733 45.1867C12.3866 46.2267 12.4 47.76 13.3333 48.8C14.2666 49.84 15.7733 50.0533 16.9466 49.0133Z" fill="#154734"/>
<path d="M22.92 48.4267L24.8133 49.3733L24.1067 57.7067L22.6267 56.96L22.8133 55.0933L19.5067 53.4267L18.12 54.6933L16.64 53.9467L22.92 48.4133V48.4267ZM22.9733 53.6667L23.3333 49.96L20.5867 52.4667L22.9733 53.6667Z" fill="#154734"/>
<path d="M31.4666 58.7067C31.32 58.3067 31.28 57.9333 31.3733 56.92C31.4666 55.96 31.0133 55.5733 30.24 55.4933L28.5866 55.3467L28.3066 58.4133L26.8133 58.28L27.52 50.5467L31.3066 50.8933C32.9333 51.04 33.76 52.0933 33.6533 53.3067C33.5733 54.2533 32.8933 54.96 31.9466 55.2133C32.5866 55.4933 33.04 56.0933 32.9866 57.0533C32.96 57.76 32.9466 58.28 33.24 58.7067V58.88L31.48 58.72L31.4666 58.7067ZM30.92 54.16C31.6666 54.2267 32.0933 53.88 32.1466 53.3067C32.2 52.72 31.84 52.3333 31.0933 52.2667L28.88 52.0667L28.7066 53.9733L30.92 54.1733V54.16Z" fill="#154734"/>
<path d="M34.1333 51.1067L37.0266 50.3067C39.5466 49.6133 41.3333 50.7867 41.96 53.04C42.5466 55.1467 41.5866 57.12 39.12 57.8L36.2 58.6L34.1333 51.1067ZM37.28 56.88L38.72 56.48C40.3733 56.0267 40.8666 54.7333 40.5066 53.4267C40.0933 51.9467 39.0133 51.16 37.36 51.6133L35.9333 52L37.28 56.8667V56.88Z" fill="#154734"/>
<path d="M41.1866 48.72L42.48 47.96L46.4 54.6667L45.1066 55.4267L41.1866 48.72Z" fill="#154734"/>
<path d="M49.9066 52.1733L48.8666 53.24L43.3066 47.8133L45.1066 45.96L52.1733 48.36L47.36 43.6533L48.4133 42.5867L53.9733 48.0133L52.1733 49.8667L45.1066 47.4667L49.92 52.1733H49.9066Z" fill="#154734"/>
<path d="M57.28 41.76C56.4933 43.8133 54.4 44.7867 52.1733 43.9333C50.0533 43.12 49.0666 40.8667 49.8666 38.7733C50.64 36.76 52.1866 36.0533 53.7333 36.2267L53.64 37.76C52.4533 37.5733 51.5733 38.16 51.16 39.24C50.6666 40.5333 51.2533 41.9333 52.7066 42.4933C54.16 43.0533 55.5066 42.4933 56.0266 41.1333C56.4933 39.9067 55.8266 39 55.32 38.6933L54.2 41.6267L52.9866 41.16L54.7866 36.4533L58.6133 37.92L58.1466 39.1333L56.64 38.56C57.44 39.36 57.76 40.44 57.2533 41.76H57.28Z" fill="#154734"/>
</g>
</g>
<defs>
<clipPath id="clip0_1_482816">
<rect width="64" height="64" fill="white" transform="translate(0.333313)"/>
</clipPath>
<clipPath id="clip1_1_482816">
<rect width="64" height="64" fill="white" transform="translate(0.333313)"/>
</clipPath>
</defs>
</svg>
