<svg width="16" height="16" viewBox="0 0 16 16" fill="none" xmlns="http://www.w3.org/2000/svg">
<path d="M6.77062 8.88879C6.77062 9.22447 6.51744 9.49104 6.19862 9.49104C5.8798 9.49104 5.62662 9.22447 5.62662 8.88879C5.62662 8.5531 5.8798 8.28653 6.19862 8.28653C6.51744 8.28653 6.77062 8.5531 6.77062 8.88879Z" fill="#010101"/>
<path d="M9.92199 8.88879C9.92199 9.22447 9.66881 9.49104 9.34999 9.49104C9.03117 9.49104 8.77798 9.22447 8.77798 8.88879C8.77798 8.5531 9.03117 8.28653 9.34999 8.28653C9.66881 8.28653 9.92199 8.5531 9.92199 8.88879Z" fill="#010101"/>
<path d="M9.53783 10.8931C9.53783 10.7845 9.45344 10.6956 9.35029 10.6956C9.24714 10.6956 9.16275 10.7845 9.16275 10.8931C9.16275 11.0017 9.24714 11.0905 9.35029 11.0905C9.45344 11.0905 9.53783 11.0017 9.53783 10.8931Z" fill="#010101"/>
<path d="M8.87178 11.2486C8.76863 11.2486 8.68423 11.3374 8.68423 11.446C8.68423 11.5546 8.76863 11.6435 8.87178 11.6435C8.97492 11.6435 9.05932 11.5546 9.05932 11.446C9.05932 11.3374 8.97492 11.2486 8.87178 11.2486Z" fill="#010101"/>
<path d="M9.53682 11.3372C9.43367 11.3372 9.34927 11.4261 9.34927 11.5347C9.34927 11.6433 9.43367 11.7322 9.53682 11.7322C9.63996 11.7322 9.72436 11.6433 9.72436 11.5347C9.72436 11.4261 9.63996 11.3372 9.53682 11.3372Z" fill="#010101"/>
<path d="M6.18135 10.6857C6.0782 10.6857 5.9938 10.7746 5.9938 10.8832C5.9938 10.9918 6.0782 11.0806 6.18135 11.0806C6.2845 11.0806 6.36889 10.9918 6.36889 10.8832C6.36889 10.7746 6.2845 10.6857 6.18135 10.6857Z" fill="#010101"/>
<path d="M6.45181 11.4557C6.45181 11.5643 6.53621 11.6531 6.63935 11.6531C6.7425 11.6531 6.8269 11.5643 6.8269 11.4557C6.8269 11.3471 6.7425 11.2582 6.63935 11.2582C6.53621 11.2582 6.45181 11.3471 6.45181 11.4557Z" fill="#010101"/>
<path d="M5.98408 11.3372C5.88093 11.3372 5.79654 11.4261 5.79654 11.5347C5.79654 11.6433 5.88093 11.7322 5.98408 11.7322C6.08723 11.7322 6.17162 11.6433 6.17162 11.5347C6.17162 11.4261 6.08723 11.3372 5.98408 11.3372Z" fill="#010101"/>
<path d="M8.38487 12.8381C8.25359 12.7591 8.13169 12.6604 8.04729 12.5617C7.8785 12.3839 7.79411 12.2161 7.79411 12.2161C7.79411 12.2161 7.70972 12.3839 7.54093 12.5617C7.44716 12.6604 7.33463 12.7591 7.20335 12.8381L6.75325 13.0158C6.64073 13.0454 6.5282 13.0553 6.4063 13.0553H6.29378C6.29378 13.0553 6.23751 13.0553 6.20938 13.0553C5.88118 13.0356 5.56236 12.8973 5.32794 12.6604C5.06538 12.4037 4.85908 12.0976 4.67154 11.7718C4.8497 11.6731 4.87784 11.683 5.02787 11.5645C5.19666 11.8903 5.34669 12.0878 5.60925 12.3445C5.77804 12.5123 6.00309 12.611 6.24689 12.6308C6.26564 12.6308 6.2844 12.6308 6.30315 12.6308H6.41568C6.53758 12.6308 6.65011 12.611 6.76263 12.5814C6.95017 12.5222 7.12834 12.4136 7.25962 12.2655C7.32526 12.1964 7.38152 12.1174 7.4284 12.0384C7.47529 11.9495 7.52218 11.8607 7.55031 11.7619C7.58781 11.6533 7.59719 11.5447 7.60657 11.4263C6.99706 11.2485 6.56571 10.3106 6.56571 9.88606C6.56571 9.71822 6.63135 9.62936 6.69699 9.57999C6.84702 9.46152 7.03457 9.52075 7.25024 9.57999C7.41903 9.62936 7.61595 9.6886 7.81287 9.6886C8.01916 9.6886 8.2067 9.62936 8.37549 9.57999C8.59116 9.51088 8.77871 9.46152 8.92874 9.57999C8.985 9.62936 9.06002 9.71822 9.06002 9.88606C9.06002 10.3106 8.62867 11.2485 8.01916 11.4263C8.01916 11.5349 8.03792 11.6533 8.07542 11.7619C8.10355 11.8607 8.14106 11.9495 8.19733 12.0384C8.24421 12.1174 8.30047 12.1964 8.36611 12.2655C8.50677 12.4136 8.67556 12.5222 8.8631 12.5814C8.97562 12.6209 9.09753 12.6308 9.21005 12.6308H9.32258C9.32258 12.6308 9.36009 12.6308 9.37884 12.6308C9.61327 12.6209 9.83832 12.5123 10.0165 12.3445C10.3165 12.0483 10.551 11.7027 10.7291 11.3177C10.8417 11.4065 10.9448 11.5052 11.0386 11.6237C10.8417 12.0088 10.6072 12.3642 10.2978 12.6604C10.054 12.8973 9.74455 13.0356 9.41635 13.0553C9.38822 13.0553 9.36009 13.0553 9.33195 13.0553H9.21943C9.1069 13.0553 8.985 13.0454 8.87248 13.0158L8.42238 12.8381" fill="#010101"/>
<path d="M12.6976 10.182C12.6976 12.8379 10.4752 15.0001 7.72772 15.0001C4.98024 15.0001 2.76724 12.8379 2.76724 10.182C2.76724 8.97753 3.22672 7.88163 3.97689 7.04242L4.03315 4.72225C4.03315 4.56428 4.17381 4.47542 4.27695 4.5544L5.8148 5.73917C6.40555 5.50222 7.0432 5.37387 7.71835 5.37387C8.52478 5.37387 9.27495 5.56146 9.94072 5.88727L11.4786 4.78148C11.563 4.72225 11.6755 4.80123 11.6755 4.91971V7.28924C12.3131 8.08896 12.6788 9.09601 12.6788 10.182H12.6976Z" stroke="#010101" stroke-width="0.75" stroke-miterlimit="10"/>
<path d="M6.17979 10.893L2.46646 10.7252" stroke="#010101" stroke-width="0.5" stroke-miterlimit="10" stroke-linecap="round"/>
<path d="M12.9976 11.0509L9.29361 10.8929" stroke="#010101" stroke-width="0.5" stroke-miterlimit="10" stroke-linecap="round"/>
<path d="M5.98359 11.5444L2.76724 12.591" stroke="#010101" stroke-width="0.5" stroke-miterlimit="10" stroke-linecap="round"/>
<path d="M9.53677 11.5444L12.7531 12.591" stroke="#010101" stroke-width="0.5" stroke-miterlimit="10" stroke-linecap="round"/>
<path d="M14.6667 5.14669L7.66197 1L0.666656 5.14669" stroke="#010101" stroke-width="0.75" stroke-miterlimit="10" stroke-linecap="round"/>
</svg>
