<svg width="65" height="64" viewBox="0 0 65 64" fill="none" xmlns="http://www.w3.org/2000/svg">
<g clip-path="url(#clip0_1_482580)">
<g clip-path="url(#clip1_1_482580)">
<path d="M32.6667 64C50.3398 64 64.6667 49.6731 64.6667 32C64.6667 14.3269 50.3398 0 32.6667 0C14.9935 0 0.666656 14.3269 0.666656 32C0.666656 49.6731 14.9935 64 32.6667 64Z" fill="#F4E0F7"/>
<path d="M40.4533 38.9334C40.12 38.9334 39.8533 39.1867 39.84 39.52C39.8 41.2667 38.36 42.6934 36.6 42.6934C35.12 42.6934 33.84 41.6934 33.4667 40.2534C33.4 40.0134 33.3733 39.76 33.3733 39.52C33.3733 39.5067 33.3733 39.4934 33.3733 39.48V38.88C33.6 38.8 33.7867 38.6667 33.9333 38.5067L35.9067 36.2934C36.2 35.96 36.28 35.5334 36.0933 35.1467C35.88 34.68 35.3467 34.3734 34.7467 34.3734H30.8C30.1867 34.3734 29.6667 34.68 29.4533 35.1467C29.28 35.5334 29.3467 35.96 29.64 36.2934L31.6133 38.5067C31.76 38.6667 31.96 38.8 32.1733 38.88V39.48C32.1733 39.48 32.1733 39.5067 32.1733 39.52C32.1733 39.7733 32.1333 40.0134 32.08 40.2534C31.7067 41.6934 30.4133 42.6934 28.9467 42.6934C27.2 42.6934 25.7467 41.2667 25.7067 39.52C25.7067 39.1867 25.4267 38.92 25.0933 38.9334C24.76 38.9334 24.5067 39.2134 24.5067 39.5467C24.56 41.9334 26.5333 43.88 28.9333 43.88C30.5467 43.88 31.9867 43.0134 32.7733 41.6667C33.5467 43.0134 35 43.88 36.6133 43.88C39.0133 43.88 41 41.9334 41.04 39.5467C41.04 39.2134 40.7867 38.9467 40.4533 38.9334ZM32.7733 37.7867C32.64 37.7867 32.5333 37.7467 32.5067 37.7067L30.6133 35.5867C30.6133 35.5867 30.72 35.56 30.8 35.56H34.7467C34.8267 35.56 34.8933 35.5734 34.9333 35.5867L33.04 37.7067C33.04 37.7067 32.8933 37.7867 32.7733 37.7867Z" fill="#154734"/>
<path d="M39.3467 28.4533C40.5467 28.4533 41.52 29.4267 41.52 30.6267C41.52 31.8267 40.5467 29.4533 39.3467 29.4533C38.1467 29.4533 37.1733 31.8267 37.1733 30.6267C37.1733 29.4267 38.1467 28.4533 39.3467 28.4533Z" fill="#154734"/>
<path d="M26.6933 27.9733C27.8933 27.9733 28.8667 28.9467 28.8667 30.1467C28.8667 31.3467 27.8933 28.9733 26.6933 28.9733C25.4933 28.9733 24.52 31.3467 24.52 30.1467C24.52 28.9467 25.4933 27.9733 26.6933 27.9733Z" fill="#154734"/>
<path d="M36.9333 41.3333C37.1911 41.3333 37.4 41.1244 37.4 40.8667C37.4 40.6089 37.1911 40.4 36.9333 40.4C36.6756 40.4 36.4667 40.6089 36.4667 40.8667C36.4667 41.1244 36.6756 41.3333 36.9333 41.3333Z" fill="#154734"/>
<path d="M38.12 39.6267C38.3777 39.6267 38.5867 39.4177 38.5867 39.16C38.5867 38.9023 38.3777 38.6933 38.12 38.6933C37.8623 38.6933 37.6533 38.9023 37.6533 39.16C37.6533 39.4177 37.8623 39.6267 38.12 39.6267Z" fill="#154734"/>
<path d="M35.7333 39.6267C35.9911 39.6267 36.2 39.4177 36.2 39.16C36.2 38.9023 35.9911 38.6933 35.7333 38.6933C35.4756 38.6933 35.2667 38.9023 35.2667 39.16C35.2667 39.4177 35.4756 39.6267 35.7333 39.6267Z" fill="#154734"/>
<path d="M28.6267 41.3333C28.8844 41.3333 29.0933 41.1244 29.0933 40.8667C29.0933 40.6089 28.8844 40.4 28.6267 40.4C28.3689 40.4 28.16 40.6089 28.16 40.8667C28.16 41.1244 28.3689 41.3333 28.6267 41.3333Z" fill="#154734"/>
<path d="M29.8267 39.6267C30.0844 39.6267 30.2933 39.4177 30.2933 39.16C30.2933 38.9023 30.0844 38.6933 29.8267 38.6933C29.5689 38.6933 29.36 38.9023 29.36 39.16C29.36 39.4177 29.5689 39.6267 29.8267 39.6267Z" fill="#154734"/>
<path d="M27.44 39.6267C27.6977 39.6267 27.9067 39.4177 27.9067 39.16C27.9067 38.9023 27.6977 38.6933 27.44 38.6933C27.1823 38.6933 26.9733 38.9023 26.9733 39.16C26.9733 39.4177 27.1823 39.6267 27.44 39.6267Z" fill="#154734"/>
<path d="M22.92 34.5067C22.84 34.5067 22.7467 34.4933 22.6667 34.4533L17.4533 31.9867C17.16 31.84 17.0267 31.4933 17.1733 31.1867C17.32 30.8933 17.6667 30.76 17.9733 30.9067L23.1867 33.3733C23.48 33.52 23.6133 33.8667 23.4667 34.1733C23.36 34.3867 23.1467 34.52 22.92 34.52V34.5067Z" fill="#154734"/>
<path d="M22.72 36.7067C22.72 36.7067 22.6933 36.7067 22.6667 36.7067L16.92 36.2533C16.5867 36.2267 16.3467 35.9333 16.3733 35.6133C16.4 35.28 16.68 35.0267 17.0133 35.0667L22.76 35.52C23.0933 35.5467 23.3333 35.84 23.3067 36.16C23.28 36.48 23.0267 36.7067 22.7067 36.7067H22.72Z" fill="#154734"/>
<path d="M17.0533 40.2533C16.7867 40.2533 16.5333 40.0667 16.4667 39.8C16.3867 39.48 16.5867 39.16 16.9067 39.08L22.5067 37.72C22.8267 37.64 23.1467 37.84 23.2267 38.16C23.3067 38.48 23.1067 38.8 22.7867 38.88L17.1867 40.24C17.1867 40.24 17.0933 40.2533 17.04 40.2533H17.0533Z" fill="#154734"/>
<path d="M42.3067 34.5067C42.08 34.5067 41.8667 34.3867 41.76 34.16C41.6133 33.8667 41.7467 33.5067 42.04 33.36L47.2533 30.8933C47.5467 30.7467 47.9067 30.8933 48.0533 31.1733C48.2 31.4667 48.0667 31.8267 47.7733 31.9733L42.56 34.44C42.48 34.48 42.3867 34.4933 42.3067 34.4933V34.5067Z" fill="#154734"/>
<path d="M42.5067 36.7067C42.2 36.7067 41.9333 36.4667 41.9067 36.16C41.88 35.8267 42.12 35.5467 42.4533 35.52L48.2 35.0667C48.5333 35.04 48.8133 35.2933 48.84 35.6133C48.8667 35.9467 48.6267 36.2267 48.2933 36.2533L42.5467 36.7067C42.5467 36.7067 42.52 36.7067 42.4933 36.7067H42.5067Z" fill="#154734"/>
<path d="M48.1867 40.2533C48.1867 40.2533 48.0933 40.2533 48.04 40.24L42.44 38.88C42.12 38.8 41.92 38.48 42 38.16C42.08 37.84 42.4 37.64 42.72 37.72L48.32 39.08C48.64 39.16 48.84 39.48 48.76 39.8C48.6933 40.08 48.4533 40.2533 48.1733 40.2533H48.1867Z" fill="#154734"/>
<path d="M44.4933 26.24C44.24 26.24 44.0133 26.0533 43.9733 25.7867L43.3333 21.1067C43.3067 20.92 43.1867 20.8133 43.12 20.7733C43.0533 20.7333 42.9067 20.6667 42.72 20.7333L37.56 22.5733C37.2933 22.6667 36.9867 22.5333 36.8933 22.2533C36.8 21.9733 36.9333 21.68 37.2133 21.5867L42.3733 19.7467C42.8 19.5867 43.28 19.64 43.6667 19.88C44.0533 20.12 44.32 20.5067 44.3733 20.96L45.0133 25.64C45.0533 25.92 44.8533 26.1867 44.56 26.2267C44.5333 26.2267 44.5066 26.2267 44.4933 26.2267V26.24Z" fill="#154734"/>
<path d="M20.32 26.24C20.32 26.24 20.2667 26.24 20.2533 26.24C19.9733 26.2 19.7733 25.9333 19.8 25.6533L20.44 20.9733C20.5067 20.52 20.76 20.12 21.1467 19.8933C21.5333 19.6533 22.0133 19.6 22.44 19.76L27.6 21.6C27.8667 21.6933 28.0133 22 27.92 22.2667C27.8267 22.5333 27.52 22.68 27.2533 22.5867L22.0933 20.7467C21.9067 20.68 21.76 20.7467 21.6933 20.7867C21.6267 20.8267 21.5067 20.9333 21.48 21.12L20.84 25.8C20.8 26.0667 20.5867 26.2533 20.32 26.2533V26.24Z" fill="#154734"/>
<path d="M21.2933 11.9867C21.96 13.5067 23.3467 13.96 24.6267 13.4C26.04 12.7867 26.3733 11.5067 26.0933 10.2667L27.56 10.2133C27.92 12.0533 27.16 13.7867 25.16 14.6533C22.9067 15.64 20.8 14.68 19.88 12.6C18.96 10.52 19.84 8.25333 21.9467 7.33333C23.8533 6.49333 25.4267 7.14666 26.28 8.26666L25.2667 9.37333C24.6267 8.46666 23.6133 8.07999 22.48 8.57333C21.2133 9.13333 20.6267 10.4933 21.28 11.9867H21.2933Z" fill="#154734"/>
<path d="M31.2667 5.24L33.3867 5.2L36.64 12.92L34.9867 12.9467L34.28 11.2L30.5733 11.2667L29.9333 13.04L28.2667 13.0667L31.2667 5.24ZM33.7467 9.86666L32.3467 6.41333L31.0667 9.90666L33.7467 9.86666Z" fill="#154734"/>
<path d="M43.9067 8.97333L41.3067 8.12L39.32 14.1733L37.8933 13.7067L39.88 7.65333L37.2667 6.8L37.6933 5.48L44.3333 7.65333L43.9067 8.97333Z" fill="#154734"/>
<path d="M13.8 35.4133L15.0933 39.0133C15.5867 40.4 15.1467 41.64 14.04 42.04C13.28 42.32 12.56 42.1067 11.9733 41.4667C12.0533 42.4 11.6533 43.2 10.7467 43.52C9.51999 43.96 8.37332 43.2267 7.83999 41.7733L6.49332 38.04L13.8 35.4133ZM9.14666 41.32C9.37332 41.9467 9.87999 42.24 10.4133 42.04C10.92 41.8533 11.1867 41.32 10.96 40.6667L10.12 38.32L8.31999 38.9733L9.15999 41.32H9.14666ZM12.1467 40.0133C12.3867 40.6933 12.8267 40.92 13.3467 40.7333C13.8533 40.56 13.9733 40.04 13.76 39.4267L12.9867 37.2933L11.3733 37.8667L12.1467 40.0133Z" fill="#154734"/>
<path d="M12.8933 44.04C14.56 42.5733 17.08 42.7467 18.5867 44.4533C20.0933 46.16 19.9467 48.68 18.28 50.1467C16.6133 51.6133 14.0933 51.44 12.5867 49.7333C11.08 48.0267 11.2133 45.4933 12.88 44.0267L12.8933 44.04ZM17.28 49.0133C18.4667 47.9733 18.4667 46.44 17.5333 45.3867C16.5867 44.32 15.08 44.1467 13.9067 45.1867C12.72 46.2267 12.7333 47.76 13.6667 48.8C14.6 49.84 16.1067 50.0533 17.28 49.0133Z" fill="#154734"/>
<path d="M23.2533 48.4267L25.1467 49.3733L24.44 57.7067L22.96 56.96L23.1467 55.0933L19.84 53.4267L18.4533 54.6933L16.9733 53.9467L23.2533 48.4133V48.4267ZM23.3067 53.6667L23.6667 49.96L20.92 52.4667L23.3067 53.6667Z" fill="#154734"/>
<path d="M31.8 58.7067C31.6533 58.3067 31.6133 57.9333 31.7067 56.92C31.8 55.96 31.3467 55.5733 30.5733 55.4933L28.92 55.3467L28.64 58.4133L27.1467 58.28L27.8533 50.5467L31.64 50.8933C33.2667 51.04 34.0933 52.0933 33.9867 53.3067C33.9067 54.2533 33.2267 54.96 32.28 55.2133C32.92 55.4933 33.3733 56.0933 33.32 57.0533C33.2933 57.76 33.28 58.28 33.5733 58.7067V58.88L31.8133 58.72L31.8 58.7067ZM31.2533 54.16C32 54.2267 32.4267 53.88 32.48 53.3067C32.5333 52.72 32.1733 52.3333 31.4267 52.2667L29.2133 52.0667L29.04 53.9733L31.2533 54.1733V54.16Z" fill="#154734"/>
<path d="M34.4667 51.1067L37.36 50.3067C39.88 49.6133 41.6667 50.7867 42.2933 53.04C42.88 55.1467 41.92 57.12 39.4533 57.8L36.5333 58.6L34.4667 51.1067ZM37.6133 56.88L39.0533 56.48C40.7067 56.0267 41.2 54.7333 40.84 53.4267C40.4267 51.9467 39.3467 51.16 37.6933 51.6133L36.2667 52L37.6133 56.8667V56.88Z" fill="#154734"/>
<path d="M41.52 48.72L42.8133 47.96L46.7333 54.6667L45.44 55.4267L41.52 48.72Z" fill="#154734"/>
<path d="M50.24 52.1733L49.2 53.24L43.64 47.8133L45.44 45.96L52.5067 48.36L47.6933 43.6533L48.7467 42.5867L54.3067 48.0133L52.5067 49.8667L45.44 47.4667L50.2533 52.1733H50.24Z" fill="#154734"/>
<path d="M57.6133 41.76C56.8267 43.8133 54.7333 44.7867 52.5067 43.9333C50.3867 43.12 49.4 40.8667 50.2 38.7733C50.9733 36.76 52.52 36.0533 54.0667 36.2267L53.9733 37.76C52.7867 37.5733 51.9067 38.16 51.4933 39.24C51 40.5333 51.5867 41.9333 53.04 42.4933C54.4933 43.0533 55.84 42.4933 56.36 41.1333C56.8267 39.9067 56.16 39 55.6533 38.6933L54.5333 41.6267L53.32 41.16L55.12 36.4533L58.9467 37.92L58.48 39.1333L56.9733 38.56C57.7733 39.36 58.0933 40.44 57.5867 41.76H57.6133Z" fill="#154734"/>
</g>
</g>
<defs>
<clipPath id="clip0_1_482580">
<rect width="64" height="64" fill="white" transform="translate(0.666656)"/>
</clipPath>
<clipPath id="clip1_1_482580">
<rect width="64" height="64" fill="white" transform="translate(0.666656)"/>
</clipPath>
</defs>
</svg>
