<svg width="16" height="16" viewBox="0 0 16 16" fill="none" xmlns="http://www.w3.org/2000/svg">
<path d="M7.10397 8.88879C7.10397 9.22447 6.85078 9.49104 6.53196 9.49104C6.21314 9.49104 5.95996 9.22447 5.95996 8.88879C5.95996 8.5531 6.21314 8.28653 6.53196 8.28653C6.85078 8.28653 7.10397 8.5531 7.10397 8.88879Z" fill="#010101"/>
<path d="M10.2553 8.88879C10.2553 9.22447 10.0022 9.49104 9.68333 9.49104C9.36451 9.49104 9.11133 9.22447 9.11133 8.88879C9.11133 8.5531 9.36451 8.28653 9.68333 8.28653C10.0022 8.28653 10.2553 8.5531 10.2553 8.88879Z" fill="#010101"/>
<path d="M9.87118 10.893C9.87118 10.7844 9.78678 10.6956 9.68364 10.6956C9.58049 10.6956 9.49609 10.7844 9.49609 10.893C9.49609 11.0017 9.58049 11.0905 9.68364 11.0905C9.78678 11.0905 9.87118 11.0017 9.87118 10.893Z" fill="#010101"/>
<path d="M9.20512 11.2485C9.10197 11.2485 9.01758 11.3374 9.01758 11.446C9.01758 11.5546 9.10197 11.6435 9.20512 11.6435C9.30827 11.6435 9.39266 11.5546 9.39266 11.446C9.39266 11.3374 9.30827 11.2485 9.20512 11.2485Z" fill="#010101"/>
<path d="M9.87016 11.3372C9.76701 11.3372 9.68262 11.4261 9.68262 11.5347C9.68262 11.6433 9.76701 11.7322 9.87016 11.7322C9.97331 11.7322 10.0577 11.6433 10.0577 11.5347C10.0577 11.4261 9.97331 11.3372 9.87016 11.3372Z" fill="#010101"/>
<path d="M6.51469 10.6857C6.41154 10.6857 6.32715 10.7746 6.32715 10.8832C6.32715 10.9918 6.41154 11.0806 6.51469 11.0806C6.61784 11.0806 6.70223 10.9918 6.70223 10.8832C6.70223 10.7746 6.61784 10.6857 6.51469 10.6857Z" fill="#010101"/>
<path d="M6.78516 11.4556C6.78516 11.5642 6.86955 11.6531 6.9727 11.6531C7.07585 11.6531 7.16024 11.5642 7.16024 11.4556C7.16024 11.347 7.07585 11.2582 6.9727 11.2582C6.86955 11.2582 6.78516 11.347 6.78516 11.4556Z" fill="#010101"/>
<path d="M6.31742 11.3372C6.21428 11.3372 6.12988 11.4261 6.12988 11.5347C6.12988 11.6433 6.21428 11.7322 6.31742 11.7322C6.42057 11.7322 6.50497 11.6433 6.50497 11.5347C6.50497 11.4261 6.42057 11.3372 6.31742 11.3372Z" fill="#010101"/>
<path d="M8.71821 12.8381C8.58693 12.7591 8.46503 12.6604 8.38064 12.5616C8.21185 12.3839 8.12745 12.2161 8.12745 12.2161C8.12745 12.2161 8.04306 12.3839 7.87427 12.5616C7.7805 12.6604 7.66798 12.7591 7.5367 12.8381L7.0866 13.0158C6.97407 13.0454 6.86155 13.0553 6.73964 13.0553H6.62712C6.62712 13.0553 6.57086 13.0553 6.54273 13.0553C6.21453 13.0355 5.89571 12.8973 5.66128 12.6604C5.39872 12.4037 5.19242 12.0976 5.00488 11.7718C5.18305 11.6731 5.21118 11.6829 5.36121 11.5645C5.53 11.8903 5.68003 12.0877 5.94259 12.3444C6.11138 12.5123 6.33643 12.611 6.58023 12.6308C6.59899 12.6308 6.61774 12.6308 6.6365 12.6308H6.74902C6.87092 12.6308 6.98345 12.611 7.09597 12.5814C7.28352 12.5221 7.46168 12.4135 7.59296 12.2655C7.6586 12.1963 7.71486 12.1174 7.76175 12.0384C7.80863 11.9495 7.85552 11.8607 7.88365 11.7619C7.92116 11.6533 7.93054 11.5447 7.93991 11.4262C7.3304 11.2485 6.89906 10.3106 6.89906 9.88604C6.89906 9.7182 6.9647 9.62934 7.03033 9.57998C7.18037 9.4615 7.36791 9.52074 7.58358 9.57998C7.75237 9.62934 7.94929 9.68858 8.14621 9.68858C8.3525 9.68858 8.54005 9.62934 8.70883 9.57998C8.92451 9.51087 9.11205 9.4615 9.26208 9.57998C9.31834 9.62934 9.39336 9.7182 9.39336 9.88604C9.39336 10.3106 8.96202 11.2485 8.35251 11.4262C8.35251 11.5348 8.37126 11.6533 8.40877 11.7619C8.4369 11.8607 8.47441 11.9495 8.53067 12.0384C8.57755 12.1174 8.63382 12.1963 8.69946 12.2655C8.84011 12.4135 9.0089 12.5221 9.19644 12.5814C9.30897 12.6209 9.43087 12.6308 9.5434 12.6308H9.65592C9.65592 12.6308 9.69343 12.6308 9.71218 12.6308C9.94661 12.6209 10.1717 12.5123 10.3498 12.3444C10.6499 12.0482 10.8843 11.7027 11.0625 11.3176C11.175 11.4065 11.2782 11.5052 11.3719 11.6237C11.175 12.0088 10.9406 12.3642 10.6311 12.6604C10.3873 12.8973 10.0779 13.0355 9.74969 13.0553C9.72156 13.0553 9.69343 13.0553 9.6653 13.0553H9.55277C9.44025 13.0553 9.31835 13.0454 9.20582 13.0158L8.75572 12.8381" fill="#010101"/>
<path d="M13.0309 10.182C13.0309 12.8379 10.8086 15.0001 8.06107 15.0001C5.31358 15.0001 3.10059 12.8379 3.10059 10.182C3.10059 8.97753 3.56006 7.88163 4.31023 7.04242L4.36649 4.72225C4.36649 4.56428 4.50715 4.47542 4.6103 4.5544L6.14814 5.73917C6.7389 5.50222 7.37654 5.37387 8.05169 5.37387C8.85812 5.37387 9.60829 5.56146 10.2741 5.88727L11.8119 4.78148C11.8963 4.72225 12.0088 4.80123 12.0088 4.91971V7.28924C12.6465 8.08896 13.0122 9.09601 13.0122 10.182H13.0309Z" stroke="#010101" stroke-width="0.75" stroke-miterlimit="10"/>
<path d="M6.51313 10.893L2.7998 10.7252" stroke="#010101" stroke-width="0.5" stroke-miterlimit="10" stroke-linecap="round"/>
<path d="M13.3309 11.0509L9.62695 10.8929" stroke="#010101" stroke-width="0.5" stroke-miterlimit="10" stroke-linecap="round"/>
<path d="M6.31693 11.5445L3.10059 12.591" stroke="#010101" stroke-width="0.5" stroke-miterlimit="10" stroke-linecap="round"/>
<path d="M9.87012 11.5445L13.0865 12.591" stroke="#010101" stroke-width="0.5" stroke-miterlimit="10" stroke-linecap="round"/>
<path d="M15 5.14669L7.99531 1L1 5.14669" stroke="#010101" stroke-width="0.75" stroke-miterlimit="10" stroke-linecap="round"/>
</svg>
