<svg width="11" height="10" viewBox="0 0 11 10" fill="none" xmlns="http://www.w3.org/2000/svg">
<mask id="path-1-inside-1_1_997307" fill="white">
<path fill-rule="evenodd" clip-rule="evenodd" d="M3.5038 1.02876C3.53282 0.999657 3.56731 0.976568 3.60527 0.960814C3.64324 0.94506 3.68394 0.936951 3.72505 0.936951C3.76615 0.936951 3.80685 0.94506 3.84482 0.960814C3.88278 0.976568 3.91727 0.999657 3.9463 1.02876L7.6963 4.77876C7.7254 4.80779 7.74849 4.84227 7.76424 4.88024C7.77999 4.9182 7.7881 4.95891 7.7881 5.00001C7.7881 5.04111 7.77999 5.08181 7.76424 5.11978C7.74849 5.15775 7.7254 5.19223 7.6963 5.22126L3.9463 8.97126C3.88762 9.02994 3.80803 9.0629 3.72505 9.0629C3.64206 9.0629 3.56247 9.02994 3.5038 8.97126C3.44512 8.91258 3.41215 8.83299 3.41215 8.75001C3.41215 8.66703 3.44512 8.58744 3.5038 8.52876L7.03317 5.00001L3.5038 1.47126C3.47469 1.44223 3.4516 1.40775 3.43585 1.36978C3.4201 1.33181 3.41199 1.29111 3.41199 1.25001C3.41199 1.2089 3.4201 1.1682 3.43585 1.13024C3.4516 1.09227 3.47469 1.05779 3.5038 1.02876V1.02876Z"/>
</mask>
<path fill-rule="evenodd" clip-rule="evenodd" d="M3.5038 1.02876C3.53282 0.999657 3.56731 0.976568 3.60527 0.960814C3.64324 0.94506 3.68394 0.936951 3.72505 0.936951C3.76615 0.936951 3.80685 0.94506 3.84482 0.960814C3.88278 0.976568 3.91727 0.999657 3.9463 1.02876L7.6963 4.77876C7.7254 4.80779 7.74849 4.84227 7.76424 4.88024C7.77999 4.9182 7.7881 4.95891 7.7881 5.00001C7.7881 5.04111 7.77999 5.08181 7.76424 5.11978C7.74849 5.15775 7.7254 5.19223 7.6963 5.22126L3.9463 8.97126C3.88762 9.02994 3.80803 9.0629 3.72505 9.0629C3.64206 9.0629 3.56247 9.02994 3.5038 8.97126C3.44512 8.91258 3.41215 8.83299 3.41215 8.75001C3.41215 8.66703 3.44512 8.58744 3.5038 8.52876L7.03317 5.00001L3.5038 1.47126C3.47469 1.44223 3.4516 1.40775 3.43585 1.36978C3.4201 1.33181 3.41199 1.29111 3.41199 1.25001C3.41199 1.2089 3.4201 1.1682 3.43585 1.13024C3.4516 1.09227 3.47469 1.05779 3.5038 1.02876V1.02876Z" fill="#1F2937"/>
<path d="M3.9463 1.02876L3.2383 1.73497L3.23919 1.73587L3.9463 1.02876ZM7.6963 4.77876L6.98919 5.48587L6.99008 5.48676L7.6963 4.77876ZM7.6963 5.22126L6.99008 4.51326L6.98919 4.51415L7.6963 5.22126ZM3.9463 8.97126L3.23919 8.26415L3.9463 8.97126ZM3.5038 8.52876L2.79675 7.82159L2.79669 7.82165L3.5038 8.52876ZM7.03317 5.00001L7.74021 5.70718L8.44751 5.00001L7.74021 4.29284L7.03317 5.00001ZM3.5038 1.47126L4.21084 0.76409L4.21001 0.76326L3.5038 1.47126ZM4.2118 1.73497C4.14793 1.799 4.07207 1.84979 3.98854 1.88445L3.22201 0.0371765C3.06255 0.103344 2.91772 0.200319 2.7958 0.322547L4.2118 1.73497ZM3.98854 1.88445C3.90502 1.91911 3.81548 1.93695 3.72505 1.93695V-0.0630493C3.55241 -0.0630493 3.38146 -0.0289903 3.22201 0.0371765L3.98854 1.88445ZM3.72505 1.93695C3.63462 1.93695 3.54507 1.91911 3.46155 1.88445L4.22808 0.0371765C4.06863 -0.0289903 3.89769 -0.0630493 3.72505 -0.0630493V1.93695ZM3.46155 1.88445C3.37802 1.84979 3.30216 1.799 3.2383 1.73497L4.6543 0.322547C4.53238 0.200319 4.38754 0.103344 4.22808 0.0371765L3.46155 1.88445ZM3.23919 1.73587L6.98919 5.48587L8.4034 4.07165L4.6534 0.321653L3.23919 1.73587ZM6.99008 5.48676C6.92605 5.42289 6.87526 5.34703 6.8406 5.26351L8.68788 4.49697C8.62171 4.33752 8.52474 4.19268 8.40251 4.07076L6.99008 5.48676ZM6.8406 5.26351C6.80594 5.17998 6.7881 5.09044 6.7881 5.00001H8.7881C8.7881 4.82737 8.75404 4.65643 8.68788 4.49697L6.8406 5.26351ZM6.7881 5.00001C6.7881 4.90958 6.80594 4.82004 6.8406 4.73651L8.68788 5.50305C8.75404 5.34359 8.7881 5.17265 8.7881 5.00001H6.7881ZM6.8406 4.73651C6.87526 4.65299 6.92605 4.57713 6.99008 4.51326L8.40251 5.92926C8.52474 5.80734 8.62171 5.6625 8.68788 5.50305L6.8406 4.73651ZM6.98919 4.51415L3.23919 8.26415L4.6534 9.67837L8.4034 5.92837L6.98919 4.51415ZM3.23919 8.26415C3.36805 8.13529 3.54282 8.0629 3.72505 8.0629V10.0629C4.07325 10.0629 4.40719 9.92458 4.6534 9.67837L3.23919 8.26415ZM3.72505 8.0629C3.90728 8.0629 4.08204 8.13529 4.2109 8.26415L2.79669 9.67837C3.04291 9.92458 3.37685 10.0629 3.72505 10.0629V8.0629ZM4.2109 8.26415C4.33976 8.39301 4.41215 8.56778 4.41215 8.75001H2.41215C2.41215 9.09821 2.55047 9.43215 2.79669 9.67837L4.2109 8.26415ZM4.41215 8.75001C4.41215 8.93224 4.33976 9.10701 4.2109 9.23587L2.79669 7.82165C2.55047 8.06787 2.41215 8.40181 2.41215 8.75001H4.41215ZM4.21084 9.23593L7.74021 5.70718L6.32613 4.29284L2.79675 7.82159L4.21084 9.23593ZM7.74021 4.29284L4.21084 0.76409L2.79675 2.17843L6.32613 5.70718L7.74021 4.29284ZM4.21001 0.76326C4.27403 0.827121 4.32483 0.902988 4.35949 0.986513L2.51221 1.75305C2.57838 1.9125 2.67536 2.05734 2.79758 2.17926L4.21001 0.76326ZM4.35949 0.986513C4.39415 1.07004 4.41199 1.15958 4.41199 1.25001H2.41199C2.41199 1.42264 2.44604 1.59359 2.51221 1.75305L4.35949 0.986513ZM4.41199 1.25001C4.41199 1.34044 4.39415 1.42998 4.35949 1.51351L2.51221 0.746971C2.44604 0.906431 2.41199 1.07737 2.41199 1.25001H4.41199ZM4.35949 1.51351C4.32483 1.59703 4.27403 1.6729 4.21001 1.73676L2.79758 0.320759C2.67536 0.442679 2.57838 0.587514 2.51221 0.746971L4.35949 1.51351Z" fill="#1F2937" mask="url(#path-1-inside-1_1_997307)"/>
</svg>
