<svg width="11" height="10" viewBox="0 0 11 10" fill="none" xmlns="http://www.w3.org/2000/svg">
<mask id="path-1-inside-1_1_997332" fill="white">
<path fill-rule="evenodd" clip-rule="evenodd" d="M3.10377 1.02876C3.1328 0.999657 3.16728 0.976568 3.20525 0.960814C3.24322 0.94506 3.28392 0.936951 3.32502 0.936951C3.36613 0.936951 3.40683 0.94506 3.44479 0.960814C3.48276 0.976568 3.51724 0.999657 3.54627 1.02876L7.29627 4.77876C7.32537 4.80779 7.34846 4.84227 7.36422 4.88024C7.37997 4.9182 7.38808 4.95891 7.38808 5.00001C7.38808 5.04111 7.37997 5.08181 7.36422 5.11978C7.34846 5.15775 7.32537 5.19223 7.29627 5.22126L3.54627 8.97126C3.48759 9.02994 3.40801 9.0629 3.32502 9.0629C3.24204 9.0629 3.16245 9.02994 3.10377 8.97126C3.04509 8.91258 3.01213 8.83299 3.01213 8.75001C3.01213 8.66703 3.04509 8.58744 3.10377 8.52876L6.63315 5.00001L3.10377 1.47126C3.07467 1.44223 3.05158 1.40775 3.03583 1.36978C3.02007 1.33181 3.01196 1.29111 3.01196 1.25001C3.01196 1.2089 3.02007 1.1682 3.03583 1.13024C3.05158 1.09227 3.07467 1.05779 3.10377 1.02876V1.02876Z"/>
</mask>
<path fill-rule="evenodd" clip-rule="evenodd" d="M3.10377 1.02876C3.1328 0.999657 3.16728 0.976568 3.20525 0.960814C3.24322 0.94506 3.28392 0.936951 3.32502 0.936951C3.36613 0.936951 3.40683 0.94506 3.44479 0.960814C3.48276 0.976568 3.51724 0.999657 3.54627 1.02876L7.29627 4.77876C7.32537 4.80779 7.34846 4.84227 7.36422 4.88024C7.37997 4.9182 7.38808 4.95891 7.38808 5.00001C7.38808 5.04111 7.37997 5.08181 7.36422 5.11978C7.34846 5.15775 7.32537 5.19223 7.29627 5.22126L3.54627 8.97126C3.48759 9.02994 3.40801 9.0629 3.32502 9.0629C3.24204 9.0629 3.16245 9.02994 3.10377 8.97126C3.04509 8.91258 3.01213 8.83299 3.01213 8.75001C3.01213 8.66703 3.04509 8.58744 3.10377 8.52876L6.63315 5.00001L3.10377 1.47126C3.07467 1.44223 3.05158 1.40775 3.03583 1.36978C3.02007 1.33181 3.01196 1.29111 3.01196 1.25001C3.01196 1.2089 3.02007 1.1682 3.03583 1.13024C3.05158 1.09227 3.07467 1.05779 3.10377 1.02876V1.02876Z" fill="#1F2937"/>
<path d="M3.54627 1.02876L2.83827 1.73497L2.83916 1.73587L3.54627 1.02876ZM7.29627 4.77876L6.58916 5.48587L6.59006 5.48676L7.29627 4.77876ZM7.29627 5.22126L6.59006 4.51326L6.58916 4.51415L7.29627 5.22126ZM3.54627 8.97126L2.83916 8.26415L3.54627 8.97126ZM3.10377 8.52876L2.39673 7.82159L2.39666 7.82165L3.10377 8.52876ZM6.63315 5.00001L7.34019 5.70718L8.04748 5.00001L7.34019 4.29284L6.63315 5.00001ZM3.10377 1.47126L3.81082 0.76409L3.80998 0.76326L3.10377 1.47126ZM3.81177 1.73497C3.74791 1.799 3.67204 1.84979 3.58852 1.88445L2.82198 0.0371765C2.66253 0.103344 2.51769 0.200319 2.39577 0.322547L3.81177 1.73497ZM3.58852 1.88445C3.50499 1.91911 3.41545 1.93695 3.32502 1.93695V-0.0630493C3.15238 -0.0630493 2.98144 -0.0289903 2.82198 0.0371765L3.58852 1.88445ZM3.32502 1.93695C3.23459 1.93695 3.14505 1.91911 3.06153 1.88445L3.82806 0.0371765C3.6686 -0.0289903 3.49766 -0.0630493 3.32502 -0.0630493V1.93695ZM3.06153 1.88445C2.978 1.84979 2.90213 1.799 2.83827 1.73497L4.25427 0.322547C4.13235 0.200319 3.98752 0.103344 3.82806 0.0371765L3.06153 1.88445ZM2.83916 1.73587L6.58916 5.48587L8.00338 4.07165L4.25338 0.321653L2.83916 1.73587ZM6.59006 5.48676C6.52603 5.42289 6.47524 5.34703 6.44058 5.26351L8.28785 4.49697C8.22169 4.33752 8.12472 4.19268 8.00248 4.07076L6.59006 5.48676ZM6.44058 5.26351C6.40592 5.17998 6.38808 5.09044 6.38808 5.00001H8.38808C8.38808 4.82737 8.35402 4.65643 8.28785 4.49697L6.44058 5.26351ZM6.38808 5.00001C6.38808 4.90958 6.40592 4.82004 6.44058 4.73651L8.28785 5.50305C8.35402 5.34359 8.38808 5.17265 8.38808 5.00001H6.38808ZM6.44058 4.73651C6.47524 4.65299 6.52603 4.57713 6.59006 4.51326L8.00248 5.92926C8.12472 5.80734 8.22169 5.6625 8.28785 5.50305L6.44058 4.73651ZM6.58916 4.51415L2.83916 8.26415L4.25338 9.67837L8.00338 5.92837L6.58916 4.51415ZM2.83916 8.26415C2.96802 8.13529 3.14279 8.0629 3.32502 8.0629V10.0629C3.67322 10.0629 4.00716 9.92458 4.25338 9.67837L2.83916 8.26415ZM3.32502 8.0629C3.50725 8.0629 3.68202 8.13529 3.81088 8.26415L2.39666 9.67837C2.64288 9.92458 2.97682 10.0629 3.32502 10.0629V8.0629ZM3.81088 8.26415C3.93974 8.39301 4.01213 8.56778 4.01213 8.75001H2.01213C2.01213 9.09821 2.15045 9.43215 2.39666 9.67837L3.81088 8.26415ZM4.01213 8.75001C4.01213 8.93224 3.93974 9.10701 3.81088 9.23587L2.39666 7.82165C2.15045 8.06787 2.01213 8.40181 2.01213 8.75001H4.01213ZM3.81082 9.23593L7.34019 5.70718L5.9261 4.29284L2.39673 7.82159L3.81082 9.23593ZM7.34019 4.29284L3.81082 0.76409L2.39673 2.17843L5.9261 5.70718L7.34019 4.29284ZM3.80998 0.76326C3.87401 0.827121 3.9248 0.902988 3.95946 0.986513L2.11219 1.75305C2.17836 1.9125 2.27533 2.05734 2.39756 2.17926L3.80998 0.76326ZM3.95946 0.986513C3.99412 1.07004 4.01196 1.15958 4.01196 1.25001H2.01196C2.01196 1.42264 2.04602 1.59359 2.11219 1.75305L3.95946 0.986513ZM4.01196 1.25001C4.01196 1.34044 3.99412 1.42998 3.95946 1.51351L2.11219 0.746971C2.04602 0.906431 2.01196 1.07737 2.01196 1.25001H4.01196ZM3.95946 1.51351C3.9248 1.59703 3.87401 1.6729 3.80998 1.73676L2.39756 0.320759C2.27533 0.442679 2.17836 0.587514 2.11219 0.746971L3.95946 1.51351Z" fill="#1F2937" mask="url(#path-1-inside-1_1_997332)"/>
</svg>
