<svg width="11" height="10" viewBox="0 0 11 10" fill="none" xmlns="http://www.w3.org/2000/svg">
<mask id="path-1-inside-1_1_997257" fill="white">
<path fill-rule="evenodd" clip-rule="evenodd" d="M3.30377 1.02876C3.3328 0.999657 3.36728 0.976568 3.40525 0.960814C3.44321 0.94506 3.48391 0.936951 3.52502 0.936951C3.56612 0.936951 3.60682 0.94506 3.64479 0.960814C3.68276 0.976568 3.71724 0.999657 3.74627 1.02876L7.49627 4.77876C7.52537 4.80779 7.54846 4.84227 7.56421 4.88024C7.57997 4.9182 7.58808 4.95891 7.58808 5.00001C7.58808 5.04111 7.57997 5.08181 7.56421 5.11978C7.54846 5.15775 7.52537 5.19223 7.49627 5.22126L3.74627 8.97126C3.68759 9.02994 3.608 9.0629 3.52502 9.0629C3.44203 9.0629 3.36245 9.02994 3.30377 8.97126C3.24509 8.91258 3.21212 8.83299 3.21212 8.75001C3.21212 8.66703 3.24509 8.58744 3.30377 8.52876L6.83314 5.00001L3.30377 1.47126C3.27467 1.44223 3.25158 1.40775 3.23582 1.36978C3.22007 1.33181 3.21196 1.29111 3.21196 1.25001C3.21196 1.2089 3.22007 1.1682 3.23582 1.13024C3.25158 1.09227 3.27467 1.05779 3.30377 1.02876V1.02876Z"/>
</mask>
<path fill-rule="evenodd" clip-rule="evenodd" d="M3.30377 1.02876C3.3328 0.999657 3.36728 0.976568 3.40525 0.960814C3.44321 0.94506 3.48391 0.936951 3.52502 0.936951C3.56612 0.936951 3.60682 0.94506 3.64479 0.960814C3.68276 0.976568 3.71724 0.999657 3.74627 1.02876L7.49627 4.77876C7.52537 4.80779 7.54846 4.84227 7.56421 4.88024C7.57997 4.9182 7.58808 4.95891 7.58808 5.00001C7.58808 5.04111 7.57997 5.08181 7.56421 5.11978C7.54846 5.15775 7.52537 5.19223 7.49627 5.22126L3.74627 8.97126C3.68759 9.02994 3.608 9.0629 3.52502 9.0629C3.44203 9.0629 3.36245 9.02994 3.30377 8.97126C3.24509 8.91258 3.21212 8.83299 3.21212 8.75001C3.21212 8.66703 3.24509 8.58744 3.30377 8.52876L6.83314 5.00001L3.30377 1.47126C3.27467 1.44223 3.25158 1.40775 3.23582 1.36978C3.22007 1.33181 3.21196 1.29111 3.21196 1.25001C3.21196 1.2089 3.22007 1.1682 3.23582 1.13024C3.25158 1.09227 3.27467 1.05779 3.30377 1.02876V1.02876Z" fill="#1F2937"/>
<path d="M3.74627 1.02876L3.03827 1.73497L3.03916 1.73587L3.74627 1.02876ZM7.49627 4.77876L6.78916 5.48587L6.79006 5.48676L7.49627 4.77876ZM7.49627 5.22126L6.79005 4.51326L6.78916 4.51415L7.49627 5.22126ZM3.74627 8.97126L3.03916 8.26415L3.74627 8.97126ZM3.30377 8.52876L2.59672 7.82159L2.59666 7.82165L3.30377 8.52876ZM6.83314 5.00001L7.54019 5.70718L8.24748 5.00001L7.54019 4.29284L6.83314 5.00001ZM3.30377 1.47126L4.01081 0.76409L4.00998 0.76326L3.30377 1.47126ZM4.01177 1.73497C3.94791 1.799 3.87204 1.84979 3.78851 1.88445L3.02198 0.0371765C2.86252 0.103344 2.71769 0.200319 2.59577 0.322547L4.01177 1.73497ZM3.78851 1.88445C3.70499 1.91911 3.61545 1.93695 3.52502 1.93695V-0.0630493C3.35238 -0.0630493 3.18144 -0.0289903 3.02198 0.0371765L3.78851 1.88445ZM3.52502 1.93695C3.43459 1.93695 3.34505 1.91911 3.26152 1.88445L4.02806 0.0371765C3.8686 -0.0289903 3.69766 -0.0630493 3.52502 -0.0630493V1.93695ZM3.26152 1.88445C3.178 1.84979 3.10213 1.799 3.03827 1.73497L4.45427 0.322547C4.33235 0.200319 4.18751 0.103344 4.02806 0.0371765L3.26152 1.88445ZM3.03916 1.73587L6.78916 5.48587L8.20337 4.07165L4.45338 0.321653L3.03916 1.73587ZM6.79006 5.48676C6.72603 5.42289 6.67523 5.34703 6.64058 5.26351L8.48785 4.49697C8.42169 4.33752 8.32471 4.19268 8.20248 4.07076L6.79006 5.48676ZM6.64058 5.26351C6.60592 5.17998 6.58808 5.09044 6.58808 5.00001H8.58808C8.58808 4.82737 8.55402 4.65643 8.48785 4.49697L6.64058 5.26351ZM6.58808 5.00001C6.58808 4.90958 6.60592 4.82004 6.64058 4.73651L8.48785 5.50305C8.55402 5.34359 8.58808 5.17265 8.58808 5.00001H6.58808ZM6.64058 4.73651C6.67523 4.65299 6.72603 4.57713 6.79006 4.51326L8.20248 5.92926C8.32471 5.80734 8.42169 5.6625 8.48785 5.50305L6.64058 4.73651ZM6.78916 4.51415L3.03916 8.26415L4.45338 9.67837L8.20337 5.92837L6.78916 4.51415ZM3.03916 8.26415C3.16802 8.13529 3.34279 8.0629 3.52502 8.0629V10.0629C3.87322 10.0629 4.20716 9.92458 4.45338 9.67837L3.03916 8.26415ZM3.52502 8.0629C3.70725 8.0629 3.88202 8.13529 4.01088 8.26415L2.59666 9.67837C2.84288 9.92458 3.17682 10.0629 3.52502 10.0629V8.0629ZM4.01088 8.26415C4.13973 8.39301 4.21212 8.56778 4.21212 8.75001H2.21212C2.21212 9.09821 2.35045 9.43215 2.59666 9.67837L4.01088 8.26415ZM4.21212 8.75001C4.21212 8.93224 4.13973 9.10701 4.01088 9.23587L2.59666 7.82165C2.35045 8.06787 2.21212 8.40181 2.21212 8.75001H4.21212ZM4.01081 9.23593L7.54019 5.70718L6.1261 4.29284L2.59672 7.82159L4.01081 9.23593ZM7.54019 4.29284L4.01081 0.76409L2.59672 2.17843L6.1261 5.70718L7.54019 4.29284ZM4.00998 0.76326C4.074 0.827121 4.1248 0.902988 4.15946 0.986513L2.31219 1.75305C2.37835 1.9125 2.47533 2.05734 2.59756 2.17926L4.00998 0.76326ZM4.15946 0.986513C4.19412 1.07004 4.21196 1.15958 4.21196 1.25001H2.21196C2.21196 1.42264 2.24602 1.59359 2.31219 1.75305L4.15946 0.986513ZM4.21196 1.25001C4.21196 1.34044 4.19412 1.42998 4.15946 1.51351L2.31219 0.746971C2.24602 0.906431 2.21196 1.07737 2.21196 1.25001H4.21196ZM4.15946 1.51351C4.1248 1.59703 4.074 1.6729 4.00998 1.73676L2.59756 0.320759C2.47533 0.442679 2.37835 0.587514 2.31219 0.746971L4.15946 1.51351Z" fill="#1F2937" mask="url(#path-1-inside-1_1_997257)"/>
</svg>
