<svg width="10" height="10" viewBox="0 0 10 10" fill="none" xmlns="http://www.w3.org/2000/svg">
<mask id="path-1-inside-1_1_997157" fill="white">
<path fill-rule="evenodd" clip-rule="evenodd" d="M2.90374 1.02876C2.93277 0.999657 2.96726 0.976568 3.00522 0.960814C3.04319 0.94506 3.08389 0.936951 3.12499 0.936951C3.1661 0.936951 3.2068 0.94506 3.24476 0.960814C3.28273 0.976568 3.31722 0.999657 3.34624 1.02876L7.09624 4.77876C7.12535 4.80779 7.14843 4.84227 7.16419 4.88024C7.17994 4.9182 7.18805 4.95891 7.18805 5.00001C7.18805 5.04111 7.17994 5.08181 7.16419 5.11978C7.14843 5.15775 7.12535 5.19223 7.09624 5.22126L3.34624 8.97126C3.28756 9.02994 3.20798 9.0629 3.12499 9.0629C3.04201 9.0629 2.96242 9.02994 2.90374 8.97126C2.84506 8.91258 2.8121 8.83299 2.8121 8.75001C2.8121 8.66703 2.84506 8.58744 2.90374 8.52876L6.43312 5.00001L2.90374 1.47126C2.87464 1.44223 2.85155 1.40775 2.8358 1.36978C2.82004 1.33181 2.81194 1.29111 2.81194 1.25001C2.81194 1.2089 2.82004 1.1682 2.8358 1.13024C2.85155 1.09227 2.87464 1.05779 2.90374 1.02876V1.02876Z"/>
</mask>
<path fill-rule="evenodd" clip-rule="evenodd" d="M2.90374 1.02876C2.93277 0.999657 2.96726 0.976568 3.00522 0.960814C3.04319 0.94506 3.08389 0.936951 3.12499 0.936951C3.1661 0.936951 3.2068 0.94506 3.24476 0.960814C3.28273 0.976568 3.31722 0.999657 3.34624 1.02876L7.09624 4.77876C7.12535 4.80779 7.14843 4.84227 7.16419 4.88024C7.17994 4.9182 7.18805 4.95891 7.18805 5.00001C7.18805 5.04111 7.17994 5.08181 7.16419 5.11978C7.14843 5.15775 7.12535 5.19223 7.09624 5.22126L3.34624 8.97126C3.28756 9.02994 3.20798 9.0629 3.12499 9.0629C3.04201 9.0629 2.96242 9.02994 2.90374 8.97126C2.84506 8.91258 2.8121 8.83299 2.8121 8.75001C2.8121 8.66703 2.84506 8.58744 2.90374 8.52876L6.43312 5.00001L2.90374 1.47126C2.87464 1.44223 2.85155 1.40775 2.8358 1.36978C2.82004 1.33181 2.81194 1.29111 2.81194 1.25001C2.81194 1.2089 2.82004 1.1682 2.8358 1.13024C2.85155 1.09227 2.87464 1.05779 2.90374 1.02876V1.02876Z" fill="#1F2937"/>
<path d="M3.34624 1.02876L2.63824 1.73497L2.63914 1.73587L3.34624 1.02876ZM7.09624 4.77876L6.38914 5.48587L6.39003 5.48676L7.09624 4.77876ZM7.09624 5.22126L6.39003 4.51326L6.38914 4.51415L7.09624 5.22126ZM3.34624 8.97126L2.63914 8.26415L3.34624 8.97126ZM2.90374 8.52876L2.1967 7.82159L2.19664 7.82165L2.90374 8.52876ZM6.43312 5.00001L7.14016 5.70718L7.84746 5.00001L7.14016 4.29284L6.43312 5.00001ZM2.90374 1.47126L3.61079 0.76409L3.60996 0.76326L2.90374 1.47126ZM3.61174 1.73497C3.54788 1.799 3.47201 1.84979 3.38849 1.88445L2.62196 0.0371765C2.4625 0.103344 2.31766 0.200319 2.19574 0.322547L3.61174 1.73497ZM3.38849 1.88445C3.30497 1.91911 3.21542 1.93695 3.12499 1.93695V-0.0630493C2.95235 -0.0630493 2.78141 -0.0289903 2.62196 0.0371765L3.38849 1.88445ZM3.12499 1.93695C3.03456 1.93695 2.94502 1.91911 2.8615 1.88445L3.62803 0.0371765C3.46858 -0.0289903 3.29763 -0.0630493 3.12499 -0.0630493V1.93695ZM2.8615 1.88445C2.77797 1.84979 2.70211 1.799 2.63824 1.73497L4.05424 0.322547C3.93232 0.200319 3.78749 0.103344 3.62803 0.0371765L2.8615 1.88445ZM2.63914 1.73587L6.38914 5.48587L7.80335 4.07165L4.05335 0.321653L2.63914 1.73587ZM6.39003 5.48676C6.326 5.42289 6.27521 5.34703 6.24055 5.26351L8.08783 4.49697C8.02166 4.33752 7.92469 4.19268 7.80246 4.07076L6.39003 5.48676ZM6.24055 5.26351C6.20589 5.17998 6.18805 5.09044 6.18805 5.00001H8.18805C8.18805 4.82737 8.15399 4.65643 8.08783 4.49697L6.24055 5.26351ZM6.18805 5.00001C6.18805 4.90958 6.20589 4.82004 6.24055 4.73651L8.08783 5.50305C8.15399 5.34359 8.18805 5.17265 8.18805 5.00001H6.18805ZM6.24055 4.73651C6.27521 4.65299 6.326 4.57713 6.39003 4.51326L7.80246 5.92926C7.92469 5.80734 8.02166 5.6625 8.08783 5.50305L6.24055 4.73651ZM6.38914 4.51415L2.63914 8.26415L4.05335 9.67837L7.80335 5.92837L6.38914 4.51415ZM2.63914 8.26415C2.768 8.13529 2.94276 8.0629 3.12499 8.0629V10.0629C3.47319 10.0629 3.80713 9.92458 4.05335 9.67837L2.63914 8.26415ZM3.12499 8.0629C3.30722 8.0629 3.48199 8.13529 3.61085 8.26415L2.19664 9.67837C2.44285 9.92458 2.77679 10.0629 3.12499 10.0629V8.0629ZM3.61085 8.26415C3.73971 8.39301 3.8121 8.56778 3.8121 8.75001H1.8121C1.8121 9.09821 1.95042 9.43215 2.19664 9.67837L3.61085 8.26415ZM3.8121 8.75001C3.8121 8.93224 3.73971 9.10701 3.61085 9.23587L2.19664 7.82165C1.95042 8.06787 1.8121 8.40181 1.8121 8.75001H3.8121ZM3.61079 9.23593L7.14016 5.70718L5.72607 4.29284L2.1967 7.82159L3.61079 9.23593ZM7.14016 4.29284L3.61079 0.76409L2.1967 2.17843L5.72607 5.70718L7.14016 4.29284ZM3.60996 0.76326C3.67398 0.827121 3.72478 0.902988 3.75944 0.986513L1.91216 1.75305C1.97833 1.9125 2.0753 2.05734 2.19753 2.17926L3.60996 0.76326ZM3.75944 0.986513C3.7941 1.07004 3.81194 1.15958 3.81194 1.25001H1.81194C1.81194 1.42264 1.84599 1.59359 1.91216 1.75305L3.75944 0.986513ZM3.81194 1.25001C3.81194 1.34044 3.7941 1.42998 3.75944 1.51351L1.91216 0.746971C1.84599 0.906431 1.81194 1.07737 1.81194 1.25001H3.81194ZM3.75944 1.51351C3.72478 1.59703 3.67398 1.6729 3.60996 1.73676L2.19753 0.320759C2.0753 0.442679 1.97833 0.587514 1.91216 0.746971L3.75944 1.51351Z" fill="#1F2937" mask="url(#path-1-inside-1_1_997157)"/>
</svg>
