<svg width="10" height="10" viewBox="0 0 10 10" fill="none" xmlns="http://www.w3.org/2000/svg">
<mask id="path-1-inside-1_1_997132" fill="white">
<path fill-rule="evenodd" clip-rule="evenodd" d="M2.90376 1.02876C2.93279 0.999657 2.96727 0.976568 3.00524 0.960814C3.0432 0.94506 3.0839 0.936951 3.12501 0.936951C3.16611 0.936951 3.20681 0.94506 3.24478 0.960814C3.28275 0.976568 3.31723 0.999657 3.34626 1.02876L7.09626 4.77876C7.12536 4.80779 7.14845 4.84227 7.1642 4.88024C7.17996 4.9182 7.18807 4.95891 7.18807 5.00001C7.18807 5.04111 7.17996 5.08181 7.1642 5.11978C7.14845 5.15775 7.12536 5.19223 7.09626 5.22126L3.34626 8.97126C3.28758 9.02994 3.20799 9.0629 3.12501 9.0629C3.04202 9.0629 2.96244 9.02994 2.90376 8.97126C2.84508 8.91258 2.81211 8.83299 2.81211 8.75001C2.81211 8.66703 2.84508 8.58744 2.90376 8.52876L6.43313 5.00001L2.90376 1.47126C2.87466 1.44223 2.85157 1.40775 2.83581 1.36978C2.82006 1.33181 2.81195 1.29111 2.81195 1.25001C2.81195 1.2089 2.82006 1.1682 2.83581 1.13024C2.85157 1.09227 2.87466 1.05779 2.90376 1.02876V1.02876Z"/>
</mask>
<path fill-rule="evenodd" clip-rule="evenodd" d="M2.90376 1.02876C2.93279 0.999657 2.96727 0.976568 3.00524 0.960814C3.0432 0.94506 3.0839 0.936951 3.12501 0.936951C3.16611 0.936951 3.20681 0.94506 3.24478 0.960814C3.28275 0.976568 3.31723 0.999657 3.34626 1.02876L7.09626 4.77876C7.12536 4.80779 7.14845 4.84227 7.1642 4.88024C7.17996 4.9182 7.18807 4.95891 7.18807 5.00001C7.18807 5.04111 7.17996 5.08181 7.1642 5.11978C7.14845 5.15775 7.12536 5.19223 7.09626 5.22126L3.34626 8.97126C3.28758 9.02994 3.20799 9.0629 3.12501 9.0629C3.04202 9.0629 2.96244 9.02994 2.90376 8.97126C2.84508 8.91258 2.81211 8.83299 2.81211 8.75001C2.81211 8.66703 2.84508 8.58744 2.90376 8.52876L6.43313 5.00001L2.90376 1.47126C2.87466 1.44223 2.85157 1.40775 2.83581 1.36978C2.82006 1.33181 2.81195 1.29111 2.81195 1.25001C2.81195 1.2089 2.82006 1.1682 2.83581 1.13024C2.85157 1.09227 2.87466 1.05779 2.90376 1.02876V1.02876Z" fill="#1F2937"/>
<path d="M3.34626 1.02876L2.63826 1.73497L2.63915 1.73587L3.34626 1.02876ZM7.09626 4.77876L6.38915 5.48587L6.39005 5.48676L7.09626 4.77876ZM7.09626 5.22126L6.39005 4.51326L6.38915 4.51415L7.09626 5.22126ZM3.34626 8.97126L2.63915 8.26415L3.34626 8.97126ZM2.90376 8.52876L2.19671 7.82159L2.19665 7.82165L2.90376 8.52876ZM6.43313 5.00001L7.14018 5.70718L7.84747 5.00001L7.14018 4.29284L6.43313 5.00001ZM2.90376 1.47126L3.6108 0.76409L3.60997 0.76326L2.90376 1.47126ZM3.61176 1.73497C3.5479 1.799 3.47203 1.84979 3.38851 1.88445L2.62197 0.0371765C2.46251 0.103344 2.31768 0.200319 2.19576 0.322547L3.61176 1.73497ZM3.38851 1.88445C3.30498 1.91911 3.21544 1.93695 3.12501 1.93695V-0.0630493C2.95237 -0.0630493 2.78143 -0.0289903 2.62197 0.0371765L3.38851 1.88445ZM3.12501 1.93695C3.03458 1.93695 2.94504 1.91911 2.86151 1.88445L3.62805 0.0371765C3.46859 -0.0289903 3.29765 -0.0630493 3.12501 -0.0630493V1.93695ZM2.86151 1.88445C2.77799 1.84979 2.70212 1.799 2.63826 1.73497L4.05426 0.322547C3.93234 0.200319 3.7875 0.103344 3.62805 0.0371765L2.86151 1.88445ZM2.63915 1.73587L6.38915 5.48587L7.80337 4.07165L4.05337 0.321653L2.63915 1.73587ZM6.39005 5.48676C6.32602 5.42289 6.27522 5.34703 6.24057 5.26351L8.08784 4.49697C8.02168 4.33752 7.9247 4.19268 7.80247 4.07076L6.39005 5.48676ZM6.24057 5.26351C6.20591 5.17998 6.18807 5.09044 6.18807 5.00001H8.18807C8.18807 4.82737 8.15401 4.65643 8.08784 4.49697L6.24057 5.26351ZM6.18807 5.00001C6.18807 4.90958 6.20591 4.82004 6.24057 4.73651L8.08784 5.50305C8.15401 5.34359 8.18807 5.17265 8.18807 5.00001H6.18807ZM6.24057 4.73651C6.27522 4.65299 6.32602 4.57713 6.39005 4.51326L7.80247 5.92926C7.9247 5.80734 8.02168 5.6625 8.08784 5.50305L6.24057 4.73651ZM6.38915 4.51415L2.63915 8.26415L4.05337 9.67837L7.80337 5.92837L6.38915 4.51415ZM2.63915 8.26415C2.76801 8.13529 2.94278 8.0629 3.12501 8.0629V10.0629C3.47321 10.0629 3.80715 9.92458 4.05337 9.67837L2.63915 8.26415ZM3.12501 8.0629C3.30724 8.0629 3.48201 8.13529 3.61087 8.26415L2.19665 9.67837C2.44287 9.92458 2.77681 10.0629 3.12501 10.0629V8.0629ZM3.61087 8.26415C3.73972 8.39301 3.81211 8.56778 3.81211 8.75001H1.81211C1.81211 9.09821 1.95044 9.43215 2.19665 9.67837L3.61087 8.26415ZM3.81211 8.75001C3.81211 8.93224 3.73972 9.10701 3.61087 9.23587L2.19665 7.82165C1.95044 8.06787 1.81211 8.40181 1.81211 8.75001H3.81211ZM3.6108 9.23593L7.14018 5.70718L5.72609 4.29284L2.19671 7.82159L3.6108 9.23593ZM7.14018 4.29284L3.6108 0.76409L2.19671 2.17843L5.72609 5.70718L7.14018 4.29284ZM3.60997 0.76326C3.674 0.827121 3.72479 0.902988 3.75945 0.986513L1.91218 1.75305C1.97834 1.9125 2.07532 2.05734 2.19755 2.17926L3.60997 0.76326ZM3.75945 0.986513C3.79411 1.07004 3.81195 1.15958 3.81195 1.25001H1.81195C1.81195 1.42264 1.84601 1.59359 1.91218 1.75305L3.75945 0.986513ZM3.81195 1.25001C3.81195 1.34044 3.79411 1.42998 3.75945 1.51351L1.91218 0.746971C1.84601 0.906431 1.81195 1.07737 1.81195 1.25001H3.81195ZM3.75945 1.51351C3.72479 1.59703 3.674 1.6729 3.60997 1.73676L2.19755 0.320759C2.07532 0.442679 1.97834 0.587514 1.91218 0.746971L3.75945 1.51351Z" fill="#1F2937" mask="url(#path-1-inside-1_1_997132)"/>
</svg>
