<svg width="16" height="16" viewBox="0 0 16 16" fill="none" xmlns="http://www.w3.org/2000/svg">
<path fill-rule="evenodd" clip-rule="evenodd" d="M4.64598 1.646C4.69242 1.59944 4.7476 1.5625 4.80834 1.53729C4.86909 1.51208 4.93421 1.49911 4.99998 1.49911C5.06575 1.49911 5.13087 1.51208 5.19161 1.53729C5.25236 1.5625 5.30753 1.59944 5.35398 1.646L11.354 7.646C11.4005 7.69245 11.4375 7.74762 11.4627 7.80837C11.4879 7.86911 11.5009 7.93423 11.5009 8C11.5009 8.06577 11.4879 8.13089 11.4627 8.19163C11.4375 8.25238 11.4005 8.30756 11.354 8.354L5.35398 14.354C5.26009 14.4479 5.13275 14.5006 4.99998 14.5006C4.8672 14.5006 4.73986 14.4479 4.64598 14.354C4.55209 14.2601 4.49935 14.1328 4.49935 14C4.49935 13.8672 4.55209 13.7399 4.64598 13.646L10.293 8L4.64598 2.354C4.59941 2.30756 4.56247 2.25238 4.53727 2.19163C4.51206 2.13089 4.49908 2.06577 4.49908 2C4.49908 1.93423 4.51206 1.86911 4.53727 1.80837C4.56247 1.74762 4.59941 1.69245 4.64598 1.646V1.646Z" fill="#1F2937"/>
</svg>
