<svg width="13" height="12" viewBox="0 0 13 12" fill="none" xmlns="http://www.w3.org/2000/svg">
<mask id="path-1-inside-1_1_997338" fill="white">
<path fill-rule="evenodd" clip-rule="evenodd" d="M1.43451 3.4845C1.46935 3.44958 1.51073 3.42187 1.55629 3.40296C1.60184 3.38406 1.65069 3.37433 1.70001 3.37433C1.74934 3.37433 1.79818 3.38406 1.84374 3.40296C1.8893 3.42187 1.93068 3.44958 1.96551 3.4845L6.20001 7.71975L10.4345 3.4845C10.4694 3.44963 10.5108 3.42198 10.5563 3.40311C10.6019 3.38424 10.6507 3.37452 10.7 3.37452C10.7493 3.37452 10.7981 3.38424 10.8437 3.40311C10.8893 3.42198 10.9306 3.44963 10.9655 3.4845C11.0004 3.51936 11.028 3.56076 11.0469 3.60631C11.0658 3.65187 11.0755 3.70069 11.0755 3.75C11.0755 3.79931 11.0658 3.84813 11.0469 3.89369C11.028 3.93924 11.0004 3.98063 10.9655 4.0155L6.46551 8.5155C6.43068 8.55042 6.38929 8.57813 6.34374 8.59703C6.29818 8.61594 6.24934 8.62567 6.20001 8.62567C6.15069 8.62567 6.10184 8.61594 6.05629 8.59703C6.01073 8.57813 5.96935 8.55042 5.93451 8.5155L1.43451 4.0155C1.39959 3.98066 1.37188 3.93928 1.35298 3.89372C1.33407 3.84817 1.32434 3.79932 1.32434 3.75C1.32434 3.70067 1.33407 3.65183 1.35298 3.60627C1.37188 3.56071 1.39959 3.51933 1.43451 3.4845V3.4845Z"/>
</mask>
<path fill-rule="evenodd" clip-rule="evenodd" d="M1.43451 3.4845C1.46935 3.44958 1.51073 3.42187 1.55629 3.40296C1.60184 3.38406 1.65069 3.37433 1.70001 3.37433C1.74934 3.37433 1.79818 3.38406 1.84374 3.40296C1.8893 3.42187 1.93068 3.44958 1.96551 3.4845L6.20001 7.71975L10.4345 3.4845C10.4694 3.44963 10.5108 3.42198 10.5563 3.40311C10.6019 3.38424 10.6507 3.37452 10.7 3.37452C10.7493 3.37452 10.7981 3.38424 10.8437 3.40311C10.8893 3.42198 10.9306 3.44963 10.9655 3.4845C11.0004 3.51936 11.028 3.56076 11.0469 3.60631C11.0658 3.65187 11.0755 3.70069 11.0755 3.75C11.0755 3.79931 11.0658 3.84813 11.0469 3.89369C11.028 3.93924 11.0004 3.98063 10.9655 4.0155L6.46551 8.5155C6.43068 8.55042 6.38929 8.57813 6.34374 8.59703C6.29818 8.61594 6.24934 8.62567 6.20001 8.62567C6.15069 8.62567 6.10184 8.61594 6.05629 8.59703C6.01073 8.57813 5.96935 8.55042 5.93451 8.5155L1.43451 4.0155C1.39959 3.98066 1.37188 3.93928 1.35298 3.89372C1.33407 3.84817 1.32434 3.79932 1.32434 3.75C1.32434 3.70067 1.33407 3.65183 1.35298 3.60627C1.37188 3.56071 1.39959 3.51933 1.43451 3.4845V3.4845Z" fill="white" fill-opacity="0.5"/>
<path d="M1.96551 3.4845L1.25751 4.19071L1.25834 4.19154L1.96551 3.4845ZM6.20001 7.71975L5.49284 8.42679L6.20001 9.13409L6.90718 8.42679L6.20001 7.71975ZM10.4345 3.4845L9.7274 2.77739L9.72734 2.77745L10.4345 3.4845ZM11.0755 3.75L10.0755 3.75L11.0755 3.75ZM6.46551 8.5155L5.7584 7.80839L5.75751 7.80929L6.46551 8.5155ZM5.93451 8.5155L6.64251 7.80929L6.64162 7.80839L5.93451 8.5155ZM1.43451 4.0155L2.14162 3.30839L2.14072 3.3075L1.43451 4.0155ZM2.14251 4.19071C2.08445 4.24891 2.01549 4.29509 1.93955 4.3266L1.17302 2.47933C1.00597 2.54864 0.854236 2.65024 0.726511 2.77829L2.14251 4.19071ZM1.93955 4.3266C1.86362 4.35811 1.78222 4.37433 1.70001 4.37433V2.37433C1.51916 2.37433 1.34007 2.41001 1.17302 2.47933L1.93955 4.3266ZM1.70001 4.37433C1.61781 4.37433 1.5364 4.35811 1.46047 4.3266L2.227 2.47933C2.05995 2.41001 1.88087 2.37433 1.70001 2.37433V4.37433ZM1.46047 4.3266C1.38454 4.29509 1.31557 4.24891 1.25751 4.19071L2.67351 2.77829C2.54579 2.65024 2.39405 2.54864 2.227 2.47933L1.46047 4.3266ZM1.25834 4.19154L5.49284 8.42679L6.90718 7.01271L2.67268 2.77745L1.25834 4.19154ZM6.90718 8.42679L11.1417 4.19154L9.72734 2.77745L5.49284 7.01271L6.90718 8.42679ZM11.1416 4.19161C11.0836 4.2496 11.0148 4.2956 10.939 4.32699L10.1736 2.47923C10.0068 2.54835 9.85513 2.64967 9.7274 2.77739L11.1416 4.19161ZM10.939 4.32699C10.8632 4.35837 10.782 4.37452 10.7 4.37452V2.37452C10.5194 2.37452 10.3405 2.4101 10.1736 2.47923L10.939 4.32699ZM10.7 4.37452C10.618 4.37452 10.5368 4.35837 10.461 4.32699L11.2264 2.47923C11.0595 2.4101 10.8806 2.37452 10.7 2.37452V4.37452ZM10.461 4.32699C10.3852 4.2956 10.3164 4.2496 10.2584 4.19161L11.6726 2.77739C11.5449 2.64967 11.3933 2.54835 11.2264 2.47923L10.461 4.32699ZM10.2584 4.19161C10.2004 4.13361 10.1544 4.06477 10.123 3.98899L11.9708 3.22363C11.9017 3.05675 11.8003 2.90512 11.6726 2.77739L10.2584 4.19161ZM10.123 3.98899C10.0916 3.91322 10.0755 3.83201 10.0755 3.75L12.0755 3.75C12.0755 3.56937 12.0399 3.39051 11.9708 3.22363L10.123 3.98899ZM10.0755 3.75C10.0755 3.66799 10.0916 3.58678 10.123 3.511L11.9708 4.27637C12.0399 4.10949 12.0755 3.93062 12.0755 3.75L10.0755 3.75ZM10.123 3.511C10.1544 3.43523 10.2004 3.36638 10.2584 3.30839L11.6726 4.72261C11.8003 4.59488 11.9017 4.44325 11.9708 4.27637L10.123 3.511ZM10.2584 3.30839L5.7584 7.80839L7.17262 9.22261L11.6726 4.72261L10.2584 3.30839ZM5.75751 7.80929C5.81557 7.75108 5.88454 7.7049 5.96047 7.6734L6.727 9.52067C6.89405 9.45136 7.04578 9.34976 7.17351 9.22171L5.75751 7.80929ZM5.96047 7.6734C6.0364 7.64189 6.1178 7.62567 6.20001 7.62567V9.62567C6.38087 9.62567 6.55996 9.58999 6.727 9.52067L5.96047 7.6734ZM6.20001 7.62567C6.28222 7.62567 6.36362 7.64189 6.43955 7.6734L5.67302 9.52067C5.84007 9.58999 6.01915 9.62567 6.20001 9.62567V7.62567ZM6.43955 7.6734C6.51548 7.7049 6.58445 7.75108 6.64251 7.80929L5.22651 9.22171C5.35424 9.34976 5.50597 9.45136 5.67302 9.52067L6.43955 7.6734ZM6.64162 7.80839L2.14162 3.30839L0.727404 4.72261L5.2274 9.22261L6.64162 7.80839ZM2.14072 3.3075C2.19893 3.36556 2.24511 3.43453 2.27661 3.51046L0.429339 4.27699C0.498657 4.44404 0.60025 4.59577 0.728299 4.7235L2.14072 3.3075ZM2.27661 3.51046C2.30812 3.58639 2.32434 3.66779 2.32434 3.75H0.324341C0.324341 3.93086 0.360022 4.10994 0.429339 4.27699L2.27661 3.51046ZM2.32434 3.75C2.32434 3.83221 2.30812 3.91361 2.27661 3.98954L0.429339 3.22301C0.360022 3.39006 0.324341 3.56914 0.324341 3.75H2.32434ZM2.27661 3.98954C2.24511 4.06547 2.19893 4.13444 2.14072 4.1925L0.728299 2.7765C0.60025 2.90422 0.498657 3.05596 0.429339 3.22301L2.27661 3.98954Z" fill="white" fill-opacity="0.5" mask="url(#path-1-inside-1_1_997338)"/>
</svg>
