<svg width="13" height="12" viewBox="0 0 13 12" fill="none" xmlns="http://www.w3.org/2000/svg">
<path fill-rule="evenodd" clip-rule="evenodd" d="M1.56781 3.4845C1.60265 3.44958 1.64403 3.42187 1.68959 3.40296C1.73515 3.38406 1.78399 3.37433 1.83331 3.37433C1.88264 3.37433 1.93148 3.38406 1.97704 3.40296C2.0226 3.42187 2.06398 3.44958 2.09881 3.4845L6.33331 7.71975L10.5678 3.4845C10.6027 3.44963 10.6441 3.42198 10.6896 3.40311C10.7352 3.38424 10.784 3.37452 10.8333 3.37452C10.8826 3.37452 10.9314 3.38424 10.977 3.40311C11.0226 3.42198 11.0639 3.44963 11.0988 3.4845C11.1337 3.51936 11.1613 3.56076 11.1802 3.60631C11.1991 3.65187 11.2088 3.70069 11.2088 3.75C11.2088 3.79931 11.1991 3.84813 11.1802 3.89369C11.1613 3.93924 11.1337 3.98063 11.0988 4.0155L6.59881 8.5155C6.56398 8.55042 6.5226 8.57813 6.47704 8.59703C6.43148 8.61594 6.38264 8.62567 6.33331 8.62567C6.28399 8.62567 6.23515 8.61594 6.18959 8.59703C6.14403 8.57813 6.10265 8.55042 6.06781 8.5155L1.56781 4.0155C1.53289 3.98066 1.50518 3.93928 1.48628 3.89372C1.46737 3.84817 1.45764 3.79932 1.45764 3.75C1.45764 3.70067 1.46737 3.65183 1.48628 3.60627C1.50518 3.56071 1.53289 3.51933 1.56781 3.4845V3.4845Z" fill="#FEFCFB"/>
</svg>
