<svg width="11" height="10" viewBox="0 0 11 10" fill="none" xmlns="http://www.w3.org/2000/svg">
<mask id="path-1-inside-1_1_997232" fill="white">
<path fill-rule="evenodd" clip-rule="evenodd" d="M3.70375 1.02876C3.73278 0.999657 3.76726 0.976568 3.80523 0.960814C3.84319 0.94506 3.88389 0.936951 3.925 0.936951C3.9661 0.936951 4.0068 0.94506 4.04477 0.960814C4.08273 0.976568 4.11722 0.999657 4.14625 1.02876L7.89625 4.77876C7.92535 4.80779 7.94844 4.84227 7.96419 4.88024C7.97995 4.9182 7.98806 4.95891 7.98806 5.00001C7.98806 5.04111 7.97995 5.08181 7.96419 5.11978C7.94844 5.15775 7.92535 5.19223 7.89625 5.22126L4.14625 8.97126C4.08757 9.02994 4.00798 9.0629 3.925 9.0629C3.84201 9.0629 3.76243 9.02994 3.70375 8.97126C3.64507 8.91258 3.6121 8.83299 3.6121 8.75001C3.6121 8.66703 3.64507 8.58744 3.70375 8.52876L7.23312 5.00001L3.70375 1.47126C3.67464 1.44223 3.65156 1.40775 3.6358 1.36978C3.62005 1.33181 3.61194 1.29111 3.61194 1.25001C3.61194 1.2089 3.62005 1.1682 3.6358 1.13024C3.65156 1.09227 3.67464 1.05779 3.70375 1.02876V1.02876Z"/>
</mask>
<path fill-rule="evenodd" clip-rule="evenodd" d="M3.70375 1.02876C3.73278 0.999657 3.76726 0.976568 3.80523 0.960814C3.84319 0.94506 3.88389 0.936951 3.925 0.936951C3.9661 0.936951 4.0068 0.94506 4.04477 0.960814C4.08273 0.976568 4.11722 0.999657 4.14625 1.02876L7.89625 4.77876C7.92535 4.80779 7.94844 4.84227 7.96419 4.88024C7.97995 4.9182 7.98806 4.95891 7.98806 5.00001C7.98806 5.04111 7.97995 5.08181 7.96419 5.11978C7.94844 5.15775 7.92535 5.19223 7.89625 5.22126L4.14625 8.97126C4.08757 9.02994 4.00798 9.0629 3.925 9.0629C3.84201 9.0629 3.76243 9.02994 3.70375 8.97126C3.64507 8.91258 3.6121 8.83299 3.6121 8.75001C3.6121 8.66703 3.64507 8.58744 3.70375 8.52876L7.23312 5.00001L3.70375 1.47126C3.67464 1.44223 3.65156 1.40775 3.6358 1.36978C3.62005 1.33181 3.61194 1.29111 3.61194 1.25001C3.61194 1.2089 3.62005 1.1682 3.6358 1.13024C3.65156 1.09227 3.67464 1.05779 3.70375 1.02876V1.02876Z" fill="#1F2937"/>
<path d="M4.14625 1.02876L3.43825 1.73497L3.43914 1.73587L4.14625 1.02876ZM7.89625 4.77876L7.18914 5.48587L7.19003 5.48676L7.89625 4.77876ZM7.89625 5.22126L7.19003 4.51326L7.18914 4.51415L7.89625 5.22126ZM4.14625 8.97126L3.43914 8.26415L4.14625 8.97126ZM3.70375 8.52876L2.9967 7.82159L2.99664 7.82165L3.70375 8.52876ZM7.23312 5.00001L7.94017 5.70718L8.64746 5.00001L7.94017 4.29284L7.23312 5.00001ZM3.70375 1.47126L4.41079 0.76409L4.40996 0.76326L3.70375 1.47126ZM4.41175 1.73497C4.34788 1.799 4.27202 1.84979 4.18849 1.88445L3.42196 0.0371765C3.2625 0.103344 3.11767 0.200319 2.99575 0.322547L4.41175 1.73497ZM4.18849 1.88445C4.10497 1.91911 4.01543 1.93695 3.925 1.93695V-0.0630493C3.75236 -0.0630493 3.58141 -0.0289903 3.42196 0.0371765L4.18849 1.88445ZM3.925 1.93695C3.83457 1.93695 3.74502 1.91911 3.6615 1.88445L4.42804 0.0371765C4.26858 -0.0289903 4.09764 -0.0630493 3.925 -0.0630493V1.93695ZM3.6615 1.88445C3.57798 1.84979 3.50211 1.799 3.43825 1.73497L4.85425 0.322547C4.73233 0.200319 4.58749 0.103344 4.42804 0.0371765L3.6615 1.88445ZM3.43914 1.73587L7.18914 5.48587L8.60335 4.07165L4.85335 0.321653L3.43914 1.73587ZM7.19003 5.48676C7.12601 5.42289 7.07521 5.34703 7.04055 5.26351L8.88783 4.49697C8.82166 4.33752 8.72469 4.19268 8.60246 4.07076L7.19003 5.48676ZM7.04055 5.26351C7.0059 5.17998 6.98806 5.09044 6.98806 5.00001H8.98806C8.98806 4.82737 8.954 4.65643 8.88783 4.49697L7.04055 5.26351ZM6.98806 5.00001C6.98806 4.90958 7.0059 4.82004 7.04055 4.73651L8.88783 5.50305C8.954 5.34359 8.98806 5.17265 8.98806 5.00001H6.98806ZM7.04055 4.73651C7.07521 4.65299 7.12601 4.57713 7.19003 4.51326L8.60246 5.92926C8.72469 5.80734 8.82166 5.6625 8.88783 5.50305L7.04055 4.73651ZM7.18914 4.51415L3.43914 8.26415L4.85335 9.67837L8.60335 5.92837L7.18914 4.51415ZM3.43914 8.26415C3.568 8.13529 3.74277 8.0629 3.925 8.0629V10.0629C4.2732 10.0629 4.60714 9.92458 4.85335 9.67837L3.43914 8.26415ZM3.925 8.0629C4.10723 8.0629 4.282 8.13529 4.41085 8.26415L2.99664 9.67837C3.24286 9.92458 3.5768 10.0629 3.925 10.0629V8.0629ZM4.41085 8.26415C4.53971 8.39301 4.6121 8.56778 4.6121 8.75001H2.6121C2.6121 9.09821 2.75042 9.43215 2.99664 9.67837L4.41085 8.26415ZM4.6121 8.75001C4.6121 8.93224 4.53971 9.10701 4.41085 9.23587L2.99664 7.82165C2.75042 8.06787 2.6121 8.40181 2.6121 8.75001H4.6121ZM4.41079 9.23593L7.94017 5.70718L6.52608 4.29284L2.9967 7.82159L4.41079 9.23593ZM7.94017 4.29284L4.41079 0.76409L2.9967 2.17843L6.52608 5.70718L7.94017 4.29284ZM4.40996 0.76326C4.47398 0.827121 4.52478 0.902988 4.55944 0.986513L2.71216 1.75305C2.77833 1.9125 2.87531 2.05734 2.99753 2.17926L4.40996 0.76326ZM4.55944 0.986513C4.5941 1.07004 4.61194 1.15958 4.61194 1.25001H2.61194C2.61194 1.42264 2.646 1.59359 2.71216 1.75305L4.55944 0.986513ZM4.61194 1.25001C4.61194 1.34044 4.5941 1.42998 4.55944 1.51351L2.71216 0.746971C2.646 0.906431 2.61194 1.07737 2.61194 1.25001H4.61194ZM4.55944 1.51351C4.52478 1.59703 4.47398 1.6729 4.40996 1.73676L2.99753 0.320759C2.87531 0.442679 2.77833 0.587514 2.71216 0.746971L4.55944 1.51351Z" fill="#1F2937" mask="url(#path-1-inside-1_1_997232)"/>
</svg>
