<svg width="10" height="10" viewBox="0 0 10 10" fill="none" xmlns="http://www.w3.org/2000/svg">
<mask id="path-1-inside-1_1_997600" fill="white">
<path fill-rule="evenodd" clip-rule="evenodd" d="M2.90376 1.02875C2.93279 0.99965 2.96727 0.97656 3.00524 0.960806C3.0432 0.945052 3.0839 0.936943 3.12501 0.936943C3.16611 0.936943 3.20681 0.945052 3.24478 0.960806C3.28275 0.97656 3.31723 0.99965 3.34626 1.02875L7.09626 4.77875C7.12536 4.80778 7.14845 4.84227 7.1642 4.88023C7.17996 4.9182 7.18807 4.9589 7.18807 5C7.18807 5.04111 7.17996 5.08181 7.1642 5.11977C7.14845 5.15774 7.12536 5.19222 7.09626 5.22125L3.34626 8.97125C3.28758 9.02993 3.20799 9.0629 3.12501 9.0629C3.04202 9.0629 2.96244 9.02993 2.90376 8.97125C2.84508 8.91257 2.81211 8.83299 2.81211 8.75C2.81211 8.66702 2.84508 8.58743 2.90376 8.52875L6.43313 5L2.90376 1.47125C2.87466 1.44222 2.85157 1.40774 2.83581 1.36977C2.82006 1.33181 2.81195 1.29111 2.81195 1.25C2.81195 1.2089 2.82006 1.1682 2.83581 1.13023C2.85157 1.09227 2.87466 1.05778 2.90376 1.02875V1.02875Z"/>
</mask>
<path fill-rule="evenodd" clip-rule="evenodd" d="M2.90376 1.02875C2.93279 0.99965 2.96727 0.97656 3.00524 0.960806C3.0432 0.945052 3.0839 0.936943 3.12501 0.936943C3.16611 0.936943 3.20681 0.945052 3.24478 0.960806C3.28275 0.97656 3.31723 0.99965 3.34626 1.02875L7.09626 4.77875C7.12536 4.80778 7.14845 4.84227 7.1642 4.88023C7.17996 4.9182 7.18807 4.9589 7.18807 5C7.18807 5.04111 7.17996 5.08181 7.1642 5.11977C7.14845 5.15774 7.12536 5.19222 7.09626 5.22125L3.34626 8.97125C3.28758 9.02993 3.20799 9.0629 3.12501 9.0629C3.04202 9.0629 2.96244 9.02993 2.90376 8.97125C2.84508 8.91257 2.81211 8.83299 2.81211 8.75C2.81211 8.66702 2.84508 8.58743 2.90376 8.52875L6.43313 5L2.90376 1.47125C2.87466 1.44222 2.85157 1.40774 2.83581 1.36977C2.82006 1.33181 2.81195 1.29111 2.81195 1.25C2.81195 1.2089 2.82006 1.1682 2.83581 1.13023C2.85157 1.09227 2.87466 1.05778 2.90376 1.02875V1.02875Z" fill="#3B82F6"/>
<path d="M3.34626 1.02875L2.63826 1.73496L2.63915 1.73586L3.34626 1.02875ZM7.09626 4.77875L6.38915 5.48586L6.39005 5.48675L7.09626 4.77875ZM7.09626 5.22125L6.39005 4.51325L6.38915 4.51415L7.09626 5.22125ZM3.34626 8.97125L2.63915 8.26415L3.34626 8.97125ZM2.90376 8.52875L2.19671 7.82158L2.19665 7.82165L2.90376 8.52875ZM6.43313 5L7.14018 5.70717L7.84747 5L7.14018 4.29283L6.43313 5ZM2.90376 1.47125L3.6108 0.764082L3.60997 0.763252L2.90376 1.47125ZM3.61176 1.73496C3.5479 1.79899 3.47203 1.84978 3.38851 1.88444L2.62197 0.0371689C2.46251 0.103336 2.31768 0.200311 2.19576 0.322539L3.61176 1.73496ZM3.38851 1.88444C3.30498 1.9191 3.21544 1.93694 3.12501 1.93694V-0.0630569C2.95237 -0.0630569 2.78143 -0.0289979 2.62197 0.0371689L3.38851 1.88444ZM3.12501 1.93694C3.03458 1.93694 2.94504 1.9191 2.86151 1.88444L3.62805 0.0371689C3.46859 -0.0289979 3.29765 -0.0630569 3.12501 -0.0630569V1.93694ZM2.86151 1.88444C2.77799 1.84978 2.70212 1.79899 2.63826 1.73496L4.05426 0.322539C3.93234 0.200311 3.7875 0.103336 3.62805 0.0371689L2.86151 1.88444ZM2.63915 1.73586L6.38915 5.48586L7.80337 4.07165L4.05337 0.321645L2.63915 1.73586ZM6.39005 5.48675C6.32602 5.42288 6.27522 5.34702 6.24057 5.2635L8.08784 4.49696C8.02168 4.33751 7.9247 4.19268 7.80247 4.07075L6.39005 5.48675ZM6.24057 5.2635C6.20591 5.17998 6.18807 5.09043 6.18807 5H8.18807C8.18807 4.82736 8.15401 4.65642 8.08784 4.49696L6.24057 5.2635ZM6.18807 5C6.18807 4.90957 6.20591 4.82003 6.24057 4.73651L8.08784 5.50304C8.15401 5.34359 8.18807 5.17264 8.18807 5H6.18807ZM6.24057 4.73651C6.27522 4.65299 6.32602 4.57712 6.39005 4.51325L7.80247 5.92925C7.9247 5.80733 8.02168 5.66249 8.08784 5.50304L6.24057 4.73651ZM6.38915 4.51415L2.63915 8.26415L4.05337 9.67836L7.80337 5.92836L6.38915 4.51415ZM2.63915 8.26415C2.76801 8.13529 2.94278 8.0629 3.12501 8.0629V10.0629C3.47321 10.0629 3.80715 9.92458 4.05337 9.67836L2.63915 8.26415ZM3.12501 8.0629C3.30724 8.0629 3.48201 8.13529 3.61087 8.26415L2.19665 9.67836C2.44287 9.92458 2.77681 10.0629 3.12501 10.0629V8.0629ZM3.61087 8.26415C3.73972 8.393 3.81211 8.56777 3.81211 8.75H1.81211C1.81211 9.0982 1.95044 9.43214 2.19665 9.67836L3.61087 8.26415ZM3.81211 8.75C3.81211 8.93223 3.73972 9.107 3.61087 9.23586L2.19665 7.82165C1.95044 8.06786 1.81211 8.4018 1.81211 8.75H3.81211ZM3.6108 9.23592L7.14018 5.70717L5.72609 4.29283L2.19671 7.82158L3.6108 9.23592ZM7.14018 4.29283L3.6108 0.764082L2.19671 2.17842L5.72609 5.70717L7.14018 4.29283ZM3.60997 0.763252C3.674 0.827114 3.72479 0.90298 3.75945 0.986506L1.91218 1.75304C1.97834 1.9125 2.07532 2.05733 2.19755 2.17925L3.60997 0.763252ZM3.75945 0.986506C3.79411 1.07003 3.81195 1.15958 3.81195 1.25H1.81195C1.81195 1.42264 1.84601 1.59358 1.91218 1.75304L3.75945 0.986506ZM3.81195 1.25C3.81195 1.34043 3.79411 1.42997 3.75945 1.5135L1.91218 0.746964C1.84601 0.906423 1.81195 1.07737 1.81195 1.25H3.81195ZM3.75945 1.5135C3.72479 1.59702 3.674 1.67289 3.60997 1.73675L2.19755 0.320752C2.07532 0.442671 1.97834 0.587506 1.91218 0.746964L3.75945 1.5135Z" fill="#3B82F6" mask="url(#path-1-inside-1_1_997600)"/>
</svg>
