<svg width="12" height="12" viewBox="0 0 12 12" fill="none" xmlns="http://www.w3.org/2000/svg">
<mask id="path-1-inside-1_1_997288" fill="white">
<path fill-rule="evenodd" clip-rule="evenodd" d="M1.23452 3.4845C1.26935 3.44958 1.31073 3.42187 1.35629 3.40296C1.40185 3.38406 1.45069 3.37433 1.50002 3.37433C1.54934 3.37433 1.59818 3.38406 1.64374 3.40296C1.6893 3.42187 1.73068 3.44958 1.76552 3.4845L6.00002 7.71975L10.2345 3.4845C10.2694 3.44963 10.3108 3.42198 10.3563 3.40311C10.4019 3.38424 10.4507 3.37452 10.5 3.37452C10.5493 3.37452 10.5981 3.38424 10.6437 3.40311C10.6893 3.42198 10.7306 3.44963 10.7655 3.4845C10.8004 3.51936 10.828 3.56076 10.8469 3.60631C10.8658 3.65187 10.8755 3.70069 10.8755 3.75C10.8755 3.79931 10.8658 3.84813 10.8469 3.89369C10.828 3.93924 10.8004 3.98063 10.7655 4.0155L6.26552 8.5155C6.23068 8.55042 6.1893 8.57813 6.14374 8.59703C6.09818 8.61594 6.04934 8.62567 6.00002 8.62567C5.95069 8.62567 5.90185 8.61594 5.85629 8.59703C5.81073 8.57813 5.76935 8.55042 5.73451 8.5155L1.23452 4.0155C1.19959 3.98066 1.17189 3.93928 1.15298 3.89372C1.13408 3.84817 1.12434 3.79932 1.12434 3.75C1.12434 3.70067 1.13408 3.65183 1.15298 3.60627C1.17189 3.56071 1.19959 3.51933 1.23452 3.4845V3.4845Z"/>
</mask>
<path fill-rule="evenodd" clip-rule="evenodd" d="M1.23452 3.4845C1.26935 3.44958 1.31073 3.42187 1.35629 3.40296C1.40185 3.38406 1.45069 3.37433 1.50002 3.37433C1.54934 3.37433 1.59818 3.38406 1.64374 3.40296C1.6893 3.42187 1.73068 3.44958 1.76552 3.4845L6.00002 7.71975L10.2345 3.4845C10.2694 3.44963 10.3108 3.42198 10.3563 3.40311C10.4019 3.38424 10.4507 3.37452 10.5 3.37452C10.5493 3.37452 10.5981 3.38424 10.6437 3.40311C10.6893 3.42198 10.7306 3.44963 10.7655 3.4845C10.8004 3.51936 10.828 3.56076 10.8469 3.60631C10.8658 3.65187 10.8755 3.70069 10.8755 3.75C10.8755 3.79931 10.8658 3.84813 10.8469 3.89369C10.828 3.93924 10.8004 3.98063 10.7655 4.0155L6.26552 8.5155C6.23068 8.55042 6.1893 8.57813 6.14374 8.59703C6.09818 8.61594 6.04934 8.62567 6.00002 8.62567C5.95069 8.62567 5.90185 8.61594 5.85629 8.59703C5.81073 8.57813 5.76935 8.55042 5.73451 8.5155L1.23452 4.0155C1.19959 3.98066 1.17189 3.93928 1.15298 3.89372C1.13408 3.84817 1.12434 3.79932 1.12434 3.75C1.12434 3.70067 1.13408 3.65183 1.15298 3.60627C1.17189 3.56071 1.19959 3.51933 1.23452 3.4845V3.4845Z" fill="white" fill-opacity="0.5"/>
<path d="M1.76552 3.4845L1.05751 4.19071L1.05835 4.19154L1.76552 3.4845ZM6.00002 7.71975L5.29285 8.42679L6.00002 9.13409L6.70718 8.42679L6.00002 7.71975ZM10.2345 3.4845L9.52741 2.77739L9.52735 2.77745L10.2345 3.4845ZM10.8755 3.75L9.87549 3.75L10.8755 3.75ZM6.26552 8.5155L5.55841 7.80839L5.55752 7.80929L6.26552 8.5155ZM5.73451 8.5155L6.44252 7.80929L6.44162 7.80839L5.73451 8.5155ZM1.23452 4.0155L1.94162 3.30839L1.94073 3.3075L1.23452 4.0155ZM1.94252 4.19071C1.88446 4.24891 1.81549 4.29509 1.73956 4.3266L0.973023 2.47933C0.805973 2.54864 0.65424 2.65024 0.526515 2.77829L1.94252 4.19071ZM1.73956 4.3266C1.66362 4.35811 1.58222 4.37433 1.50002 4.37433V2.37433C1.31916 2.37433 1.14008 2.41001 0.973023 2.47933L1.73956 4.3266ZM1.50002 4.37433C1.41781 4.37433 1.33641 4.35811 1.26047 4.3266L2.02701 2.47933C1.85995 2.41001 1.68087 2.37433 1.50002 2.37433V4.37433ZM1.26047 4.3266C1.18454 4.29509 1.11557 4.24891 1.05752 4.19071L2.47352 2.77829C2.34579 2.65024 2.19406 2.54864 2.02701 2.47933L1.26047 4.3266ZM1.05835 4.19154L5.29285 8.42679L6.70718 7.01271L2.47268 2.77745L1.05835 4.19154ZM6.70718 8.42679L10.9417 4.19154L9.52735 2.77745L5.29285 7.01271L6.70718 8.42679ZM10.9416 4.19161C10.8836 4.2496 10.8148 4.2956 10.739 4.32699L9.97364 2.47923C9.80676 2.54835 9.65513 2.64967 9.52741 2.77739L10.9416 4.19161ZM10.739 4.32699C10.6632 4.35837 10.582 4.37452 10.5 4.37452V2.37452C10.3194 2.37452 10.1405 2.4101 9.97364 2.47923L10.739 4.32699ZM10.5 4.37452C10.418 4.37452 10.3368 4.35837 10.261 4.32699L11.0264 2.47923C10.8595 2.4101 10.6806 2.37452 10.5 2.37452V4.37452ZM10.261 4.32699C10.1852 4.2956 10.1164 4.2496 10.0584 4.19161L11.4726 2.77739C11.3449 2.64967 11.1933 2.54835 11.0264 2.47923L10.261 4.32699ZM10.0584 4.19161C10.0004 4.13361 9.95441 4.06477 9.92303 3.98899L11.7708 3.22363C11.7017 3.05675 11.6003 2.90512 11.4726 2.77739L10.0584 4.19161ZM9.92303 3.98899C9.89164 3.91322 9.87549 3.83201 9.87549 3.75L11.8755 3.75C11.8755 3.56937 11.8399 3.39051 11.7708 3.22363L9.92303 3.98899ZM9.87549 3.75C9.87549 3.66799 9.89164 3.58678 9.92303 3.511L11.7708 4.27637C11.8399 4.10949 11.8755 3.93062 11.8755 3.75L9.87549 3.75ZM9.92303 3.511C9.95441 3.43523 10.0004 3.36638 10.0584 3.30839L11.4726 4.72261C11.6003 4.59488 11.7017 4.44325 11.7708 4.27637L9.92303 3.511ZM10.0584 3.30839L5.55841 7.80839L6.97262 9.22261L11.4726 4.72261L10.0584 3.30839ZM5.55752 7.80929C5.61558 7.75108 5.68455 7.7049 5.76047 7.6734L6.52701 9.52067C6.69405 9.45136 6.84579 9.34976 6.97352 9.22171L5.55752 7.80929ZM5.76047 7.6734C5.8364 7.64189 5.9178 7.62567 6.00002 7.62567V9.62567C6.18088 9.62567 6.35996 9.58999 6.52701 9.52067L5.76047 7.6734ZM6.00002 7.62567C6.08223 7.62567 6.16363 7.64189 6.23956 7.6734L5.47302 9.52067C5.64007 9.58999 5.81915 9.62567 6.00002 9.62567V7.62567ZM6.23956 7.6734C6.31548 7.7049 6.38445 7.75108 6.44251 7.80929L5.02651 9.22171C5.15424 9.34976 5.30598 9.45136 5.47302 9.52067L6.23956 7.6734ZM6.44162 7.80839L1.94162 3.30839L0.527408 4.72261L5.02741 9.22261L6.44162 7.80839ZM1.94073 3.3075C1.99893 3.36556 2.04511 3.43453 2.07662 3.51046L0.229343 4.27699C0.298661 4.44404 0.400254 4.59577 0.528303 4.7235L1.94073 3.3075ZM2.07662 3.51046C2.10813 3.58639 2.12434 3.66779 2.12434 3.75H0.124345C0.124345 3.93086 0.160026 4.10994 0.229343 4.27699L2.07662 3.51046ZM2.12434 3.75C2.12434 3.83221 2.10813 3.91361 2.07662 3.98954L0.229343 3.22301C0.160026 3.39006 0.124345 3.56914 0.124345 3.75H2.12434ZM2.07662 3.98954C2.04511 4.06547 1.99893 4.13444 1.94073 4.1925L0.528303 2.7765C0.400254 2.90422 0.298661 3.05596 0.229343 3.22301L2.07662 3.98954Z" fill="white" fill-opacity="0.5" mask="url(#path-1-inside-1_1_997288)"/>
</svg>
