<svg width="13" height="12" viewBox="0 0 13 12" fill="none" xmlns="http://www.w3.org/2000/svg">
<path fill-rule="evenodd" clip-rule="evenodd" d="M1.90116 3.4845C1.93599 3.44958 1.97737 3.42187 2.02293 3.40296C2.06849 3.38406 2.11733 3.37433 2.16666 3.37433C2.21598 3.37433 2.26482 3.38406 2.31038 3.40296C2.35594 3.42187 2.39732 3.44958 2.43216 3.4845L6.66666 7.71975L10.9012 3.4845C10.936 3.44963 10.9774 3.42198 11.023 3.40311C11.0685 3.38424 11.1173 3.37452 11.1667 3.37452C11.216 3.37452 11.2648 3.38424 11.3103 3.40311C11.3559 3.42198 11.3973 3.44963 11.4322 3.4845C11.467 3.51936 11.4947 3.56076 11.5135 3.60631C11.5324 3.65187 11.5421 3.70069 11.5421 3.75C11.5421 3.79931 11.5324 3.84813 11.5135 3.89369C11.4947 3.93924 11.467 3.98063 11.4322 4.0155L6.93216 8.5155C6.89732 8.55042 6.85594 8.57813 6.81038 8.59703C6.76482 8.61594 6.71598 8.62567 6.66666 8.62567C6.61733 8.62567 6.56849 8.61594 6.52293 8.59703C6.47737 8.57813 6.43599 8.55042 6.40116 8.5155L1.90116 4.0155C1.86623 3.98066 1.83853 3.93928 1.81962 3.89372C1.80072 3.84817 1.79099 3.79932 1.79099 3.75C1.79099 3.70067 1.80072 3.65183 1.81962 3.60627C1.83853 3.56071 1.86623 3.51933 1.90116 3.4845V3.4845Z" fill="#FEFCFB"/>
</svg>
