<svg width="13" height="12" viewBox="0 0 13 12" fill="none" xmlns="http://www.w3.org/2000/svg">
<mask id="path-1-inside-1_1_997263" fill="white">
<path fill-rule="evenodd" clip-rule="evenodd" d="M1.63452 3.4845C1.66936 3.44958 1.71074 3.42187 1.7563 3.40296C1.80186 3.38406 1.8507 3.37433 1.90002 3.37433C1.94935 3.37433 1.99819 3.38406 2.04375 3.40296C2.08931 3.42187 2.13069 3.44958 2.16552 3.4845L6.40002 7.71975L10.6345 3.4845C10.6694 3.44963 10.7108 3.42198 10.7563 3.40311C10.8019 3.38424 10.8507 3.37452 10.9 3.37452C10.9493 3.37452 10.9982 3.38424 11.0437 3.40311C11.0893 3.42198 11.1307 3.44963 11.1655 3.4845C11.2004 3.51936 11.228 3.56076 11.2469 3.60631C11.2658 3.65187 11.2755 3.70069 11.2755 3.75C11.2755 3.79931 11.2658 3.84813 11.2469 3.89369C11.228 3.93924 11.2004 3.98063 11.1655 4.0155L6.66552 8.5155C6.63069 8.55042 6.58931 8.57813 6.54375 8.59703C6.49819 8.61594 6.44935 8.62567 6.40002 8.62567C6.3507 8.62567 6.30186 8.61594 6.2563 8.59703C6.21074 8.57813 6.16936 8.55042 6.13452 8.5155L1.63452 4.0155C1.5996 3.98066 1.57189 3.93928 1.55299 3.89372C1.53408 3.84817 1.52435 3.79932 1.52435 3.75C1.52435 3.70067 1.53408 3.65183 1.55299 3.60627C1.57189 3.56071 1.5996 3.51933 1.63452 3.4845V3.4845Z"/>
</mask>
<path fill-rule="evenodd" clip-rule="evenodd" d="M1.63452 3.4845C1.66936 3.44958 1.71074 3.42187 1.7563 3.40296C1.80186 3.38406 1.8507 3.37433 1.90002 3.37433C1.94935 3.37433 1.99819 3.38406 2.04375 3.40296C2.08931 3.42187 2.13069 3.44958 2.16552 3.4845L6.40002 7.71975L10.6345 3.4845C10.6694 3.44963 10.7108 3.42198 10.7563 3.40311C10.8019 3.38424 10.8507 3.37452 10.9 3.37452C10.9493 3.37452 10.9982 3.38424 11.0437 3.40311C11.0893 3.42198 11.1307 3.44963 11.1655 3.4845C11.2004 3.51936 11.228 3.56076 11.2469 3.60631C11.2658 3.65187 11.2755 3.70069 11.2755 3.75C11.2755 3.79931 11.2658 3.84813 11.2469 3.89369C11.228 3.93924 11.2004 3.98063 11.1655 4.0155L6.66552 8.5155C6.63069 8.55042 6.58931 8.57813 6.54375 8.59703C6.49819 8.61594 6.44935 8.62567 6.40002 8.62567C6.3507 8.62567 6.30186 8.61594 6.2563 8.59703C6.21074 8.57813 6.16936 8.55042 6.13452 8.5155L1.63452 4.0155C1.5996 3.98066 1.57189 3.93928 1.55299 3.89372C1.53408 3.84817 1.52435 3.79932 1.52435 3.75C1.52435 3.70067 1.53408 3.65183 1.55299 3.60627C1.57189 3.56071 1.5996 3.51933 1.63452 3.4845V3.4845Z" fill="white" fill-opacity="0.5"/>
<path d="M2.16552 3.4845L1.45752 4.19071L1.45835 4.19154L2.16552 3.4845ZM6.40002 7.71975L5.69285 8.42679L6.40002 9.13409L7.10719 8.42679L6.40002 7.71975ZM10.6345 3.4845L9.92742 2.77739L9.92735 2.77745L10.6345 3.4845ZM11.2755 3.75L10.2755 3.75L11.2755 3.75ZM6.66552 8.5155L5.95842 7.80839L5.95752 7.80929L6.66552 8.5155ZM6.13452 8.5155L6.84252 7.80929L6.84163 7.80839L6.13452 8.5155ZM1.63452 4.0155L2.34163 3.30839L2.34074 3.3075L1.63452 4.0155ZM2.34252 4.19071C2.28447 4.24891 2.2155 4.29509 2.13957 4.3266L1.37303 2.47933C1.20598 2.54864 1.05425 2.65024 0.926523 2.77829L2.34252 4.19071ZM2.13957 4.3266C2.06363 4.35811 1.98223 4.37433 1.90002 4.37433V2.37433C1.71917 2.37433 1.54008 2.41001 1.37303 2.47933L2.13957 4.3266ZM1.90002 4.37433C1.81782 4.37433 1.73642 4.35811 1.66048 4.3266L2.42702 2.47933C2.25996 2.41001 2.08088 2.37433 1.90002 2.37433V4.37433ZM1.66048 4.3266C1.58455 4.29509 1.51558 4.24891 1.45752 4.19071L2.87352 2.77829C2.7458 2.65024 2.59407 2.54864 2.42702 2.47933L1.66048 4.3266ZM1.45835 4.19154L5.69285 8.42679L7.10719 7.01271L2.87269 2.77745L1.45835 4.19154ZM7.10719 8.42679L11.3417 4.19154L9.92735 2.77745L5.69285 7.01271L7.10719 8.42679ZM11.3416 4.19161C11.2836 4.2496 11.2148 4.2956 11.139 4.32699L10.3737 2.47923C10.2068 2.54835 10.0551 2.64967 9.92742 2.77739L11.3416 4.19161ZM11.139 4.32699C11.0632 4.35837 10.982 4.37452 10.9 4.37452V2.37452C10.7194 2.37452 10.5405 2.4101 10.3737 2.47923L11.139 4.32699ZM10.9 4.37452C10.818 4.37452 10.7368 4.35837 10.661 4.32699L11.4264 2.47923C11.2595 2.4101 11.0807 2.37452 10.9 2.37452V4.37452ZM10.661 4.32699C10.5853 4.2956 10.5164 4.2496 10.4584 4.19161L11.8726 2.77739C11.7449 2.64967 11.5933 2.54835 11.4264 2.47923L10.661 4.32699ZM10.4584 4.19161C10.4004 4.13361 10.3544 4.06477 10.323 3.98899L12.1708 3.22363C12.1017 3.05675 12.0004 2.90512 11.8726 2.77739L10.4584 4.19161ZM10.323 3.98899C10.2916 3.91322 10.2755 3.83201 10.2755 3.75L12.2755 3.75C12.2755 3.56937 12.2399 3.39051 12.1708 3.22363L10.323 3.98899ZM10.2755 3.75C10.2755 3.66799 10.2916 3.58678 10.323 3.511L12.1708 4.27637C12.2399 4.10949 12.2755 3.93062 12.2755 3.75L10.2755 3.75ZM10.323 3.511C10.3544 3.43523 10.4004 3.36638 10.4584 3.30839L11.8726 4.72261C12.0004 4.59488 12.1017 4.44325 12.1708 4.27637L10.323 3.511ZM10.4584 3.30839L5.95842 7.80839L7.37263 9.22261L11.8726 4.72261L10.4584 3.30839ZM5.95752 7.80929C6.01558 7.75108 6.08455 7.7049 6.16048 7.6734L6.92702 9.52067C7.09406 9.45136 7.24579 9.34976 7.37352 9.22171L5.95752 7.80929ZM6.16048 7.6734C6.23641 7.64189 6.31781 7.62567 6.40002 7.62567V9.62567C6.58088 9.62567 6.75997 9.58999 6.92702 9.52067L6.16048 7.6734ZM6.40002 7.62567C6.48223 7.62567 6.56364 7.64189 6.63957 7.6734L5.87303 9.52067C6.04008 9.58999 6.21916 9.62567 6.40002 9.62567V7.62567ZM6.63957 7.6734C6.71549 7.7049 6.78446 7.75108 6.84252 7.80929L5.42652 9.22171C5.55425 9.34976 5.70599 9.45136 5.87303 9.52067L6.63957 7.6734ZM6.84163 7.80839L2.34163 3.30839L0.927417 4.72261L5.42742 9.22261L6.84163 7.80839ZM2.34074 3.3075C2.39894 3.36556 2.44512 3.43453 2.47663 3.51046L0.629351 4.27699C0.698669 4.44404 0.800262 4.59577 0.928311 4.7235L2.34074 3.3075ZM2.47663 3.51046C2.50813 3.58639 2.52435 3.66779 2.52435 3.75H0.524353C0.524353 3.93086 0.560034 4.10994 0.629351 4.27699L2.47663 3.51046ZM2.52435 3.75C2.52435 3.83221 2.50813 3.91361 2.47663 3.98954L0.629351 3.22301C0.560034 3.39006 0.524353 3.56914 0.524353 3.75H2.52435ZM2.47663 3.98954C2.44512 4.06547 2.39894 4.13444 2.34074 4.1925L0.928311 2.7765C0.800262 2.90422 0.698669 3.05596 0.629351 3.22301L2.47663 3.98954Z" fill="white" fill-opacity="0.5" mask="url(#path-1-inside-1_1_997263)"/>
</svg>
