<svg width="10" height="10" viewBox="0 0 10 10" fill="none" xmlns="http://www.w3.org/2000/svg">
<mask id="path-1-inside-1_1_997282" fill="white">
<path fill-rule="evenodd" clip-rule="evenodd" d="M2.90376 1.02876C2.93279 0.999657 2.96728 0.976568 3.00524 0.960814C3.04321 0.94506 3.08391 0.936951 3.12501 0.936951C3.16612 0.936951 3.20682 0.94506 3.24479 0.960814C3.28275 0.976568 3.31724 0.999657 3.34626 1.02876L7.09626 4.77876C7.12537 4.80779 7.14846 4.84227 7.16421 4.88024C7.17996 4.9182 7.18807 4.95891 7.18807 5.00001C7.18807 5.04111 7.17996 5.08181 7.16421 5.11978C7.14846 5.15775 7.12537 5.19223 7.09626 5.22126L3.34626 8.97126C3.28759 9.02994 3.208 9.0629 3.12501 9.0629C3.04203 9.0629 2.96244 9.02994 2.90376 8.97126C2.84509 8.91258 2.81212 8.83299 2.81212 8.75001C2.81212 8.66703 2.84509 8.58744 2.90376 8.52876L6.43314 5.00001L2.90376 1.47126C2.87466 1.44223 2.85157 1.40775 2.83582 1.36978C2.82007 1.33181 2.81196 1.29111 2.81196 1.25001C2.81196 1.2089 2.82007 1.1682 2.83582 1.13024C2.85157 1.09227 2.87466 1.05779 2.90376 1.02876V1.02876Z"/>
</mask>
<path fill-rule="evenodd" clip-rule="evenodd" d="M2.90376 1.02876C2.93279 0.999657 2.96728 0.976568 3.00524 0.960814C3.04321 0.94506 3.08391 0.936951 3.12501 0.936951C3.16612 0.936951 3.20682 0.94506 3.24479 0.960814C3.28275 0.976568 3.31724 0.999657 3.34626 1.02876L7.09626 4.77876C7.12537 4.80779 7.14846 4.84227 7.16421 4.88024C7.17996 4.9182 7.18807 4.95891 7.18807 5.00001C7.18807 5.04111 7.17996 5.08181 7.16421 5.11978C7.14846 5.15775 7.12537 5.19223 7.09626 5.22126L3.34626 8.97126C3.28759 9.02994 3.208 9.0629 3.12501 9.0629C3.04203 9.0629 2.96244 9.02994 2.90376 8.97126C2.84509 8.91258 2.81212 8.83299 2.81212 8.75001C2.81212 8.66703 2.84509 8.58744 2.90376 8.52876L6.43314 5.00001L2.90376 1.47126C2.87466 1.44223 2.85157 1.40775 2.83582 1.36978C2.82007 1.33181 2.81196 1.29111 2.81196 1.25001C2.81196 1.2089 2.82007 1.1682 2.83582 1.13024C2.85157 1.09227 2.87466 1.05779 2.90376 1.02876V1.02876Z" fill="#1F2937"/>
<path d="M3.34626 1.02876L2.63826 1.73497L2.63916 1.73587L3.34626 1.02876ZM7.09626 4.77876L6.38916 5.48587L6.39005 5.48676L7.09626 4.77876ZM7.09626 5.22126L6.39005 4.51326L6.38916 4.51415L7.09626 5.22126ZM3.34626 8.97126L2.63916 8.26415L3.34626 8.97126ZM2.90376 8.52876L2.19672 7.82159L2.19666 7.82165L2.90376 8.52876ZM6.43314 5.00001L7.14018 5.70718L7.84748 5.00001L7.14018 4.29284L6.43314 5.00001ZM2.90376 1.47126L3.61081 0.76409L3.60998 0.76326L2.90376 1.47126ZM3.61176 1.73497C3.5479 1.799 3.47204 1.84979 3.38851 1.88445L2.62198 0.0371765C2.46252 0.103344 2.31768 0.200319 2.19576 0.322547L3.61176 1.73497ZM3.38851 1.88445C3.30499 1.91911 3.21545 1.93695 3.12501 1.93695V-0.0630493C2.95238 -0.0630493 2.78143 -0.0289903 2.62198 0.0371765L3.38851 1.88445ZM3.12501 1.93695C3.03458 1.93695 2.94504 1.91911 2.86152 1.88445L3.62805 0.0371765C3.4686 -0.0289903 3.29765 -0.0630493 3.12501 -0.0630493V1.93695ZM2.86152 1.88445C2.77799 1.84979 2.70213 1.799 2.63826 1.73497L4.05426 0.322547C3.93235 0.200319 3.78751 0.103344 3.62805 0.0371765L2.86152 1.88445ZM2.63916 1.73587L6.38916 5.48587L7.80337 4.07165L4.05337 0.321653L2.63916 1.73587ZM6.39005 5.48676C6.32602 5.42289 6.27523 5.34703 6.24057 5.26351L8.08785 4.49697C8.02168 4.33752 7.92471 4.19268 7.80248 4.07076L6.39005 5.48676ZM6.24057 5.26351C6.20591 5.17998 6.18807 5.09044 6.18807 5.00001H8.18807C8.18807 4.82737 8.15401 4.65643 8.08785 4.49697L6.24057 5.26351ZM6.18807 5.00001C6.18807 4.90958 6.20591 4.82004 6.24057 4.73651L8.08785 5.50305C8.15401 5.34359 8.18807 5.17265 8.18807 5.00001H6.18807ZM6.24057 4.73651C6.27523 4.65299 6.32602 4.57713 6.39005 4.51326L7.80248 5.92926C7.92471 5.80734 8.02168 5.6625 8.08785 5.50305L6.24057 4.73651ZM6.38916 4.51415L2.63916 8.26415L4.05337 9.67837L7.80337 5.92837L6.38916 4.51415ZM2.63916 8.26415C2.76802 8.13529 2.94279 8.0629 3.12501 8.0629V10.0629C3.47321 10.0629 3.80715 9.92458 4.05337 9.67837L2.63916 8.26415ZM3.12501 8.0629C3.30724 8.0629 3.48201 8.13529 3.61087 8.26415L2.19666 9.67837C2.44287 9.92458 2.77682 10.0629 3.12501 10.0629V8.0629ZM3.61087 8.26415C3.73973 8.39301 3.81212 8.56778 3.81212 8.75001H1.81212C1.81212 9.09821 1.95044 9.43215 2.19666 9.67837L3.61087 8.26415ZM3.81212 8.75001C3.81212 8.93224 3.73973 9.10701 3.61087 9.23587L2.19666 7.82165C1.95044 8.06787 1.81212 8.40181 1.81212 8.75001H3.81212ZM3.61081 9.23593L7.14018 5.70718L5.7261 4.29284L2.19672 7.82159L3.61081 9.23593ZM7.14018 4.29284L3.61081 0.76409L2.19672 2.17843L5.7261 5.70718L7.14018 4.29284ZM3.60998 0.76326C3.674 0.827121 3.7248 0.902988 3.75946 0.986513L1.91218 1.75305C1.97835 1.9125 2.07532 2.05734 2.19755 2.17926L3.60998 0.76326ZM3.75946 0.986513C3.79412 1.07004 3.81196 1.15958 3.81196 1.25001H1.81196C1.81196 1.42264 1.84601 1.59359 1.91218 1.75305L3.75946 0.986513ZM3.81196 1.25001C3.81196 1.34044 3.79412 1.42998 3.75946 1.51351L1.91218 0.746971C1.84601 0.906431 1.81196 1.07737 1.81196 1.25001H3.81196ZM3.75946 1.51351C3.7248 1.59703 3.674 1.6729 3.60998 1.73676L2.19755 0.320759C2.07532 0.442679 1.97835 0.587514 1.91218 0.746971L3.75946 1.51351Z" fill="#1F2937" mask="url(#path-1-inside-1_1_997282)"/>
</svg>
