<svg width="64" height="64" viewBox="0 0 64 64" fill="none" xmlns="http://www.w3.org/2000/svg">
<g clip-path="url(#clip0_1_482788)">
<path d="M32 64C49.6731 64 64 49.6731 64 32C64 14.3269 49.6731 0 32 0C14.3269 0 0 14.3269 0 32C0 49.6731 14.3269 64 32 64Z" fill="#492F23"/>
<path d="M5.39999 27.4133L6.27999 24.5467C7.03999 22.0533 8.99999 21.16 11.2267 21.84C13.32 22.48 14.4667 24.3333 13.72 26.7733L12.84 29.6667L5.39999 27.4V27.4133ZM11.96 27.84L12.4 26.4C12.9067 24.76 12.08 23.6533 10.7733 23.2667C9.30666 22.8267 8.05333 23.3067 7.55999 24.96L7.13333 26.3733L11.96 27.84Z" fill="#FFBE9F"/>
<path d="M11.96 20.2267C10.28 18.7867 10.1067 16.2533 11.5867 14.5333C13.0667 12.8133 15.5867 12.6 17.2667 14.04C18.9467 15.48 19.1333 18 17.6533 19.7333C16.1733 21.4667 13.6533 21.68 11.96 20.24V20.2267ZM16.28 15.1867C15.08 14.16 13.5733 14.3733 12.6533 15.44C11.7333 16.52 11.76 18.04 12.96 19.0533C14.16 20.08 15.6667 19.8533 16.5733 18.7867C17.48 17.72 17.48 16.2 16.28 15.1733V15.1867Z" fill="#FFBE9F"/>
<path d="M23.96 14.8933C21.96 15.8133 19.7733 15.04 18.7733 12.88C17.8267 10.8133 18.6933 8.52001 20.7333 7.57334C22.7067 6.66667 24.2933 7.24001 25.28 8.46667L24.1467 9.50667C23.4267 8.53334 22.3867 8.34667 21.3333 8.82667C20.0667 9.41334 19.52 10.8267 20.16 12.24C20.8133 13.6533 22.1733 14.1867 23.4933 13.5867C24.68 13.04 24.84 11.92 24.6933 11.3467L21.84 12.6533L21.2933 11.4667L25.88 9.36001L27.6 13.0933L26.4133 13.64L25.7467 12.1733C25.76 13.3067 25.24 14.3067 23.9467 14.8933H23.96Z" fill="#FFBE9F"/>
<path d="M32.8267 9.09334L32.9467 7.09334L34.0933 7.16L33.9733 9.16L35.9733 9.28L35.9067 10.4267L33.9067 10.3067L33.7867 12.3067L32.6267 12.24L32.7467 10.24L30.7467 10.12L30.8133 8.97334L32.8133 9.09334H32.8267Z" fill="#FFBE9F"/>
<path d="M41.84 11.1867C40.9733 12.6133 41.4 14 42.6 14.7333C43.92 15.5333 45.16 15.08 46.0133 14.1333L46.8933 15.3067C45.6 16.6533 43.7333 17.0267 41.88 15.8933C39.7733 14.6133 39.3467 12.3333 40.5333 10.4C41.72 8.45334 44.0667 7.88001 46.04 9.06668C47.8267 10.1467 48.1867 11.8133 47.76 13.16L46.2667 12.96C46.64 11.92 46.3733 10.8533 45.32 10.2133C44.1467 9.49334 42.6933 9.80001 41.84 11.1867Z" fill="#FFBE9F"/>
<path d="M53.1333 15.5467L54.3733 17.2667L49.88 24.3333L48.92 22.9867L49.9467 21.4133L47.7867 18.4L45.9733 18.88L45 17.5333L53.1333 15.5467ZM50.7467 20.2133L52.7867 17.0933L49.1867 18.04L50.7467 20.2133Z" fill="#FFBE9F"/>
<path d="M57.3067 28.0267L56.52 25.4L50.4133 27.24L49.9867 25.8L56.0933 23.96L55.3067 21.32L56.64 20.92L58.6533 27.6133L57.32 28.0133L57.3067 28.0267Z" fill="#FFBE9F"/>
<path d="M13.04 34.8L14.2133 38.44C14.6667 39.84 14.1867 41.0667 13.0667 41.44C12.2933 41.6934 11.5733 41.4534 11.0133 40.8C11.0667 41.7467 10.64 42.52 9.71998 42.8134C8.47998 43.2134 7.34665 42.4534 6.86665 40.9734L5.63998 37.2L13.0267 34.8134L13.04 34.8ZM8.19998 40.5734C8.39998 41.2134 8.90665 41.52 9.43998 41.3334C9.95998 41.16 10.24 40.64 10.0267 39.9734L9.25332 37.6L7.42665 38.1867L8.19998 40.56V40.5734ZM11.2533 39.3467C11.48 40.0267 11.9067 40.28 12.4266 40.1067C12.9333 39.9467 13.08 39.4267 12.88 38.8134L12.1733 36.6534L10.5333 37.1867L11.24 39.3467H11.2533Z" fill="#FFBE9F"/>
<path d="M11.8533 43.4134C13.56 42 16.08 42.2534 17.5333 44.0134C18.9867 45.76 18.76 48.28 17.0533 49.6934C15.3467 51.1067 12.8267 50.8534 11.3733 49.1067C9.91998 47.36 10.1333 44.8267 11.84 43.4134H11.8533ZM16.0933 48.52C17.3067 47.52 17.36 45.9867 16.4533 44.9067C15.5467 43.8134 14.04 43.5867 12.84 44.5867C11.6267 45.5867 11.6 47.12 12.48 48.2C13.3733 49.28 14.88 49.5334 16.0933 48.52Z" fill="#FFBE9F"/>
<path d="M22.04 48.1067L23.9067 49.12L22.9333 57.44L21.48 56.6534L21.72 54.7867L18.4667 53.0134L17.04 54.24L15.5733 53.44L22.04 48.12V48.1067ZM21.92 53.3467L22.4 49.6534L19.5733 52.0667L21.92 53.3467Z" fill="#FFBE9F"/>
<path d="M30.24 58.6667C30.1067 58.2534 30.08 57.8934 30.2133 56.88C30.3333 55.92 29.8933 55.52 29.12 55.4267L27.4667 55.2134L27.08 58.2667L25.6 58.08L26.5733 50.3734L30.3467 50.8534C31.96 51.0534 32.76 52.1334 32.6 53.3467C32.48 54.28 31.7867 54.9734 30.8267 55.1867C31.4533 55.4934 31.88 56.1067 31.8133 57.0534C31.76 57.76 31.7333 58.28 32.0133 58.7067L31.9867 58.88L30.2533 58.6667H30.24ZM29.84 54.1067C30.5867 54.2 31.0267 53.8667 31.0933 53.2934C31.16 52.7067 30.8267 52.3067 30.08 52.2134L27.88 51.9334L27.64 53.8267L29.84 54.1067Z" fill="#FFBE9F"/>
<path d="M33.1733 51.16L36.08 50.4534C38.6133 49.84 40.3733 51.0667 40.92 53.3334C41.4267 55.4534 40.4133 57.3867 37.9333 57.9867L34.9867 58.6934L33.16 51.1467L33.1733 51.16ZM36.1333 57.0267L37.5867 56.68C39.2533 56.28 39.7867 55.0134 39.4667 53.6934C39.1067 52.2 38.0533 51.3734 36.3867 51.7867L34.9467 52.1334L36.1333 57.04V57.0267Z" fill="#FFBE9F"/>
<path d="M40.2933 49.0133L41.6133 48.3067L45.3067 55.1467L43.9867 55.8533L40.2933 49.0133Z" fill="#FFBE9F"/>
<path d="M48.8933 52.7467L47.8133 53.7867L42.4267 48.1734L44.2933 46.3867L51.2933 49.0134L46.6267 44.1467L47.7066 43.1067L53.0933 48.72L51.2266 50.5067L44.2266 47.88L48.8933 52.7467Z" fill="#FFBE9F"/>
<path d="M56.6133 42.5867C55.76 44.6134 53.6266 45.5067 51.4266 44.5867C49.3333 43.6934 48.44 41.4134 49.3066 39.3467C50.1466 37.36 51.72 36.7067 53.2666 36.9467L53.12 38.48C51.9466 38.24 51.04 38.8 50.5866 39.88C50.04 41.16 50.5866 42.5734 52.0133 43.1867C53.44 43.8 54.8133 43.28 55.3733 41.9334C55.88 40.7334 55.24 39.8 54.76 39.4667L53.5333 42.36L52.3333 41.8534L54.3066 37.2134L58.08 38.8134L57.5733 40.0134L56.0933 39.3867C56.8666 40.2134 57.1466 41.3067 56.6 42.6L56.6133 42.5867Z" fill="#FFBE9F"/>
<path d="M33.1867 21.72C33.88 21.72 34.4533 22.28 34.4533 22.9867C34.4533 23.68 33.8933 24.2533 33.1867 24.2533C32.48 24.2533 31.92 23.6933 31.92 22.9867C31.92 22.28 32.48 21.72 33.1867 21.72ZM26.7867 18.08C24.3733 19.4667 23.5067 20.9467 22.8533 23.1867C22.3467 24.92 23.04 26.7067 24.32 27.76C25.0133 28.32 26.1333 28.5867 27 28.4133C27.4267 28.3333 27.7867 28.1467 28.0267 27.88C28.2667 27.6133 28.4267 27.2533 28.4267 26.7067V21.1067C28.4267 20.2267 29.1867 20.3067 29.2133 20.88L29.5333 26.7067C29.5333 27.4933 29.28 28.16 28.84 28.64C28.4133 29.12 27.8267 29.3867 27.2133 29.5067C25.9867 29.7467 24.6133 29.4267 23.6133 28.64C22.9467 28.1067 22.3733 27.3867 22.0133 26.5467C21.6267 28.28 20.6933 29.5733 18.5867 31.3333C18.28 31.72 18.2 32.08 18.3333 32.56C18.9467 34.8667 20.48 37.1333 23.7733 39.2667L26.4 37.8933C26.6267 37.7733 26.68 37.7067 26.7867 37.52C26.8933 37.3333 27.0133 36.9867 27.1867 36.5067C27.5067 35.6267 28.1333 34.3333 29.44 33.0267L30.2 30.64C30.4933 29.7067 31.4533 29.0267 32.4933 29.0933C33.2133 29.1467 33.7467 29.6133 34.1333 30.2C34.44 30.0533 34.7467 29.88 35.0933 29.92C36.1333 30.0133 36.9067 30.9733 37.04 31.96L39.0533 31.5733C41.8933 31.16 42.5067 29.6133 43 28.2267C43.5867 26.6133 43 25.56 41.7867 25.24C38.48 24.36 38.52 23.7467 37.56 21.7867C35.9733 18.5333 33.1467 17.2667 31.0533 17.2133C28.96 17.1733 27.7733 17.52 26.7867 18.0933V18.08Z" fill="#FFBE9F"/>
<path d="M35.96 36.72C36.36 36.72 36.68 37.04 36.68 37.44C36.68 37.84 36.36 38.16 35.96 38.16C35.56 38.16 35.24 37.84 35.24 37.44C35.24 37.04 35.56 36.72 35.96 36.72ZM32.3733 30.4133C31.9733 30.3867 31.56 30.64 31.3733 31.24L30.6267 33.6267C27.8133 36.1867 28.7867 38.0933 27.0267 39.04L25.3733 39.9333C24.8133 40.2267 24.76 40.5467 24.8933 41.1067C25.5333 43.8267 29.3867 46.7867 33.2 46.7867C34 46.7867 34.24 46.52 34.24 45.96V44.6267C34.24 43.7067 34.4133 43.2133 35.6267 42.9867L38.52 42.52C39.52 42.2933 40.1467 41.2133 40.4667 39.9467C40.7867 38.68 40.4267 38.2533 39.56 37.8267C38.9467 37.52 38.3067 36.8133 37.9733 36.4C37.8933 36.2533 37.8133 36.08 37.7467 35.8933C37.28 34.7333 36.7333 34.1733 35.9067 33.88C35.9067 33.88 35.7733 32.6933 35.7067 32.0933C35.5867 30.9867 34.4267 30.8533 33.9733 31.9733L33.6533 32.76L33.28 31.2667C33.1467 30.7067 32.76 30.4 32.36 30.36L32.3733 30.4133Z" fill="#FFBE9F"/>
<g clip-path="url(#clip1_1_482788)">
<path d="M32 64C49.6731 64 64 49.6731 64 32C64 14.3269 49.6731 0 32 0C14.3269 0 0 14.3269 0 32C0 49.6731 14.3269 64 32 64Z" fill="#C3D7EE"/>
<path d="M16.5467 20.8533L15.5733 22L9.63998 16.9867L12 14.1867C13.1067 12.8667 14.5067 12.96 15.4667 13.7733C16.3867 14.5467 16.76 15.96 15.6533 17.2667L14.2533 18.92L16.5467 20.8533ZM14.52 16.4533C14.9467 15.9467 14.9733 15.3467 14.4933 14.9333C14 14.52 13.4267 14.6533 12.9867 15.16L11.6667 16.7333L13.2 18.0267L14.52 16.4533Z" fill="#152953"/>
<path d="M15.8133 10.6533L17.0267 9.77333L21.56 16.0933L20.3333 16.96L15.8 10.64L15.8133 10.6533Z" fill="#152953"/>
<path d="M22.12 11.2C22.6666 12.7733 24.0133 13.32 25.3466 12.8533C26.8 12.3467 27.24 11.0933 27.04 9.82667L28.5066 9.89333C28.72 11.7467 27.84 13.4267 25.7866 14.1467C23.4666 14.96 21.44 13.8533 20.68 11.7067C19.92 9.56 20.9733 7.37333 23.1333 6.6C25.1066 5.90667 26.6133 6.66667 27.3866 7.85333L26.2933 8.88C25.72 7.93333 24.7333 7.46667 23.5733 7.86667C22.28 8.32 21.5866 9.64 22.12 11.1733V11.2Z" fill="#152953"/>
<path d="M36.7733 13.24L35 13.1333L32.9466 9.46667L31.5866 10.7733L31.4666 12.9333L29.9733 12.8533L30.4133 5.09334L31.9066 5.17334L31.7066 8.66667L35.12 5.36L37.04 5.46667L34.0133 8.40001L36.76 13.24H36.7733Z" fill="#152953"/>
<path d="M44.6666 8.34666L42.2266 12.24C41.5866 13.2533 41.8 14.2133 42.72 14.7867C43.64 15.36 44.5733 15.12 45.2133 14.1067L47.6533 10.2133L48.92 11.0133L46.4666 14.9467C45.4266 16.6133 43.6933 17.0533 41.9866 15.9867C40.2666 14.92 39.8933 13.16 40.9333 11.4933L43.3866 7.56L44.6533 8.36L44.6666 8.34666Z" fill="#152953"/>
<path d="M46.28 19.3733L45.3733 18.1733L51.5733 13.4933L53.7867 16.4133C54.8267 17.7867 54.4267 19.1333 53.4267 19.88C52.4667 20.6 51.0133 20.6667 49.9733 19.2933L48.6667 17.5733L46.28 19.3867V19.3733ZM51.0133 18.36C51.4133 18.8933 52 19.0533 52.4933 18.6667C53.0133 18.28 53 17.68 52.6 17.1467L51.36 15.5067L49.7733 16.7067L51.0133 18.3467V18.36Z" fill="#152953"/>
<path d="M13.72 36.92L14.3867 38.9333L7.98665 44.3333L7.46665 42.76L8.91999 41.5733L7.75999 38.0533L5.87999 37.9733L5.35999 36.3867L13.72 36.92ZM10.04 40.6533L12.92 38.2933L9.19999 38.12L10.04 40.6533Z" fill="#152953"/>
<path d="M18.4133 45.36L19.4133 46.68L11.4 48.9733L10.1067 47.28L14.4533 40.1733L15.4533 41.4933L11.68 47.4266L18.4 45.3866L18.4133 45.36Z" fill="#152953"/>
<path d="M20.6 47.0933L22.36 48.28L20.6133 56.48L19.24 55.56L19.6533 53.72L16.5733 51.6533L15.04 52.7333L13.6533 51.8L20.6 47.0933ZM19.9867 52.3067L20.8133 48.6667L17.76 50.8133L19.9867 52.3067Z" fill="#152953"/>
<path d="M25.2533 49.68L26.6666 50.16L24.1866 57.52L22.7733 57.04L25.2533 49.68Z" fill="#152953"/>
<path d="M28.9333 50.7067L28.36 57.0533L32.8533 57.4533L32.7333 58.84L26.7466 58.2933L27.44 50.56L28.9333 50.6933V50.7067Z" fill="#152953"/>
<path d="M36 50.5067L38.04 49.9467L43.0933 56.6133L41.4933 57.0533L40.3733 55.5467L36.8 56.52L36.6267 58.3867L35.0267 58.8267L36 50.5067ZM39.5467 54.3733L37.3333 51.3733L36.96 55.08L39.5333 54.3733H39.5467Z" fill="#152953"/>
<path d="M40.84 49.0133L43.8933 46.7067C45.0666 45.8133 46.3867 45.8667 47.1067 46.8133C47.6 47.4533 47.6133 48.2133 47.1733 48.96C48.04 48.6 48.92 48.7467 49.5067 49.52C50.2933 50.56 49.9466 51.88 48.7066 52.8133L45.5333 55.2133L40.8533 49.0133H40.84ZM45.72 49.2133C46.2933 48.7733 46.3867 48.2933 46.0533 47.8533C45.7333 47.4267 45.2 47.4533 44.68 47.8533L42.8667 49.2267L43.9066 50.6L45.72 49.2267V49.2133ZM47.8667 51.6933C48.4 51.2933 48.52 50.72 48.1866 50.2667C47.8533 49.8267 47.2666 49.7333 46.7066 50.16L44.72 51.6667L45.88 53.2L47.8667 51.6933Z" fill="#152953"/>
<path d="M47.0533 43.4933L52.3867 47L54.8667 43.2267L56.0267 43.9867L52.72 49.0133L46.2267 44.7467L47.0533 43.4933Z" fill="#152953"/>
<path d="M51.0533 33.8267L52.4 34.1733L51.32 38.3733L52.9467 38.8L53.9467 34.92L55.2933 35.2667L54.2933 39.1467L56.1467 39.6267L57.2533 35.32L58.6 35.6667L57.12 41.4267L49.6 39.4933L51.0533 33.84V33.8267Z" fill="#152953"/>
<path d="M41.6267 21.6933C41.3467 20.8667 40.5733 20.2933 39.6533 20.2933H24.3467C23.4267 20.2933 22.6667 20.88 22.3733 21.6933L19.48 30.0267V41.16C19.48 41.92 20.1067 42.5467 20.8667 42.5467H22.2533C23.0133 42.5467 23.64 41.92 23.64 41.16V40.4667C23.64 40.08 23.9467 39.7733 24.3333 39.7733H39.64C40.0267 39.7733 40.3333 40.08 40.3333 40.4667V41.16C40.3333 41.92 40.96 42.5467 41.72 42.5467H43.1067C43.8667 42.5467 44.4933 41.92 44.4933 41.16V30.0267L41.6 21.6933H41.6267ZM24.8267 23.0667H39.1467L40.6 27.24H23.3867L24.84 23.0667H24.8267ZM41.7333 36.9867H22.2533V30.0267H41.7333V36.9867Z" fill="#152953"/>
<path d="M25.7333 35.6C26.8894 35.6 27.8267 34.6628 27.8267 33.5067C27.8267 32.3505 26.8894 31.4133 25.7333 31.4133C24.5772 31.4133 23.64 32.3505 23.64 33.5067C23.64 34.6628 24.5772 35.6 25.7333 35.6Z" fill="#152953"/>
<path d="M38.2667 35.6C39.4228 35.6 40.36 34.6628 40.36 33.5067C40.36 32.3505 39.4228 31.4133 38.2667 31.4133C37.1105 31.4133 36.1733 32.3505 36.1733 33.5067C36.1733 34.6628 37.1105 35.6 38.2667 35.6Z" fill="#152953"/>
</g>
</g>
<defs>
<clipPath id="clip0_1_482788">
<rect width="64" height="64" fill="white"/>
</clipPath>
<clipPath id="clip1_1_482788">
<rect width="64" height="64" fill="white"/>
</clipPath>
</defs>
</svg>
