<svg width="65" height="64" viewBox="0 0 65 64" fill="none" xmlns="http://www.w3.org/2000/svg">
<g clip-path="url(#clip0_1_482923)">
<path d="M32.6667 64C50.3398 64 64.6667 49.6731 64.6667 32C64.6667 14.3269 50.3398 0 32.6667 0C14.9935 0 0.666656 14.3269 0.666656 32C0.666656 49.6731 14.9935 64 32.6667 64Z" fill="#492F23"/>
<path d="M6.06666 27.4133L6.94666 24.5467C7.70666 22.0533 9.66666 21.16 11.8933 21.84C13.9867 22.48 15.1333 24.3333 14.3867 26.7733L13.5067 29.6667L6.06666 27.4V27.4133ZM12.6267 27.84L13.0667 26.4C13.5733 24.76 12.7467 23.6533 11.44 23.2667C9.97332 22.8267 8.71999 23.3067 8.22666 24.96L7.79999 26.3733L12.6267 27.84Z" fill="#FFBE9F"/>
<path d="M12.6267 20.2266C10.9467 18.7866 10.7733 16.2533 12.2533 14.5333C13.7333 12.8133 16.2533 12.6 17.9333 14.04C19.6133 15.48 19.8 18 18.32 19.7333C16.84 21.4666 14.32 21.68 12.6267 20.24V20.2266ZM16.9467 15.1866C15.7467 14.16 14.24 14.3733 13.32 15.44C12.4 16.52 12.4267 18.04 13.6267 19.0533C14.8267 20.08 16.3333 19.8533 17.24 18.7866C18.1467 17.72 18.1467 16.2 16.9467 15.1733V15.1866Z" fill="#FFBE9F"/>
<path d="M24.6267 14.8933C22.6267 15.8133 20.44 15.04 19.44 12.88C18.4933 10.8133 19.36 8.51998 21.4 7.57331C23.3733 6.66664 24.96 7.23998 25.9467 8.46664L24.8133 9.50664C24.0933 8.53331 23.0533 8.34664 22 8.82664C20.7333 9.41331 20.1867 10.8266 20.8267 12.24C21.48 13.6533 22.84 14.1866 24.16 13.5866C25.3467 13.04 25.5067 11.92 25.36 11.3466L22.5067 12.6533L21.96 11.4666L26.5467 9.35998L28.2667 13.0933L27.08 13.64L26.4133 12.1733C26.4267 13.3066 25.9067 14.3066 24.6133 14.8933H24.6267Z" fill="#FFBE9F"/>
<path d="M33.4933 9.09332L33.6133 7.09332L34.76 7.15999L34.64 9.15999L36.64 9.27999L36.5733 10.4267L34.5733 10.3067L34.4533 12.3067L33.2933 12.24L33.4133 10.24L31.4133 10.12L31.48 8.97332L33.48 9.09332H33.4933Z" fill="#FFBE9F"/>
<path d="M42.5067 11.1866C41.64 12.6133 42.0667 14 43.2667 14.7333C44.5867 15.5333 45.8267 15.08 46.68 14.1333L47.56 15.3066C46.2667 16.6533 44.4 17.0266 42.5467 15.8933C40.44 14.6133 40.0133 12.3333 41.2 10.4C42.3867 8.45331 44.7333 7.87998 46.7067 9.06665C48.4933 10.1466 48.8533 11.8133 48.4267 13.16L46.9333 12.96C47.3067 11.92 47.04 10.8533 45.9867 10.2133C44.8133 9.49331 43.36 9.79998 42.5067 11.1866Z" fill="#FFBE9F"/>
<path d="M53.8 15.5467L55.04 17.2667L50.5467 24.3333L49.5867 22.9867L50.6133 21.4133L48.4533 18.4L46.64 18.88L45.6667 17.5333L53.8 15.5467ZM51.4133 20.2133L53.4533 17.0933L49.8533 18.04L51.4133 20.2133Z" fill="#FFBE9F"/>
<path d="M57.9733 28.0267L57.1867 25.4L51.08 27.24L50.6533 25.8L56.76 23.96L55.9733 21.32L57.3067 20.92L59.32 27.6133L57.9867 28.0133L57.9733 28.0267Z" fill="#FFBE9F"/>
<path d="M13.7067 34.8L14.88 38.44C15.3333 39.84 14.8533 41.0667 13.7333 41.44C12.96 41.6933 12.24 41.4533 11.68 40.8C11.7333 41.7467 11.3067 42.52 10.3867 42.8133C9.14666 43.2133 8.01332 42.4533 7.53332 40.9733L6.30666 37.2L13.6933 34.8133L13.7067 34.8ZM8.86666 40.5733C9.06666 41.2133 9.57332 41.52 10.1067 41.3333C10.6267 41.16 10.9067 40.64 10.6933 39.9733L9.91999 37.6L8.09332 38.1867L8.86666 40.56V40.5733ZM11.92 39.3467C12.1467 40.0267 12.5733 40.28 13.0933 40.1067C13.6 39.9467 13.7467 39.4267 13.5467 38.8133L12.84 36.6533L11.2 37.1867L11.9067 39.3467H11.92Z" fill="#FFBE9F"/>
<path d="M12.52 43.4133C14.2267 42 16.7467 42.2533 18.2 44.0133C19.6533 45.76 19.4267 48.28 17.72 49.6933C16.0133 51.1067 13.4933 50.8533 12.04 49.1067C10.5867 47.36 10.8 44.8267 12.5067 43.4133H12.52ZM16.76 48.52C17.9733 47.52 18.0267 45.9867 17.12 44.9067C16.2133 43.8133 14.7067 43.5867 13.5067 44.5867C12.2933 45.5867 12.2667 47.12 13.1467 48.2C14.04 49.28 15.5467 49.5333 16.76 48.52Z" fill="#FFBE9F"/>
<path d="M22.7067 48.1067L24.5733 49.12L23.6 57.44L22.1467 56.6533L22.3867 54.7867L19.1333 53.0133L17.7067 54.24L16.24 53.44L22.7067 48.12V48.1067ZM22.5867 53.3467L23.0667 49.6533L20.24 52.0667L22.5867 53.3467Z" fill="#FFBE9F"/>
<path d="M30.9067 58.6667C30.7733 58.2533 30.7467 57.8933 30.88 56.88C31 55.92 30.56 55.52 29.7867 55.4267L28.1333 55.2133L27.7467 58.2667L26.2667 58.08L27.24 50.3733L31.0133 50.8533C32.6267 51.0533 33.4267 52.1333 33.2667 53.3467C33.1467 54.28 32.4533 54.9733 31.4933 55.1867C32.12 55.4933 32.5467 56.1067 32.48 57.0533C32.4267 57.76 32.4 58.28 32.68 58.7067L32.6533 58.88L30.92 58.6667H30.9067ZM30.5067 54.1067C31.2533 54.2 31.6933 53.8667 31.76 53.2933C31.8267 52.7067 31.4933 52.3067 30.7467 52.2133L28.5467 51.9333L28.3067 53.8267L30.5067 54.1067Z" fill="#FFBE9F"/>
<path d="M33.84 51.16L36.7467 50.4533C39.28 49.84 41.04 51.0667 41.5867 53.3333C42.0933 55.4533 41.08 57.3867 38.6 57.9867L35.6533 58.6933L33.8267 51.1467L33.84 51.16ZM36.8 57.0267L38.2533 56.68C39.92 56.28 40.4533 55.0133 40.1333 53.6933C39.7733 52.2 38.72 51.3733 37.0533 51.7867L35.6133 52.1333L36.8 57.04V57.0267Z" fill="#FFBE9F"/>
<path d="M40.96 49.0133L42.28 48.3066L45.9733 55.1466L44.6533 55.8533L40.96 49.0133Z" fill="#FFBE9F"/>
<path d="M49.56 52.7467L48.48 53.7867L43.0933 48.1733L44.96 46.3867L51.96 49.0133L47.2933 44.1467L48.3733 43.1067L53.76 48.72L51.8933 50.5067L44.8933 47.88L49.56 52.7467Z" fill="#FFBE9F"/>
<path d="M57.28 42.5867C56.4266 44.6133 54.2933 45.5067 52.0933 44.5867C50 43.6933 49.1066 41.4133 49.9733 39.3467C50.8133 37.36 52.3867 36.7067 53.9333 36.9467L53.7866 38.48C52.6133 38.24 51.7066 38.8 51.2533 39.88C50.7066 41.16 51.2533 42.5733 52.68 43.1867C54.1066 43.8 55.48 43.28 56.04 41.9333C56.5466 40.7333 55.9066 39.8 55.4266 39.4667L54.2 42.36L53 41.8533L54.9733 37.2133L58.7467 38.8133L58.24 40.0133L56.76 39.3867C57.5333 40.2133 57.8133 41.3067 57.2667 42.6L57.28 42.5867Z" fill="#FFBE9F"/>
<path d="M33.8533 21.72C34.5467 21.72 35.12 22.28 35.12 22.9867C35.12 23.68 34.56 24.2533 33.8533 24.2533C33.1467 24.2533 32.5867 23.6933 32.5867 22.9867C32.5867 22.28 33.1467 21.72 33.8533 21.72ZM27.4533 18.08C25.04 19.4667 24.1733 20.9467 23.52 23.1867C23.0133 24.92 23.7067 26.7067 24.9867 27.76C25.68 28.32 26.8 28.5867 27.6667 28.4133C28.0933 28.3333 28.4533 28.1467 28.6933 27.88C28.9333 27.6133 29.0933 27.2533 29.0933 26.7067V21.1067C29.0933 20.2267 29.8533 20.3067 29.88 20.88L30.2 26.7067C30.2 27.4933 29.9467 28.16 29.5067 28.64C29.08 29.12 28.4933 29.3867 27.88 29.5067C26.6533 29.7467 25.28 29.4267 24.28 28.64C23.6133 28.1067 23.04 27.3867 22.68 26.5467C22.2933 28.28 21.36 29.5733 19.2533 31.3333C18.9467 31.72 18.8667 32.08 19 32.56C19.6133 34.8667 21.1467 37.1333 24.44 39.2667L27.0667 37.8933C27.2933 37.7733 27.3467 37.7067 27.4533 37.52C27.56 37.3333 27.68 36.9867 27.8533 36.5067C28.1733 35.6267 28.8 34.3333 30.1067 33.0267L30.8667 30.64C31.16 29.7067 32.12 29.0267 33.16 29.0933C33.88 29.1467 34.4133 29.6133 34.8 30.2C35.1067 30.0533 35.4133 29.88 35.76 29.92C36.8 30.0133 37.5733 30.9733 37.7067 31.96L39.72 31.5733C42.56 31.16 43.1733 29.6133 43.6667 28.2267C44.2533 26.6133 43.6667 25.56 42.4533 25.24C39.1467 24.36 39.1867 23.7467 38.2267 21.7867C36.64 18.5333 33.8133 17.2667 31.72 17.2133C29.6267 17.1733 28.44 17.52 27.4533 18.0933V18.08Z" fill="#FFBE9F"/>
<path d="M36.6267 36.72C37.0267 36.72 37.3467 37.04 37.3467 37.44C37.3467 37.84 37.0267 38.16 36.6267 38.16C36.2267 38.16 35.9067 37.84 35.9067 37.44C35.9067 37.04 36.2267 36.72 36.6267 36.72ZM33.04 30.4133C32.64 30.3867 32.2267 30.64 32.04 31.24L31.2933 33.6267C28.48 36.1867 29.4533 38.0933 27.6933 39.04L26.04 39.9333C25.48 40.2267 25.4267 40.5467 25.56 41.1067C26.2 43.8267 30.0533 46.7867 33.8667 46.7867C34.6667 46.7867 34.9067 46.52 34.9067 45.96V44.6267C34.9067 43.7067 35.08 43.2133 36.2933 42.9867L39.1867 42.52C40.1867 42.2933 40.8133 41.2133 41.1333 39.9467C41.4533 38.68 41.0933 38.2533 40.2267 37.8267C39.6133 37.52 38.9733 36.8133 38.64 36.4C38.56 36.2533 38.48 36.08 38.4133 35.8933C37.9467 34.7333 37.4 34.1733 36.5733 33.88C36.5733 33.88 36.44 32.6933 36.3733 32.0933C36.2533 30.9867 35.0933 30.8533 34.64 31.9733L34.32 32.76L33.9467 31.2667C33.8133 30.7067 33.4267 30.4 33.0267 30.36L33.04 30.4133Z" fill="#FFBE9F"/>
<g clip-path="url(#clip1_1_482923)">
<path d="M32.6667 64C50.3398 64 64.6667 49.6731 64.6667 32C64.6667 14.3269 50.3398 0 32.6667 0C14.9935 0 0.666656 14.3269 0.666656 32C0.666656 49.6731 14.9935 64 32.6667 64Z" fill="#C3D7EE"/>
<path d="M17.2133 20.8533L16.24 22L10.3067 16.9866L12.6667 14.1866C13.7733 12.8666 15.1733 12.96 16.1333 13.7733C17.0533 14.5466 17.4267 15.96 16.32 17.2666L14.92 18.92L17.2133 20.8533ZM15.1867 16.4533C15.6133 15.9466 15.64 15.3466 15.16 14.9333C14.6667 14.52 14.0933 14.6533 13.6533 15.16L12.3333 16.7333L13.8667 18.0266L15.1867 16.4533Z" fill="#152953"/>
<path d="M16.48 10.6533L17.6933 9.77332L22.2267 16.0933L21 16.96L16.4667 10.64L16.48 10.6533Z" fill="#152953"/>
<path d="M22.7867 11.2C23.3333 12.7733 24.68 13.32 26.0133 12.8533C27.4667 12.3467 27.9067 11.0933 27.7067 9.82665L29.1733 9.89332C29.3867 11.7467 28.5067 13.4267 26.4533 14.1467C24.1333 14.96 22.1067 13.8533 21.3467 11.7067C20.5867 9.55999 21.64 7.37332 23.8 6.59999C25.7733 5.90665 27.28 6.66665 28.0533 7.85332L26.96 8.87999C26.3867 7.93332 25.4 7.46665 24.24 7.86665C22.9467 8.31999 22.2533 9.63999 22.7867 11.1733V11.2Z" fill="#152953"/>
<path d="M37.44 13.24L35.6667 13.1333L33.6133 9.46666L32.2533 10.7733L32.1333 12.9333L30.64 12.8533L31.08 5.09332L32.5733 5.17332L32.3733 8.66666L35.7867 5.35999L37.7067 5.46666L34.68 8.39999L37.4267 13.24H37.44Z" fill="#152953"/>
<path d="M45.3333 8.34666L42.8933 12.24C42.2533 13.2533 42.4667 14.2133 43.3867 14.7867C44.3067 15.36 45.24 15.12 45.88 14.1067L48.32 10.2133L49.5866 11.0133L47.1333 14.9467C46.0933 16.6133 44.36 17.0533 42.6533 15.9867C40.9333 14.92 40.56 13.16 41.6 11.4933L44.0533 7.56L45.32 8.36L45.3333 8.34666Z" fill="#152953"/>
<path d="M46.9467 19.3733L46.04 18.1733L52.24 13.4933L54.4533 16.4133C55.4933 17.7867 55.0933 19.1333 54.0933 19.88C53.1333 20.6 51.68 20.6667 50.64 19.2933L49.3333 17.5733L46.9467 19.3866V19.3733ZM51.68 18.36C52.08 18.8933 52.6667 19.0533 53.16 18.6666C53.68 18.28 53.6667 17.68 53.2667 17.1466L52.0267 15.5067L50.44 16.7066L51.68 18.3467V18.36Z" fill="#152953"/>
<path d="M14.3867 36.92L15.0533 38.9333L8.65332 44.3333L8.13332 42.76L9.58666 41.5733L8.42666 38.0533L6.54666 37.9733L6.02666 36.3867L14.3867 36.92ZM10.7067 40.6533L13.5867 38.2933L9.86666 38.12L10.7067 40.6533Z" fill="#152953"/>
<path d="M19.08 45.36L20.08 46.68L12.0667 48.9733L10.7733 47.28L15.12 40.1733L16.12 41.4933L12.3467 47.4266L19.0667 45.3866L19.08 45.36Z" fill="#152953"/>
<path d="M21.2667 47.0933L23.0267 48.28L21.28 56.48L19.9067 55.56L20.32 53.72L17.24 51.6533L15.7067 52.7333L14.32 51.8L21.2667 47.0933ZM20.6533 52.3067L21.48 48.6667L18.4267 50.8133L20.6533 52.3067Z" fill="#152953"/>
<path d="M25.92 49.68L27.3333 50.16L24.8533 57.52L23.44 57.04L25.92 49.68Z" fill="#152953"/>
<path d="M29.6 50.7067L29.0267 57.0533L33.52 57.4533L33.4 58.84L27.4133 58.2933L28.1067 50.56L29.6 50.6933V50.7067Z" fill="#152953"/>
<path d="M36.6667 50.5067L38.7067 49.9467L43.76 56.6133L42.16 57.0533L41.04 55.5467L37.4667 56.52L37.2933 58.3867L35.6933 58.8267L36.6667 50.5067ZM40.2133 54.3733L38 51.3733L37.6267 55.08L40.2 54.3733H40.2133Z" fill="#152953"/>
<path d="M41.5067 49.0133L44.56 46.7067C45.7333 45.8133 47.0533 45.8667 47.7733 46.8133C48.2667 47.4533 48.28 48.2133 47.84 48.96C48.7067 48.6 49.5867 48.7467 50.1733 49.52C50.96 50.56 50.6133 51.88 49.3733 52.8133L46.2 55.2133L41.52 49.0133H41.5067ZM46.3867 49.2133C46.96 48.7733 47.0533 48.2933 46.72 47.8533C46.4 47.4267 45.8667 47.4533 45.3467 47.8533L43.5333 49.2267L44.5733 50.6L46.3867 49.2267V49.2133ZM48.5333 51.6933C49.0667 51.2933 49.1867 50.72 48.8533 50.2667C48.52 49.8267 47.9333 49.7333 47.3733 50.16L45.3867 51.6667L46.5467 53.2L48.5333 51.6933Z" fill="#152953"/>
<path d="M47.72 43.4933L53.0533 47L55.5333 43.2267L56.6933 43.9867L53.3867 49.0133L46.8933 44.7467L47.72 43.4933Z" fill="#152953"/>
<path d="M51.72 33.8267L53.0667 34.1733L51.9867 38.3733L53.6133 38.8L54.6133 34.92L55.96 35.2667L54.96 39.1467L56.8133 39.6267L57.92 35.32L59.2667 35.6667L57.7867 41.4267L50.2667 39.4933L51.72 33.84V33.8267Z" fill="#152953"/>
<path d="M42.2933 21.6933C42.0133 20.8667 41.24 20.2933 40.32 20.2933H25.0133C24.0933 20.2933 23.3333 20.88 23.04 21.6933L20.1467 30.0267V41.16C20.1467 41.92 20.7733 42.5467 21.5333 42.5467H22.92C23.68 42.5467 24.3067 41.92 24.3067 41.16V40.4667C24.3067 40.08 24.6133 39.7733 25 39.7733H40.3067C40.6933 39.7733 41 40.08 41 40.4667V41.16C41 41.92 41.6267 42.5467 42.3867 42.5467H43.7733C44.5333 42.5467 45.16 41.92 45.16 41.16V30.0267L42.2667 21.6933H42.2933ZM25.4933 23.0667H39.8133L41.2667 27.24H24.0533L25.5067 23.0667H25.4933ZM42.4 36.9867H22.92V30.0267H42.4V36.9867Z" fill="#152953"/>
<path d="M26.4 35.6C27.5561 35.6 28.4933 34.6628 28.4933 33.5067C28.4933 32.3505 27.5561 31.4133 26.4 31.4133C25.2439 31.4133 24.3067 32.3505 24.3067 33.5067C24.3067 34.6628 25.2439 35.6 26.4 35.6Z" fill="#152953"/>
<path d="M38.9333 35.6C40.0894 35.6 41.0266 34.6628 41.0266 33.5067C41.0266 32.3505 40.0894 31.4133 38.9333 31.4133C37.7772 31.4133 36.84 32.3505 36.84 33.5067C36.84 34.6628 37.7772 35.6 38.9333 35.6Z" fill="#152953"/>
</g>
</g>
<defs>
<clipPath id="clip0_1_482923">
<rect width="64" height="64" fill="white" transform="translate(0.666656)"/>
</clipPath>
<clipPath id="clip1_1_482923">
<rect width="64" height="64" fill="white" transform="translate(0.666656)"/>
</clipPath>
</defs>
</svg>
