<svg width="15" height="14" viewBox="0 0 15 14" fill="none" xmlns="http://www.w3.org/2000/svg">
<g clip-path="url(#clip0_1_997892)">
<path d="M10.2847 6.00913C10.2847 6.41095 9.96225 6.73972 9.56813 6.73972C9.17402 6.73972 8.85156 6.41095 8.85156 6.00913C8.85156 5.6073 9.17402 5.27853 9.56813 5.27853C9.96225 5.27853 10.2847 5.6073 10.2847 6.00913Z" fill="#010101"/>
<path d="M9.56813 11.2877C9.56813 11.1507 9.46064 11.0411 9.32628 11.0411C9.19193 11.0411 9.08444 11.1507 9.08444 11.2877C9.08444 11.4247 9.19193 11.5343 9.32628 11.5343C9.46064 11.5343 9.56813 11.4247 9.56813 11.2877Z" fill="#010101"/>
<path d="M8.7351 11.726C8.60074 11.726 8.49326 11.8356 8.49326 11.9726C8.49326 12.1096 8.60074 12.2192 8.7351 12.2192C8.86946 12.2192 8.97694 12.1096 8.97694 11.9726C8.97694 11.8356 8.86946 11.726 8.7351 11.726Z" fill="#010101"/>
<path d="M9.56811 11.8356C9.43375 11.8356 9.32626 11.9452 9.32626 12.0822C9.32626 12.2192 9.43375 12.3288 9.56811 12.3288C9.70246 12.3288 9.80995 12.2192 9.80995 12.0822C9.80995 11.9452 9.70246 11.8356 9.56811 11.8356Z" fill="#010101"/>
<path d="M5.82404 6.00913C5.82404 6.41095 5.50158 6.73972 5.10747 6.73972C4.71336 6.73972 4.3909 6.41095 4.3909 6.00913C4.3909 5.6073 4.71336 5.27853 5.10747 5.27853C5.50158 5.27853 5.82404 5.6073 5.82404 6.00913Z" fill="#010101"/>
<path d="M5.34035 11.0411C5.206 11.0411 5.09851 11.1507 5.09851 11.2877C5.09851 11.4247 5.206 11.5343 5.34035 11.5343C5.47471 11.5343 5.5822 11.4247 5.5822 11.2877C5.5822 11.1507 5.47471 11.0411 5.34035 11.0411Z" fill="#010101"/>
<path d="M5.68967 11.9726C5.68967 12.1096 5.79715 12.2192 5.93151 12.2192C6.06587 12.2192 6.17335 12.1096 6.17335 11.9726C6.17335 11.8356 6.06587 11.726 5.93151 11.726C5.79715 11.726 5.68967 11.8356 5.68967 11.9726Z" fill="#010101"/>
<path d="M5.0985 11.8356C4.96414 11.8356 4.85666 11.9452 4.85666 12.0822C4.85666 12.2192 4.96414 12.3288 5.0985 12.3288C5.23286 12.3288 5.34034 12.2192 5.34034 12.0822C5.34034 11.9452 5.23286 11.8356 5.0985 11.8356Z" fill="#010101"/>
<path d="M14.1631 3.66211C14.1004 2.96804 13.778 2.34704 13.2853 1.88129C12.9539 1.57078 12.5508 1.35161 12.1119 1.22375L8.95903 0.283113C8.69928 0.191788 8.43056 0.118729 8.16185 0.0639346C7.88418 0.0182725 7.61546 -0.00912476 7.33779 -0.00912476C7.06012 -0.00912476 6.78245 0.0182725 6.51374 0.0639346C6.23606 0.109597 5.96735 0.182656 5.71655 0.283113L2.56364 1.22375C2.1337 1.35161 1.72167 1.57078 1.39025 1.88129C0.90657 2.34704 0.584113 2.96804 0.512456 3.66211C0.512456 3.7169 0.34227 7.34247 0.34227 7.34247C0.324356 7.78996 0.575156 8.16439 0.960313 8.25572C1.01406 8.26485 1.0678 8.27398 1.12154 8.27398C1.41713 8.27398 1.67688 8.09133 1.81124 7.7717C1.90977 7.54339 2.0083 7.30594 2.11578 7.07763L2.29493 7.50686C2.40241 7.76257 2.5099 8.12786 2.58155 8.52056C2.66217 8.90412 2.70695 9.28768 2.70695 9.57078C2.70695 10.2375 2.84131 10.8767 3.10107 11.4886C3.36082 12.0913 3.73702 12.6301 4.21175 13.0868C4.51629 13.379 4.91041 13.5434 5.33139 13.5708C5.36722 13.5708 5.40305 13.5708 5.43888 13.5708H5.57324C5.71655 13.5708 5.85986 13.5525 6.00318 13.5251C6.31668 13.8265 6.71975 13.9909 7.14969 13.9909H7.51693C7.94688 13.9909 8.34995 13.8265 8.66345 13.5251C8.80676 13.5525 8.95008 13.5708 9.09339 13.5708H9.22775C9.22775 13.5708 9.2994 13.5708 9.33523 13.5708C9.74726 13.5434 10.1414 13.3699 10.4549 13.0868C10.9296 12.6301 11.3058 12.1005 11.5656 11.4886C11.8253 10.8767 11.9597 10.2375 11.9597 9.57078C11.9597 9.29681 12.0045 8.91325 12.0851 8.52056C12.1657 8.12786 12.2642 7.76257 12.3717 7.50686L12.5508 7.07763C12.6583 7.30594 12.7569 7.53425 12.8554 7.7717C12.9897 8.0822 13.2495 8.27398 13.5451 8.27398C13.5988 8.27398 13.6526 8.27398 13.7063 8.25572C14.0915 8.16439 14.3423 7.78996 14.3244 7.34247C14.3244 7.34247 14.1542 3.7169 14.1542 3.66211H14.1631ZM1.89185 6.32878C1.70375 6.7306 1.51565 7.15069 1.33651 7.57078C1.27381 7.70777 1.18424 7.7717 1.0678 7.7443C0.951355 7.7169 0.834913 7.58905 0.852827 7.36987L1.01406 3.85389V3.83562C1.0678 2.90412 1.67688 2.10046 2.53677 1.7717L5.19704 0.977177C5.19704 0.977177 2.79652 4.3653 1.90081 6.33791L1.89185 6.32878ZM7.51693 13.4703H7.14969C6.94368 13.4703 6.73766 13.4155 6.56748 13.3059C6.73766 13.2146 6.88098 13.0959 6.99742 12.9772C6.99742 12.9772 6.99742 12.9772 7.00638 12.968C7.00638 12.968 7.00638 12.968 7.00638 12.9589C7.22135 12.7397 7.32883 12.5388 7.32883 12.5388C7.32883 12.5388 7.43632 12.7397 7.65129 12.9589C7.65129 12.9589 7.65129 12.9589 7.65129 12.968C7.65129 12.968 7.65129 12.968 7.66025 12.9772C7.77669 13.0959 7.92001 13.2146 8.09019 13.3059C7.91105 13.4155 7.71399 13.4703 7.50798 13.4703H7.51693ZM11.897 7.30594C11.7805 7.59818 11.6641 7.99088 11.5745 8.4201C11.4849 8.84932 11.4402 9.25115 11.4402 9.57078C11.4402 10.1644 11.3237 10.7397 11.0908 11.2785C10.8579 11.8174 10.5265 12.3014 10.1055 12.7032C9.89057 12.9041 9.60395 13.032 9.30836 13.0502C9.28149 13.0502 9.26358 13.0502 9.2367 13.0502H9.10235C8.95903 13.0502 8.80676 13.032 8.66345 12.9863C8.43056 12.9133 8.20663 12.7763 8.03645 12.6027C7.95583 12.5206 7.88418 12.4292 7.82148 12.3288C7.75878 12.2192 7.70503 12.1096 7.66921 11.9909C7.62442 11.863 7.60651 11.726 7.59755 11.589C8.36786 11.3699 8.90529 10.2283 8.90529 9.70777C8.90529 9.49773 8.81572 9.38814 8.74406 9.33334C8.55596 9.18722 8.32308 9.26028 8.0454 9.33334C7.83043 9.39727 7.58859 9.4612 7.32883 9.4612C7.06908 9.4612 6.82723 9.38814 6.61226 9.33334C6.33459 9.25115 6.10171 9.18722 5.91361 9.33334C5.84195 9.38814 5.75238 9.49773 5.75238 9.70777C5.75238 10.2192 6.28981 11.3699 7.06012 11.589C7.06012 11.726 7.03325 11.863 6.98846 11.9909C6.95263 12.1096 6.89889 12.2192 6.83619 12.3288C6.77349 12.4292 6.70183 12.5206 6.62122 12.6027C6.44208 12.7854 6.22711 12.9133 5.99422 12.9863C5.85091 13.032 5.69864 13.0502 5.55532 13.0502H5.42096C5.42096 13.0502 5.37618 13.0502 5.34931 13.0502C5.05372 13.032 4.76709 12.9133 4.55212 12.7032C4.13114 12.3014 3.79077 11.8174 3.56684 11.2785C3.33395 10.7397 3.21751 10.1644 3.21751 9.57078C3.21751 9.25115 3.17272 8.84932 3.08315 8.4201C2.99358 7.99088 2.8861 7.59818 2.7607 7.30594L2.40241 6.45663C3.83555 3.63471 6.02109 0.739734 6.02109 0.739734C6.20919 0.675807 6.39729 0.630145 6.59435 0.593615C6.83619 0.547953 7.08699 0.529688 7.32883 0.529688C7.57068 0.529688 7.82148 0.547953 8.06332 0.593615C8.26038 0.630145 8.44848 0.675807 8.63658 0.739734C8.63658 0.739734 10.8221 3.63471 12.2463 6.45663L11.888 7.30594H11.897ZM13.5988 7.7443C13.4913 7.7717 13.3928 7.70777 13.3301 7.57078C13.151 7.15069 12.9539 6.73973 12.7748 6.32878C11.8791 4.35617 9.47855 0.968044 9.47855 0.968044L12.1388 1.76256C12.9987 2.09133 13.6078 2.89499 13.6615 3.82649V3.84476L13.8228 7.36074C13.8317 7.57992 13.7242 7.70777 13.6078 7.73517L13.5988 7.7443Z" fill="#010101"/>
</g>
<defs>
<clipPath id="clip0_1_997892">
<rect width="14" height="14" fill="white" transform="translate(0.333313)"/>
</clipPath>
</defs>
</svg>
