<svg width="64" height="64" viewBox="0 0 64 64" fill="none" xmlns="http://www.w3.org/2000/svg">
<g clip-path="url(#clip0_1_482786)">
<path d="M32 64C49.6731 64 64 49.6731 64 32C64 14.3269 49.6731 0 32 0C14.3269 0 0 14.3269 0 32C0 49.6731 14.3269 64 32 64Z" fill="#FFDBD7"/>
<path d="M16.2933 10.08L18.92 8.65333C21.2133 7.41333 23.2267 8.14667 24.3333 10.1867C25.3733 12.1067 24.8933 14.24 22.6533 15.4533L19.9867 16.8933L16.28 10.0667L16.2933 10.08ZM20.6667 14.9867L21.9867 14.2667C23.4933 13.44 23.68 12.08 23.04 10.8933C22.3067 9.54667 21.08 9.01333 19.56 9.84L18.2667 10.5467L20.68 14.9867H20.6667Z" fill="#AC003E"/>
<path d="M26.0267 9.51999C25.84 7.30666 27.5067 5.38666 29.7734 5.19999C32.04 5.01333 33.9867 6.63999 34.16 8.85333C34.3334 11.0667 32.6934 12.9867 30.4267 13.1733C28.16 13.36 26.2134 11.7333 26.0267 9.51999ZM32.64 8.97333C32.5067 7.39999 31.28 6.49333 29.88 6.59999C28.4667 6.71999 27.4134 7.82666 27.5467 9.38666C27.68 10.96 28.9067 11.8533 30.3067 11.7467C31.7067 11.64 32.7734 10.5467 32.64 8.97333Z" fill="#AC003E"/>
<path d="M38.3067 14.1867C36.24 13.44 35.2267 11.3467 36.04 9.10666C36.8133 6.97333 39.0533 5.94666 41.1733 6.71999C43.2133 7.46666 43.9333 8.99999 43.7867 10.56L42.2533 10.4933C42.4267 9.30666 41.8267 8.42666 40.72 8.02666C39.4133 7.54666 38.0267 8.15999 37.4933 9.62666C36.96 11.0933 37.5467 12.4267 38.92 12.92C40.1467 13.3733 41.0533 12.68 41.36 12.1733L38.4 11.0933L38.84 9.86666L43.5733 11.6L42.16 15.4667L40.9333 15.0267L41.48 13.52C40.6933 14.3333 39.6133 14.68 38.2933 14.1867H38.3067Z" fill="#AC003E"/>
<path d="M13.04 34.8L14.2133 38.44C14.6667 39.84 14.1867 41.0667 13.0667 41.44C12.2933 41.6933 11.5733 41.4533 11.0133 40.8C11.0667 41.7467 10.64 42.52 9.72001 42.8133C8.48001 43.2133 7.34668 42.4533 6.86668 40.9733L5.64001 37.2L13.0267 34.8133L13.04 34.8ZM8.20001 40.5733C8.40001 41.2133 8.90668 41.52 9.44001 41.3333C9.96001 41.16 10.24 40.64 10.0267 39.9733L9.25335 37.6L7.42668 38.1867L8.20001 40.56V40.5733ZM11.2533 39.3467C11.48 40.0267 11.9067 40.28 12.4267 40.1067C12.9333 39.9467 13.08 39.4267 12.88 38.8133L12.1733 36.6533L10.5333 37.1867L11.24 39.3467H11.2533Z" fill="#AC003E"/>
<path d="M11.8533 43.4133C13.56 42 16.08 42.2533 17.5333 44.0133C18.9867 45.76 18.76 48.28 17.0533 49.6933C15.3467 51.1067 12.8267 50.8533 11.3733 49.1067C9.92001 47.36 10.1333 44.8267 11.84 43.4133H11.8533ZM16.0933 48.52C17.3067 47.52 17.36 45.9867 16.4533 44.9067C15.5467 43.8133 14.04 43.5867 12.84 44.5867C11.6267 45.5867 11.6 47.12 12.48 48.2C13.3733 49.28 14.88 49.5333 16.0933 48.52Z" fill="#AC003E"/>
<path d="M22.04 48.1067L23.9067 49.12L22.9333 57.44L21.48 56.6533L21.72 54.7867L18.4667 53.0133L17.04 54.24L15.5733 53.44L22.04 48.12V48.1067ZM21.92 53.3467L22.4 49.6533L19.5733 52.0667L21.92 53.3467Z" fill="#AC003E"/>
<path d="M30.24 58.6667C30.1067 58.2533 30.08 57.8933 30.2134 56.88C30.3334 55.92 29.8934 55.52 29.12 55.4267L27.4667 55.2133L27.08 58.2667L25.6 58.08L26.5734 50.3733L30.3467 50.8533C31.96 51.0533 32.76 52.1333 32.6 53.3467C32.48 54.28 31.7867 54.9733 30.8267 55.1867C31.4534 55.4933 31.88 56.1067 31.8134 57.0533C31.76 57.76 31.7334 58.28 32.0134 58.7067L31.9867 58.88L30.2534 58.6667H30.24ZM29.84 54.1067C30.5867 54.2 31.0267 53.8667 31.0934 53.2933C31.16 52.7067 30.8267 52.3067 30.08 52.2133L27.88 51.9333L27.64 53.8267L29.84 54.1067Z" fill="#AC003E"/>
<path d="M33.1734 51.16L36.08 50.4533C38.6134 49.84 40.3734 51.0667 40.92 53.3333C41.4267 55.4533 40.4134 57.3867 37.9334 57.9867L34.9867 58.6933L33.16 51.1467L33.1734 51.16ZM36.1334 57.0267L37.5867 56.68C39.2534 56.28 39.7867 55.0133 39.4667 53.6933C39.1067 52.2 38.0534 51.3733 36.3867 51.7867L34.9467 52.1333L36.1334 57.04V57.0267Z" fill="#AC003E"/>
<path d="M40.2934 49.0133L41.6133 48.3066L45.3067 55.1466L43.9867 55.8533L40.2934 49.0133Z" fill="#AC003E"/>
<path d="M48.8933 52.7467L47.8133 53.7867L42.4267 48.1733L44.2934 46.3867L51.2934 49.0133L46.6267 44.1467L47.7067 43.1067L53.0933 48.72L51.2267 50.5067L44.2267 47.88L48.8933 52.7467Z" fill="#AC003E"/>
<path d="M56.6133 42.5867C55.76 44.6133 53.6267 45.5067 51.4267 44.5867C49.3333 43.6933 48.44 41.4133 49.3067 39.3467C50.1467 37.36 51.72 36.7067 53.2667 36.9467L53.12 38.48C51.9467 38.24 51.04 38.8 50.5867 39.88C50.04 41.16 50.5867 42.5733 52.0133 43.1867C53.44 43.8 54.8133 43.28 55.3733 41.9333C55.88 40.7333 55.24 39.8 54.76 39.4667L53.5333 42.36L52.3333 41.8533L54.3067 37.2133L58.08 38.8133L57.5733 40.0133L56.0933 39.3867C56.8667 40.2133 57.1467 41.3067 56.6 42.6L56.6133 42.5867Z" fill="#AC003E"/>
<path d="M45.7333 33.48C45.1467 33.4533 44.6533 33.9333 44.64 34.52C44.5733 37.64 41.9867 40.1867 38.8533 40.1867C36.2133 40.1867 33.9067 38.4 33.24 35.8267C33.1333 35.4 33.0667 34.96 33.0667 34.52C33.0667 34.4933 33.0667 34.4667 33.0667 34.44V33.36C33.4667 33.2133 33.8133 32.9867 34.0667 32.6933L37.6 28.7333C38.1333 28.1467 38.2533 27.3733 37.9467 26.68C37.5733 25.84 36.6267 25.2933 35.5333 25.2933H28.4667C27.3733 25.2933 26.4267 25.84 26.0533 26.68C25.7467 27.3733 25.8667 28.1467 26.4 28.7333L29.9333 32.6933C30.2 32.9867 30.5467 33.2133 30.9333 33.36V34.4267C30.9333 34.4267 30.9333 34.48 30.9333 34.5067C30.9333 34.9467 30.8667 35.3867 30.76 35.8133C30.0933 38.3733 27.7867 40.1733 25.1467 40.1733C22.0133 40.1733 19.4267 37.6267 19.36 34.5067C19.36 33.92 18.8667 33.44 18.2667 33.4667C17.68 33.4667 17.2133 33.96 17.2267 34.56C17.3067 38.84 20.8667 42.32 25.1467 42.32C28.0267 42.32 30.6133 40.76 32 38.36C33.3867 40.7733 35.9733 42.32 38.8533 42.32C43.1333 42.32 46.6933 38.84 46.7733 34.56C46.7733 33.9733 46.32 33.48 45.7333 33.4667V33.48ZM32 31.44C31.7733 31.44 31.5867 31.36 31.52 31.2933L28.1333 27.4933C28.2133 27.4667 28.32 27.44 28.4667 27.44H35.5333C35.68 27.44 35.7867 27.4667 35.8667 27.4933L32.48 31.2933C32.4133 31.36 32.2267 31.44 32 31.44Z" fill="#AC003E"/>
<path d="M41.24 25.4667C42.4182 25.4667 43.3733 24.5115 43.3733 23.3333C43.3733 22.1551 42.4182 21.2 41.24 21.2C40.0618 21.2 39.1067 22.1551 39.1067 23.3333C39.1067 24.5115 40.0618 25.4667 41.24 25.4667Z" fill="#AC003E"/>
<path d="M22.76 25.4667C23.9382 25.4667 24.8933 24.5115 24.8933 23.3333C24.8933 22.1551 23.9382 21.2 22.76 21.2C21.5818 21.2 20.6267 22.1551 20.6267 23.3333C20.6267 24.5115 21.5818 25.4667 22.76 25.4667Z" fill="#AC003E"/>
<path d="M39.4133 37.7733C39.8699 37.7733 40.24 37.4032 40.24 36.9467C40.24 36.4901 39.8699 36.12 39.4133 36.12C38.9568 36.12 38.5867 36.4901 38.5867 36.9467C38.5867 37.4032 38.9568 37.7733 39.4133 37.7733Z" fill="#AC003E"/>
<path d="M41.5467 34.7333C42.0032 34.7333 42.3733 34.3632 42.3733 33.9067C42.3733 33.4501 42.0032 33.08 41.5467 33.08C41.0901 33.08 40.72 33.4501 40.72 33.9067C40.72 34.3632 41.0901 34.7333 41.5467 34.7333Z" fill="#AC003E"/>
<path d="M37.2933 34.7333C37.7499 34.7333 38.12 34.3632 38.12 33.9067C38.12 33.4501 37.7499 33.08 37.2933 33.08C36.8368 33.08 36.4667 33.4501 36.4667 33.9067C36.4667 34.3632 36.8368 34.7333 37.2933 34.7333Z" fill="#AC003E"/>
<path d="M24.5867 37.7733C25.0432 37.7733 25.4133 37.4032 25.4133 36.9467C25.4133 36.4901 25.0432 36.12 24.5867 36.12C24.1301 36.12 23.76 36.4901 23.76 36.9467C23.76 37.4032 24.1301 37.7733 24.5867 37.7733Z" fill="#AC003E"/>
<path d="M26.7067 34.7333C27.1632 34.7333 27.5333 34.3632 27.5333 33.9067C27.5333 33.4501 27.1632 33.08 26.7067 33.08C26.2501 33.08 25.88 33.4501 25.88 33.9067C25.88 34.3632 26.2501 34.7333 26.7067 34.7333Z" fill="#AC003E"/>
<path d="M22.4533 34.7333C22.9099 34.7333 23.28 34.3632 23.28 33.9067C23.28 33.4501 22.9099 33.08 22.4533 33.08C21.9968 33.08 21.6267 33.4501 21.6267 33.9067C21.6267 34.3632 21.9968 34.7333 22.4533 34.7333Z" fill="#AC003E"/>
</g>
<defs>
<clipPath id="clip0_1_482786">
<rect width="64" height="64" fill="white"/>
</clipPath>
</defs>
</svg>
