<svg width="65" height="64" viewBox="0 0 65 64" fill="none" xmlns="http://www.w3.org/2000/svg">
<g clip-path="url(#clip0_1_482817)">
<path d="M32.3333 64C50.0064 64 64.3333 49.6731 64.3333 32C64.3333 14.3269 50.0064 0 32.3333 0C14.6602 0 0.333313 14.3269 0.333313 32C0.333313 49.6731 14.6602 64 32.3333 64Z" fill="#492F23"/>
<path d="M5.73331 27.4133L6.61331 24.5467C7.37331 22.0533 9.33331 21.16 11.56 21.84C13.6533 22.48 14.8 24.3333 14.0533 26.7733L13.1733 29.6667L5.73331 27.4V27.4133ZM12.2933 27.84L12.7333 26.4C13.24 24.76 12.4133 23.6533 11.1066 23.2667C9.63997 22.8267 8.38664 23.3067 7.89331 24.96L7.46664 26.3733L12.2933 27.84Z" fill="#FFBE9F"/>
<path d="M12.2933 20.2267C10.6133 18.7867 10.44 16.2533 11.92 14.5333C13.4 12.8133 15.92 12.6 17.6 14.04C19.28 15.48 19.4666 18 17.9866 19.7333C16.5066 21.4667 13.9866 21.68 12.2933 20.24V20.2267ZM16.6133 15.1867C15.4133 14.16 13.9066 14.3733 12.9866 15.44C12.0666 16.52 12.0933 18.04 13.2933 19.0533C14.4933 20.08 16 19.8533 16.9066 18.7867C17.8133 17.72 17.8133 16.2 16.6133 15.1733V15.1867Z" fill="#FFBE9F"/>
<path d="M24.2933 14.8933C22.2933 15.8133 20.1066 15.04 19.1066 12.88C18.16 10.8133 19.0266 8.52001 21.0666 7.57334C23.04 6.66667 24.6266 7.24001 25.6133 8.46667L24.48 9.50667C23.76 8.53334 22.72 8.34667 21.6666 8.82667C20.4 9.41334 19.8533 10.8267 20.4933 12.24C21.1466 13.6533 22.5066 14.1867 23.8266 13.5867C25.0133 13.04 25.1733 11.92 25.0266 11.3467L22.1733 12.6533L21.6266 11.4667L26.2133 9.36001L27.9333 13.0933L26.7466 13.64L26.08 12.1733C26.0933 13.3067 25.5733 14.3067 24.28 14.8933H24.2933Z" fill="#FFBE9F"/>
<path d="M33.16 9.09334L33.28 7.09334L34.4266 7.16L34.3066 9.16L36.3066 9.28L36.24 10.4267L34.24 10.3067L34.12 12.3067L32.96 12.24L33.08 10.24L31.08 10.12L31.1466 8.97334L33.1466 9.09334H33.16Z" fill="#FFBE9F"/>
<path d="M42.1733 11.1867C41.3066 12.6133 41.7333 14 42.9333 14.7333C44.2533 15.5333 45.4933 15.08 46.3466 14.1333L47.2266 15.3067C45.9333 16.6533 44.0666 17.0267 42.2133 15.8933C40.1066 14.6133 39.68 12.3333 40.8666 10.4C42.0533 8.45334 44.4 7.88001 46.3733 9.06668C48.16 10.1467 48.52 11.8133 48.0933 13.16L46.6 12.96C46.9733 11.92 46.7066 10.8533 45.6533 10.2133C44.48 9.49334 43.0266 9.80001 42.1733 11.1867Z" fill="#FFBE9F"/>
<path d="M53.4666 15.5467L54.7066 17.2667L50.2133 24.3333L49.2533 22.9867L50.28 21.4133L48.12 18.4L46.3066 18.88L45.3333 17.5333L53.4666 15.5467ZM51.08 20.2133L53.12 17.0933L49.52 18.04L51.08 20.2133Z" fill="#FFBE9F"/>
<path d="M57.6399 28.0267L56.8533 25.4L50.7466 27.24L50.3199 25.8L56.4266 23.96L55.6399 21.32L56.9733 20.92L58.9866 27.6133L57.6533 28.0133L57.6399 28.0267Z" fill="#FFBE9F"/>
<path d="M13.3733 34.8L14.5466 38.44C15 39.84 14.52 41.0667 13.4 41.44C12.6266 41.6934 11.9066 41.4534 11.3466 40.8C11.4 41.7467 10.9733 42.52 10.0533 42.8134C8.8133 43.2134 7.67996 42.4534 7.19996 40.9734L5.9733 37.2L13.36 34.8134L13.3733 34.8ZM8.5333 40.5734C8.7333 41.2134 9.23996 41.52 9.7733 41.3334C10.2933 41.16 10.5733 40.64 10.36 39.9734L9.58663 37.6L7.75996 38.1867L8.5333 40.56V40.5734ZM11.5866 39.3467C11.8133 40.0267 12.24 40.28 12.76 40.1067C13.2666 39.9467 13.4133 39.4267 13.2133 38.8134L12.5066 36.6534L10.8666 37.1867L11.5733 39.3467H11.5866Z" fill="#FFBE9F"/>
<path d="M12.1866 43.4134C13.8933 42 16.4133 42.2534 17.8666 44.0134C19.32 45.76 19.0933 48.28 17.3866 49.6934C15.68 51.1067 13.16 50.8534 11.7066 49.1067C10.2533 47.36 10.4666 44.8267 12.1733 43.4134H12.1866ZM16.4266 48.52C17.64 47.52 17.6933 45.9867 16.7866 44.9067C15.88 43.8134 14.3733 43.5867 13.1733 44.5867C11.96 45.5867 11.9333 47.12 12.8133 48.2C13.7066 49.28 15.2133 49.5334 16.4266 48.52Z" fill="#FFBE9F"/>
<path d="M22.3733 48.1067L24.2399 49.12L23.2666 57.44L21.8133 56.6534L22.0533 54.7867L18.7999 53.0134L17.3733 54.24L15.9066 53.44L22.3733 48.12V48.1067ZM22.2533 53.3467L22.7333 49.6534L19.9066 52.0667L22.2533 53.3467Z" fill="#FFBE9F"/>
<path d="M30.5733 58.6667C30.44 58.2534 30.4133 57.8934 30.5466 56.88C30.6666 55.92 30.2266 55.52 29.4533 55.4267L27.8 55.2134L27.4133 58.2667L25.9333 58.08L26.9066 50.3734L30.68 50.8534C32.2933 51.0534 33.0933 52.1334 32.9333 53.3467C32.8133 54.28 32.12 54.9734 31.16 55.1867C31.7866 55.4934 32.2133 56.1067 32.1466 57.0534C32.0933 57.76 32.0666 58.28 32.3466 58.7067L32.32 58.88L30.5866 58.6667H30.5733ZM30.1733 54.1067C30.92 54.2 31.36 53.8667 31.4266 53.2934C31.4933 52.7067 31.16 52.3067 30.4133 52.2134L28.2133 51.9334L27.9733 53.8267L30.1733 54.1067Z" fill="#FFBE9F"/>
<path d="M33.5066 51.16L36.4133 50.4534C38.9466 49.84 40.7066 51.0667 41.2533 53.3334C41.76 55.4534 40.7466 57.3867 38.2666 57.9867L35.32 58.6934L33.4933 51.1467L33.5066 51.16ZM36.4666 57.0267L37.92 56.68C39.5866 56.28 40.12 55.0134 39.8 53.6934C39.44 52.2 38.3866 51.3734 36.72 51.7867L35.28 52.1334L36.4666 57.04V57.0267Z" fill="#FFBE9F"/>
<path d="M40.6266 49.0133L41.9466 48.3067L45.64 55.1467L44.32 55.8533L40.6266 49.0133Z" fill="#FFBE9F"/>
<path d="M49.2266 52.7467L48.1466 53.7867L42.7599 48.1734L44.6266 46.3867L51.6266 49.0134L46.96 44.1467L48.0399 43.1067L53.4266 48.72L51.5599 50.5067L44.5599 47.88L49.2266 52.7467Z" fill="#FFBE9F"/>
<path d="M56.9466 42.5867C56.0933 44.6134 53.9599 45.5067 51.7599 44.5867C49.6666 43.6934 48.7733 41.4134 49.6399 39.3467C50.4799 37.36 52.0533 36.7067 53.5999 36.9467L53.4533 38.48C52.2799 38.24 51.3733 38.8 50.9199 39.88C50.3733 41.16 50.9199 42.5734 52.3466 43.1867C53.7733 43.8 55.1466 43.28 55.7066 41.9334C56.2133 40.7334 55.5733 39.8 55.0933 39.4667L53.8666 42.36L52.6666 41.8534L54.6399 37.2134L58.4133 38.8134L57.9066 40.0134L56.4266 39.3867C57.1999 40.2134 57.4799 41.3067 56.9333 42.6L56.9466 42.5867Z" fill="#FFBE9F"/>
<path d="M33.52 21.72C34.2133 21.72 34.7867 22.28 34.7867 22.9867C34.7867 23.68 34.2267 24.2533 33.52 24.2533C32.8133 24.2533 32.2533 23.6933 32.2533 22.9867C32.2533 22.28 32.8133 21.72 33.52 21.72ZM27.12 18.08C24.7067 19.4667 23.84 20.9467 23.1867 23.1867C22.68 24.92 23.3733 26.7067 24.6533 27.76C25.3467 28.32 26.4667 28.5867 27.3333 28.4133C27.76 28.3333 28.12 28.1467 28.36 27.88C28.6 27.6133 28.76 27.2533 28.76 26.7067V21.1067C28.76 20.2267 29.52 20.3067 29.5467 20.88L29.8667 26.7067C29.8667 27.4933 29.6133 28.16 29.1733 28.64C28.7467 29.12 28.16 29.3867 27.5467 29.5067C26.32 29.7467 24.9467 29.4267 23.9467 28.64C23.28 28.1067 22.7067 27.3867 22.3467 26.5467C21.96 28.28 21.0267 29.5733 18.92 31.3333C18.6133 31.72 18.5333 32.08 18.6667 32.56C19.28 34.8667 20.8133 37.1333 24.1067 39.2667L26.7333 37.8933C26.96 37.7733 27.0133 37.7067 27.12 37.52C27.2267 37.3333 27.3467 36.9867 27.52 36.5067C27.84 35.6267 28.4667 34.3333 29.7733 33.0267L30.5333 30.64C30.8267 29.7067 31.7867 29.0267 32.8267 29.0933C33.5467 29.1467 34.08 29.6133 34.4667 30.2C34.7733 30.0533 35.08 29.88 35.4267 29.92C36.4667 30.0133 37.24 30.9733 37.3733 31.96L39.3867 31.5733C42.2267 31.16 42.84 29.6133 43.3333 28.2267C43.92 26.6133 43.3333 25.56 42.12 25.24C38.8133 24.36 38.8533 23.7467 37.8933 21.7867C36.3067 18.5333 33.48 17.2667 31.3867 17.2133C29.2933 17.1733 28.1067 17.52 27.12 18.0933V18.08Z" fill="#FFBE9F"/>
<path d="M36.2933 36.72C36.6933 36.72 37.0133 37.04 37.0133 37.44C37.0133 37.84 36.6933 38.16 36.2933 38.16C35.8933 38.16 35.5733 37.84 35.5733 37.44C35.5733 37.04 35.8933 36.72 36.2933 36.72ZM32.7066 30.4133C32.3066 30.3867 31.8933 30.64 31.7066 31.24L30.96 33.6267C28.1466 36.1867 29.12 38.0933 27.36 39.04L25.7066 39.9333C25.1466 40.2267 25.0933 40.5467 25.2266 41.1067C25.8666 43.8267 29.72 46.7867 33.5333 46.7867C34.3333 46.7867 34.5733 46.52 34.5733 45.96V44.6267C34.5733 43.7067 34.7466 43.2133 35.96 42.9867L38.8533 42.52C39.8533 42.2933 40.48 41.2133 40.8 39.9467C41.12 38.68 40.76 38.2533 39.8933 37.8267C39.28 37.52 38.64 36.8133 38.3066 36.4C38.2266 36.2533 38.1466 36.08 38.08 35.8933C37.6133 34.7333 37.0666 34.1733 36.24 33.88C36.24 33.88 36.1066 32.6933 36.04 32.0933C35.92 30.9867 34.76 30.8533 34.3066 31.9733L33.9866 32.76L33.6133 31.2667C33.48 30.7067 33.0933 30.4 32.6933 30.36L32.7066 30.4133Z" fill="#FFBE9F"/>
<g clip-path="url(#clip1_1_482817)">
<path d="M32.3333 64C50.0064 64 64.3333 49.6731 64.3333 32C64.3333 14.3269 50.0064 0 32.3333 0C14.6602 0 0.333313 14.3269 0.333313 32C0.333313 49.6731 14.6602 64 32.3333 64Z" fill="#C3D7EE"/>
<path d="M16.88 20.8533L15.9066 22L9.9733 16.9867L12.3333 14.1867C13.44 12.8667 14.84 12.96 15.8 13.7733C16.72 14.5467 17.0933 15.96 15.9866 17.2667L14.5866 18.92L16.88 20.8533ZM14.8533 16.4533C15.28 15.9467 15.3066 15.3467 14.8266 14.9333C14.3333 14.52 13.76 14.6533 13.32 15.16L12 16.7333L13.5333 18.0267L14.8533 16.4533Z" fill="#152953"/>
<path d="M16.1466 10.6533L17.36 9.77333L21.8933 16.0933L20.6666 16.96L16.1333 10.64L16.1466 10.6533Z" fill="#152953"/>
<path d="M22.4533 11.2C23 12.7733 24.3466 13.32 25.68 12.8533C27.1333 12.3467 27.5733 11.0933 27.3733 9.82667L28.84 9.89333C29.0533 11.7467 28.1733 13.4267 26.12 14.1467C23.8 14.96 21.7733 13.8533 21.0133 11.7067C20.2533 9.56 21.3066 7.37333 23.4666 6.6C25.44 5.90667 26.9466 6.66667 27.72 7.85333L26.6266 8.88C26.0533 7.93333 25.0666 7.46667 23.9066 7.86667C22.6133 8.32 21.92 9.64 22.4533 11.1733V11.2Z" fill="#152953"/>
<path d="M37.1066 13.24L35.3333 13.1333L33.28 9.46667L31.92 10.7733L31.8 12.9333L30.3066 12.8533L30.7466 5.09334L32.24 5.17334L32.04 8.66667L35.4533 5.36L37.3733 5.46667L34.3466 8.40001L37.0933 13.24H37.1066Z" fill="#152953"/>
<path d="M45 8.34666L42.56 12.24C41.92 13.2533 42.1333 14.2133 43.0533 14.7867C43.9733 15.36 44.9067 15.12 45.5467 14.1067L47.9867 10.2133L49.2533 11.0133L46.8 14.9467C45.76 16.6133 44.0267 17.0533 42.32 15.9867C40.6 14.92 40.2267 13.16 41.2667 11.4933L43.72 7.56L44.9867 8.36L45 8.34666Z" fill="#152953"/>
<path d="M46.6133 19.3733L45.7066 18.1733L51.9066 13.4933L54.1199 16.4133C55.1599 17.7867 54.7599 19.1333 53.7599 19.88C52.7999 20.6 51.3466 20.6667 50.3066 19.2933L48.9999 17.5733L46.6133 19.3867V19.3733ZM51.3466 18.36C51.7466 18.8933 52.3333 19.0533 52.8266 18.6667C53.3466 18.28 53.3333 17.68 52.9333 17.1467L51.6933 15.5067L50.1066 16.7067L51.3466 18.3467V18.36Z" fill="#152953"/>
<path d="M14.0533 36.92L14.72 38.9333L8.31996 44.3333L7.79996 42.76L9.2533 41.5733L8.0933 38.0533L6.2133 37.9733L5.6933 36.3867L14.0533 36.92ZM10.3733 40.6533L13.2533 38.2933L9.5333 38.12L10.3733 40.6533Z" fill="#152953"/>
<path d="M18.7466 45.36L19.7466 46.68L11.7333 48.9733L10.44 47.28L14.7866 40.1733L15.7866 41.4933L12.0133 47.4266L18.7333 45.3866L18.7466 45.36Z" fill="#152953"/>
<path d="M20.9333 47.0933L22.6933 48.28L20.9466 56.48L19.5733 55.56L19.9866 53.72L16.9066 51.6533L15.3733 52.7333L13.9866 51.8L20.9333 47.0933ZM20.32 52.3067L21.1466 48.6667L18.0933 50.8133L20.32 52.3067Z" fill="#152953"/>
<path d="M25.5866 49.68L27 50.16L24.52 57.52L23.1066 57.04L25.5866 49.68Z" fill="#152953"/>
<path d="M29.2666 50.7067L28.6933 57.0533L33.1866 57.4533L33.0666 58.84L27.08 58.2933L27.7733 50.56L29.2666 50.6933V50.7067Z" fill="#152953"/>
<path d="M36.3333 50.5067L38.3733 49.9467L43.4267 56.6133L41.8267 57.0533L40.7067 55.5467L37.1333 56.52L36.96 58.3867L35.36 58.8267L36.3333 50.5067ZM39.88 54.3733L37.6667 51.3733L37.2933 55.08L39.8667 54.3733H39.88Z" fill="#152953"/>
<path d="M41.1733 49.0133L44.2266 46.7067C45.3999 45.8133 46.7199 45.8667 47.4399 46.8133C47.9333 47.4533 47.9466 48.2133 47.5066 48.96C48.3733 48.6 49.2533 48.7467 49.8399 49.52C50.6266 50.56 50.2799 51.88 49.0399 52.8133L45.8666 55.2133L41.1866 49.0133H41.1733ZM46.0533 49.2133C46.6266 48.7733 46.7199 48.2933 46.3866 47.8533C46.0666 47.4267 45.5333 47.4533 45.0133 47.8533L43.1999 49.2267L44.2399 50.6L46.0533 49.2267V49.2133ZM48.1999 51.6933C48.7333 51.2933 48.8533 50.72 48.5199 50.2667C48.1866 49.8267 47.5999 49.7333 47.0399 50.16L45.0533 51.6667L46.2133 53.2L48.1999 51.6933Z" fill="#152953"/>
<path d="M47.3866 43.4933L52.7199 47L55.1999 43.2267L56.3599 43.9867L53.0533 49.0133L46.5599 44.7467L47.3866 43.4933Z" fill="#152953"/>
<path d="M51.3866 33.8267L52.7333 34.1733L51.6533 38.3733L53.28 38.8L54.28 34.92L55.6266 35.2667L54.6266 39.1467L56.48 39.6267L57.5866 35.32L58.9333 35.6667L57.4533 41.4267L49.9333 39.4933L51.3866 33.84V33.8267Z" fill="#152953"/>
<path d="M41.96 21.6933C41.68 20.8667 40.9067 20.2933 39.9867 20.2933H24.68C23.76 20.2933 23 20.88 22.7067 21.6933L19.8133 30.0267V41.16C19.8133 41.92 20.44 42.5467 21.2 42.5467H22.5867C23.3467 42.5467 23.9733 41.92 23.9733 41.16V40.4667C23.9733 40.08 24.28 39.7733 24.6667 39.7733H39.9733C40.36 39.7733 40.6667 40.08 40.6667 40.4667V41.16C40.6667 41.92 41.2933 42.5467 42.0533 42.5467H43.44C44.2 42.5467 44.8267 41.92 44.8267 41.16V30.0267L41.9333 21.6933H41.96ZM25.16 23.0667H39.48L40.9333 27.24H23.72L25.1733 23.0667H25.16ZM42.0667 36.9867H22.5867V30.0267H42.0667V36.9867Z" fill="#152953"/>
<path d="M26.0667 35.6C27.2228 35.6 28.16 34.6628 28.16 33.5067C28.16 32.3505 27.2228 31.4133 26.0667 31.4133C24.9105 31.4133 23.9733 32.3505 23.9733 33.5067C23.9733 34.6628 24.9105 35.6 26.0667 35.6Z" fill="#152953"/>
<path d="M38.6 35.6C39.7561 35.6 40.6933 34.6628 40.6933 33.5067C40.6933 32.3505 39.7561 31.4133 38.6 31.4133C37.4439 31.4133 36.5067 32.3505 36.5067 33.5067C36.5067 34.6628 37.4439 35.6 38.6 35.6Z" fill="#152953"/>
</g>
</g>
<defs>
<clipPath id="clip0_1_482817">
<rect width="64" height="64" fill="white" transform="translate(0.333313)"/>
</clipPath>
<clipPath id="clip1_1_482817">
<rect width="64" height="64" fill="white" transform="translate(0.333313)"/>
</clipPath>
</defs>
</svg>
