<svg width="14" height="14" viewBox="0 0 14 14" fill="none" xmlns="http://www.w3.org/2000/svg">
<g clip-path="url(#clip0_1_997637)">
<path d="M9.95139 6.00913C9.95139 6.41095 9.62893 6.73972 9.23482 6.73972C8.84071 6.73972 8.51825 6.41095 8.51825 6.00913C8.51825 5.6073 8.84071 5.27853 9.23482 5.27853C9.62893 5.27853 9.95139 5.6073 9.95139 6.00913Z" fill="#010101"/>
<path d="M9.23481 11.2877C9.23481 11.1507 9.12733 11.0411 8.99297 11.0411C8.85861 11.0411 8.75113 11.1507 8.75113 11.2877C8.75113 11.4247 8.85861 11.5343 8.99297 11.5343C9.12733 11.5343 9.23481 11.4247 9.23481 11.2877Z" fill="#010101"/>
<path d="M8.40179 11.726C8.26743 11.726 8.15994 11.8356 8.15994 11.9726C8.15994 12.1096 8.26743 12.2192 8.40179 12.2192C8.53614 12.2192 8.64363 12.1096 8.64363 11.9726C8.64363 11.8356 8.53614 11.726 8.40179 11.726Z" fill="#010101"/>
<path d="M9.23479 11.8356C9.10044 11.8356 8.99295 11.9452 8.99295 12.0822C8.99295 12.2192 9.10044 12.3288 9.23479 12.3288C9.36915 12.3288 9.47664 12.2192 9.47664 12.0822C9.47664 11.9452 9.36915 11.8356 9.23479 11.8356Z" fill="#010101"/>
<path d="M5.49073 6.00913C5.49073 6.41095 5.16827 6.73972 4.77416 6.73972C4.38004 6.73972 4.05759 6.41095 4.05759 6.00913C4.05759 5.6073 4.38004 5.27853 4.77416 5.27853C5.16827 5.27853 5.49073 5.6073 5.49073 6.00913Z" fill="#010101"/>
<path d="M5.00704 11.0411C4.87268 11.0411 4.7652 11.1507 4.7652 11.2877C4.7652 11.4247 4.87268 11.5343 5.00704 11.5343C5.1414 11.5343 5.24888 11.4247 5.24888 11.2877C5.24888 11.1507 5.1414 11.0411 5.00704 11.0411Z" fill="#010101"/>
<path d="M5.35635 11.9726C5.35635 12.1096 5.46384 12.2192 5.5982 12.2192C5.73255 12.2192 5.84004 12.1096 5.84004 11.9726C5.84004 11.8356 5.73255 11.726 5.5982 11.726C5.46384 11.726 5.35635 11.8356 5.35635 11.9726Z" fill="#010101"/>
<path d="M4.76519 11.8356C4.63083 11.8356 4.52335 11.9452 4.52335 12.0822C4.52335 12.2192 4.63083 12.3288 4.76519 12.3288C4.89955 12.3288 5.00703 12.2192 5.00703 12.0822C5.00703 11.9452 4.89955 11.8356 4.76519 11.8356Z" fill="#010101"/>
<path d="M13.8298 3.66211C13.7671 2.96804 13.4447 2.34704 12.952 1.88129C12.6206 1.57078 12.2175 1.35161 11.7786 1.22375L8.62572 0.283113C8.36596 0.191788 8.09725 0.118729 7.82853 0.0639346C7.55086 0.0182725 7.28215 -0.00912476 7.00448 -0.00912476C6.72681 -0.00912476 6.44914 0.0182725 6.18042 0.0639346C5.90275 0.109597 5.63404 0.182656 5.38324 0.283113L2.23033 1.22375C1.80038 1.35161 1.38836 1.57078 1.05694 1.88129C0.573257 2.34704 0.2508 2.96804 0.179143 3.66211C0.179143 3.7169 0.00895739 7.34247 0.00895739 7.34247C-0.00895687 7.78996 0.241843 8.16439 0.627 8.25572C0.680742 8.26485 0.734485 8.27398 0.788228 8.27398C1.08381 8.27398 1.34357 8.09133 1.47793 7.7717C1.57646 7.54339 1.67498 7.30594 1.78247 7.07763L1.96161 7.50686C2.0691 7.76257 2.17658 8.12786 2.24824 8.52056C2.32885 8.90412 2.37364 9.28768 2.37364 9.57078C2.37364 10.2375 2.508 10.8767 2.76775 11.4886C3.02751 12.0913 3.40371 12.6301 3.87844 13.0868C4.18298 13.379 4.5771 13.5434 4.99808 13.5708C5.03391 13.5708 5.06974 13.5708 5.10557 13.5708H5.23992C5.38324 13.5708 5.52655 13.5525 5.66987 13.5251C5.98337 13.8265 6.38644 13.9909 6.81638 13.9909H7.18362C7.61356 13.9909 8.01663 13.8265 8.33013 13.5251C8.47345 13.5525 8.61676 13.5708 8.76008 13.5708H8.89443C8.89443 13.5708 8.96609 13.5708 9.00192 13.5708C9.41395 13.5434 9.80806 13.3699 10.1216 13.0868C10.5963 12.6301 10.9725 12.1005 11.2322 11.4886C11.492 10.8767 11.6264 10.2375 11.6264 9.57078C11.6264 9.29681 11.6711 8.91325 11.7518 8.52056C11.8324 8.12786 11.9309 7.76257 12.0384 7.50686L12.2175 7.07763C12.325 7.30594 12.4235 7.53425 12.5221 7.7717C12.6564 8.0822 12.9162 8.27398 13.2118 8.27398C13.2655 8.27398 13.3193 8.27398 13.373 8.25572C13.7582 8.16439 14.009 7.78996 13.991 7.34247C13.991 7.34247 13.8209 3.7169 13.8209 3.66211H13.8298ZM1.55854 6.32878C1.37044 6.7306 1.18234 7.15069 1.0032 7.57078C0.940499 7.70777 0.850928 7.7717 0.734485 7.7443C0.618042 7.7169 0.5016 7.58905 0.519514 7.36987L0.680742 3.85389V3.83562C0.734485 2.90412 1.34357 2.10046 2.20346 1.7717L4.86372 0.977177C4.86372 0.977177 2.46321 4.3653 1.5675 6.33791L1.55854 6.32878ZM7.18362 13.4703H6.81638C6.61036 13.4703 6.40435 13.4155 6.23416 13.3059C6.40435 13.2146 6.54766 13.0959 6.66411 12.9772C6.66411 12.9772 6.66411 12.9772 6.67306 12.968C6.67306 12.968 6.67306 12.968 6.67306 12.9589C6.88804 12.7397 6.99552 12.5388 6.99552 12.5388C6.99552 12.5388 7.10301 12.7397 7.31798 12.9589C7.31798 12.9589 7.31798 12.9589 7.31798 12.968C7.31798 12.968 7.31798 12.968 7.32694 12.9772C7.44338 13.0959 7.58669 13.2146 7.75688 13.3059C7.57774 13.4155 7.38068 13.4703 7.17466 13.4703H7.18362ZM11.5637 7.30594C11.4472 7.59818 11.3308 7.99088 11.2412 8.4201C11.1516 8.84932 11.1068 9.25115 11.1068 9.57078C11.1068 10.1644 10.9904 10.7397 10.7575 11.2785C10.5246 11.8174 10.1932 12.3014 9.77223 12.7032C9.55726 12.9041 9.27063 13.032 8.97505 13.0502C8.94818 13.0502 8.93026 13.0502 8.90339 13.0502H8.76903C8.62572 13.0502 8.47345 13.032 8.33013 12.9863C8.09725 12.9133 7.87332 12.7763 7.70314 12.6027C7.62252 12.5206 7.55086 12.4292 7.48816 12.3288C7.42546 12.2192 7.37172 12.1096 7.33589 11.9909C7.29111 11.863 7.27319 11.726 7.26424 11.589C8.03455 11.3699 8.57198 10.2283 8.57198 9.70777C8.57198 9.49773 8.48241 9.38814 8.41075 9.33334C8.22265 9.18722 7.98976 9.26028 7.71209 9.33334C7.49712 9.39727 7.25528 9.4612 6.99552 9.4612C6.73576 9.4612 6.49392 9.38814 6.27895 9.33334C6.00128 9.25115 5.76839 9.18722 5.58029 9.33334C5.50864 9.38814 5.41907 9.49773 5.41907 9.70777C5.41907 10.2192 5.95649 11.3699 6.72681 11.589C6.72681 11.726 6.69994 11.863 6.65515 11.9909C6.61932 12.1096 6.56558 12.2192 6.50288 12.3288C6.44018 12.4292 6.36852 12.5206 6.28791 12.6027C6.10876 12.7854 5.89379 12.9133 5.66091 12.9863C5.51759 13.032 5.36532 13.0502 5.22201 13.0502H5.08765C5.08765 13.0502 5.04287 13.0502 5.01599 13.0502C4.72041 13.032 4.43378 12.9133 4.21881 12.7032C3.79782 12.3014 3.45745 11.8174 3.23353 11.2785C3.00064 10.7397 2.8842 10.1644 2.8842 9.57078C2.8842 9.25115 2.83941 8.84932 2.74984 8.4201C2.66027 7.99088 2.55278 7.59818 2.42738 7.30594L2.0691 6.45663C3.50224 3.63471 5.68778 0.739734 5.68778 0.739734C5.87588 0.675807 6.06398 0.630145 6.26104 0.593615C6.50288 0.547953 6.75368 0.529688 6.99552 0.529688C7.23736 0.529688 7.48816 0.547953 7.73001 0.593615C7.92706 0.630145 8.11516 0.675807 8.30326 0.739734C8.30326 0.739734 10.4888 3.63471 11.913 6.45663L11.5547 7.30594H11.5637ZM13.2655 7.7443C13.158 7.7717 13.0595 7.70777 12.9968 7.57078C12.8177 7.15069 12.6206 6.73973 12.4415 6.32878C11.5457 4.35617 9.14523 0.968044 9.14523 0.968044L11.8055 1.76256C12.6654 2.09133 13.2745 2.89499 13.3282 3.82649V3.84476L13.4894 7.36074C13.4984 7.57992 13.3909 7.70777 13.2745 7.73517L13.2655 7.7443Z" fill="#010101"/>
</g>
<defs>
<clipPath id="clip0_1_997637">
<rect width="14" height="14" fill="white"/>
</clipPath>
</defs>
</svg>
