<svg width="65" height="64" viewBox="0 0 65 64" fill="none" xmlns="http://www.w3.org/2000/svg">
<g clip-path="url(#clip0_1_482614)">
<path d="M32.3333 64C50.0064 64 64.3333 49.6731 64.3333 32C64.3333 14.3269 50.0064 0 32.3333 0C14.6602 0 0.333313 14.3269 0.333313 32C0.333313 49.6731 14.6602 64 32.3333 64Z" fill="#FFDBD7"/>
<path d="M16.6267 10.08L19.2533 8.65333C21.5467 7.41333 23.56 8.14667 24.6667 10.1867C25.7067 12.1067 25.2267 14.24 22.9867 15.4533L20.32 16.8933L16.6133 10.0667L16.6267 10.08ZM21 14.9867L22.32 14.2667C23.8267 13.44 24.0133 12.08 23.3733 10.8933C22.64 9.54667 21.4133 9.01333 19.8933 9.84L18.6 10.5467L21.0133 14.9867H21Z" fill="#AC003E"/>
<path d="M26.36 9.52001C26.1733 7.30667 27.84 5.38668 30.1067 5.20001C32.3733 5.01334 34.32 6.64001 34.4933 8.85334C34.6667 11.0667 33.0267 12.9867 30.76 13.1733C28.4933 13.36 26.5467 11.7333 26.36 9.52001ZM32.9733 8.97334C32.84 7.40001 31.6133 6.49334 30.2133 6.60001C28.8 6.72001 27.7467 7.82668 27.88 9.38668C28.0133 10.96 29.24 11.8533 30.64 11.7467C32.04 11.64 33.1067 10.5467 32.9733 8.97334Z" fill="#AC003E"/>
<path d="M38.64 14.1867C36.5733 13.44 35.56 11.3467 36.3733 9.10666C37.1467 6.97333 39.3867 5.94666 41.5067 6.71999C43.5467 7.46666 44.2667 8.99999 44.12 10.56L42.5867 10.4933C42.76 9.30666 42.16 8.42666 41.0533 8.02666C39.7467 7.54666 38.36 8.15999 37.8267 9.62666C37.2933 11.0933 37.88 12.4267 39.2533 12.92C40.48 13.3733 41.3867 12.68 41.6933 12.1733L38.7333 11.0933L39.1733 9.86666L43.9067 11.6L42.4933 15.4667L41.2667 15.0267L41.8133 13.52C41.0267 14.3333 39.9467 14.68 38.6267 14.1867H38.64Z" fill="#AC003E"/>
<path d="M13.3733 34.8L14.5467 38.44C15 39.84 14.52 41.0667 13.4 41.44C12.6267 41.6934 11.9067 41.4534 11.3467 40.8C11.4 41.7467 10.9733 42.52 10.0533 42.8134C8.81333 43.2134 7.67999 42.4534 7.19999 40.9734L5.97333 37.2L13.36 34.8134L13.3733 34.8ZM8.53333 40.5734C8.73333 41.2134 9.23999 41.52 9.77333 41.3334C10.2933 41.16 10.5733 40.64 10.36 39.9734L9.58666 37.6L7.75999 38.1867L8.53333 40.56V40.5734ZM11.5867 39.3467C11.8133 40.0267 12.24 40.28 12.76 40.1067C13.2667 39.9467 13.4133 39.4267 13.2133 38.8134L12.5067 36.6534L10.8667 37.1867L11.5733 39.3467H11.5867Z" fill="#AC003E"/>
<path d="M12.1867 43.4134C13.8933 42 16.4133 42.2534 17.8667 44.0134C19.32 45.76 19.0933 48.28 17.3867 49.6934C15.68 51.1067 13.16 50.8534 11.7067 49.1067C10.2533 47.36 10.4667 44.8267 12.1733 43.4134H12.1867ZM16.4267 48.52C17.64 47.52 17.6933 45.9867 16.7867 44.9067C15.88 43.8134 14.3733 43.5867 13.1733 44.5867C11.96 45.5867 11.9333 47.12 12.8133 48.2C13.7067 49.28 15.2133 49.5334 16.4267 48.52Z" fill="#AC003E"/>
<path d="M22.3733 48.1067L24.24 49.12L23.2666 57.44L21.8133 56.6534L22.0533 54.7867L18.8 53.0134L17.3733 54.24L15.9066 53.44L22.3733 48.12V48.1067ZM22.2533 53.3467L22.7333 49.6534L19.9066 52.0667L22.2533 53.3467Z" fill="#AC003E"/>
<path d="M30.5733 58.6667C30.44 58.2534 30.4133 57.8934 30.5467 56.88C30.6667 55.92 30.2267 55.52 29.4533 55.4267L27.8 55.2134L27.4133 58.2667L25.9333 58.08L26.9067 50.3734L30.68 50.8534C32.2933 51.0534 33.0933 52.1334 32.9333 53.3467C32.8133 54.28 32.12 54.9734 31.16 55.1867C31.7867 55.4934 32.2133 56.1067 32.1467 57.0534C32.0933 57.76 32.0667 58.28 32.3467 58.7067L32.32 58.88L30.5867 58.6667H30.5733ZM30.1733 54.1067C30.92 54.2 31.36 53.8667 31.4267 53.2934C31.4933 52.7067 31.16 52.3067 30.4133 52.2134L28.2133 51.9334L27.9733 53.8267L30.1733 54.1067Z" fill="#AC003E"/>
<path d="M33.5066 51.16L36.4133 50.4534C38.9466 49.84 40.7066 51.0667 41.2533 53.3334C41.76 55.4534 40.7467 57.3867 38.2667 57.9867L35.32 58.6934L33.4933 51.1467L33.5066 51.16ZM36.4666 57.0267L37.92 56.68C39.5866 56.28 40.12 55.0134 39.8 53.6934C39.44 52.2 38.3867 51.3734 36.72 51.7867L35.28 52.1334L36.4666 57.04V57.0267Z" fill="#AC003E"/>
<path d="M40.6266 49.0133L41.9466 48.3067L45.64 55.1467L44.32 55.8533L40.6266 49.0133Z" fill="#AC003E"/>
<path d="M49.2267 52.7467L48.1467 53.7867L42.76 48.1734L44.6267 46.3867L51.6267 49.0134L46.96 44.1467L48.04 43.1067L53.4267 48.72L51.56 50.5067L44.56 47.88L49.2267 52.7467Z" fill="#AC003E"/>
<path d="M56.9467 42.5867C56.0933 44.6134 53.96 45.5067 51.76 44.5867C49.6667 43.6934 48.7733 41.4134 49.64 39.3467C50.48 37.36 52.0533 36.7067 53.6 36.9467L53.4533 38.48C52.28 38.24 51.3733 38.8 50.92 39.88C50.3733 41.16 50.92 42.5734 52.3467 43.1867C53.7733 43.8 55.1467 43.28 55.7067 41.9334C56.2133 40.7334 55.5733 39.8 55.0933 39.4667L53.8667 42.36L52.6667 41.8534L54.64 37.2134L58.4133 38.8134L57.9067 40.0134L56.4267 39.3867C57.2 40.2134 57.48 41.3067 56.9333 42.6L56.9467 42.5867Z" fill="#AC003E"/>
<path d="M46.0666 33.48C45.48 33.4533 44.9866 33.9333 44.9733 34.52C44.9066 37.64 42.32 40.1867 39.1866 40.1867C36.5466 40.1867 34.24 38.4 33.5733 35.8267C33.4666 35.4 33.4 34.96 33.4 34.52C33.4 34.4933 33.4 34.4667 33.4 34.44V33.36C33.8 33.2133 34.1466 32.9867 34.4 32.6933L37.9333 28.7333C38.4666 28.1467 38.5866 27.3733 38.28 26.68C37.9066 25.84 36.96 25.2933 35.8666 25.2933H28.8C27.7066 25.2933 26.76 25.84 26.3866 26.68C26.08 27.3733 26.2 28.1467 26.7333 28.7333L30.2666 32.6933C30.5333 32.9867 30.88 33.2133 31.2666 33.36V34.4267C31.2666 34.4267 31.2666 34.48 31.2666 34.5067C31.2666 34.9467 31.2 35.3867 31.0933 35.8133C30.4266 38.3733 28.12 40.1733 25.48 40.1733C22.3466 40.1733 19.76 37.6267 19.6933 34.5067C19.6933 33.92 19.2 33.44 18.6 33.4667C18.0133 33.4667 17.5466 33.96 17.56 34.56C17.64 38.84 21.2 42.32 25.48 42.32C28.36 42.32 30.9466 40.76 32.3333 38.36C33.72 40.7733 36.3066 42.32 39.1866 42.32C43.4666 42.32 47.0266 38.84 47.1066 34.56C47.1066 33.9733 46.6533 33.48 46.0666 33.4667V33.48ZM32.3333 31.44C32.1066 31.44 31.92 31.36 31.8533 31.2933L28.4666 27.4933C28.5466 27.4667 28.6533 27.44 28.8 27.44H35.8666C36.0133 27.44 36.12 27.4667 36.2 27.4933L32.8133 31.2933C32.7466 31.36 32.56 31.44 32.3333 31.44Z" fill="#AC003E"/>
<path d="M41.5733 25.4667C42.7515 25.4667 43.7066 24.5116 43.7066 23.3333C43.7066 22.1551 42.7515 21.2 41.5733 21.2C40.3951 21.2 39.4399 22.1551 39.4399 23.3333C39.4399 24.5116 40.3951 25.4667 41.5733 25.4667Z" fill="#AC003E"/>
<path d="M23.0933 25.4667C24.2715 25.4667 25.2266 24.5116 25.2266 23.3333C25.2266 22.1551 24.2715 21.2 23.0933 21.2C21.9151 21.2 20.96 22.1551 20.96 23.3333C20.96 24.5116 21.9151 25.4667 23.0933 25.4667Z" fill="#AC003E"/>
<path d="M39.7466 37.7734C40.2032 37.7734 40.5733 37.4032 40.5733 36.9467C40.5733 36.4901 40.2032 36.12 39.7466 36.12C39.2901 36.12 38.92 36.4901 38.92 36.9467C38.92 37.4032 39.2901 37.7734 39.7466 37.7734Z" fill="#AC003E"/>
<path d="M41.8799 34.7334C42.3365 34.7334 42.7066 34.3632 42.7066 33.9067C42.7066 33.4501 42.3365 33.08 41.8799 33.08C41.4234 33.08 41.0533 33.4501 41.0533 33.9067C41.0533 34.3632 41.4234 34.7334 41.8799 34.7334Z" fill="#AC003E"/>
<path d="M37.6267 34.7334C38.0832 34.7334 38.4533 34.3632 38.4533 33.9067C38.4533 33.4501 38.0832 33.08 37.6267 33.08C37.1701 33.08 36.8 33.4501 36.8 33.9067C36.8 34.3632 37.1701 34.7334 37.6267 34.7334Z" fill="#AC003E"/>
<path d="M24.92 37.7734C25.3765 37.7734 25.7466 37.4032 25.7466 36.9467C25.7466 36.4901 25.3765 36.12 24.92 36.12C24.4634 36.12 24.0933 36.4901 24.0933 36.9467C24.0933 37.4032 24.4634 37.7734 24.92 37.7734Z" fill="#AC003E"/>
<path d="M27.04 34.7334C27.4965 34.7334 27.8667 34.3632 27.8667 33.9067C27.8667 33.4501 27.4965 33.08 27.04 33.08C26.5834 33.08 26.2133 33.4501 26.2133 33.9067C26.2133 34.3632 26.5834 34.7334 27.04 34.7334Z" fill="#AC003E"/>
<path d="M22.7866 34.7334C23.2432 34.7334 23.6133 34.3632 23.6133 33.9067C23.6133 33.4501 23.2432 33.08 22.7866 33.08C22.3301 33.08 21.96 33.4501 21.96 33.9067C21.96 34.3632 22.3301 34.7334 22.7866 34.7334Z" fill="#AC003E"/>
</g>
<defs>
<clipPath id="clip0_1_482614">
<rect width="64" height="64" fill="white" transform="translate(0.333313)"/>
</clipPath>
</defs>
</svg>
