<svg width="15" height="14" viewBox="0 0 15 14" fill="none" xmlns="http://www.w3.org/2000/svg">
<g clip-path="url(#clip0_1_998367)">
<path d="M10.2847 6.00913C10.2847 6.41095 9.96225 6.73972 9.56813 6.73972C9.17402 6.73972 8.85156 6.41095 8.85156 6.00913C8.85156 5.6073 9.17402 5.27853 9.56813 5.27853C9.96225 5.27853 10.2847 5.6073 10.2847 6.00913Z" fill="#010101"/>
<path d="M9.56813 11.2877C9.56813 11.1507 9.46064 11.0411 9.32628 11.0411C9.19193 11.0411 9.08444 11.1507 9.08444 11.2877C9.08444 11.4247 9.19193 11.5342 9.32628 11.5342C9.46064 11.5342 9.56813 11.4247 9.56813 11.2877Z" fill="#010101"/>
<path d="M8.7351 11.726C8.60074 11.726 8.49326 11.8356 8.49326 11.9726C8.49326 12.1096 8.60074 12.2192 8.7351 12.2192C8.86946 12.2192 8.97694 12.1096 8.97694 11.9726C8.97694 11.8356 8.86946 11.726 8.7351 11.726Z" fill="#010101"/>
<path d="M9.56811 11.8356C9.43375 11.8356 9.32626 11.9452 9.32626 12.0822C9.32626 12.2192 9.43375 12.3288 9.56811 12.3288C9.70246 12.3288 9.80995 12.2192 9.80995 12.0822C9.80995 11.9452 9.70246 11.8356 9.56811 11.8356Z" fill="#010101"/>
<path d="M5.82404 6.00913C5.82404 6.41095 5.50158 6.73972 5.10747 6.73972C4.71336 6.73972 4.3909 6.41095 4.3909 6.00913C4.3909 5.6073 4.71336 5.27853 5.10747 5.27853C5.50158 5.27853 5.82404 5.6073 5.82404 6.00913Z" fill="#010101"/>
<path d="M5.34035 11.0411C5.206 11.0411 5.09851 11.1507 5.09851 11.2877C5.09851 11.4247 5.206 11.5342 5.34035 11.5342C5.47471 11.5342 5.5822 11.4247 5.5822 11.2877C5.5822 11.1507 5.47471 11.0411 5.34035 11.0411Z" fill="#010101"/>
<path d="M5.68967 11.9726C5.68967 12.1096 5.79715 12.2192 5.93151 12.2192C6.06587 12.2192 6.17335 12.1096 6.17335 11.9726C6.17335 11.8356 6.06587 11.726 5.93151 11.726C5.79715 11.726 5.68967 11.8356 5.68967 11.9726Z" fill="#010101"/>
<path d="M5.0985 11.8356C4.96414 11.8356 4.85666 11.9452 4.85666 12.0822C4.85666 12.2192 4.96414 12.3288 5.0985 12.3288C5.23286 12.3288 5.34034 12.2192 5.34034 12.0822C5.34034 11.9452 5.23286 11.8356 5.0985 11.8356Z" fill="#010101"/>
<path d="M14.1631 3.66209C14.1004 2.96803 13.778 2.34702 13.2853 1.88127C12.9539 1.57077 12.5508 1.35159 12.1119 1.22374L8.95903 0.283097C8.69928 0.191773 8.43056 0.118714 8.16185 0.0639193C7.88418 0.0182572 7.61546 -0.00914001 7.33779 -0.00914001C7.06012 -0.00914001 6.78245 0.0182572 6.51374 0.0639193C6.23606 0.109581 5.96735 0.182641 5.71655 0.283097L2.56364 1.22374C2.1337 1.35159 1.72167 1.57077 1.39025 1.88127C0.90657 2.34702 0.584113 2.96803 0.512456 3.66209C0.512456 3.71689 0.34227 7.34246 0.34227 7.34246C0.324356 7.78995 0.575156 8.16438 0.960313 8.2557C1.01406 8.26483 1.0678 8.27397 1.12154 8.27397C1.41713 8.27397 1.67688 8.09132 1.81124 7.77168C1.90977 7.54337 2.0083 7.30593 2.11578 7.07762L2.29493 7.50684C2.40241 7.76255 2.5099 8.12785 2.58155 8.52054C2.66217 8.9041 2.70695 9.28766 2.70695 9.57077C2.70695 10.2374 2.84131 10.8767 3.10107 11.4886C3.36082 12.0913 3.73702 12.6301 4.21175 13.0868C4.51629 13.379 4.91041 13.5434 5.33139 13.5708C5.36722 13.5708 5.40305 13.5708 5.43888 13.5708H5.57324C5.71655 13.5708 5.85986 13.5525 6.00318 13.5251C6.31668 13.8265 6.71975 13.9909 7.14969 13.9909H7.51693C7.94688 13.9909 8.34995 13.8265 8.66345 13.5251C8.80676 13.5525 8.95008 13.5708 9.09339 13.5708H9.22775C9.22775 13.5708 9.2994 13.5708 9.33523 13.5708C9.74726 13.5434 10.1414 13.3699 10.4549 13.0868C10.9296 12.6301 11.3058 12.1004 11.5656 11.4886C11.8253 10.8767 11.9597 10.2374 11.9597 9.57077C11.9597 9.2968 12.0045 8.91323 12.0851 8.52054C12.1657 8.12785 12.2642 7.76255 12.3717 7.50684L12.5508 7.07762C12.6583 7.30593 12.7569 7.53424 12.8554 7.77168C12.9897 8.08218 13.2495 8.27397 13.5451 8.27397C13.5988 8.27397 13.6526 8.27397 13.7063 8.2557C14.0915 8.16438 14.3423 7.78995 14.3244 7.34246C14.3244 7.34246 14.1542 3.71689 14.1542 3.66209H14.1631ZM1.89185 6.32876C1.70375 6.73059 1.51565 7.15068 1.33651 7.57077C1.27381 7.70776 1.18424 7.77168 1.0678 7.74428C0.951355 7.71689 0.834913 7.58903 0.852827 7.36986L1.01406 3.85387V3.83561C1.0678 2.9041 1.67688 2.10045 2.53677 1.77168L5.19704 0.977161C5.19704 0.977161 2.79652 4.36529 1.90081 6.33789L1.89185 6.32876ZM7.51693 13.4703H7.14969C6.94368 13.4703 6.73766 13.4155 6.56748 13.3059C6.73766 13.2146 6.88098 13.0959 6.99742 12.9772C6.99742 12.9772 6.99742 12.9772 7.00638 12.968C7.00638 12.968 7.00638 12.968 7.00638 12.9589C7.22135 12.7397 7.32883 12.5388 7.32883 12.5388C7.32883 12.5388 7.43632 12.7397 7.65129 12.9589C7.65129 12.9589 7.65129 12.9589 7.65129 12.968C7.65129 12.968 7.65129 12.968 7.66025 12.9772C7.77669 13.0959 7.92001 13.2146 8.09019 13.3059C7.91105 13.4155 7.71399 13.4703 7.50798 13.4703H7.51693ZM11.897 7.30593C11.7805 7.59817 11.6641 7.99086 11.5745 8.42008C11.4849 8.84931 11.4402 9.25113 11.4402 9.57077C11.4402 10.1644 11.3237 10.7397 11.0908 11.2785C10.8579 11.8173 10.5265 12.3014 10.1055 12.7032C9.89057 12.9041 9.60395 13.032 9.30836 13.0502C9.28149 13.0502 9.26358 13.0502 9.2367 13.0502H9.10235C8.95903 13.0502 8.80676 13.032 8.66345 12.9863C8.43056 12.9132 8.20663 12.7762 8.03645 12.6027C7.95583 12.5205 7.88418 12.4292 7.82148 12.3288C7.75878 12.2192 7.70503 12.1096 7.66921 11.9909C7.62442 11.863 7.60651 11.726 7.59755 11.589C8.36786 11.3699 8.90529 10.2283 8.90529 9.70776C8.90529 9.49771 8.81572 9.38812 8.74406 9.33333C8.55596 9.18721 8.32308 9.26027 8.0454 9.33333C7.83043 9.39725 7.58859 9.46118 7.32883 9.46118C7.06908 9.46118 6.82723 9.38812 6.61226 9.33333C6.33459 9.25113 6.10171 9.18721 5.91361 9.33333C5.84195 9.38812 5.75238 9.49771 5.75238 9.70776C5.75238 10.2192 6.28981 11.3699 7.06012 11.589C7.06012 11.726 7.03325 11.863 6.98846 11.9909C6.95263 12.1096 6.89889 12.2192 6.83619 12.3288C6.77349 12.4292 6.70183 12.5205 6.62122 12.6027C6.44208 12.7854 6.22711 12.9132 5.99422 12.9863C5.85091 13.032 5.69864 13.0502 5.55532 13.0502H5.42096C5.42096 13.0502 5.37618 13.0502 5.34931 13.0502C5.05372 13.032 4.76709 12.9132 4.55212 12.7032C4.13114 12.3014 3.79077 11.8173 3.56684 11.2785C3.33395 10.7397 3.21751 10.1644 3.21751 9.57077C3.21751 9.25113 3.17272 8.84931 3.08315 8.42008C2.99358 7.99086 2.8861 7.59817 2.7607 7.30593L2.40241 6.45661C3.83555 3.6347 6.02109 0.739718 6.02109 0.739718C6.20919 0.675792 6.39729 0.630129 6.59435 0.5936C6.83619 0.547938 7.08699 0.529673 7.32883 0.529673C7.57068 0.529673 7.82148 0.547938 8.06332 0.5936C8.26038 0.630129 8.44848 0.675792 8.63658 0.739718C8.63658 0.739718 10.8221 3.6347 12.2463 6.45661L11.888 7.30593H11.897ZM13.5988 7.74428C13.4913 7.77168 13.3928 7.70776 13.3301 7.57077C13.151 7.15068 12.9539 6.73972 12.7748 6.32876C11.8791 4.35616 9.47855 0.968029 9.47855 0.968029L12.1388 1.76255C12.9987 2.09132 13.6078 2.89497 13.6615 3.82648V3.84474L13.8228 7.36072C13.8317 7.5799 13.7242 7.70776 13.6078 7.73515L13.5988 7.74428Z" fill="#010101"/>
</g>
<defs>
<clipPath id="clip0_1_998367">
<rect width="14" height="14" fill="white" transform="translate(0.333313)"/>
</clipPath>
</defs>
</svg>
