<svg width="15" height="14" viewBox="0 0 15 14" fill="none" xmlns="http://www.w3.org/2000/svg">
<g clip-path="url(#clip0_1_997711)">
<path d="M10.618 6.00913C10.618 6.41095 10.2956 6.73972 9.90146 6.73972C9.50735 6.73972 9.18489 6.41095 9.18489 6.00913C9.18489 5.6073 9.50735 5.27853 9.90146 5.27853C10.2956 5.27853 10.618 5.6073 10.618 6.00913Z" fill="#010101"/>
<path d="M9.90146 11.2877C9.90146 11.1507 9.79398 11.0411 9.65962 11.0411C9.52526 11.0411 9.41778 11.1507 9.41778 11.2877C9.41778 11.4247 9.52526 11.5343 9.65962 11.5343C9.79398 11.5343 9.90146 11.4247 9.90146 11.2877Z" fill="#010101"/>
<path d="M9.06845 11.726C8.93409 11.726 8.82661 11.8356 8.82661 11.9726C8.82661 12.1096 8.93409 12.2192 9.06845 12.2192C9.20281 12.2192 9.31029 12.1096 9.31029 11.9726C9.31029 11.8356 9.20281 11.726 9.06845 11.726Z" fill="#010101"/>
<path d="M9.90147 11.8356C9.76711 11.8356 9.65962 11.9452 9.65962 12.0822C9.65962 12.2192 9.76711 12.3288 9.90147 12.3288C10.0358 12.3288 10.1433 12.2192 10.1433 12.0822C10.1433 11.9452 10.0358 11.8356 9.90147 11.8356Z" fill="#010101"/>
<path d="M6.15738 6.00913C6.15738 6.41095 5.83492 6.73972 5.44081 6.73972C5.04669 6.73972 4.72424 6.41095 4.72424 6.00913C4.72424 5.6073 5.04669 5.27853 5.44081 5.27853C5.83492 5.27853 6.15738 5.6073 6.15738 6.00913Z" fill="#010101"/>
<path d="M5.6737 11.0411C5.53934 11.0411 5.43185 11.1507 5.43185 11.2877C5.43185 11.4247 5.53934 11.5343 5.6737 11.5343C5.80805 11.5343 5.91554 11.4247 5.91554 11.2877C5.91554 11.1507 5.80805 11.0411 5.6737 11.0411Z" fill="#010101"/>
<path d="M6.02303 11.9726C6.02303 12.1096 6.13051 12.2192 6.26487 12.2192C6.39923 12.2192 6.50671 12.1096 6.50671 11.9726C6.50671 11.8356 6.39923 11.726 6.26487 11.726C6.13051 11.726 6.02303 11.8356 6.02303 11.9726Z" fill="#010101"/>
<path d="M5.43185 11.8356C5.2975 11.8356 5.19001 11.9452 5.19001 12.0822C5.19001 12.2192 5.2975 12.3288 5.43185 12.3288C5.56621 12.3288 5.6737 12.2192 5.6737 12.0822C5.6737 11.9452 5.56621 11.8356 5.43185 11.8356Z" fill="#010101"/>
<path d="M14.4965 3.66211C14.4338 2.96804 14.1113 2.34704 13.6187 1.88129C13.2873 1.57078 12.8842 1.35161 12.4453 1.22375L9.29238 0.283113C9.03262 0.191788 8.76391 0.118729 8.49519 0.0639346C8.21752 0.0182725 7.94881 -0.00912476 7.67113 -0.00912476C7.39346 -0.00912476 7.11579 0.0182725 6.84708 0.0639346C6.56941 0.109597 6.30069 0.182656 6.04989 0.283113L2.89698 1.22375C2.46704 1.35161 2.05501 1.57078 1.7236 1.88129C1.23991 2.34704 0.917456 2.96804 0.845799 3.66211C0.845799 3.7169 0.675614 7.34247 0.675614 7.34247C0.6577 7.78996 0.908499 8.16439 1.29366 8.25572C1.3474 8.26485 1.40114 8.27398 1.45488 8.27398C1.75047 8.27398 2.01023 8.09133 2.14458 7.7717C2.24311 7.54339 2.34164 7.30594 2.44913 7.07763L2.62827 7.50686C2.73575 7.76257 2.84324 8.12786 2.9149 8.52056C2.99551 8.90412 3.0403 9.28768 3.0403 9.57078C3.0403 10.2375 3.17465 10.8767 3.43441 11.4886C3.69417 12.0913 4.07037 12.6301 4.5451 13.0868C4.84964 13.379 5.24375 13.5434 5.66474 13.5708C5.70057 13.5708 5.73639 13.5708 5.77222 13.5708H5.90658C6.04989 13.5708 6.19321 13.5525 6.33652 13.5251C6.65002 13.8265 7.05309 13.9909 7.48304 13.9909H7.85028C8.28022 13.9909 8.68329 13.8265 8.99679 13.5251C9.14011 13.5525 9.28342 13.5708 9.42673 13.5708H9.56109C9.56109 13.5708 9.63275 13.5708 9.66858 13.5708C10.0806 13.5434 10.4747 13.3699 10.7882 13.0868C11.2629 12.6301 11.6391 12.1005 11.8989 11.4886C12.1587 10.8767 12.293 10.2375 12.293 9.57078C12.293 9.29681 12.3378 8.91325 12.4184 8.52056C12.499 8.12786 12.5976 7.76257 12.705 7.50686L12.8842 7.07763C12.9917 7.30594 13.0902 7.53425 13.1887 7.7717C13.3231 8.0822 13.5828 8.27398 13.8784 8.27398C13.9322 8.27398 13.9859 8.27398 14.0397 8.25572C14.4248 8.16439 14.6756 7.78996 14.6577 7.34247C14.6577 7.34247 14.4875 3.7169 14.4875 3.66211H14.4965ZM2.2252 6.32878C2.0371 6.7306 1.849 7.15069 1.66986 7.57078C1.60716 7.70777 1.51758 7.7717 1.40114 7.7443C1.2847 7.7169 1.16826 7.58905 1.18617 7.36987L1.3474 3.85389V3.83562C1.40114 2.90412 2.01023 2.10046 2.87011 1.7717L5.53038 0.977177C5.53038 0.977177 3.12987 4.3653 2.23416 6.33791L2.2252 6.32878ZM7.85028 13.4703H7.48304C7.27702 13.4703 7.07101 13.4155 6.90082 13.3059C7.07101 13.2146 7.21432 13.0959 7.33076 12.9772C7.33076 12.9772 7.33076 12.9772 7.33972 12.968C7.33972 12.968 7.33972 12.968 7.33972 12.9589C7.55469 12.7397 7.66218 12.5388 7.66218 12.5388C7.66218 12.5388 7.76966 12.7397 7.98463 12.9589C7.98463 12.9589 7.98463 12.9589 7.98463 12.968C7.98463 12.968 7.98464 12.968 7.99359 12.9772C8.11004 13.0959 8.25335 13.2146 8.42353 13.3059C8.24439 13.4155 8.04734 13.4703 7.84132 13.4703H7.85028ZM12.2303 7.30594C12.1139 7.59818 11.9974 7.99088 11.9079 8.4201C11.8183 8.84932 11.7735 9.25115 11.7735 9.57078C11.7735 10.1644 11.6571 10.7397 11.4242 11.2785C11.1913 11.8174 10.8599 12.3014 10.4389 12.7032C10.2239 12.9041 9.93729 13.032 9.6417 13.0502C9.61483 13.0502 9.59692 13.0502 9.57005 13.0502H9.43569C9.29238 13.0502 9.14011 13.032 8.99679 12.9863C8.76391 12.9133 8.53998 12.7763 8.36979 12.6027C8.28918 12.5206 8.21752 12.4292 8.15482 12.3288C8.09212 12.2192 8.03838 12.1096 8.00255 11.9909C7.95776 11.863 7.93985 11.726 7.93089 11.589C8.70121 11.3699 9.23863 10.2283 9.23863 9.70777C9.23863 9.49773 9.14906 9.38814 9.07741 9.33334C8.88931 9.18722 8.65642 9.26028 8.37875 9.33334C8.16378 9.39727 7.92193 9.4612 7.66218 9.4612C7.40242 9.4612 7.16058 9.38814 6.94561 9.33334C6.66794 9.25115 6.43505 9.18722 6.24695 9.33334C6.17529 9.38814 6.08572 9.49773 6.08572 9.70777C6.08572 10.2192 6.62315 11.3699 7.39346 11.589C7.39346 11.726 7.36659 11.863 7.32181 11.9909C7.28598 12.1096 7.23224 12.2192 7.16954 12.3288C7.10684 12.4292 7.03518 12.5206 6.95456 12.6027C6.77542 12.7854 6.56045 12.9133 6.32756 12.9863C6.18425 13.032 6.03198 13.0502 5.88867 13.0502H5.75431C5.75431 13.0502 5.70952 13.0502 5.68265 13.0502C5.38707 13.032 5.10044 12.9133 4.88547 12.7032C4.46448 12.3014 4.12411 11.8174 3.90018 11.2785C3.6673 10.7397 3.55085 10.1644 3.55085 9.57078C3.55085 9.25115 3.50607 8.84932 3.4165 8.4201C3.32693 7.99088 3.21944 7.59818 3.09404 7.30594L2.73575 6.45663C4.1689 3.63471 6.35444 0.739734 6.35444 0.739734C6.54254 0.675807 6.73064 0.630145 6.92769 0.593615C7.16954 0.547953 7.42034 0.529688 7.66218 0.529688C7.90402 0.529688 8.15482 0.547953 8.39666 0.593615C8.59372 0.630145 8.78182 0.675807 8.96992 0.739734C8.96992 0.739734 11.1555 3.63471 12.5796 6.45663L12.2214 7.30594H12.2303ZM13.9322 7.7443C13.8247 7.7717 13.7262 7.70777 13.6635 7.57078C13.4843 7.15069 13.2873 6.73973 13.1081 6.32878C12.2124 4.35617 9.81189 0.968044 9.81189 0.968044L12.4722 1.76256C13.332 2.09133 13.9411 2.89499 13.9949 3.82649V3.84476L14.1561 7.36074C14.1651 7.57992 14.0576 7.70777 13.9411 7.73517L13.9322 7.7443Z" fill="#010101"/>
</g>
<defs>
<clipPath id="clip0_1_997711">
<rect width="14" height="14" fill="white" transform="translate(0.666656)"/>
</clipPath>
</defs>
</svg>
