<svg width="65" height="64" viewBox="0 0 65 64" fill="none" xmlns="http://www.w3.org/2000/svg">
<g clip-path="url(#clip0_1_482579)">
<path d="M32.6667 64C50.3398 64 64.6667 49.6731 64.6667 32C64.6667 14.3269 50.3398 0 32.6667 0C14.9935 0 0.666656 14.3269 0.666656 32C0.666656 49.6731 14.9935 64 32.6667 64Z" fill="#FFDBD7"/>
<path d="M16.96 10.08L19.5867 8.65333C21.88 7.41333 23.8933 8.14667 25 10.1867C26.04 12.1067 25.56 14.24 23.32 15.4533L20.6533 16.8933L16.9467 10.0667L16.96 10.08ZM21.3333 14.9867L22.6533 14.2667C24.16 13.44 24.3467 12.08 23.7067 10.8933C22.9733 9.54667 21.7467 9.01333 20.2267 9.84L18.9333 10.5467L21.3467 14.9867H21.3333Z" fill="#AC003E"/>
<path d="M26.6933 9.51999C26.5067 7.30666 28.1733 5.38666 30.44 5.19999C32.7067 5.01333 34.6533 6.63999 34.8267 8.85333C35 11.0667 33.36 12.9867 31.0933 13.1733C28.8267 13.36 26.88 11.7333 26.6933 9.51999ZM33.3067 8.97333C33.1733 7.39999 31.9467 6.49333 30.5467 6.59999C29.1333 6.71999 28.08 7.82666 28.2133 9.38666C28.3467 10.96 29.5733 11.8533 30.9733 11.7467C32.3733 11.64 33.44 10.5467 33.3067 8.97333Z" fill="#AC003E"/>
<path d="M38.9733 14.1867C36.9066 13.44 35.8933 11.3467 36.7066 9.10666C37.48 6.97333 39.72 5.94666 41.84 6.71999C43.88 7.46666 44.6 8.99999 44.4533 10.56L42.92 10.4933C43.0933 9.30666 42.4933 8.42666 41.3866 8.02666C40.08 7.54666 38.6933 8.15999 38.16 9.62666C37.6266 11.0933 38.2133 12.4267 39.5866 12.92C40.8133 13.3733 41.72 12.68 42.0266 12.1733L39.0666 11.0933L39.5066 9.86666L44.24 11.6L42.8266 15.4667L41.6 15.0267L42.1466 13.52C41.36 14.3333 40.28 14.68 38.96 14.1867H38.9733Z" fill="#AC003E"/>
<path d="M13.7067 34.8L14.88 38.44C15.3333 39.84 14.8533 41.0667 13.7333 41.44C12.96 41.6933 12.24 41.4533 11.68 40.8C11.7333 41.7467 11.3067 42.52 10.3867 42.8133C9.14666 43.2133 8.01332 42.4533 7.53332 40.9733L6.30666 37.2L13.6933 34.8133L13.7067 34.8ZM8.86666 40.5733C9.06666 41.2133 9.57332 41.52 10.1067 41.3333C10.6267 41.16 10.9067 40.64 10.6933 39.9733L9.91999 37.6L8.09332 38.1867L8.86666 40.56V40.5733ZM11.92 39.3467C12.1467 40.0267 12.5733 40.28 13.0933 40.1067C13.6 39.9467 13.7467 39.4267 13.5467 38.8133L12.84 36.6533L11.2 37.1867L11.9067 39.3467H11.92Z" fill="#AC003E"/>
<path d="M12.52 43.4133C14.2267 42 16.7467 42.2533 18.2 44.0133C19.6533 45.76 19.4267 48.28 17.72 49.6933C16.0133 51.1067 13.4933 50.8533 12.04 49.1067C10.5867 47.36 10.8 44.8267 12.5067 43.4133H12.52ZM16.76 48.52C17.9733 47.52 18.0267 45.9867 17.12 44.9067C16.2133 43.8133 14.7067 43.5867 13.5067 44.5867C12.2933 45.5867 12.2667 47.12 13.1467 48.2C14.04 49.28 15.5467 49.5333 16.76 48.52Z" fill="#AC003E"/>
<path d="M22.7067 48.1067L24.5733 49.12L23.6 57.44L22.1467 56.6533L22.3867 54.7867L19.1333 53.0133L17.7067 54.24L16.24 53.44L22.7067 48.12V48.1067ZM22.5867 53.3467L23.0667 49.6533L20.24 52.0667L22.5867 53.3467Z" fill="#AC003E"/>
<path d="M30.9067 58.6667C30.7733 58.2533 30.7467 57.8933 30.88 56.88C31 55.92 30.56 55.52 29.7867 55.4267L28.1333 55.2133L27.7467 58.2667L26.2667 58.08L27.24 50.3733L31.0133 50.8533C32.6267 51.0533 33.4267 52.1333 33.2667 53.3467C33.1467 54.28 32.4533 54.9733 31.4933 55.1867C32.12 55.4933 32.5467 56.1067 32.48 57.0533C32.4267 57.76 32.4 58.28 32.68 58.7067L32.6533 58.88L30.92 58.6667H30.9067ZM30.5067 54.1067C31.2533 54.2 31.6933 53.8667 31.76 53.2933C31.8267 52.7067 31.4933 52.3067 30.7467 52.2133L28.5467 51.9333L28.3067 53.8267L30.5067 54.1067Z" fill="#AC003E"/>
<path d="M33.84 51.16L36.7467 50.4533C39.28 49.84 41.04 51.0667 41.5867 53.3333C42.0933 55.4533 41.08 57.3867 38.6 57.9867L35.6533 58.6933L33.8267 51.1467L33.84 51.16ZM36.8 57.0267L38.2533 56.68C39.92 56.28 40.4533 55.0133 40.1333 53.6933C39.7733 52.2 38.72 51.3733 37.0533 51.7867L35.6133 52.1333L36.8 57.04V57.0267Z" fill="#AC003E"/>
<path d="M40.96 49.0133L42.28 48.3067L45.9733 55.1467L44.6533 55.8533L40.96 49.0133Z" fill="#AC003E"/>
<path d="M49.56 52.7467L48.48 53.7867L43.0933 48.1733L44.96 46.3867L51.96 49.0133L47.2933 44.1467L48.3733 43.1067L53.76 48.72L51.8933 50.5067L44.8933 47.88L49.56 52.7467Z" fill="#AC003E"/>
<path d="M57.28 42.5866C56.4266 44.6133 54.2933 45.5066 52.0933 44.5866C50 43.6933 49.1066 41.4133 49.9733 39.3466C50.8133 37.36 52.3867 36.7066 53.9333 36.9466L53.7866 38.48C52.6133 38.24 51.7066 38.8 51.2533 39.88C50.7066 41.16 51.2533 42.5733 52.68 43.1866C54.1066 43.8 55.48 43.28 56.04 41.9333C56.5466 40.7333 55.9066 39.8 55.4266 39.4667L54.2 42.36L53 41.8533L54.9733 37.2133L58.7467 38.8133L58.24 40.0133L56.76 39.3867C57.5333 40.2133 57.8133 41.3067 57.2667 42.6L57.28 42.5866Z" fill="#AC003E"/>
<path d="M46.4 33.48C45.8133 33.4533 45.32 33.9333 45.3067 34.52C45.24 37.64 42.6533 40.1867 39.52 40.1867C36.88 40.1867 34.5733 38.4 33.9067 35.8267C33.8 35.4 33.7333 34.96 33.7333 34.52C33.7333 34.4933 33.7333 34.4667 33.7333 34.44V33.36C34.1333 33.2133 34.48 32.9867 34.7333 32.6933L38.2667 28.7333C38.8 28.1467 38.92 27.3733 38.6133 26.68C38.24 25.84 37.2933 25.2933 36.2 25.2933H29.1333C28.04 25.2933 27.0933 25.84 26.72 26.68C26.4133 27.3733 26.5333 28.1467 27.0667 28.7333L30.6 32.6933C30.8667 32.9867 31.2133 33.2133 31.6 33.36V34.4267C31.6 34.4267 31.6 34.48 31.6 34.5067C31.6 34.9467 31.5333 35.3867 31.4267 35.8133C30.76 38.3733 28.4533 40.1733 25.8133 40.1733C22.68 40.1733 20.0933 37.6267 20.0267 34.5067C20.0267 33.92 19.5333 33.44 18.9333 33.4667C18.3467 33.4667 17.88 33.96 17.8933 34.56C17.9733 38.84 21.5333 42.32 25.8133 42.32C28.6933 42.32 31.28 40.76 32.6667 38.36C34.0533 40.7733 36.64 42.32 39.52 42.32C43.8 42.32 47.36 38.84 47.44 34.56C47.44 33.9733 46.9867 33.48 46.4 33.4667V33.48ZM32.6667 31.44C32.44 31.44 32.2533 31.36 32.1867 31.2933L28.8 27.4933C28.88 27.4667 28.9867 27.44 29.1333 27.44H36.2C36.3467 27.44 36.4533 27.4667 36.5333 27.4933L33.1467 31.2933C33.08 31.36 32.8933 31.44 32.6667 31.44Z" fill="#AC003E"/>
<path d="M41.9066 25.4667C43.0849 25.4667 44.04 24.5115 44.04 23.3333C44.04 22.1551 43.0849 21.2 41.9066 21.2C40.7284 21.2 39.7733 22.1551 39.7733 23.3333C39.7733 24.5115 40.7284 25.4667 41.9066 25.4667Z" fill="#AC003E"/>
<path d="M23.4267 25.4667C24.6049 25.4667 25.56 24.5115 25.56 23.3333C25.56 22.1551 24.6049 21.2 23.4267 21.2C22.2484 21.2 21.2933 22.1551 21.2933 23.3333C21.2933 24.5115 22.2484 25.4667 23.4267 25.4667Z" fill="#AC003E"/>
<path d="M40.08 37.7733C40.5365 37.7733 40.9067 37.4032 40.9067 36.9467C40.9067 36.4901 40.5365 36.12 40.08 36.12C39.6234 36.12 39.2533 36.4901 39.2533 36.9467C39.2533 37.4032 39.6234 37.7733 40.08 37.7733Z" fill="#AC003E"/>
<path d="M42.2133 34.7333C42.6699 34.7333 43.04 34.3632 43.04 33.9067C43.04 33.4501 42.6699 33.08 42.2133 33.08C41.7568 33.08 41.3867 33.4501 41.3867 33.9067C41.3867 34.3632 41.7568 34.7333 42.2133 34.7333Z" fill="#AC003E"/>
<path d="M37.96 34.7333C38.4165 34.7333 38.7866 34.3632 38.7866 33.9067C38.7866 33.4501 38.4165 33.08 37.96 33.08C37.5034 33.08 37.1333 33.4501 37.1333 33.9067C37.1333 34.3632 37.5034 34.7333 37.96 34.7333Z" fill="#AC003E"/>
<path d="M25.2533 37.7733C25.7099 37.7733 26.08 37.4032 26.08 36.9467C26.08 36.4901 25.7099 36.12 25.2533 36.12C24.7968 36.12 24.4267 36.4901 24.4267 36.9467C24.4267 37.4032 24.7968 37.7733 25.2533 37.7733Z" fill="#AC003E"/>
<path d="M27.3733 34.7333C27.8299 34.7333 28.2 34.3632 28.2 33.9067C28.2 33.4501 27.8299 33.08 27.3733 33.08C26.9168 33.08 26.5467 33.4501 26.5467 33.9067C26.5467 34.3632 26.9168 34.7333 27.3733 34.7333Z" fill="#AC003E"/>
<path d="M23.12 34.7333C23.5765 34.7333 23.9467 34.3632 23.9467 33.9067C23.9467 33.4501 23.5765 33.08 23.12 33.08C22.6634 33.08 22.2933 33.4501 22.2933 33.9067C22.2933 34.3632 22.6634 34.7333 23.12 34.7333Z" fill="#AC003E"/>
</g>
<defs>
<clipPath id="clip0_1_482579">
<rect width="64" height="64" fill="white" transform="translate(0.666656)"/>
</clipPath>
</defs>
</svg>
