<svg width="16" height="15" viewBox="0 0 16 15" fill="none" xmlns="http://www.w3.org/2000/svg">
<path d="M10.1091 8.51977C10.1091 8.84753 9.84655 9.1191 9.50898 9.1191C9.1714 9.1191 8.90884 8.8569 8.90884 8.51977C8.90884 8.18265 9.1714 7.92044 9.50898 7.92044C9.84655 7.92044 10.1091 8.18265 10.1091 8.51977Z" fill="#010101"/>
<path d="M9.51948 12.79C9.51948 12.6776 9.42571 12.5933 9.32256 12.5933C9.21941 12.5933 9.12564 12.687 9.12564 12.79C9.12564 12.893 9.21941 12.9866 9.32256 12.9866C9.42571 12.9866 9.51948 12.893 9.51948 12.79Z" fill="#010101"/>
<path d="M8.82451 13.1551C8.71199 13.1551 8.62759 13.2487 8.62759 13.3517C8.62759 13.4547 8.72136 13.5484 8.82451 13.5484C8.92766 13.5484 9.02143 13.4547 9.02143 13.3517C9.02143 13.2487 8.92766 13.1551 8.82451 13.1551Z" fill="#010101"/>
<path d="M9.51885 13.2394C9.40632 13.2394 9.32193 13.3331 9.32193 13.4361C9.32193 13.5391 9.4157 13.6328 9.51885 13.6328C9.622 13.6328 9.71577 13.5391 9.71577 13.4361C9.71577 13.3331 9.622 13.2394 9.51885 13.2394Z" fill="#010101"/>
<path d="M6.41575 8.51977C6.41575 8.84753 6.15319 9.1191 5.81562 9.1191C5.47804 9.1191 5.21548 8.8569 5.21548 8.51977C5.21548 8.18265 5.47804 7.92044 5.81562 7.92044C6.15319 7.92044 6.41575 8.18265 6.41575 8.51977Z" fill="#010101"/>
<path d="M6.0208 12.5933C5.90828 12.5933 5.82388 12.687 5.82388 12.79C5.82388 12.893 5.91765 12.9866 6.0208 12.9866C6.12395 12.9866 6.21772 12.893 6.21772 12.79C6.21772 12.687 6.12395 12.5933 6.0208 12.5933Z" fill="#010101"/>
<path d="M6.30338 13.3517C6.30338 13.4641 6.39715 13.5484 6.50029 13.5484C6.60344 13.5484 6.69721 13.4547 6.69721 13.3517C6.69721 13.2487 6.60344 13.1551 6.50029 13.1551C6.39715 13.1551 6.30338 13.2487 6.30338 13.3517Z" fill="#010101"/>
<path d="M5.81475 13.2394C5.70222 13.2394 5.61783 13.3331 5.61783 13.4361C5.61783 13.5391 5.7116 13.6328 5.81475 13.6328C5.9179 13.6328 6.01167 13.5391 6.01167 13.4361C6.01167 13.3237 5.9179 13.2394 5.81475 13.2394Z" fill="#010101"/>
<path d="M13.3262 6.60943C13.2699 6.04755 13.0074 5.54187 12.6042 5.16729C12.3322 4.91444 11.9947 4.73652 11.6383 4.63351L9.02212 3.86561C8.80645 3.7907 8.5814 3.73451 8.35635 3.68769C8.1313 3.65023 7.89687 3.6315 7.67182 3.6315C7.44677 3.6315 7.21234 3.65023 6.98729 3.68769C6.76224 3.72515 6.53719 3.78133 6.32152 3.86561L3.70531 4.63351C3.34898 4.73652 3.0114 4.91444 2.73947 5.16729C2.33625 5.54187 2.06432 6.04755 2.01743 6.60943C2.01743 6.65625 1.87677 9.59672 1.87677 9.59672C1.85802 9.96193 2.07369 10.2616 2.39251 10.3365C2.4394 10.3459 2.48629 10.3552 2.52379 10.3552C2.7676 10.3552 2.98327 10.2054 3.0958 9.95257C3.18019 9.76528 3.26458 9.57799 3.34898 9.3907L3.49901 9.73719C3.59278 9.94321 3.67718 10.2335 3.74282 10.5613C3.80846 10.8797 3.84596 11.1887 3.84596 11.4134C3.84596 11.9472 3.95849 12.4716 4.17416 12.968C4.38984 13.4643 4.69928 13.895 5.09312 14.2603C5.3463 14.4944 5.6745 14.6348 6.02145 14.6536C6.04958 14.6536 6.07771 14.6536 6.10584 14.6536H6.21837C6.34027 14.6536 6.46217 14.6442 6.5747 14.6161C6.82788 14.8596 7.16546 15.0001 7.52178 15.0001H7.83123C8.18756 15.0001 8.52513 14.8596 8.77831 14.6161C8.90022 14.6442 9.01274 14.6536 9.13464 14.6536H9.24717C9.24717 14.6536 9.30343 14.6536 9.33156 14.6536C9.67852 14.6348 10.0067 14.4944 10.2599 14.2603C10.6537 13.895 10.9632 13.4549 11.1789 12.968C11.3945 12.4716 11.507 11.9472 11.507 11.4134C11.507 11.1887 11.5446 10.8797 11.6102 10.5613C11.6758 10.2429 11.7602 9.95257 11.854 9.73719L12.004 9.3907C12.0884 9.57799 12.1728 9.76528 12.2572 9.95257C12.3697 10.2054 12.5854 10.3552 12.8292 10.3552C12.8761 10.3552 12.923 10.3552 12.9605 10.3365C13.2793 10.2616 13.4856 9.96193 13.4762 9.59672C13.4762 9.59672 13.3356 6.65625 13.3356 6.60943H13.3262ZM3.16144 8.77264C3.0114 9.1004 2.84262 9.43752 2.70196 9.77464C2.65507 9.88702 2.57068 9.93384 2.48629 9.91511C2.39251 9.89638 2.29874 9.79337 2.30812 9.61545L2.4394 6.75926C2.4394 6.75926 2.4394 6.74989 2.4394 6.74053C2.47691 5.982 2.99265 5.32648 3.69593 5.06428L5.89955 4.41812C5.89955 4.41812 3.9116 7.1713 3.17081 8.76327L3.16144 8.77264ZM7.82185 14.5693H7.51241C7.34362 14.5693 7.17483 14.5225 7.0248 14.4382C7.16545 14.3633 7.28736 14.2603 7.38113 14.1666C7.55929 13.9887 7.64369 13.8201 7.64369 13.8201C7.64369 13.8201 7.73746 13.9887 7.90625 14.1666C8.00002 14.2603 8.12192 14.3539 8.26257 14.4382C8.12192 14.5225 7.95313 14.5693 7.77497 14.5693H7.82185ZM11.4508 9.56862C11.3476 9.80274 11.2539 10.1211 11.1882 10.477C11.1132 10.8235 11.0757 11.1512 11.0757 11.4134C11.0757 11.891 10.9819 12.3593 10.785 12.7994C10.5975 13.2395 10.3162 13.6235 9.96921 13.9512C9.79104 14.1198 9.55661 14.2134 9.31281 14.2322C9.29406 14.2322 9.2753 14.2322 9.25655 14.2322H9.14402C9.02212 14.2322 8.90022 14.2134 8.77831 14.176C8.5814 14.1198 8.40323 14.0074 8.2532 13.867C8.18756 13.8014 8.12192 13.7265 8.07503 13.6422C8.01877 13.5579 7.98126 13.4643 7.95313 13.3706C7.91562 13.2676 7.89687 13.1552 7.89687 13.0429C8.53451 12.8649 8.98461 11.9379 8.98461 11.5165C8.98461 11.3479 8.90959 11.2636 8.85333 11.2168C8.7033 11.1044 8.50638 11.1606 8.27195 11.2168C8.09379 11.2636 7.89687 11.3198 7.6812 11.3198C7.46552 11.3198 7.2686 11.2636 7.09044 11.2168C6.86539 11.1512 6.66847 11.095 6.50906 11.2168C6.4528 11.2636 6.37778 11.3479 6.37778 11.5165C6.37778 11.9379 6.82788 12.8649 7.46552 13.0429C7.46552 13.1552 7.43739 13.2676 7.40926 13.3706C7.38113 13.4643 7.33424 13.5579 7.28736 13.6422C7.24047 13.7265 7.17483 13.8014 7.10919 13.867C6.96854 14.0168 6.78099 14.1198 6.58408 14.176C6.46217 14.2134 6.34027 14.2322 6.21837 14.2322H6.10584C6.10584 14.2322 6.06834 14.2322 6.04958 14.2322C5.80578 14.2134 5.57135 14.1198 5.39318 13.9512C5.03686 13.6235 4.76492 13.2395 4.57738 12.7994C4.38984 12.3593 4.28669 11.891 4.28669 11.4134C4.28669 11.1606 4.24918 10.8235 4.17416 10.477C4.09915 10.1305 4.00537 9.80274 3.9116 9.56862L3.61154 8.87565C4.79305 6.5907 6.60283 4.2402 6.60283 4.2402C6.76224 4.19337 6.92165 4.15591 7.08106 4.12782C7.28736 4.09036 7.48428 4.07163 7.69057 4.07163C7.89687 4.07163 8.09379 4.09036 8.30008 4.12782C8.45949 4.15591 8.6189 4.19337 8.77831 4.2402C8.77831 4.2402 10.5881 6.5907 11.7696 8.87565L11.4695 9.56862H11.4508ZM12.8574 9.92448C12.7636 9.94321 12.6886 9.89638 12.6417 9.78401C12.4916 9.44689 12.3322 9.10976 12.1822 8.782C11.4414 7.18066 9.45347 4.43685 9.45347 4.43685L11.6571 5.08301C12.3697 5.34521 12.8761 6.00073 12.9136 6.75926C12.9136 6.75926 12.9136 6.76862 12.9136 6.77799L13.0449 9.63418C13.0449 9.8121 12.9605 9.91511 12.8667 9.93384L12.8574 9.92448Z" fill="#010101"/>
<path d="M14.6667 4.93311L7.66197 1L0.666656 4.93311" stroke="#010101" stroke-width="0.75" stroke-miterlimit="10" stroke-linecap="round"/>
</svg>
