<svg width="16" height="15" viewBox="0 0 16 15" fill="none" xmlns="http://www.w3.org/2000/svg">
<path d="M10.4425 8.51977C10.4425 8.84753 10.1799 9.1191 9.84232 9.1191C9.50475 9.1191 9.24219 8.8569 9.24219 8.51977C9.24219 8.18265 9.50475 7.92044 9.84232 7.92044C10.1799 7.92044 10.4425 8.18265 10.4425 8.51977Z" fill="#010101"/>
<path d="M9.85282 12.79C9.85282 12.6776 9.75905 12.5933 9.6559 12.5933C9.55276 12.5933 9.45898 12.687 9.45898 12.79C9.45898 12.893 9.55276 12.9866 9.6559 12.9866C9.75905 12.9866 9.85282 12.893 9.85282 12.79Z" fill="#010101"/>
<path d="M9.15786 13.1551C9.04533 13.1551 8.96094 13.2487 8.96094 13.3517C8.96094 13.4547 9.05471 13.5484 9.15786 13.5484C9.261 13.5484 9.35478 13.4547 9.35478 13.3517C9.35478 13.2487 9.261 13.1551 9.15786 13.1551Z" fill="#010101"/>
<path d="M9.85219 13.2394C9.73967 13.2394 9.65527 13.3331 9.65527 13.4361C9.65527 13.5391 9.74904 13.6328 9.85219 13.6328C9.95534 13.6328 10.0491 13.5391 10.0491 13.4361C10.0491 13.3331 9.95534 13.2394 9.85219 13.2394Z" fill="#010101"/>
<path d="M6.7491 8.51977C6.7491 8.84753 6.48654 9.1191 6.14896 9.1191C5.81139 9.1191 5.54883 8.8569 5.54883 8.51977C5.54883 8.18265 5.81139 7.92044 6.14896 7.92044C6.48654 7.92044 6.7491 8.18265 6.7491 8.51977Z" fill="#010101"/>
<path d="M6.35415 12.5933C6.24162 12.5933 6.15723 12.687 6.15723 12.79C6.15723 12.893 6.251 12.9866 6.35415 12.9866C6.45729 12.9866 6.55106 12.893 6.55106 12.79C6.55106 12.687 6.45729 12.5933 6.35415 12.5933Z" fill="#010101"/>
<path d="M6.63672 13.3517C6.63672 13.4641 6.73049 13.5484 6.83364 13.5484C6.93679 13.5484 7.03056 13.4547 7.03056 13.3517C7.03056 13.2487 6.93679 13.1551 6.83364 13.1551C6.73049 13.1551 6.63672 13.2487 6.63672 13.3517Z" fill="#010101"/>
<path d="M6.14809 13.2394C6.03557 13.2394 5.95117 13.3331 5.95117 13.4361C5.95117 13.5391 6.04494 13.6328 6.14809 13.6328C6.25124 13.6328 6.34501 13.5391 6.34501 13.4361C6.34501 13.3237 6.25124 13.2394 6.14809 13.2394Z" fill="#010101"/>
<path d="M13.6595 6.60943C13.6033 6.04755 13.3407 5.54187 12.9375 5.16729C12.6656 4.91444 12.328 4.73652 11.9717 4.63351L9.35546 3.86561C9.13979 3.7907 8.91474 3.73451 8.68969 3.68769C8.46464 3.65023 8.23021 3.6315 8.00516 3.6315C7.78011 3.6315 7.54568 3.65023 7.32063 3.68769C7.09558 3.72515 6.87053 3.78133 6.65486 3.86561L4.03865 4.63351C3.68232 4.73652 3.34475 4.91444 3.07281 5.16729C2.6696 5.54187 2.39766 6.04755 2.35077 6.60943C2.35077 6.65625 2.21012 9.59672 2.21012 9.59672C2.19136 9.96193 2.40704 10.2616 2.72586 10.3365C2.77274 10.3459 2.81963 10.3552 2.85714 10.3552C3.10094 10.3552 3.31662 10.2054 3.42914 9.95257C3.51353 9.76528 3.59793 9.57799 3.68232 9.3907L3.83236 9.73719C3.92613 9.94321 4.01052 10.2335 4.07616 10.5613C4.1418 10.8797 4.17931 11.1887 4.17931 11.4134C4.17931 11.9472 4.29183 12.4716 4.50751 12.968C4.72318 13.4643 5.03262 13.895 5.42646 14.2603C5.67964 14.4944 6.00784 14.6348 6.35479 14.6536C6.38292 14.6536 6.41106 14.6536 6.43919 14.6536H6.55171C6.67361 14.6536 6.79552 14.6442 6.90804 14.6161C7.16122 14.8596 7.4988 15.0001 7.85513 15.0001H8.16457C8.5209 15.0001 8.85848 14.8596 9.11166 14.6161C9.23356 14.6442 9.34609 14.6536 9.46799 14.6536H9.58051C9.58051 14.6536 9.63678 14.6536 9.66491 14.6536C10.0119 14.6348 10.3401 14.4944 10.5932 14.2603C10.9871 13.895 11.2965 13.4549 11.5122 12.968C11.7279 12.4716 11.8404 11.9472 11.8404 11.4134C11.8404 11.1887 11.8779 10.8797 11.9435 10.5613C12.0092 10.2429 12.0936 9.95257 12.1873 9.73719L12.3374 9.3907C12.4218 9.57799 12.5062 9.76528 12.5906 9.95257C12.7031 10.2054 12.9188 10.3552 13.1626 10.3552C13.2094 10.3552 13.2563 10.3552 13.2938 10.3365C13.6127 10.2616 13.819 9.96193 13.8096 9.59672C13.8096 9.59672 13.6689 6.65625 13.6689 6.60943H13.6595ZM3.49478 8.77264C3.34475 9.1004 3.17596 9.43752 3.0353 9.77464C2.98842 9.88702 2.90402 9.93384 2.81963 9.91511C2.72586 9.89638 2.63209 9.79337 2.64146 9.61545L2.77274 6.75926C2.77274 6.75926 2.77274 6.74989 2.77274 6.74053C2.81025 5.982 3.32599 5.32648 4.02927 5.06428L6.23289 4.41812C6.23289 4.41812 4.24495 7.1713 3.50416 8.76327L3.49478 8.77264ZM8.1552 14.5693H7.84575C7.67696 14.5693 7.50818 14.5225 7.35814 14.4382C7.4988 14.3633 7.6207 14.2603 7.71447 14.1666C7.89264 13.9887 7.97703 13.8201 7.97703 13.8201C7.97703 13.8201 8.0708 13.9887 8.23959 14.1666C8.33336 14.2603 8.45526 14.3539 8.59592 14.4382C8.45526 14.5225 8.28647 14.5693 8.10831 14.5693H8.1552ZM11.7841 9.56862C11.681 9.80274 11.5872 10.1211 11.5216 10.477C11.4466 10.8235 11.409 11.1512 11.409 11.4134C11.409 11.891 11.3153 12.3593 11.1184 12.7994C10.9308 13.2395 10.6495 13.6235 10.3025 13.9512C10.1244 14.1198 9.88996 14.2134 9.64615 14.2322C9.6274 14.2322 9.60864 14.2322 9.58989 14.2322H9.47737C9.35546 14.2322 9.23356 14.2134 9.11166 14.176C8.91474 14.1198 8.73658 14.0074 8.58654 13.867C8.5209 13.8014 8.45526 13.7265 8.40838 13.6422C8.35211 13.5579 8.31461 13.4643 8.28647 13.3706C8.24897 13.2676 8.23021 13.1552 8.23021 13.0429C8.86785 12.8649 9.31795 11.9379 9.31795 11.5165C9.31795 11.3479 9.24294 11.2636 9.18667 11.2168C9.03664 11.1044 8.83972 11.1606 8.6053 11.2168C8.42713 11.2636 8.23021 11.3198 8.01454 11.3198C7.79887 11.3198 7.60195 11.2636 7.42378 11.2168C7.19873 11.1512 7.00181 11.095 6.8424 11.2168C6.78614 11.2636 6.71112 11.3479 6.71112 11.5165C6.71112 11.9379 7.16122 12.8649 7.79887 13.0429C7.79887 13.1552 7.77073 13.2676 7.7426 13.3706C7.71447 13.4643 7.66759 13.5579 7.6207 13.6422C7.57382 13.7265 7.50818 13.8014 7.44254 13.867C7.30188 14.0168 7.11434 14.1198 6.91742 14.176C6.79552 14.2134 6.67361 14.2322 6.55171 14.2322H6.43919C6.43919 14.2322 6.40168 14.2322 6.38292 14.2322C6.13912 14.2134 5.90469 14.1198 5.72653 13.9512C5.3702 13.6235 5.09826 13.2395 4.91072 12.7994C4.72318 12.3593 4.62003 11.891 4.62003 11.4134C4.62003 11.1606 4.58252 10.8235 4.50751 10.477C4.43249 10.1305 4.33872 9.80274 4.24495 9.56862L3.94488 8.87565C5.12639 6.5907 6.93617 4.2402 6.93617 4.2402C7.09558 4.19337 7.25499 4.15591 7.4144 4.12782C7.6207 4.09036 7.81762 4.07163 8.02392 4.07163C8.23021 4.07163 8.42713 4.09036 8.63343 4.12782C8.79284 4.15591 8.95225 4.19337 9.11166 4.2402C9.11166 4.2402 10.9214 6.5907 12.103 8.87565L11.8029 9.56862H11.7841ZM13.1907 9.92448C13.0969 9.94321 13.0219 9.89638 12.975 9.78401C12.825 9.44689 12.6656 9.10976 12.5155 8.782C11.7748 7.18066 9.78681 4.43685 9.78681 4.43685L11.9904 5.08301C12.7031 5.34521 13.2094 6.00073 13.247 6.75926C13.247 6.75926 13.247 6.76862 13.247 6.77799L13.3782 9.63418C13.3782 9.8121 13.2938 9.91511 13.2001 9.93384L13.1907 9.92448Z" fill="#010101"/>
<path d="M15 4.93311L7.99531 1L1 4.93311" stroke="#010101" stroke-width="0.75" stroke-miterlimit="10" stroke-linecap="round"/>
</svg>
