<svg width="16" height="15" viewBox="0 0 16 15" fill="none" xmlns="http://www.w3.org/2000/svg">
<path d="M10.7758 8.51977C10.7758 8.84753 10.5132 9.1191 10.1756 9.1191C9.83806 9.1191 9.5755 8.8569 9.5755 8.51977C9.5755 8.18265 9.83806 7.92044 10.1756 7.92044C10.5132 7.92044 10.7758 8.18265 10.7758 8.51977Z" fill="#010101"/>
<path d="M10.1861 12.79C10.1861 12.6776 10.0924 12.5933 9.98922 12.5933C9.88607 12.5933 9.7923 12.687 9.7923 12.79C9.7923 12.893 9.88607 12.9866 9.98922 12.9866C10.0924 12.9866 10.1861 12.893 10.1861 12.79Z" fill="#010101"/>
<path d="M9.49117 13.1551C9.37864 13.1551 9.29425 13.2487 9.29425 13.3517C9.29425 13.4547 9.38802 13.5484 9.49117 13.5484C9.59432 13.5484 9.68809 13.4547 9.68809 13.3517C9.68809 13.2487 9.59432 13.1551 9.49117 13.1551Z" fill="#010101"/>
<path d="M10.1855 13.2394C10.073 13.2394 9.98859 13.3331 9.98859 13.4361C9.98859 13.5391 10.0824 13.6328 10.1855 13.6328C10.2887 13.6328 10.3824 13.5391 10.3824 13.4361C10.3824 13.3331 10.2887 13.2394 10.1855 13.2394Z" fill="#010101"/>
<path d="M7.08241 8.51977C7.08241 8.84753 6.81985 9.1191 6.48227 9.1191C6.1447 9.1191 5.88214 8.8569 5.88214 8.51977C5.88214 8.18265 6.1447 7.92044 6.48227 7.92044C6.81985 7.92044 7.08241 8.18265 7.08241 8.51977Z" fill="#010101"/>
<path d="M6.68746 12.5933C6.57493 12.5933 6.49054 12.687 6.49054 12.79C6.49054 12.893 6.58431 12.9866 6.68746 12.9866C6.79061 12.9866 6.88438 12.893 6.88438 12.79C6.88438 12.687 6.79061 12.5933 6.68746 12.5933Z" fill="#010101"/>
<path d="M6.97003 13.3517C6.97003 13.4641 7.0638 13.5484 7.16695 13.5484C7.2701 13.5484 7.36387 13.4547 7.36387 13.3517C7.36387 13.2487 7.2701 13.1551 7.16695 13.1551C7.0638 13.1551 6.97003 13.2487 6.97003 13.3517Z" fill="#010101"/>
<path d="M6.4814 13.2394C6.36888 13.2394 6.28448 13.3331 6.28448 13.4361C6.28448 13.5391 6.37826 13.6328 6.4814 13.6328C6.58455 13.6328 6.67832 13.5391 6.67832 13.4361C6.67832 13.3237 6.58455 13.2394 6.4814 13.2394Z" fill="#010101"/>
<path d="M13.9929 6.60943C13.9366 6.04755 13.674 5.54187 13.2708 5.16729C12.9989 4.91444 12.6613 4.73652 12.305 4.63351L9.68878 3.86561C9.4731 3.7907 9.24805 3.73451 9.023 3.68769C8.79795 3.65023 8.56352 3.6315 8.33847 3.6315C8.11342 3.6315 7.879 3.65023 7.65395 3.68769C7.4289 3.72515 7.20385 3.78133 6.98817 3.86561L4.37196 4.63351C4.01563 4.73652 3.67806 4.91444 3.40612 5.16729C3.00291 5.54187 2.73097 6.04755 2.68409 6.60943C2.68409 6.65625 2.54343 9.59672 2.54343 9.59672C2.52468 9.96193 2.74035 10.2616 3.05917 10.3365C3.10606 10.3459 3.15294 10.3552 3.19045 10.3552C3.43425 10.3552 3.64993 10.2054 3.76245 9.95257C3.84685 9.76528 3.93124 9.57799 4.01563 9.3907L4.16567 9.73719C4.25944 9.94321 4.34383 10.2335 4.40947 10.5613C4.47511 10.8797 4.51262 11.1887 4.51262 11.4134C4.51262 11.9472 4.62515 12.4716 4.84082 12.968C5.05649 13.4643 5.36594 13.895 5.75977 14.2603C6.01296 14.4944 6.34115 14.6348 6.68811 14.6536C6.71624 14.6536 6.74437 14.6536 6.7725 14.6536H6.88503C7.00693 14.6536 7.12883 14.6442 7.24135 14.6161C7.49454 14.8596 7.83211 15.0001 8.18844 15.0001H8.49789C8.85422 15.0001 9.19179 14.8596 9.44497 14.6161C9.56687 14.6442 9.6794 14.6536 9.8013 14.6536H9.91383C9.91383 14.6536 9.97009 14.6536 9.99822 14.6536C10.3452 14.6348 10.6734 14.4944 10.9266 14.2603C11.3204 13.895 11.6298 13.4549 11.8455 12.968C12.0612 12.4716 12.1737 11.9472 12.1737 11.4134C12.1737 11.1887 12.2112 10.8797 12.2769 10.5613C12.3425 10.2429 12.4269 9.95257 12.5207 9.73719L12.6707 9.3907C12.7551 9.57799 12.8395 9.76528 12.9239 9.95257C13.0364 10.2054 13.2521 10.3552 13.4959 10.3552C13.5428 10.3552 13.5896 10.3552 13.6272 10.3365C13.946 10.2616 14.1523 9.96193 14.1429 9.59672C14.1429 9.59672 14.0022 6.65625 14.0022 6.60943H13.9929ZM3.82809 8.77264C3.67806 9.1004 3.50927 9.43752 3.36862 9.77464C3.32173 9.88702 3.23734 9.93384 3.15294 9.91511C3.05917 9.89638 2.9654 9.79337 2.97478 9.61545L3.10606 6.75926C3.10606 6.75926 3.10606 6.74989 3.10606 6.74053C3.14357 5.982 3.65931 5.32648 4.36259 5.06428L6.5662 4.41812C6.5662 4.41812 4.57826 7.1713 3.83747 8.76327L3.82809 8.77264ZM8.48851 14.5693H8.17906C8.01028 14.5693 7.84149 14.5225 7.69145 14.4382C7.83211 14.3633 7.95401 14.2603 8.04778 14.1666C8.22595 13.9887 8.31034 13.8201 8.31034 13.8201C8.31034 13.8201 8.40411 13.9887 8.5729 14.1666C8.66667 14.2603 8.78857 14.3539 8.92923 14.4382C8.78857 14.5225 8.61979 14.5693 8.44162 14.5693H8.48851ZM12.1174 9.56862C12.0143 9.80274 11.9205 10.1211 11.8549 10.477C11.7799 10.8235 11.7424 11.1512 11.7424 11.4134C11.7424 11.891 11.6486 12.3593 11.4517 12.7994C11.2641 13.2395 10.9828 13.6235 10.6359 13.9512C10.4577 14.1198 10.2233 14.2134 9.97947 14.2322C9.96071 14.2322 9.94196 14.2322 9.9232 14.2322H9.81068C9.68878 14.2322 9.56687 14.2134 9.44497 14.176C9.24805 14.1198 9.06989 14.0074 8.91985 13.867C8.85421 13.8014 8.78857 13.7265 8.74169 13.6422C8.68543 13.5579 8.64792 13.4643 8.61979 13.3706C8.58228 13.2676 8.56352 13.1552 8.56352 13.0429C9.20117 12.8649 9.65127 11.9379 9.65127 11.5165C9.65127 11.3479 9.57625 11.2636 9.51999 11.2168C9.36995 11.1044 9.17304 11.1606 8.93861 11.2168C8.76044 11.2636 8.56352 11.3198 8.34785 11.3198C8.13218 11.3198 7.93526 11.2636 7.75709 11.2168C7.53204 11.1512 7.33513 11.095 7.17572 11.2168C7.11945 11.2636 7.04444 11.3479 7.04444 11.5165C7.04444 11.9379 7.49454 12.8649 8.13218 13.0429C8.13218 13.1552 8.10405 13.2676 8.07592 13.3706C8.04778 13.4643 8.0009 13.5579 7.95401 13.6422C7.90713 13.7265 7.84149 13.8014 7.77585 13.867C7.63519 14.0168 7.44765 14.1198 7.25073 14.176C7.12883 14.2134 7.00693 14.2322 6.88503 14.2322H6.7725C6.7725 14.2322 6.73499 14.2322 6.71624 14.2322C6.47243 14.2134 6.23801 14.1198 6.05984 13.9512C5.70351 13.6235 5.43158 13.2395 5.24403 12.7994C5.05649 12.3593 4.95334 11.891 4.95334 11.4134C4.95334 11.1606 4.91584 10.8235 4.84082 10.477C4.7658 10.1305 4.67203 9.80274 4.57826 9.56862L4.27819 8.87565C5.45971 6.5907 7.26949 4.2402 7.26949 4.2402C7.4289 4.19337 7.58831 4.15591 7.74772 4.12782C7.95401 4.09036 8.15093 4.07163 8.35723 4.07163C8.56352 4.07163 8.76044 4.09036 8.96674 4.12782C9.12615 4.15591 9.28556 4.19337 9.44497 4.2402C9.44497 4.2402 11.2548 6.5907 12.4363 8.87565L12.1362 9.56862H12.1174ZM13.524 9.92448C13.4302 9.94321 13.3552 9.89638 13.3083 9.78401C13.1583 9.44689 12.9989 9.10976 12.8489 8.782C12.1081 7.18066 10.1201 4.43685 10.1201 4.43685L12.3237 5.08301C13.0364 5.34521 13.5428 6.00073 13.5803 6.75926C13.5803 6.75926 13.5803 6.76862 13.5803 6.77799L13.7115 9.63418C13.7115 9.8121 13.6272 9.91511 13.5334 9.93384L13.524 9.92448Z" fill="#010101"/>
<path d="M15.3333 4.93311L8.32862 1L1.33331 4.93311" stroke="#010101" stroke-width="0.75" stroke-miterlimit="10" stroke-linecap="round"/>
</svg>
