<svg width="65" height="64" viewBox="0 0 65 64" fill="none" xmlns="http://www.w3.org/2000/svg">
<g clip-path="url(#clip0_1_482613)">
<path d="M32.3333 64C50.0064 64 64.3333 49.6731 64.3333 32C64.3333 14.3269 50.0064 0 32.3333 0C14.6602 0 0.333313 14.3269 0.333313 32C0.333313 49.6731 14.6602 64 32.3333 64Z" fill="#F8E08E"/>
<path d="M10.08 16.7467L12.0667 14.5067C13.8 12.56 15.9467 12.56 17.68 14.1067C19.32 15.56 19.5867 17.7333 17.8933 19.64L15.88 21.9067L10.0667 16.7467H10.08ZM15.8666 19.88L16.8666 18.76C18.0133 17.48 17.72 16.1333 16.7066 15.2267C15.56 14.2133 14.2267 14.1333 13.08 15.4133L12.1067 16.52L15.88 19.8667L15.8666 19.88Z" fill="#512D6D"/>
<path d="M19.04 12.92C18.1066 10.9067 19 8.53335 21.0666 7.57335C23.1333 6.61335 25.5066 7.48001 26.44 9.49335C27.3733 11.5067 26.48 13.88 24.4266 14.8267C22.3733 15.7733 19.9733 14.9333 19.04 12.92ZM25.0666 10.1333C24.4 8.70668 22.9466 8.26668 21.6666 8.85335C20.3733 9.45335 19.7733 10.8533 20.44 12.2667C21.1066 13.6933 22.5733 14.12 23.84 13.5333C25.1066 12.9467 25.7333 11.56 25.08 10.12L25.0666 10.1333Z" fill="#512D6D"/>
<path d="M32.16 13.1067C29.96 13.0667 28.32 11.4267 28.36 9.04002C28.4 6.76002 30.1866 5.06668 32.4266 5.10668C34.5866 5.14668 35.7866 6.34668 36.1466 7.88001L34.6666 8.32001C34.44 7.13335 33.5866 6.52001 32.4133 6.49335C31.0266 6.46668 29.9066 7.50668 29.88 9.06668C29.8533 10.6267 30.8533 11.6933 32.3066 11.72C33.6133 11.7467 34.24 10.8 34.36 10.2267L31.2133 10.1733L31.24 8.86668L36.28 8.94668L36.2133 13.0533L34.92 13.0267L34.9466 11.4133C34.48 12.44 33.56 13.1067 32.1466 13.0933L32.16 13.1067Z" fill="#512D6D"/>
<path d="M40.0533 14.76C38.0533 13.84 37.2133 11.68 38.2133 9.50669C39.16 7.44002 41.48 6.61335 43.52 7.54669C45.4933 8.45335 46.0933 10.04 45.8133 11.5867L44.28 11.4C44.5466 10.2267 44.0133 9.30669 42.96 8.82669C41.6933 8.24002 40.2533 8.74669 39.6133 10.16C38.96 11.5734 39.44 12.96 40.76 13.56C41.9466 14.1067 42.9066 13.4934 43.2533 13.0134L40.4 11.7067L40.9466 10.52L45.5333 12.6267L43.8133 16.36L42.6266 15.8134L43.2933 14.3467C42.4533 15.0934 41.3466 15.3467 40.0666 14.76H40.0533Z" fill="#512D6D"/>
<path d="M49.0667 15.52L52.8533 14.68L54.0267 15.8667L48.6133 17.04L46.4133 19.2L45.36 18.1334L47.56 15.9734L48.8133 10.56L50.0667 11.8267L49.0933 15.52H49.0667Z" fill="#512D6D"/>
<path d="M14.2933 38.8267L15.8266 41.4C17.16 43.64 16.52 45.68 14.52 46.88C12.64 48 10.4933 47.6134 9.18665 45.4134L7.62665 42.8134L14.2933 38.8267ZM9.57331 43.4L10.3466 44.68C11.2266 46.16 12.6 46.28 13.76 45.5867C15.08 44.8 15.5466 43.5467 14.6666 42.0667L13.9066 40.8L9.57331 43.3867V43.4Z" fill="#512D6D"/>
<path d="M19.68 46.1734L21.3333 47.4934L18.9467 55.5067L17.6533 54.48L18.2133 52.68L15.3067 50.3734L13.6933 51.3334L12.3867 50.2934L19.6667 46.16L19.68 46.1734ZM18.6533 51.3067L19.76 47.7467L16.56 49.64L18.6533 51.3067Z" fill="#512D6D"/>
<path d="M24.48 52.8L27.56 50.44L29.12 51.0267L24.7066 54.3734L23.6266 57.2667L22.2266 56.7467L23.3066 53.8534L22.16 48.4267L23.8266 49.0534L24.4933 52.8134L24.48 52.8Z" fill="#512D6D"/>
<path d="M29.48 54.7334C29.4533 56.4 30.52 57.3867 31.92 57.4134C33.4666 57.44 34.3066 56.4134 34.56 55.1734L35.92 55.7467C35.48 57.56 34.0666 58.8267 31.8933 58.7867C29.4266 58.7467 27.9066 57 27.9466 54.72C27.9866 52.44 29.72 50.7467 32.0266 50.7867C34.12 50.8267 35.2666 52.0667 35.5866 53.44L34.2 54.0267C34 52.9334 33.2266 52.16 32 52.1334C30.6266 52.1067 29.52 53.1067 29.4933 54.7334H29.48Z" fill="#512D6D"/>
<path d="M38.0533 50.0267L40.0266 49.2667L45.7333 55.4L44.1866 56L42.92 54.6134L39.4666 55.9467V57.8267L37.92 58.4267L38.0533 50.0534V50.0267ZM41.96 53.52L39.4533 50.76V54.48L41.96 53.52Z" fill="#512D6D"/>
<path d="M51.3866 50.6267C50.9866 50.4667 50.6933 50.24 50 49.4934C49.3466 48.7867 48.76 48.8534 48.1866 49.3734L46.96 50.4934L49.04 52.7734L47.9333 53.7867L42.6933 48.0534L45.5066 45.48C46.7066 44.3734 48.04 44.4667 48.8666 45.3734C49.5066 46.0667 49.5866 47.0534 49.12 47.92C49.76 47.64 50.5066 47.7067 51.1866 48.3867C51.6933 48.8934 52.0666 49.24 52.5733 49.32L52.6933 49.4534L51.4 50.64L51.3866 50.6267ZM47.6533 47.9734C48.2133 47.4667 48.24 46.92 47.84 46.4934C47.44 46.0534 46.92 46.0534 46.36 46.5734L44.72 48.0667L46.0133 49.48L47.6533 47.9867V47.9734Z" fill="#512D6D"/>
<path d="M50.3067 38.28L51.5333 38.9334L49.48 42.76L50.9733 43.56L52.8667 40.0267L54.0933 40.68L52.2 44.2134L53.8933 45.12L56 41.2L57.2267 41.8534L54.4133 47.0934L47.56 43.4134L50.32 38.2667L50.3067 38.28Z" fill="#512D6D"/>
<path d="M45.5466 28.8933C45.5333 28.6 45.36 28.36 45.1333 28.2267C44.9733 28.0133 44.7066 27.88 44.4266 27.9067C43.9866 27.9333 43.64 28.3333 43.68 28.7733C43.84 30.9867 42.1066 32.9067 39.44 33.4533C37.84 33.8 36.2533 33.4933 34.9733 32.6C34.1733 32.04 33.5466 31.28 33.16 30.44L35.6 27.6C36.0533 27.08 35.5466 26.3867 34.7066 26.3867H29.76C28.92 26.3867 28.4133 27.08 28.8666 27.6L31.3466 30.4933C30.7466 31.8667 29.4 32.9733 27.68 33.3733C25.5333 33.88 23.12 33.16 21.8133 31.6133C21.0933 30.7733 20.7333 29.76 20.7866 28.76C20.8133 28.3067 20.4666 27.9333 20.0133 27.9067C19.7333 27.9067 19.48 28.0267 19.3333 28.2267C19.0933 28.36 18.9333 28.6 18.92 28.8933C18.9066 29.1733 18.8933 29.4267 18.8933 29.68C18.8933 35.7333 22.96 40.8667 28.4933 42.48C28.8666 43.5067 29.6533 44.3467 30.6933 44.7867C31.1866 44.9867 31.6933 45.0933 32.2133 45.0933C33.4 45.0933 34.6133 44.56 35.6533 43.5467C35.96 43.2533 36.1466 42.84 36.1866 42.4267C41.6133 40.7333 45.56 35.6667 45.56 29.6933C45.56 29.44 45.56 29.1867 45.5333 28.9067L45.5466 28.8933ZM28.2666 35.0133V40.7067C24.8266 39.4667 22.1333 36.6533 21.0533 33.1467C22.4 34.4267 24.32 35.16 26.28 35.16C26.88 35.16 27.48 35.0933 28.0666 34.96C28.1466 34.9467 28.2133 34.92 28.28 34.8933C28.28 34.9333 28.28 34.9733 28.28 35.0133H28.2666ZM29.48 34.4533C29.48 34.4533 29.5333 34.4267 29.5466 34.4133C29.52 34.4533 29.5066 34.4667 29.48 34.4533ZM34.6266 42.4933C33.5733 43.5333 32.3466 43.88 31.2666 43.4267C30.3333 43.04 29.7333 42.1333 29.7333 41.12V34.32C30.4 33.9867 31 33.56 31.4933 33.0533V38.64C31.4933 39.04 31.8266 39.3733 32.2266 39.3733C32.6266 39.3733 32.96 39.04 32.96 38.64V32.9867C33.28 33.32 33.64 33.6267 34.04 33.9067C34.2666 34.0667 34.4933 34.2 34.7333 34.32V42.2133C34.7333 42.3067 34.6933 42.4 34.6266 42.48V42.4933ZM34.8533 34.4133C34.8533 34.4133 34.9333 34.4533 34.9733 34.48C34.9333 34.52 34.8933 34.48 34.8533 34.4133ZM36.2 40.7067V35.0133C36.2 35.0133 36.2 34.96 36.2 34.9467C36.8266 35.12 37.48 35.2133 38.16 35.2133C38.6933 35.2133 39.2266 35.16 39.7733 35.04C41.2133 34.7467 42.4533 34.12 43.3866 33.28C42.28 36.7333 39.6 39.48 36.2133 40.7067H36.2Z" fill="#512D6D"/>
<path d="M36.5333 24.8133C36.9333 24.8 37.2533 24.4533 37.24 24.04C37.24 23.3333 37.7466 22.7467 38.3733 22.7467C39 22.7467 39.5066 23.32 39.5066 24.04C39.4933 24.44 39.7866 24.7867 40.1866 24.8133C40.2 24.8133 40.2266 24.8133 40.24 24.8133C40.6266 24.8133 40.9466 24.52 40.9733 24.1333C40.9733 24.1067 40.9733 24.08 40.9733 24.04C40.9733 22.52 39.8133 21.28 38.3733 21.28C36.9333 21.28 35.7733 22.52 35.7733 24.04C35.7733 24.0667 35.7733 24.0933 35.7733 24.12C35.7866 24.52 36.1333 24.84 36.5466 24.8133H36.5333Z" fill="#512D6D"/>
<path d="M24.24 24.8267C24.24 24.8267 24.28 24.8267 24.2933 24.8267C24.6933 24.8 25 24.4533 24.9733 24.0533C24.9733 23.3467 25.48 22.76 26.1067 22.76C26.7333 22.76 27.24 23.3333 27.24 24.0533C27.2267 24.4533 27.52 24.8 27.92 24.8267C28.32 24.8533 28.68 24.5467 28.7067 24.1467C28.7067 24.12 28.7067 24.0933 28.7067 24.0533C28.7067 22.5333 27.5467 21.2933 26.1067 21.2933C24.6667 21.2933 23.5067 22.5333 23.5067 24.0533C23.5067 24.08 23.5067 24.12 23.5067 24.1467C23.5333 24.5333 23.8533 24.84 24.24 24.84V24.8267Z" fill="#512D6D"/>
</g>
<defs>
<clipPath id="clip0_1_482613">
<rect width="64" height="64" fill="white" transform="translate(0.333313)"/>
</clipPath>
</defs>
</svg>
