<svg width="64" height="64" viewBox="0 0 64 64" fill="none" xmlns="http://www.w3.org/2000/svg">
<g clip-path="url(#clip0_1_482406)">
<path d="M32 64C49.6731 64 64 49.6731 64 32C64 14.3269 49.6731 0 32 0C14.3269 0 0 14.3269 0 32C0 49.6731 14.3269 64 32 64Z" fill="#F8E08E"/>
<path d="M9.74667 16.7467L11.7333 14.5067C13.4667 12.56 15.6133 12.56 17.3467 14.1067C18.9867 15.56 19.2533 17.7333 17.56 19.64L15.5467 21.9067L9.73334 16.7467H9.74667ZM15.5333 19.88L16.5333 18.76C17.68 17.48 17.3867 16.1333 16.3733 15.2267C15.2267 14.2133 13.8933 14.1333 12.7467 15.4133L11.7733 16.52L15.5467 19.8667L15.5333 19.88Z" fill="#512D6D"/>
<path d="M18.7067 12.92C17.7733 10.9067 18.6667 8.53335 20.7333 7.57335C22.8 6.61335 25.1733 7.48001 26.1067 9.49335C27.04 11.5067 26.1467 13.88 24.0933 14.8267C22.04 15.7733 19.64 14.9333 18.7067 12.92ZM24.7333 10.1333C24.0667 8.70668 22.6133 8.26668 21.3333 8.85335C20.04 9.45335 19.44 10.8533 20.1067 12.2667C20.7733 13.6933 22.24 14.12 23.5067 13.5333C24.7733 12.9467 25.4 11.56 24.7467 10.12L24.7333 10.1333Z" fill="#512D6D"/>
<path d="M31.8267 13.1067C29.6267 13.0667 27.9867 11.4267 28.0267 9.04002C28.0667 6.76002 29.8533 5.06668 32.0933 5.10668C34.2533 5.14668 35.4533 6.34668 35.8133 7.88001L34.3333 8.32001C34.1067 7.13335 33.2533 6.52001 32.08 6.49335C30.6933 6.46668 29.5733 7.50668 29.5467 9.06668C29.52 10.6267 30.52 11.6933 31.9733 11.72C33.28 11.7467 33.9067 10.8 34.0267 10.2267L30.88 10.1733L30.9067 8.86668L35.9467 8.94668L35.88 13.0533L34.5867 13.0267L34.6133 11.4133C34.1467 12.44 33.2267 13.1067 31.8133 13.0933L31.8267 13.1067Z" fill="#512D6D"/>
<path d="M39.72 14.76C37.72 13.84 36.88 11.68 37.88 9.50669C38.8267 7.44002 41.1467 6.61335 43.1867 7.54669C45.16 8.45335 45.76 10.04 45.48 11.5867L43.9467 11.4C44.2133 10.2267 43.68 9.30669 42.6267 8.82669C41.36 8.24002 39.92 8.74669 39.28 10.16C38.6267 11.5734 39.1067 12.96 40.4267 13.56C41.6133 14.1067 42.5733 13.4934 42.92 13.0134L40.0667 11.7067L40.6133 10.52L45.2 12.6267L43.48 16.36L42.2933 15.8134L42.96 14.3467C42.12 15.0934 41.0133 15.3467 39.7333 14.76H39.72Z" fill="#512D6D"/>
<path d="M48.7333 15.52L52.52 14.68L53.6933 15.8667L48.28 17.04L46.08 19.2L45.0267 18.1334L47.2267 15.9734L48.48 10.56L49.7333 11.8267L48.76 15.52H48.7333Z" fill="#512D6D"/>
<path d="M13.96 38.8267L15.4933 41.4C16.8267 43.64 16.1867 45.68 14.1867 46.88C12.3067 48 10.16 47.6134 8.85334 45.4134L7.29333 42.8134L13.96 38.8267ZM9.24 43.4L10.0133 44.68C10.8933 46.16 12.2667 46.28 13.4267 45.5867C14.7467 44.8 15.2133 43.5467 14.3333 42.0667L13.5733 40.8L9.24 43.3867V43.4Z" fill="#512D6D"/>
<path d="M19.3467 46.1734L21 47.4934L18.6133 55.5067L17.32 54.48L17.88 52.68L14.9733 50.3734L13.36 51.3334L12.0533 50.2934L19.3333 46.16L19.3467 46.1734ZM18.32 51.3067L19.4267 47.7467L16.2267 49.64L18.32 51.3067Z" fill="#512D6D"/>
<path d="M24.1467 52.8L27.2267 50.44L28.7867 51.0267L24.3733 54.3734L23.2933 57.2667L21.8933 56.7467L22.9733 53.8534L21.8267 48.4267L23.4933 49.0534L24.16 52.8134L24.1467 52.8Z" fill="#512D6D"/>
<path d="M29.1467 54.7334C29.12 56.4 30.1867 57.3867 31.5867 57.4134C33.1333 57.44 33.9733 56.4134 34.2267 55.1734L35.5867 55.7467C35.1467 57.56 33.7333 58.8267 31.56 58.7867C29.0933 58.7467 27.5733 57 27.6133 54.72C27.6533 52.44 29.3867 50.7467 31.6933 50.7867C33.7867 50.8267 34.9333 52.0667 35.2533 53.44L33.8667 54.0267C33.6667 52.9334 32.8933 52.16 31.6667 52.1334C30.2933 52.1067 29.1867 53.1067 29.16 54.7334H29.1467Z" fill="#512D6D"/>
<path d="M37.72 50.0267L39.6933 49.2667L45.4 55.4L43.8533 56L42.5867 54.6134L39.1333 55.9467V57.8267L37.5867 58.4267L37.72 50.0534V50.0267ZM41.6267 53.52L39.12 50.76V54.48L41.6267 53.52Z" fill="#512D6D"/>
<path d="M51.0533 50.6267C50.6533 50.4667 50.36 50.24 49.6667 49.4934C49.0133 48.7867 48.4267 48.8534 47.8533 49.3734L46.6267 50.4934L48.7067 52.7734L47.6 53.7867L42.36 48.0534L45.1733 45.48C46.3733 44.3734 47.7067 44.4667 48.5333 45.3734C49.1733 46.0667 49.2533 47.0534 48.7867 47.92C49.4267 47.64 50.1733 47.7067 50.8533 48.3867C51.36 48.8934 51.7333 49.24 52.24 49.32L52.36 49.4534L51.0667 50.64L51.0533 50.6267ZM47.32 47.9734C47.88 47.4667 47.9067 46.92 47.5067 46.4934C47.1067 46.0534 46.5867 46.0534 46.0267 46.5734L44.3867 48.0667L45.68 49.48L47.32 47.9867V47.9734Z" fill="#512D6D"/>
<path d="M49.9733 38.28L51.2 38.9334L49.1467 42.76L50.64 43.56L52.5333 40.0267L53.76 40.68L51.8667 44.2134L53.56 45.12L55.6667 41.2L56.8933 41.8534L54.08 47.0934L47.2267 43.4134L49.9867 38.2667L49.9733 38.28Z" fill="#512D6D"/>
<path d="M45.2133 28.8933C45.2 28.6 45.0267 28.36 44.8 28.2267C44.64 28.0133 44.3733 27.88 44.0933 27.9067C43.6533 27.9333 43.3067 28.3333 43.3467 28.7733C43.5067 30.9867 41.7733 32.9067 39.1067 33.4533C37.5067 33.8 35.92 33.4933 34.64 32.6C33.84 32.04 33.2133 31.28 32.8267 30.44L35.2667 27.6C35.72 27.08 35.2133 26.3867 34.3733 26.3867H29.4267C28.5867 26.3867 28.08 27.08 28.5333 27.6L31.0133 30.4933C30.4133 31.8667 29.0667 32.9733 27.3467 33.3733C25.2 33.88 22.7867 33.16 21.48 31.6133C20.76 30.7733 20.4 29.76 20.4533 28.76C20.48 28.3067 20.1333 27.9333 19.68 27.9067C19.4 27.9067 19.1467 28.0267 19 28.2267C18.76 28.36 18.6 28.6 18.5867 28.8933C18.5733 29.1733 18.56 29.4267 18.56 29.68C18.56 35.7333 22.6267 40.8667 28.16 42.48C28.5333 43.5067 29.32 44.3467 30.36 44.7867C30.8533 44.9867 31.36 45.0933 31.88 45.0933C33.0667 45.0933 34.28 44.56 35.32 43.5467C35.6267 43.2533 35.8133 42.84 35.8533 42.4267C41.28 40.7333 45.2267 35.6667 45.2267 29.6933C45.2267 29.44 45.2267 29.1867 45.2 28.9067L45.2133 28.8933ZM27.9333 35.0133V40.7067C24.4933 39.4667 21.8 36.6533 20.72 33.1467C22.0667 34.4267 23.9867 35.16 25.9467 35.16C26.5467 35.16 27.1467 35.0933 27.7333 34.96C27.8133 34.9467 27.88 34.92 27.9467 34.8933C27.9467 34.9333 27.9467 34.9733 27.9467 35.0133H27.9333ZM29.1467 34.4533C29.1467 34.4533 29.2 34.4267 29.2133 34.4133C29.1867 34.4533 29.1733 34.4667 29.1467 34.4533ZM34.2933 42.4933C33.24 43.5333 32.0133 43.88 30.9333 43.4267C30 43.04 29.4 42.1333 29.4 41.12V34.32C30.0667 33.9867 30.6667 33.56 31.16 33.0533V38.64C31.16 39.04 31.4933 39.3733 31.8933 39.3733C32.2933 39.3733 32.6267 39.04 32.6267 38.64V32.9867C32.9467 33.32 33.3067 33.6267 33.7067 33.9067C33.9333 34.0667 34.16 34.2 34.4 34.32V42.2133C34.4 42.3067 34.36 42.4 34.2933 42.48V42.4933ZM34.52 34.4133C34.52 34.4133 34.6 34.4533 34.64 34.48C34.6 34.52 34.56 34.48 34.52 34.4133ZM35.8667 40.7067V35.0133C35.8667 35.0133 35.8667 34.96 35.8667 34.9467C36.4933 35.12 37.1467 35.2133 37.8267 35.2133C38.36 35.2133 38.8933 35.16 39.44 35.04C40.88 34.7467 42.12 34.12 43.0533 33.28C41.9467 36.7333 39.2667 39.48 35.88 40.7067H35.8667Z" fill="#512D6D"/>
<path d="M36.2 24.8133C36.6 24.8 36.92 24.4533 36.9067 24.04C36.9067 23.3333 37.4133 22.7467 38.04 22.7467C38.6667 22.7467 39.1733 23.32 39.1733 24.04C39.16 24.44 39.4533 24.7867 39.8533 24.8133C39.8667 24.8133 39.8933 24.8133 39.9067 24.8133C40.2933 24.8133 40.6133 24.52 40.64 24.1333C40.64 24.1067 40.64 24.08 40.64 24.04C40.64 22.52 39.48 21.28 38.04 21.28C36.6 21.28 35.44 22.52 35.44 24.04C35.44 24.0667 35.44 24.0933 35.44 24.12C35.4533 24.52 35.8 24.84 36.2133 24.8133H36.2Z" fill="#512D6D"/>
<path d="M23.9067 24.8267C23.9067 24.8267 23.9467 24.8267 23.96 24.8267C24.36 24.8 24.6667 24.4533 24.64 24.0533C24.64 23.3467 25.1467 22.76 25.7733 22.76C26.4 22.76 26.9067 23.3333 26.9067 24.0533C26.8933 24.4533 27.1867 24.8 27.5867 24.8267C27.9867 24.8533 28.3467 24.5467 28.3733 24.1467C28.3733 24.12 28.3733 24.0933 28.3733 24.0533C28.3733 22.5333 27.2133 21.2933 25.7733 21.2933C24.3333 21.2933 23.1733 22.5333 23.1733 24.0533C23.1733 24.08 23.1733 24.12 23.1733 24.1467C23.2 24.5333 23.52 24.84 23.9067 24.84V24.8267Z" fill="#512D6D"/>
</g>
<defs>
<clipPath id="clip0_1_482406">
<rect width="64" height="64" fill="white"/>
</clipPath>
</defs>
</svg>
