<svg width="65" height="64" viewBox="0 0 65 64" fill="none" xmlns="http://www.w3.org/2000/svg">
<g clip-path="url(#clip0_1_482870)">
<path d="M32.6667 64C50.3398 64 64.6667 49.6731 64.6667 32C64.6667 14.3269 50.3398 0 32.6667 0C14.9935 0 0.666656 14.3269 0.666656 32C0.666656 49.6731 14.9935 64 32.6667 64Z" fill="#F8E08E"/>
<path d="M10.4133 16.7467L12.4 14.5067C14.1333 12.56 16.28 12.56 18.0133 14.1067C19.6533 15.56 19.92 17.7333 18.2267 19.64L16.2133 21.9067L10.4 16.7467H10.4133ZM16.2 19.88L17.2 18.76C18.3467 17.48 18.0533 16.1333 17.04 15.2267C15.8933 14.2133 14.56 14.1333 13.4133 15.4133L12.44 16.52L16.2133 19.8667L16.2 19.88Z" fill="#512D6D"/>
<path d="M19.3733 12.92C18.44 10.9067 19.3333 8.53333 21.4 7.57333C23.4667 6.61333 25.84 7.48 26.7733 9.49333C27.7067 11.5067 26.8133 13.88 24.76 14.8267C22.7067 15.7733 20.3067 14.9333 19.3733 12.92ZM25.4 10.1333C24.7333 8.70667 23.28 8.26667 22 8.85333C20.7067 9.45333 20.1067 10.8533 20.7733 12.2667C21.44 13.6933 22.9067 14.12 24.1733 13.5333C25.44 12.9467 26.0667 11.56 25.4133 10.12L25.4 10.1333Z" fill="#512D6D"/>
<path d="M32.4933 13.1067C30.2933 13.0667 28.6533 11.4267 28.6933 9.04C28.7333 6.76 30.52 5.06667 32.76 5.10667C34.92 5.14667 36.12 6.34667 36.48 7.88L35 8.32C34.7733 7.13333 33.92 6.52 32.7467 6.49333C31.36 6.46667 30.24 7.50667 30.2133 9.06667C30.1867 10.6267 31.1867 11.6933 32.64 11.72C33.9467 11.7467 34.5733 10.8 34.6933 10.2267L31.5467 10.1733L31.5733 8.86667L36.6133 8.94667L36.5467 13.0533L35.2533 13.0267L35.28 11.4133C34.8133 12.44 33.8933 13.1067 32.48 13.0933L32.4933 13.1067Z" fill="#512D6D"/>
<path d="M40.3867 14.76C38.3867 13.84 37.5467 11.68 38.5467 9.50667C39.4933 7.44 41.8133 6.61334 43.8533 7.54667C45.8267 8.45334 46.4267 10.04 46.1467 11.5867L44.6133 11.4C44.88 10.2267 44.3467 9.30667 43.2933 8.82667C42.0267 8.24 40.5867 8.74667 39.9467 10.16C39.2933 11.5733 39.7733 12.96 41.0933 13.56C42.28 14.1067 43.24 13.4933 43.5867 13.0133L40.7333 11.7067L41.28 10.52L45.8667 12.6267L44.1467 16.36L42.96 15.8133L43.6267 14.3467C42.7867 15.0933 41.68 15.3467 40.4 14.76H40.3867Z" fill="#512D6D"/>
<path d="M49.4 15.52L53.1867 14.68L54.36 15.8667L48.9467 17.04L46.7467 19.2L45.6933 18.1333L47.8933 15.9733L49.1467 10.56L50.4 11.8267L49.4267 15.52H49.4Z" fill="#512D6D"/>
<path d="M14.6267 38.8267L16.16 41.4C17.4933 43.64 16.8533 45.68 14.8533 46.88C12.9733 48 10.8267 47.6133 9.51999 45.4133L7.95999 42.8133L14.6267 38.8267ZM9.90666 43.4L10.68 44.68C11.56 46.16 12.9333 46.28 14.0933 45.5867C15.4133 44.8 15.88 43.5467 15 42.0667L14.24 40.8L9.90666 43.3867V43.4Z" fill="#512D6D"/>
<path d="M20.0133 46.1733L21.6667 47.4933L19.28 55.5067L17.9867 54.48L18.5467 52.68L15.64 50.3733L14.0267 51.3333L12.72 50.2933L20 46.16L20.0133 46.1733ZM18.9867 51.3067L20.0933 47.7467L16.8933 49.64L18.9867 51.3067Z" fill="#512D6D"/>
<path d="M24.8133 52.8L27.8933 50.44L29.4533 51.0267L25.04 54.3733L23.96 57.2667L22.56 56.7467L23.64 53.8533L22.4933 48.4267L24.16 49.0533L24.8267 52.8133L24.8133 52.8Z" fill="#512D6D"/>
<path d="M29.8133 54.7333C29.7867 56.4 30.8533 57.3867 32.2533 57.4133C33.8 57.44 34.64 56.4133 34.8933 55.1733L36.2533 55.7467C35.8133 57.56 34.4 58.8267 32.2267 58.7867C29.76 58.7467 28.24 57 28.28 54.72C28.32 52.44 30.0533 50.7467 32.36 50.7867C34.4533 50.8267 35.6 52.0667 35.92 53.44L34.5333 54.0267C34.3333 52.9333 33.56 52.16 32.3333 52.1333C30.96 52.1067 29.8533 53.1067 29.8267 54.7333H29.8133Z" fill="#512D6D"/>
<path d="M38.3867 50.0267L40.36 49.2667L46.0667 55.4L44.52 56L43.2533 54.6133L39.8 55.9467V57.8267L38.2533 58.4267L38.3867 50.0533V50.0267ZM42.2933 53.52L39.7867 50.76V54.48L42.2933 53.52Z" fill="#512D6D"/>
<path d="M51.72 50.6267C51.32 50.4667 51.0267 50.24 50.3333 49.4933C49.68 48.7867 49.0933 48.8533 48.52 49.3733L47.2933 50.4933L49.3733 52.7733L48.2667 53.7867L43.0267 48.0533L45.84 45.48C47.04 44.3733 48.3733 44.4667 49.2 45.3733C49.84 46.0667 49.92 47.0533 49.4533 47.92C50.0933 47.64 50.84 47.7067 51.52 48.3867C52.0267 48.8933 52.4 49.24 52.9067 49.32L53.0267 49.4533L51.7333 50.64L51.72 50.6267ZM47.9867 47.9733C48.5467 47.4667 48.5733 46.92 48.1733 46.4933C47.7733 46.0533 47.2533 46.0533 46.6933 46.5733L45.0533 48.0667L46.3467 49.48L47.9867 47.9867V47.9733Z" fill="#512D6D"/>
<path d="M50.64 38.28L51.8667 38.9333L49.8133 42.76L51.3067 43.56L53.2 40.0267L54.4267 40.68L52.5333 44.2133L54.2267 45.12L56.3333 41.2L57.56 41.8533L54.7467 47.0933L47.8933 43.4133L50.6533 38.2667L50.64 38.28Z" fill="#512D6D"/>
<path d="M45.88 28.8933C45.8667 28.6 45.6933 28.36 45.4667 28.2267C45.3067 28.0133 45.04 27.88 44.76 27.9067C44.32 27.9333 43.9733 28.3333 44.0133 28.7733C44.1733 30.9867 42.44 32.9067 39.7733 33.4533C38.1733 33.8 36.5867 33.4933 35.3067 32.6C34.5067 32.04 33.88 31.28 33.4933 30.44L35.9333 27.6C36.3867 27.08 35.88 26.3867 35.04 26.3867H30.0933C29.2533 26.3867 28.7467 27.08 29.2 27.6L31.68 30.4933C31.08 31.8667 29.7333 32.9733 28.0133 33.3733C25.8667 33.88 23.4533 33.16 22.1467 31.6133C21.4267 30.7733 21.0667 29.76 21.12 28.76C21.1467 28.3067 20.8 27.9333 20.3467 27.9067C20.0667 27.9067 19.8133 28.0267 19.6667 28.2267C19.4267 28.36 19.2667 28.6 19.2533 28.8933C19.24 29.1733 19.2267 29.4267 19.2267 29.68C19.2267 35.7333 23.2933 40.8667 28.8267 42.48C29.2 43.5067 29.9867 44.3467 31.0267 44.7867C31.52 44.9867 32.0267 45.0933 32.5467 45.0933C33.7333 45.0933 34.9467 44.56 35.9867 43.5467C36.2933 43.2533 36.48 42.84 36.52 42.4267C41.9467 40.7333 45.8933 35.6667 45.8933 29.6933C45.8933 29.44 45.8933 29.1867 45.8667 28.9067L45.88 28.8933ZM28.6 35.0133V40.7067C25.16 39.4667 22.4667 36.6533 21.3867 33.1467C22.7333 34.4267 24.6533 35.16 26.6133 35.16C27.2133 35.16 27.8133 35.0933 28.4 34.96C28.48 34.9467 28.5467 34.92 28.6133 34.8933C28.6133 34.9333 28.6133 34.9733 28.6133 35.0133H28.6ZM29.8133 34.4533C29.8133 34.4533 29.8667 34.4267 29.88 34.4133C29.8533 34.4533 29.84 34.4667 29.8133 34.4533ZM34.96 42.4933C33.9067 43.5333 32.68 43.88 31.6 43.4267C30.6667 43.04 30.0667 42.1333 30.0667 41.12V34.32C30.7333 33.9867 31.3333 33.56 31.8267 33.0533V38.64C31.8267 39.04 32.16 39.3733 32.56 39.3733C32.96 39.3733 33.2933 39.04 33.2933 38.64V32.9867C33.6133 33.32 33.9733 33.6267 34.3733 33.9067C34.6 34.0667 34.8267 34.2 35.0667 34.32V42.2133C35.0667 42.3067 35.0267 42.4 34.96 42.48V42.4933ZM35.1867 34.4133C35.1867 34.4133 35.2667 34.4533 35.3067 34.48C35.2667 34.52 35.2267 34.48 35.1867 34.4133ZM36.5333 40.7067V35.0133C36.5333 35.0133 36.5333 34.96 36.5333 34.9467C37.16 35.12 37.8133 35.2133 38.4933 35.2133C39.0267 35.2133 39.56 35.16 40.1067 35.04C41.5467 34.7467 42.7867 34.12 43.72 33.28C42.6133 36.7333 39.9333 39.48 36.5467 40.7067H36.5333Z" fill="#512D6D"/>
<path d="M36.8667 24.8133C37.2667 24.8 37.5867 24.4533 37.5733 24.04C37.5733 23.3333 38.08 22.7467 38.7067 22.7467C39.3333 22.7467 39.84 23.32 39.84 24.04C39.8267 24.44 40.12 24.7867 40.52 24.8133C40.5333 24.8133 40.56 24.8133 40.5733 24.8133C40.96 24.8133 41.28 24.52 41.3067 24.1333C41.3067 24.1067 41.3067 24.08 41.3067 24.04C41.3067 22.52 40.1467 21.28 38.7067 21.28C37.2667 21.28 36.1067 22.52 36.1067 24.04C36.1067 24.0667 36.1067 24.0933 36.1067 24.12C36.12 24.52 36.4667 24.84 36.88 24.8133H36.8667Z" fill="#512D6D"/>
<path d="M24.5733 24.8267C24.5733 24.8267 24.6133 24.8267 24.6266 24.8267C25.0266 24.8 25.3333 24.4533 25.3066 24.0533C25.3066 23.3467 25.8133 22.76 26.44 22.76C27.0666 22.76 27.5733 23.3333 27.5733 24.0533C27.56 24.4533 27.8533 24.8 28.2533 24.8267C28.6533 24.8533 29.0133 24.5467 29.04 24.1467C29.04 24.12 29.04 24.0933 29.04 24.0533C29.04 22.5333 27.88 21.2933 26.44 21.2933C25 21.2933 23.84 22.5333 23.84 24.0533C23.84 24.08 23.84 24.12 23.84 24.1467C23.8666 24.5333 24.1866 24.84 24.5733 24.84V24.8267Z" fill="#512D6D"/>
</g>
<defs>
<clipPath id="clip0_1_482870">
<rect width="64" height="64" fill="white" transform="translate(0.666656)"/>
</clipPath>
</defs>
</svg>
