<svg width="84" height="15" viewBox="0 0 84 15" fill="none" xmlns="http://www.w3.org/2000/svg">
<path d="M50.5052 1.48163C50.5987 1.63649 50.4741 1.86877 50.5987 2.02363C50.6299 2.06234 50.6922 2.02363 50.6922 2.06234C50.6922 2.13977 50.5987 2.25591 50.661 2.29463C50.6922 2.33334 50.7545 2.25591 50.7856 2.33334C50.7856 2.37206 50.7856 2.37206 50.7545 2.41077C50.8791 2.4882 50.7545 2.60434 50.8168 2.72048L50.848 2.68177C50.9103 2.95277 50.8168 3.30119 50.9726 3.57219C51.0037 3.64962 51.0349 3.72705 51.0972 3.76576C51.1907 3.84319 51.1907 3.76576 51.253 3.68833C51.2842 3.64962 51.3465 3.64962 51.3776 3.6109C51.4088 3.57219 51.4711 3.6109 51.4711 3.64962C51.5023 3.92062 51.7204 3.95933 51.845 4.1529C51.8138 4.1529 51.8138 4.23033 51.8138 4.26904C51.7827 4.61747 51.8138 4.96589 51.9073 5.2756C51.9385 5.35303 52.0008 5.39175 52.0319 5.43046C52.1254 5.66274 52.1566 5.89503 52.1877 6.16603C52.1566 6.16603 52.1566 6.24345 52.1566 6.24345C52.1254 6.51445 52.25 6.74674 52.3747 6.97902C52.4058 7.05645 52.5304 7.17259 52.6551 7.13388C52.6862 7.13388 52.6862 7.2113 52.7174 7.25002C52.7797 7.28873 52.8732 7.25002 52.9043 7.32745C52.9355 7.40487 52.9667 7.4823 52.9978 7.52102C52.9978 7.52102 53.029 7.52102 53.029 7.4823C53.0913 7.67587 53.2471 7.71459 53.3717 7.83073C53.3717 7.79201 53.3717 7.7533 53.4029 7.7533C53.4652 7.83073 53.621 7.94687 53.5275 8.10173C53.5275 8.06301 53.4963 8.06301 53.4652 8.06301C53.434 8.06301 53.434 8.10173 53.434 8.10173C53.4963 8.17915 53.5275 8.25658 53.5898 8.29529C53.621 8.33401 53.6833 8.37272 53.6833 8.48886C53.6833 8.52758 53.6521 8.52758 53.621 8.52758C53.6521 8.52758 53.5898 8.60501 53.6521 8.56629C53.6521 8.56629 53.6521 8.48886 53.6833 8.48886C53.7767 8.56629 53.7767 8.72115 53.8079 8.79858C53.8702 8.99215 53.8702 9.18572 53.9014 9.418C53.9014 9.45671 53.9325 9.45671 53.9637 9.45671C53.9637 9.418 53.9637 9.418 53.9948 9.37929C54.0572 9.34057 54.026 9.45671 54.0572 9.45671V9.18572C54.0572 9.147 54.0883 9.147 54.1195 9.147C54.2129 9.22443 54.2441 9.37929 54.3376 9.418C54.3376 9.37929 54.3064 9.30186 54.3687 9.30186C54.3999 9.30186 54.431 9.37929 54.431 9.418C54.4622 9.76643 54.3687 10.1536 54.618 10.4246C54.618 10.4246 54.5868 10.4246 54.5557 10.4633C54.5245 10.4633 54.5557 10.502 54.5868 10.502C54.5868 10.4633 54.6491 10.4633 54.6803 10.4633C54.7426 10.4246 54.7115 10.5407 54.7426 10.5407C54.8984 10.502 54.9919 10.6956 55.0542 10.8504C55.0853 10.9666 55.21 11.044 55.2411 11.1988C55.2411 11.2376 55.2723 11.2763 55.2723 11.3537C55.2723 11.3924 55.3658 11.3924 55.3658 11.4698C55.4281 11.7408 55.5215 11.9731 55.4904 12.2441C55.4592 12.4764 55.4281 12.7087 55.4592 12.941C55.4904 13.0958 55.7085 13.4443 55.4904 13.5217C55.3346 13.5604 55.1788 13.483 55.023 13.5604C54.8672 13.6378 54.8361 13.8701 54.7426 13.9475C54.6491 13.9862 54.5557 14.025 54.4622 14.1024C54.3999 14.1411 54.3999 13.9862 54.3999 13.9475C54.3687 13.8701 54.3064 13.8314 54.2441 13.7927C54.026 13.7153 53.8391 13.5991 53.621 13.6765C53.4652 13.7153 53.3405 13.8314 53.2159 13.9475L49.3524 13.8314V11.6634H47.888V5.23689C48.075 5.35303 48.2619 5.39175 48.4177 5.50789C48.5423 5.58532 48.5735 5.8176 48.6981 5.85631C48.8227 5.89503 48.9474 6.01117 49.1031 6.01117C49.2589 5.97246 49.4147 5.89503 49.4459 5.66274C49.4459 5.58532 49.477 5.50789 49.477 5.46917C49.6951 5.08203 49.7575 4.6949 49.8198 4.26904C49.8509 3.92062 49.7575 3.57219 49.7886 3.22376C49.8198 3.06891 49.8198 2.91405 49.8509 2.7592C49.8821 2.68177 49.9132 2.56563 49.9756 2.4882C49.9444 2.4882 49.8509 2.52691 49.8509 2.44948C49.8509 2.29463 49.9132 2.13977 49.9756 2.02363C49.9756 1.98492 50.0067 2.02363 50.0067 2.06234C50.0379 1.83006 50.0379 1.59778 50.1313 1.40421C50.1625 1.28807 50.1937 1.0945 50.256 1.13321C50.3183 1.17192 50.5052 1.48163 50.5052 1.48163Z" fill="white"/>
<path d="M40.0994 6.7856L40.5045 6.47589L41.003 7.09531V11.4313L40.5356 11.9733L42.7166 13.4831L44.8353 11.2377L44.5861 10.928L43.9629 11.5474L43.2463 11.0054V6.39846C43.2463 6.39846 43.9006 7.52116 44.8976 7.44374C44.8976 7.44374 46.3932 7.40502 46.8294 6.01132C46.8294 6.01132 45.2092 7.09531 44.773 4.54019L43.184 6.20489L42.0935 4.77247L39.9125 6.47589L40.0994 6.7856ZM10.905 3.53362C10.6869 3.53362 10.4688 3.41748 10.3131 3.22391H10.5312C11.092 3.14649 11.0608 2.75935 11.0608 2.75935V1.01722C11.5905 1.01722 11.8398 0.165509 11.8398 0.165509C11.8398 0.165509 11.4659 0.475221 10.8739 0.242937C10.8739 0.242937 10.1884 -0.105489 9.78338 0.320365C9.37834 0.746218 9.31602 1.01722 9.22255 1.28821C9.31602 1.13336 9.87686 0.591362 10.4688 0.86236V2.87549C10.4688 2.87549 10.4688 3.14649 10.2196 3.06906C10.0638 2.79806 10.0015 2.52706 10.0015 2.21735C10.0015 1.75278 10.1573 1.32693 10.4377 1.09464C9.81454 1.09464 9.37834 1.75278 9.37834 2.52706C9.37834 3.41748 9.87685 4.03691 10.5623 4.03691C11.1855 4.03691 11.684 3.49491 11.7774 2.75935C11.6217 3.1852 11.2789 3.53362 10.905 3.53362ZM15.3917 3.37877L14.862 2.87549L15.8279 2.21735L15.2982 1.01722L14.1766 1.7915L14.27 1.94635V3.14649L14.1454 3.26263L14.8309 3.95948L15.7967 3.26263L15.7344 3.10777L15.3917 3.37877ZM14.862 1.55921L15.2671 2.41092L14.862 2.68192V1.55921ZM12.8368 1.67535L12.6187 1.83021V3.10777L12.9303 3.41748L12.4006 3.88205L11.8398 3.30134L11.9644 3.1852V1.28821C11.9644 0.707504 11.8086 0.591362 11.8086 0.591362L12.6187 0.204223V1.63664L13.2107 1.13336L13.8961 1.83021L13.7404 1.90764V3.03034L14.1142 3.41748L13.5846 3.92076L12.9926 3.34006L13.1172 3.1852V1.94635L12.8368 1.67535ZM33.7745 11.47V7.13402L34.3353 6.70817L32.4036 4.81119L30.6899 6.59203L31.5 7.25017V11.3151L30.9703 12.1668L33.276 13.6767L34.678 12.0507C34.6469 12.0894 33.7745 11.47 33.7745 11.47ZM34.0861 3.1852L32.7151 1.98507L31.8739 3.49491L33.2448 4.69504L34.0861 3.1852ZM79.1706 11.47V7.13402L79.7315 6.70817L77.7997 4.81119L76.0861 6.59203L76.8961 7.25017V11.3151L76.3665 12.1668L78.6721 13.6767L80.0742 12.0507L79.1706 11.47ZM79.4822 3.1852L78.1113 1.98507L77.27 3.49491L78.641 4.69504L79.4822 3.1852ZM83.0653 11.4313V2.10121L80.3234 3.1852C80.3234 3.1852 80.8531 3.53363 80.8531 4.15305V11.3151L80.2923 12.1668L82.5979 13.6767L84 12.0507L83.0653 11.4313ZM8.94214 9.80529C8.22552 10.6957 7.2908 11.3538 6.51187 11.5861V4.42405C7.01039 4.73376 7.35312 4.61762 7.35312 4.61762C7.88279 4.61762 8.72404 3.84334 8.87982 3.06906C7.69585 4.23048 6.29377 1.98507 6.29377 1.98507L3.8635 5.15961V10.6183C3.05341 9.68915 2.52374 8.25673 2.52374 6.59203C2.52374 4.38533 3.24036 2.79806 4.39318 2.02378C2.11869 2.13992 0 4.69504 0 7.86959C0 11.2764 1.99407 13.7154 4.5178 13.7154C6.29377 13.7541 8.22552 12.0894 8.94214 9.80529ZM3.92582 10.6957L5.73294 8.91487V3.68848C5.88872 3.92076 6.07567 4.07562 6.2003 4.23048V11.7023C6.10683 11.7023 6.01335 11.741 5.91988 11.741C5.20326 11.7023 4.48665 11.3151 3.92582 10.6957ZM74.9021 10.8506V7.48245L75.3383 7.01788L72.7211 4.8499C71.2255 5.23704 68.7329 6.94045 68.2656 9.26329C67.7982 11.6248 68.7641 12.7476 69.6677 13.4057C70.2596 13.8703 70.727 13.4831 70.727 13.4831L72.6588 11.9733L74.3412 13.5605L76.1172 11.9733L74.9021 10.8506ZM72.0979 11.6636C71.5371 11.6636 69.9169 10.8119 69.9481 9.18587C69.9792 7.55988 70.6024 6.74688 71.132 6.20489L72.6588 7.44374V11.1216C72.6588 11.1603 72.7211 11.6636 72.0979 11.6636ZM55.3976 3.41748L57.1736 1.90764L58.8561 3.37877L61.1617 1.90764L62.8754 3.37877L65.0564 1.94635L67.0193 3.49491V11.4313L67.8917 12.0507L66.4896 13.6767L64.7136 12.5153V4.77247L63.3116 3.76591L63.0312 4.03691V11.4313L63.9036 12.0507L62.5015 13.6767L60.7255 12.5153V4.77247L59.2611 3.76591L58.9807 4.03691V11.4313L59.8531 12.0507L58.451 13.6767L56.6751 12.5153V4.26919L55.3976 3.41748ZM38.9154 11.8958L37.046 10.2699L40.5045 8.33416L38.6039 4.54019L34.5534 6.97917L34.9896 7.40502V11.0829L34.5534 11.47L37.0148 13.638L40.411 11.5087L40.224 11.0829L38.9154 11.8958ZM37.1083 6.28232L38.5104 8.9923L37.1083 9.76658V6.28232ZM23.9288 6.7856L23.7107 6.47589L25.8917 4.77247L26.9822 6.20489L28.5712 4.54019C29.0074 7.09531 30.6276 6.01132 30.6276 6.01132C30.1914 7.40502 28.6958 7.44374 28.6958 7.44374C27.6988 7.52116 27.0445 6.39846 27.0445 6.39846V11.0829L27.7923 11.5474L28.4154 10.928L28.6647 11.2377L26.546 13.4831L24.365 11.9733L24.8323 11.4313V7.09531L24.3338 6.47589L23.9288 6.7856ZM20.6573 11.0829V7.13402L20.0964 6.55331L21.8412 4.73376L23.3991 6.5146L22.8694 7.0566V10.8893L23.773 11.6636L24.0534 11.3151L24.2715 11.5087L22.6202 13.6767L20.595 11.6248L18.7567 13.5605L16.1083 11.47L16.7315 10.9667V7.59859L15.8902 6.55331L17.7908 4.77247L19.1617 6.59203V10.8506L20.1276 11.6248L20.6573 11.0829ZM13.0861 4.61762L8.75519 7.17274L9.25371 7.48245V11.0054L8.78635 11.4313L12.089 13.5993L15.4852 10.3473V6.94045L13.0861 4.61762ZM13.0861 11.8958L11.4659 10.5409V6.08875L13.0861 7.71473V11.8958Z" fill="white"/>
</svg>
