<svg width="15" height="14" viewBox="0 0 15 14" fill="none" xmlns="http://www.w3.org/2000/svg">
<g clip-path="url(#clip0_1_997144)">
<path fill-rule="evenodd" clip-rule="evenodd" d="M2.08334 11.8125V6.125H2.95834V11.8125C2.95834 11.9285 3.00444 12.0398 3.08648 12.1219C3.16853 12.2039 3.27981 12.25 3.39584 12.25H11.2708C11.3869 12.25 11.4982 12.2039 11.5802 12.1219C11.6623 12.0398 11.7083 11.9285 11.7083 11.8125V6.125H12.5833V11.8125C12.5833 12.1606 12.4451 12.4944 12.1989 12.7406C11.9528 12.9867 11.6189 13.125 11.2708 13.125H3.39584C3.04775 13.125 2.71391 12.9867 2.46777 12.7406C2.22162 12.4944 2.08334 12.1606 2.08334 11.8125V11.8125ZM11.7083 2.1875V5.25L9.95834 3.5V2.1875C9.95834 2.07147 10.0044 1.96019 10.0865 1.87814C10.1685 1.79609 10.2798 1.75 10.3958 1.75H11.2708C11.3869 1.75 11.4982 1.79609 11.5802 1.87814C11.6623 1.96019 11.7083 2.07147 11.7083 2.1875Z" fill="white" fill-opacity="0.5"/>
<path d="M10.4583 2.25H11.2083V4.04289L10.4583 3.29289V2.25Z" stroke="white" stroke-opacity="0.5"/>
<path fill-rule="evenodd" clip-rule="evenodd" d="M6.71472 1.31252C6.87881 1.14849 7.10133 1.05634 7.33335 1.05634C7.56537 1.05634 7.78788 1.14849 7.95197 1.31252L13.7681 7.12777C13.8502 7.20992 13.8964 7.32134 13.8964 7.43752C13.8964 7.5537 13.8502 7.66512 13.7681 7.74727C13.6859 7.82942 13.5745 7.87558 13.4583 7.87558C13.3422 7.87558 13.2307 7.82942 13.1486 7.74727L7.33335 1.93115L1.5181 7.74727C1.43595 7.82942 1.32453 7.87558 1.20835 7.87558C1.09217 7.87558 0.980748 7.82942 0.898597 7.74727C0.816446 7.66512 0.770294 7.5537 0.770294 7.43752C0.770294 7.32134 0.816446 7.20992 0.898597 7.12777L6.71472 1.31252Z" fill="white" fill-opacity="0.5"/>
</g>
<defs>
<clipPath id="clip0_1_997144">
<rect width="14" height="14" fill="white" transform="translate(0.333344)"/>
</clipPath>
</defs>
</svg>
