<svg width="15" height="14" viewBox="0 0 15 14" fill="none" xmlns="http://www.w3.org/2000/svg">
<g clip-path="url(#clip0_1_997319)">
<path fill-rule="evenodd" clip-rule="evenodd" d="M1.95001 11.8125V6.125H2.82501V11.8125C2.82501 11.9285 2.87111 12.0398 2.95315 12.1219C3.0352 12.2039 3.14648 12.25 3.26251 12.25H11.1375C11.2535 12.25 11.3648 12.2039 11.4469 12.1219C11.5289 12.0398 11.575 11.9285 11.575 11.8125V6.125H12.45V11.8125C12.45 12.1606 12.3117 12.4944 12.0656 12.7406C11.8194 12.9867 11.4856 13.125 11.1375 13.125H3.26251C2.91442 13.125 2.58058 12.9867 2.33443 12.7406C2.08829 12.4944 1.95001 12.1606 1.95001 11.8125V11.8125ZM11.575 2.1875V5.25L9.82501 3.5V2.1875C9.82501 2.07147 9.87111 1.96019 9.95315 1.87814C10.0352 1.79609 10.1465 1.75 10.2625 1.75H11.1375C11.2535 1.75 11.3648 1.79609 11.4469 1.87814C11.5289 1.96019 11.575 2.07147 11.575 2.1875Z" fill="white" fill-opacity="0.5"/>
<path d="M10.325 2.25H11.075V4.04289L10.325 3.29289V2.25Z" stroke="white" stroke-opacity="0.5"/>
<path fill-rule="evenodd" clip-rule="evenodd" d="M6.58139 1.31252C6.74548 1.14849 6.968 1.05634 7.20002 1.05634C7.43203 1.05634 7.65455 1.14849 7.81864 1.31252L13.6348 7.12777C13.7169 7.20992 13.7631 7.32134 13.7631 7.43752C13.7631 7.5537 13.7169 7.66512 13.6348 7.74727C13.5526 7.82942 13.4412 7.87558 13.325 7.87558C13.2088 7.87558 13.0974 7.82942 13.0153 7.74727L7.20002 1.93115L1.38477 7.74727C1.30261 7.82942 1.19119 7.87558 1.07502 7.87558C0.958837 7.87558 0.847416 7.82942 0.765266 7.74727C0.683115 7.66512 0.636963 7.5537 0.636963 7.43752C0.636963 7.32134 0.683115 7.20992 0.765266 7.12777L6.58139 1.31252Z" fill="white" fill-opacity="0.5"/>
</g>
<defs>
<clipPath id="clip0_1_997319">
<rect width="14" height="14" fill="white" transform="translate(0.200012)"/>
</clipPath>
</defs>
</svg>
