<svg width="15" height="14" viewBox="0 0 15 14" fill="none" xmlns="http://www.w3.org/2000/svg">
<g clip-path="url(#clip0_1_997244)">
<path fill-rule="evenodd" clip-rule="evenodd" d="M2.15002 11.8125V6.125H3.02502V11.8125C3.02502 11.9285 3.07112 12.0398 3.15317 12.1219C3.23521 12.2039 3.34649 12.25 3.46252 12.25H11.3375C11.4536 12.25 11.5648 12.2039 11.6469 12.1219C11.7289 12.0398 11.775 11.9285 11.775 11.8125V6.125H12.65V11.8125C12.65 12.1606 12.5117 12.4944 12.2656 12.7406C12.0195 12.9867 11.6856 13.125 11.3375 13.125H3.46252C3.11443 13.125 2.78059 12.9867 2.53445 12.7406C2.28831 12.4944 2.15002 12.1606 2.15002 11.8125V11.8125ZM11.775 2.1875V5.25L10.025 3.5V2.1875C10.025 2.07147 10.0711 1.96019 10.1532 1.87814C10.2352 1.79609 10.3465 1.75 10.4625 1.75H11.3375C11.4536 1.75 11.5648 1.79609 11.6469 1.87814C11.7289 1.96019 11.775 2.07147 11.775 2.1875Z" fill="white" fill-opacity="0.5"/>
<path d="M10.525 2.25H11.275V4.04289L10.525 3.29289V2.25Z" stroke="white" stroke-opacity="0.5"/>
<path fill-rule="evenodd" clip-rule="evenodd" d="M6.7814 1.31252C6.94549 1.14849 7.16801 1.05634 7.40003 1.05634C7.63205 1.05634 7.85457 1.14849 8.01865 1.31252L13.8348 7.12777C13.9169 7.20992 13.9631 7.32134 13.9631 7.43752C13.9631 7.5537 13.9169 7.66512 13.8348 7.74727C13.7526 7.82942 13.6412 7.87558 13.525 7.87558C13.4088 7.87558 13.2974 7.82942 13.2153 7.74727L7.40003 1.93115L1.58478 7.74727C1.50263 7.82942 1.39121 7.87558 1.27503 7.87558C1.15885 7.87558 1.04743 7.82942 0.965278 7.74727C0.883127 7.66512 0.836975 7.5537 0.836975 7.43752C0.836975 7.32134 0.883127 7.20992 0.965278 7.12777L6.7814 1.31252Z" fill="white" fill-opacity="0.5"/>
</g>
<defs>
<clipPath id="clip0_1_997244">
<rect width="14" height="14" fill="white" transform="translate(0.400024)"/>
</clipPath>
</defs>
</svg>
