<svg width="14" height="14" viewBox="0 0 14 14" fill="none" xmlns="http://www.w3.org/2000/svg">
<path fill-rule="evenodd" clip-rule="evenodd" d="M1.75 11.8125V6.125H2.625V11.8125C2.625 11.9285 2.67109 12.0398 2.75314 12.1219C2.83519 12.2039 2.94647 12.25 3.0625 12.25H10.9375C11.0535 12.25 11.1648 12.2039 11.2469 12.1219C11.3289 12.0398 11.375 11.9285 11.375 11.8125V6.125H12.25V11.8125C12.25 12.1606 12.1117 12.4944 11.8656 12.7406C11.6194 12.9867 11.2856 13.125 10.9375 13.125H3.0625C2.7144 13.125 2.38056 12.9867 2.13442 12.7406C1.88828 12.4944 1.75 12.1606 1.75 11.8125V11.8125ZM11.375 2.1875V5.25L9.625 3.5V2.1875C9.625 2.07147 9.67109 1.96019 9.75314 1.87814C9.83519 1.79609 9.94647 1.75 10.0625 1.75H10.9375C11.0535 1.75 11.1648 1.79609 11.2469 1.87814C11.3289 1.96019 11.375 2.07147 11.375 2.1875Z" fill="white" fill-opacity="0.5"/>
<path d="M10.125 2.25H10.875V4.04289L10.125 3.29289V2.25Z" stroke="white" stroke-opacity="0.5"/>
<path fill-rule="evenodd" clip-rule="evenodd" d="M6.38138 1.31252C6.54547 1.14849 6.76798 1.05634 7 1.05634C7.23202 1.05634 7.45454 1.14849 7.61863 1.31252L13.4348 7.12777C13.5169 7.20992 13.5631 7.32134 13.5631 7.43752C13.5631 7.5537 13.5169 7.66512 13.4348 7.74727C13.3526 7.82942 13.2412 7.87558 13.125 7.87558C13.0088 7.87558 12.8974 7.82942 12.8153 7.74727L7 1.93115L1.18475 7.74727C1.1026 7.82942 0.991182 7.87558 0.875003 7.87558C0.758825 7.87558 0.647404 7.82942 0.565253 7.74727C0.483103 7.66512 0.436951 7.5537 0.436951 7.43752C0.436951 7.32134 0.483103 7.20992 0.565253 7.12777L6.38138 1.31252Z" fill="white" fill-opacity="0.5"/>
</svg>
