<svg width="15" height="14" viewBox="0 0 15 14" fill="none" xmlns="http://www.w3.org/2000/svg">
<g clip-path="url(#clip0_1_997294)">
<path fill-rule="evenodd" clip-rule="evenodd" d="M2.35005 11.8125V6.125H3.22505V11.8125C3.22505 11.9285 3.27115 12.0398 3.35319 12.1219C3.43524 12.2039 3.54652 12.25 3.66255 12.25H11.5376C11.6536 12.25 11.7649 12.2039 11.8469 12.1219C11.929 12.0398 11.9751 11.9285 11.9751 11.8125V6.125H12.8501V11.8125C12.8501 12.1606 12.7118 12.4944 12.4656 12.7406C12.2195 12.9867 11.8856 13.125 11.5376 13.125H3.66255C3.31446 13.125 2.98062 12.9867 2.73447 12.7406C2.48833 12.4944 2.35005 12.1606 2.35005 11.8125V11.8125ZM11.9751 2.1875V5.25L10.2251 3.5V2.1875C10.2251 2.07147 10.2711 1.96019 10.3532 1.87814C10.4352 1.79609 10.5465 1.75 10.6626 1.75H11.5376C11.6536 1.75 11.7649 1.79609 11.8469 1.87814C11.929 1.96019 11.9751 2.07147 11.9751 2.1875Z" fill="white" fill-opacity="0.5"/>
<path d="M10.7251 2.25H11.4751V4.04289L10.7251 3.29289V2.25Z" stroke="white" stroke-opacity="0.5"/>
<path fill-rule="evenodd" clip-rule="evenodd" d="M6.98143 1.31252C7.14552 1.14849 7.36804 1.05634 7.60005 1.05634C7.83207 1.05634 8.05459 1.14849 8.21868 1.31252L14.0348 7.12777C14.117 7.20992 14.1631 7.32134 14.1631 7.43752C14.1631 7.5537 14.117 7.66512 14.0348 7.74727C13.9527 7.82942 13.8412 7.87558 13.7251 7.87558C13.6089 7.87558 13.4975 7.82942 13.4153 7.74727L7.60005 1.93115L1.78481 7.74727C1.70265 7.82942 1.59123 7.87558 1.47506 7.87558C1.35888 7.87558 1.24746 7.82942 1.16531 7.74727C1.08315 7.66512 1.037 7.5537 1.037 7.43752C1.037 7.32134 1.08315 7.20992 1.16531 7.12777L6.98143 1.31252Z" fill="white" fill-opacity="0.5"/>
</g>
<defs>
<clipPath id="clip0_1_997294">
<rect width="14" height="14" fill="white" transform="translate(0.600052)"/>
</clipPath>
</defs>
</svg>
