<svg width="15" height="14" viewBox="0 0 15 14" fill="none" xmlns="http://www.w3.org/2000/svg">
<g clip-path="url(#clip0_1_997219)">
<path fill-rule="evenodd" clip-rule="evenodd" d="M2.54999 11.8125V6.125H3.42499V11.8125C3.42499 11.9285 3.47108 12.0398 3.55313 12.1219C3.63518 12.2039 3.74646 12.25 3.86249 12.25H11.7375C11.8535 12.25 11.9648 12.2039 12.0468 12.1219C12.1289 12.0398 12.175 11.9285 12.175 11.8125V6.125H13.05V11.8125C13.05 12.1606 12.9117 12.4944 12.6656 12.7406C12.4194 12.9867 12.0856 13.125 11.7375 13.125H3.86249C3.51439 13.125 3.18055 12.9867 2.93441 12.7406C2.68827 12.4944 2.54999 12.1606 2.54999 11.8125V11.8125ZM12.175 2.1875V5.25L10.425 3.5V2.1875C10.425 2.07147 10.4711 1.96019 10.5531 1.87814C10.6352 1.79609 10.7465 1.75 10.8625 1.75H11.7375C11.8535 1.75 11.9648 1.79609 12.0468 1.87814C12.1289 1.96019 12.175 2.07147 12.175 2.1875Z" fill="white" fill-opacity="0.5"/>
<path d="M10.925 2.25H11.675V4.04289L10.925 3.29289V2.25Z" stroke="white" stroke-opacity="0.5"/>
<path fill-rule="evenodd" clip-rule="evenodd" d="M7.18137 1.31252C7.34545 1.14849 7.56797 1.05634 7.79999 1.05634C8.03201 1.05634 8.25453 1.14849 8.41862 1.31252L14.2347 7.12777C14.3169 7.20992 14.363 7.32134 14.363 7.43752C14.363 7.5537 14.3169 7.66512 14.2347 7.74727C14.1526 7.82942 14.0412 7.87558 13.925 7.87558C13.8088 7.87558 13.6974 7.82942 13.6152 7.74727L7.79999 1.93115L1.98474 7.74727C1.90259 7.82942 1.79117 7.87558 1.67499 7.87558C1.55881 7.87558 1.44739 7.82942 1.36524 7.74727C1.28309 7.66512 1.23694 7.5537 1.23694 7.43752C1.23694 7.32134 1.28309 7.20992 1.36524 7.12777L7.18137 1.31252Z" fill="white" fill-opacity="0.5"/>
</g>
<defs>
<clipPath id="clip0_1_997219">
<rect width="14" height="14" fill="white" transform="translate(0.799988)"/>
</clipPath>
</defs>
</svg>
