<svg width="15" height="14" viewBox="0 0 15 14" fill="none" xmlns="http://www.w3.org/2000/svg">
<g clip-path="url(#clip0_1_997169)">
<path fill-rule="evenodd" clip-rule="evenodd" d="M2.41669 11.8125V6.125H3.29169V11.8125C3.29169 11.9285 3.33778 12.0398 3.41983 12.1219C3.50188 12.2039 3.61315 12.25 3.72919 12.25H11.6042C11.7202 12.25 11.8315 12.2039 11.9135 12.1219C11.9956 12.0398 12.0417 11.9285 12.0417 11.8125V6.125H12.9167V11.8125C12.9167 12.1606 12.7784 12.4944 12.5323 12.7406C12.2861 12.9867 11.9523 13.125 11.6042 13.125H3.72919C3.38109 13.125 3.04725 12.9867 2.80111 12.7406C2.55497 12.4944 2.41669 12.1606 2.41669 11.8125V11.8125ZM12.0417 2.1875V5.25L10.2917 3.5V2.1875C10.2917 2.07147 10.3378 1.96019 10.4198 1.87814C10.5019 1.79609 10.6132 1.75 10.7292 1.75H11.6042C11.7202 1.75 11.8315 1.79609 11.9135 1.87814C11.9956 1.96019 12.0417 2.07147 12.0417 2.1875Z" fill="white" fill-opacity="0.5"/>
<path d="M10.7917 2.25H11.5417V4.04289L10.7917 3.29289V2.25Z" stroke="white" stroke-opacity="0.5"/>
<path fill-rule="evenodd" clip-rule="evenodd" d="M7.04807 1.31252C7.21215 1.14849 7.43467 1.05634 7.66669 1.05634C7.89871 1.05634 8.12123 1.14849 8.28531 1.31252L14.1014 7.12777C14.1836 7.20992 14.2297 7.32134 14.2297 7.43752C14.2297 7.5537 14.1836 7.66512 14.1014 7.74727C14.0193 7.82942 13.9079 7.87558 13.7917 7.87558C13.6755 7.87558 13.5641 7.82942 13.4819 7.74727L7.66669 1.93115L1.85144 7.74727C1.76929 7.82942 1.65787 7.87558 1.54169 7.87558C1.42551 7.87558 1.31409 7.82942 1.23194 7.74727C1.14979 7.66512 1.10364 7.5537 1.10364 7.43752C1.10364 7.32134 1.14979 7.20992 1.23194 7.12777L7.04807 1.31252Z" fill="white" fill-opacity="0.5"/>
</g>
<defs>
<clipPath id="clip0_1_997169">
<rect width="14" height="14" fill="white" transform="translate(0.666687)"/>
</clipPath>
</defs>
</svg>
