<svg width="15" height="15" viewBox="0 0 15 15" fill="none" xmlns="http://www.w3.org/2000/svg">
<path fill-rule="evenodd" clip-rule="evenodd" d="M9.91338 8.43811L14.5 13.0247L13.3073 14.2174L8.7207 9.63079C7.86421 10.2471 6.83162 10.6234 5.70297 10.6234C2.82933 10.6234 0.5 8.29402 0.5 5.42038C0.5 2.54674 2.82933 0.217407 5.70297 0.217407C8.57662 0.217407 10.9059 2.54674 10.9059 5.42038C10.9059 6.54903 10.5297 7.58162 9.91338 8.43811ZM5.70297 1.81832C3.70983 1.81832 2.10091 3.42724 2.10091 5.42038C2.10091 7.41352 3.70983 9.02244 5.70297 9.02244C7.69611 9.02244 9.30503 7.41352 9.30503 5.42038C9.30503 3.42724 7.69611 1.81832 5.70297 1.81832Z" fill="#F9F3EE"/>
</svg>
