<svg width="15" height="14" viewBox="0 0 15 14" fill="none" xmlns="http://www.w3.org/2000/svg">
<g clip-path="url(#clip0_1_997707)">
<path fill-rule="evenodd" clip-rule="evenodd" d="M6.01466 3.948C6.17566 3.598 6.26666 3.213 6.26666 2.8C6.26666 1.253 5.01366 0 3.46666 0C1.91966 0 0.666656 1.253 0.666656 2.8C0.666656 4.347 1.91966 5.6 3.46666 5.6C3.87966 5.6 4.26466 5.509 4.61466 5.348L6.26666 7L4.61466 8.652C4.26466 8.491 3.87966 8.4 3.46666 8.4C1.91966 8.4 0.666656 9.653 0.666656 11.2C0.666656 12.747 1.91966 14 3.46666 14C5.01366 14 6.26666 12.747 6.26666 11.2C6.26666 10.787 6.17566 10.402 6.01466 10.052L7.66666 8.4L12.5667 13.3H14.6667V12.6L6.01466 3.948ZM3.46666 4.2C2.69666 4.2 2.06666 3.577 2.06666 2.8C2.06666 2.023 2.69666 1.4 3.46666 1.4C4.23666 1.4 4.86666 2.023 4.86666 2.8C4.86666 3.577 4.23666 4.2 3.46666 4.2ZM2.06666 11.2C2.06666 11.977 2.69666 12.6 3.46666 12.6C4.23666 12.6 4.86666 11.977 4.86666 11.2C4.86666 10.423 4.23666 9.8 3.46666 9.8C2.69666 9.8 2.06666 10.423 2.06666 11.2ZM7.66666 7.35C7.47066 7.35 7.31666 7.196 7.31666 7C7.31666 6.804 7.47066 6.65 7.66666 6.65C7.86266 6.65 8.01666 6.804 8.01666 7C8.01666 7.196 7.86266 7.35 7.66666 7.35ZM8.36666 4.9L12.5667 0.7H14.6667V1.4L9.76666 6.3L8.36666 4.9Z" fill="#0B4141"/>
</g>
<defs>
<clipPath id="clip0_1_997707">
<rect width="14" height="14" fill="white" transform="translate(0.666656)"/>
</clipPath>
</defs>
</svg>
