<svg width="15" height="14" viewBox="0 0 15 14" fill="none" xmlns="http://www.w3.org/2000/svg">
<g clip-path="url(#clip0_1_997888)">
<path fill-rule="evenodd" clip-rule="evenodd" d="M5.68131 3.948C5.84231 3.598 5.93331 3.213 5.93331 2.8C5.93331 1.253 4.68031 0 3.13331 0C1.58631 0 0.333313 1.253 0.333313 2.8C0.333313 4.347 1.58631 5.6 3.13331 5.6C3.54631 5.6 3.93131 5.509 4.28131 5.348L5.93331 7L4.28131 8.652C3.93131 8.491 3.54631 8.4 3.13331 8.4C1.58631 8.4 0.333313 9.653 0.333313 11.2C0.333313 12.747 1.58631 14 3.13331 14C4.68031 14 5.93331 12.747 5.93331 11.2C5.93331 10.787 5.84231 10.402 5.68131 10.052L7.33331 8.4L12.2333 13.3H14.3333V12.6L5.68131 3.948ZM3.13331 4.2C2.36331 4.2 1.73331 3.577 1.73331 2.8C1.73331 2.023 2.36331 1.4 3.13331 1.4C3.90331 1.4 4.53331 2.023 4.53331 2.8C4.53331 3.577 3.90331 4.2 3.13331 4.2ZM1.73331 11.2C1.73331 11.977 2.36331 12.6 3.13331 12.6C3.90331 12.6 4.53331 11.977 4.53331 11.2C4.53331 10.423 3.90331 9.8 3.13331 9.8C2.36331 9.8 1.73331 10.423 1.73331 11.2ZM7.33331 7.35C7.13731 7.35 6.98331 7.196 6.98331 7C6.98331 6.804 7.13731 6.65 7.33331 6.65C7.52931 6.65 7.68331 6.804 7.68331 7C7.68331 7.196 7.52931 7.35 7.33331 7.35ZM8.03331 4.9L12.2333 0.7H14.3333V1.4L9.43331 6.3L8.03331 4.9Z" fill="#0B4141"/>
</g>
<defs>
<clipPath id="clip0_1_997888">
<rect width="14" height="14" fill="white" transform="translate(0.333313)"/>
</clipPath>
</defs>
</svg>
