<svg width="14" height="14" viewBox="0 0 14 14" fill="none" xmlns="http://www.w3.org/2000/svg">
<g clip-path="url(#clip0_1_997633)">
<path fill-rule="evenodd" clip-rule="evenodd" d="M5.348 3.948C5.509 3.598 5.6 3.213 5.6 2.8C5.6 1.253 4.347 0 2.8 0C1.253 0 0 1.253 0 2.8C0 4.347 1.253 5.6 2.8 5.6C3.213 5.6 3.598 5.509 3.948 5.348L5.6 7L3.948 8.652C3.598 8.491 3.213 8.4 2.8 8.4C1.253 8.4 0 9.653 0 11.2C0 12.747 1.253 14 2.8 14C4.347 14 5.6 12.747 5.6 11.2C5.6 10.787 5.509 10.402 5.348 10.052L7 8.4L11.9 13.3H14V12.6L5.348 3.948ZM2.8 4.2C2.03 4.2 1.4 3.577 1.4 2.8C1.4 2.023 2.03 1.4 2.8 1.4C3.57 1.4 4.2 2.023 4.2 2.8C4.2 3.577 3.57 4.2 2.8 4.2ZM1.4 11.2C1.4 11.977 2.03 12.6 2.8 12.6C3.57 12.6 4.2 11.977 4.2 11.2C4.2 10.423 3.57 9.8 2.8 9.8C2.03 9.8 1.4 10.423 1.4 11.2ZM7 7.35C6.804 7.35 6.65 7.196 6.65 7C6.65 6.804 6.804 6.65 7 6.65C7.196 6.65 7.35 6.804 7.35 7C7.35 7.196 7.196 7.35 7 7.35ZM7.7 4.9L11.9 0.7H14V1.4L9.1 6.3L7.7 4.9Z" fill="#0B4141"/>
</g>
<defs>
<clipPath id="clip0_1_997633">
<rect width="14" height="14" fill="white"/>
</clipPath>
</defs>
</svg>
