<svg width="116" height="33" viewBox="0 0 116 33" fill="none" xmlns="http://www.w3.org/2000/svg">
<g clip-path="url(#clip0_1_482330)">
<path d="M73.6508 9.69458H69.4619V12.2571C69.4619 12.9558 69.8797 13.0686 70.6147 13.0925V13.5394H67.2271V13.0925C67.9834 13.0686 68.3798 12.9558 68.3798 12.2571V6.78924C68.3798 6.09057 67.9856 5.97774 67.2271 5.95387V5.5069H70.6147V5.95387C69.8797 5.97774 69.4619 6.09057 69.4619 6.78924V9.16733H73.6508V6.78924C73.6508 6.09057 73.233 5.97774 72.4981 5.95387V5.5069H75.8857V5.95387C75.1293 5.97774 74.7329 6.09057 74.7329 6.78924V12.2571C74.7329 12.9558 75.1271 13.0686 75.8857 13.0925V13.5394H72.4981V13.0925C73.233 13.0686 73.6508 12.9558 73.6508 12.2571V9.69458Z" fill="white"/>
<path d="M80.8095 12.1182C80.8095 12.6216 81.0024 12.895 81.328 12.895C81.4287 12.895 81.6902 12.8712 81.8594 12.8256L81.9151 13.099C81.5316 13.4874 81.1802 13.6479 80.7859 13.6479C80.2096 13.6479 79.9267 13.2248 79.826 12.6064C79.4189 13.0751 78.7761 13.6479 77.9405 13.6479C76.912 13.6479 76.4384 12.9384 76.4384 12.103C76.4384 11.0399 77.2741 10.6732 78.009 10.4106L79.7939 9.75968V9.19988C79.7939 8.51422 79.556 7.90668 78.6754 7.90668C78.0647 7.90668 77.7498 8.16923 77.7498 8.7529C77.7498 8.94818 77.7733 9.11959 77.829 9.34742L76.9827 9.46242C76.8241 9.30186 76.7449 9.11959 76.7449 8.84403C76.7449 7.90668 77.6598 7.35773 78.8918 7.35773C80.1903 7.35773 80.8459 8.03253 80.8459 9.28016C80.8459 9.6577 80.8117 11.6365 80.8117 12.1161L80.8095 12.1182ZM79.7939 12.3352V10.2891L78.1912 10.9075C77.7733 11.0681 77.5012 11.4 77.5012 11.834C77.5012 12.4849 77.8291 12.8516 78.4054 12.8516C78.9368 12.8516 79.3204 12.6911 79.7939 12.3374V12.3352Z" fill="white"/>
<path d="M83.8243 14.7372C83.8243 15.2623 84.1971 15.3209 84.7049 15.3881V15.7874H81.9044V15.3881C82.4123 15.3187 82.7851 15.2623 82.7851 14.7372V8.57283L81.9602 8.17359V7.93275L83.5522 7.35992H83.8222V8.35586C84.2957 7.75049 84.9171 7.35992 85.7527 7.35992C87.289 7.35992 88.0904 8.6401 88.0904 10.2197C88.0904 12.3352 86.7919 13.6501 85.3006 13.6501C84.5999 13.6501 84.0686 13.3876 83.82 13.0209V14.7372H83.8243ZM87.0533 10.6992C87.0533 9.40603 86.5562 8.12586 85.292 8.12586C84.7392 8.12586 84.1628 8.32114 83.8243 8.68566V11.5324C83.8243 12.5848 84.4007 13.1229 85.2813 13.1229C86.3312 13.1229 87.0533 12.1747 87.0533 10.6992Z" fill="white"/>
<path d="M90.3959 14.7372C90.3959 15.2623 90.7687 15.3209 91.2765 15.3881V15.7874H88.476V15.3881C88.9839 15.3187 89.3567 15.2623 89.3567 14.7372V8.57283L88.5317 8.17359V7.93275L90.1238 7.35992H90.3937V8.35586C90.8673 7.75049 91.4886 7.35992 92.3243 7.35992C93.8606 7.35992 94.662 8.6401 94.662 10.2197C94.662 12.3352 93.3635 13.6501 91.8722 13.6501C91.1715 13.6501 90.6401 13.3876 90.3916 13.0209V14.7372H90.3959ZM93.627 10.6992C93.627 9.40603 93.1299 8.12586 91.8658 8.12586C91.3129 8.12586 90.7366 8.32114 90.398 8.68566V11.5324C90.398 12.5848 90.9744 13.1229 91.855 13.1229C92.905 13.1229 93.6292 12.1747 93.6292 10.6992H93.627Z" fill="white"/>
<path d="M95.444 8.33198C95.3305 8.09113 95.2855 8.06944 94.7776 7.87416V7.47491H97.4196V7.87416C96.8325 7.95444 96.6075 8.01085 96.6075 8.28641C96.6075 8.37754 96.6182 8.44698 96.6868 8.59452L98.1781 12.3222L99.5665 8.59452C99.6222 8.44698 99.6458 8.37754 99.6458 8.28641C99.6458 8.01085 99.408 7.95444 98.8337 7.87416V7.47491H101.002V7.87416C100.494 8.05642 100.426 8.08028 100.336 8.33198L97.8395 14.7025C97.5567 15.4337 97.2075 15.9024 96.5175 15.9024C96.1447 15.9024 95.8276 15.7309 95.6476 15.4901V14.965H96.2347C96.946 14.965 97.2289 14.8045 97.4539 14.1752L97.6788 13.5698L95.4419 8.33198H95.444Z" fill="white"/>
<path d="M67.3599 24.1237L67.2914 22.6026H67.7092C67.9342 23.5747 68.4891 24.1692 69.4147 24.1692C70.1368 24.1692 70.5675 23.8264 70.5675 23.2319C70.5675 22.4876 70.049 22.2359 69.0312 21.917C68.0263 21.5959 67.3599 21.1619 67.3599 20.1204C67.3599 19.0789 68.1163 18.3932 69.3033 18.3932C70.0597 18.3932 70.6704 18.5885 71.1675 18.8728V20.2918H70.7389C70.5804 19.3762 70.0726 18.9183 69.2712 18.9183C68.6605 18.9183 68.2877 19.3067 68.2877 19.821C68.2877 20.4502 68.7505 20.7822 69.6204 21.0556C70.7496 21.4093 71.506 21.7542 71.506 22.9086C71.506 23.9154 70.7046 24.6813 69.404 24.6813C68.6691 24.6813 67.9127 24.5446 67.3599 24.1215V24.1237Z" fill="white"/>
<path d="M73.683 18.5083H75.41V19.1136H73.683V23.1169C73.683 23.7461 73.9551 23.9631 74.5743 23.9631C74.9129 23.9631 75.3093 23.8611 75.6028 23.7114L75.7164 23.9631C75.3328 24.3862 74.7457 24.6835 74.0001 24.6835C73.2544 24.6835 72.6566 24.3059 72.6566 23.3339V19.1136H71.821V18.7708C72.3974 18.4041 72.8945 17.9354 73.3916 17.2042H73.6851V18.5083H73.683Z" fill="white"/>
<path d="M80.3681 23.1516C80.3681 23.655 80.561 23.9284 80.8867 23.9284C80.9874 23.9284 81.2488 23.9045 81.4181 23.859L81.4738 24.1324C81.0902 24.5208 80.7388 24.6813 80.3446 24.6813C79.7682 24.6813 79.4854 24.2582 79.3846 23.6398C78.9775 24.1085 78.3347 24.6813 77.4991 24.6813C76.4706 24.6813 75.9971 23.9718 75.9971 23.1364C75.9971 22.0732 76.8327 21.7065 77.5677 21.444L79.3525 20.7931V20.2333C79.3525 19.5476 79.1147 18.9401 78.234 18.9401C77.6234 18.9401 77.3084 19.2026 77.3084 19.7863C77.3084 19.9816 77.332 20.153 77.3877 20.3808L76.5413 20.4958C76.3828 20.3352 76.3035 20.153 76.3035 19.8774C76.3035 18.9401 77.2184 18.3911 78.4504 18.3911C79.7489 18.3911 80.4046 19.0659 80.4046 20.3135C80.4046 20.6911 80.3703 22.6699 80.3703 23.1495L80.3681 23.1516ZM79.3525 23.3686V21.3225L77.7498 21.9409C77.332 22.1014 77.0598 22.4334 77.0598 22.8674C77.0598 23.5183 77.3877 23.885 77.964 23.885C78.4954 23.885 78.879 23.7244 79.3525 23.3708V23.3686Z" fill="white"/>
<path d="M81.6323 19.3653C81.5188 19.1245 81.4738 19.1028 80.9659 18.9075V18.5082H83.6079V18.9075C83.0208 18.9878 82.7958 19.0442 82.7958 19.3197C82.7958 19.4109 82.8065 19.4803 82.8751 19.6278L84.3664 23.3555L85.7548 19.6278C85.8105 19.4803 85.8341 19.4109 85.8341 19.3197C85.8341 19.0442 85.5963 18.9878 85.022 18.9075V18.5082H87.1904V18.9075C86.6826 19.0897 86.614 19.1136 86.5241 19.3653L84.0278 25.7358C83.745 26.467 83.3957 26.9357 82.7058 26.9357C82.333 26.9357 82.0159 26.7643 81.8359 26.5234V25.9983H82.423C83.1343 25.9983 83.4172 25.8378 83.6421 25.2085L83.8671 24.6032L81.6302 19.3653H81.6323Z" fill="white"/>
<path d="M87.4261 24.1237L87.3576 22.6026H87.7754C88.0004 23.5747 88.5553 24.1692 89.481 24.1692C90.203 24.1692 90.6337 23.8264 90.6337 23.2319C90.6337 22.4876 90.1152 22.2359 89.0974 21.917C88.0925 21.5959 87.4261 21.1619 87.4261 20.1204C87.4261 19.0789 88.1825 18.3932 89.3695 18.3932C90.1259 18.3932 90.7366 18.5885 91.2337 18.8728V20.2918H90.8051C90.6466 19.3762 90.1388 18.9183 89.3374 18.9183C88.7267 18.9183 88.3539 19.3067 88.3539 19.821C88.3539 20.4502 88.8167 20.7822 89.6867 21.0556C90.8159 21.4093 91.5722 21.7542 91.5722 22.9086C91.5722 23.9154 90.7709 24.6813 89.4703 24.6813C88.7353 24.6813 87.9789 24.5446 87.4261 24.1215V24.1237Z" fill="white"/>
<path d="M26.4133 19.7993V24.6097C25.9998 24.7486 25.5862 24.818 25.1748 24.818C21.078 24.818 18.9096 22.9715 15.0892 17.1847L13.3344 14.5354L11.1317 17.15V24.6791H6V0.453491H11.1296V11.7472L20.2167 0.453491H26.274L17.3241 11.259L19.7346 14.7806C22.4879 18.7882 23.7285 19.9056 25.5862 19.9056C25.9312 19.9056 26.2055 19.8709 26.4133 19.8015V19.7993Z" fill="white"/>
<path d="M28.8538 2.75346C28.8538 1.1847 30.0923 0 31.6414 0C33.1906 0 34.4634 1.1847 34.4634 2.75346C34.4634 4.32221 33.2249 5.50692 31.6414 5.50692C30.058 5.50692 28.8538 4.32221 28.8538 2.75346ZM29.1645 7.49444H34.1205V24.6791H29.1645V7.49444Z" fill="white"/>
<path d="M36.9832 7.49445H41.6649V10.2479C42.6291 8.36454 44.5575 7.07568 47.1716 7.07568C51.6819 7.07568 55.0888 10.8403 55.0888 16.1042C55.0888 21.3681 51.7162 25.0979 47.2744 25.0979C44.7611 25.0979 42.9377 24.0868 41.9392 22.275V32H36.9832V7.49445ZM49.9614 16.1042C49.9614 12.9319 48.4465 10.9791 45.9674 10.9791C43.7305 10.9791 41.9392 13.175 41.9392 16.1042C41.9392 19.0334 43.7283 21.1945 45.9674 21.1945C48.4465 21.1945 49.9614 19.2764 49.9614 16.1042Z" fill="white"/>
<path d="M55.9673 21.9604C55.9673 20.1486 57.4136 18.8229 59.0999 18.8229C60.889 18.8229 62.2668 20.1464 62.2668 21.9604C62.2668 23.7743 60.889 25.0979 59.0999 25.0979C57.4136 25.0979 55.9673 23.7396 55.9673 21.9604Z" fill="white"/>
</g>
<defs>
<clipPath id="clip0_1_482330">
<rect width="95" height="32" fill="white" transform="translate(6)"/>
</clipPath>
</defs>
</svg>
