<svg width="10" height="10" viewBox="0 0 10 10" fill="none" xmlns="http://www.w3.org/2000/svg">
<g clip-path="url(#clip0_1_997277)">
<path d="M6.32905 1.47755C6.32903 1.47756 6.329 1.47757 6.32897 1.47758L6.32905 1.47755ZM6.32905 1.47755L6.32938 1.47745L6.2533 1.2492M5.14312 5.27295L5.14319 5.27313C5.25648 5.61293 5.44737 5.92166 5.70071 6.17487C5.95402 6.42803 6.2628 6.61873 6.6026 6.73185C6.60265 6.73186 6.6027 6.73188 6.60275 6.7319L7.03202 6.87491L6.60205 7.01809L6.60186 7.01815C6.26207 7.13145 5.95333 7.32233 5.70013 7.57567C5.44692 7.82902 5.25621 8.13786 5.1431 8.47771L5.00008 8.90699L4.85691 8.47701L4.85687 8.47689C4.74365 8.13719 4.55289 7.82851 4.29969 7.57531C4.04649 7.32211 3.73781 7.13134 3.3981 7.01813L3.39798 7.01809L2.96821 6.87498L3.39798 6.73187L3.3981 6.73183C3.73781 6.61862 4.04649 6.42785 4.29969 6.17465C4.55289 5.92146 4.74365 5.61278 4.85687 5.27307L4.85691 5.27295L5.00002 4.84318L5.14312 5.27295ZM2.22108 2.22105C2.33264 2.1095 2.42654 1.98226 2.50006 1.84378C2.64837 2.12301 2.87698 2.35163 3.15621 2.49994C3.01773 2.57345 2.8905 2.66736 2.77895 2.77891C2.66741 2.89044 2.57353 3.01765 2.50001 3.1561C2.4265 3.01765 2.33262 2.89044 2.22108 2.77891C2.10955 2.66738 1.98235 2.57349 1.8439 2.49998C1.98235 2.42647 2.10955 2.33258 2.22108 2.22105ZM2.37127 0.71748L2.50002 0.760113L2.50039 0.760236L2.66068 0.813315L2.66089 0.813938L2.50025 0.760438L2.50002 0.760359L2.49987 0.760312L2.49964 0.760236L2.37127 0.71748ZM6.73358 1.25031C6.78462 1.20705 6.83204 1.15968 6.87533 1.10867C6.91853 1.15958 6.96584 1.20686 7.01677 1.25004C6.99131 1.27163 6.96671 1.29429 6.94301 1.31798C6.9193 1.34169 6.89662 1.36632 6.87502 1.3918C6.85341 1.36632 6.83073 1.34169 6.80702 1.31798C6.78342 1.29438 6.75892 1.27181 6.73358 1.25031Z" fill="#1F2937" stroke="#1F2937"/>
</g>
<defs>
<clipPath id="clip0_1_997277">
<rect width="10" height="10" fill="white"/>
</clipPath>
</defs>
</svg>
