<svg width="10" height="10" viewBox="0 0 10 10" fill="none" xmlns="http://www.w3.org/2000/svg">
<g clip-path="url(#clip0_1_997595)">
<path d="M6.32904 1.47757C6.32901 1.47758 6.32898 1.47759 6.32896 1.4776L6.32904 1.47757ZM6.32904 1.47757L6.32937 1.47747L6.25329 1.24922M5.14311 5.27297L5.14317 5.27315C5.25647 5.61295 5.44735 5.92168 5.7007 6.17489C5.954 6.42805 6.26279 6.61875 6.60259 6.73187C6.60264 6.73188 6.60269 6.7319 6.60274 6.73191L7.03201 6.87493L6.60204 7.01811L6.60185 7.01817C6.26206 7.13147 5.95332 7.32235 5.70012 7.57569C5.44691 7.82904 5.2562 8.13788 5.14309 8.47773L5.00007 8.90701L4.85689 8.47703L4.85685 8.47691C4.74364 8.1372 4.55288 7.82852 4.29968 7.57533C4.04648 7.32213 3.7378 7.13136 3.39809 7.01815L3.39797 7.01811L2.9682 6.875L3.39797 6.73189L3.39809 6.73185C3.7378 6.61863 4.04648 6.42787 4.29968 6.17467C4.55288 5.92147 4.74364 5.61279 4.85685 5.27309L4.85689 5.27297L5 4.84319L5.14311 5.27297ZM2.22107 2.22107C2.33263 2.10952 2.42653 1.98228 2.50005 1.8438C2.64836 2.12303 2.87697 2.35165 3.1562 2.49996C3.01772 2.57347 2.89049 2.66738 2.77893 2.77893C2.6674 2.89046 2.57351 3.01767 2.5 3.15612C2.42649 3.01767 2.3326 2.89046 2.22107 2.77893C2.10954 2.6674 1.98234 2.57351 1.84388 2.5C1.98234 2.42649 2.10954 2.3326 2.22107 2.22107ZM2.37125 0.717499L2.5 0.760132L2.50037 0.760255L2.66067 0.813334L2.66088 0.813957L2.50024 0.760457L2.5 0.760378L2.49986 0.760331L2.49963 0.760255L2.37125 0.717499ZM6.73356 1.25032C6.78461 1.20707 6.83202 1.1597 6.87532 1.10869C6.91852 1.1596 6.96583 1.20688 7.01675 1.25006C6.9913 1.27165 6.96669 1.29431 6.943 1.318C6.91929 1.34171 6.89661 1.36634 6.875 1.39182C6.8534 1.36634 6.83072 1.34171 6.80701 1.318C6.78341 1.2944 6.75891 1.27183 6.73356 1.25032Z" fill="#3B82F6" stroke="#3B82F6"/>
</g>
<defs>
<clipPath id="clip0_1_997595">
<rect width="10" height="10" fill="white"/>
</clipPath>
</defs>
</svg>
