<svg width="11" height="10" viewBox="0 0 11 10" fill="none" xmlns="http://www.w3.org/2000/svg">
<g clip-path="url(#clip0_1_997227)">
<path d="M7.12903 1.47755C7.129 1.47756 7.12897 1.47757 7.12894 1.47758L7.12903 1.47755ZM7.12903 1.47755L7.12935 1.47745L7.05327 1.2492M5.9431 5.27295L5.94316 5.27313C6.05646 5.61293 6.24734 5.92166 6.50069 6.17487C6.75399 6.42803 7.06278 6.61873 7.40258 6.73185C7.40263 6.73186 7.40267 6.73188 7.40272 6.7319L7.832 6.87491L7.40202 7.01809L7.40184 7.01815C7.06205 7.13145 6.75331 7.32233 6.50011 7.57567C6.2469 7.82902 6.05619 8.13786 5.94308 8.47771L5.80006 8.90699L5.65688 8.47701L5.65684 8.47689C5.54363 8.13719 5.35286 7.82851 5.09967 7.57531C4.84647 7.32211 4.53779 7.13134 4.19808 7.01813L4.19796 7.01809L3.76819 6.87498L4.19796 6.73187L4.19808 6.73183C4.53779 6.61862 4.84647 6.42785 5.09967 6.17465C5.35286 5.92146 5.54363 5.61278 5.65684 5.27307L5.65688 5.27295L5.79999 4.84318L5.9431 5.27295ZM3.02106 2.22105C3.13261 2.1095 3.22652 1.98226 3.30003 1.84378C3.44835 2.12301 3.67696 2.35163 3.95619 2.49994C3.81771 2.57345 3.69047 2.66736 3.57892 2.77891C3.46739 2.89044 3.3735 3.01765 3.29999 3.1561C3.22648 3.01765 3.13259 2.89044 3.02106 2.77891C2.90953 2.66738 2.78232 2.57349 2.64387 2.49998C2.78232 2.42647 2.90953 2.33258 3.02106 2.22105ZM3.17124 0.71748L3.29999 0.760113L3.30036 0.760236L3.46066 0.813315L3.46087 0.813938L3.30023 0.760438L3.29999 0.760359L3.29985 0.760312L3.29962 0.760236L3.17124 0.71748ZM7.53355 1.25031C7.5846 1.20705 7.63201 1.15968 7.6753 1.10867C7.71851 1.15958 7.76581 1.20686 7.81674 1.25004C7.79129 1.27163 7.76668 1.29429 7.74299 1.31798C7.71928 1.34169 7.69659 1.36632 7.67499 1.3918C7.65339 1.36632 7.63071 1.34169 7.60699 1.31798C7.5834 1.29438 7.55889 1.27181 7.53355 1.25031Z" fill="#1F2937" stroke="#1F2937"/>
</g>
<defs>
<clipPath id="clip0_1_997227">
<rect width="10" height="10" fill="white" transform="translate(0.799988)"/>
</clipPath>
</defs>
</svg>
