<svg width="11" height="10" viewBox="0 0 11 10" fill="none" xmlns="http://www.w3.org/2000/svg">
<g clip-path="url(#clip0_1_997302)">
<path d="M6.92909 1.47755C6.92907 1.47756 6.92904 1.47757 6.92901 1.47758L6.92909 1.47755ZM6.92909 1.47755L6.92942 1.47745L6.85334 1.2492M5.74317 5.27295L5.74323 5.27313C5.85652 5.61293 6.04741 5.92166 6.30075 6.17487C6.55406 6.42803 6.86284 6.61873 7.20264 6.73185C7.20269 6.73186 7.20274 6.73188 7.20279 6.7319L7.63206 6.87491L7.20209 7.01809L7.2019 7.01815C6.86211 7.13145 6.55337 7.32233 6.30017 7.57567C6.04696 7.82902 5.85625 8.13786 5.74314 8.47771L5.60012 8.90699L5.45695 8.47701L5.45691 8.47689C5.34369 8.13719 5.15293 7.82851 4.89973 7.57531C4.64653 7.32211 4.33785 7.13134 3.99814 7.01813L3.99802 7.01809L3.56825 6.87498L3.99802 6.73187L3.99814 6.73183C4.33785 6.61862 4.64653 6.42785 4.89973 6.17465C5.15293 5.92146 5.34369 5.61278 5.45691 5.27307L5.45695 5.27295L5.60006 4.84318L5.74317 5.27295ZM2.82113 2.22105C2.93268 2.1095 3.02658 1.98226 3.1001 1.84378C3.24841 2.12301 3.47702 2.35163 3.75625 2.49994C3.61777 2.57345 3.49054 2.66736 3.37899 2.77891C3.26746 2.89044 3.17357 3.01765 3.10006 3.1561C3.02655 3.01765 2.93266 2.89044 2.82113 2.77891C2.70959 2.66738 2.58239 2.57349 2.44394 2.49998C2.58239 2.42647 2.70959 2.33258 2.82113 2.22105ZM2.97131 0.71748L3.10006 0.760113L3.10043 0.760236L3.26072 0.813315L3.26093 0.813938L3.10029 0.760438L3.10006 0.760359L3.09991 0.760312L3.09968 0.760236L2.97131 0.71748ZM7.33362 1.25031C7.38466 1.20705 7.43208 1.15968 7.47537 1.10867C7.51857 1.15958 7.56588 1.20686 7.61681 1.25004C7.59135 1.27163 7.56675 1.29429 7.54305 1.31798C7.51934 1.34169 7.49666 1.36632 7.47506 1.3918C7.45345 1.36632 7.43077 1.34169 7.40706 1.31798C7.38346 1.29438 7.35896 1.27181 7.33362 1.25031Z" fill="#1F2937" stroke="#1F2937"/>
</g>
<defs>
<clipPath id="clip0_1_997302">
<rect width="10" height="10" fill="white" transform="translate(0.600052)"/>
</clipPath>
</defs>
</svg>
