<svg width="10" height="10" viewBox="0 0 10 10" fill="none" xmlns="http://www.w3.org/2000/svg">
<g clip-path="url(#clip0_1_997022)">
<path d="M6.32904 1.47755C6.32901 1.47756 6.32898 1.47757 6.32896 1.47758L6.32904 1.47755ZM6.32904 1.47755L6.32937 1.47745L6.25329 1.2492M5.14311 5.27295L5.14317 5.27313C5.25647 5.61293 5.44735 5.92166 5.7007 6.17487C5.954 6.42803 6.26279 6.61873 6.60259 6.73185C6.60264 6.73186 6.60269 6.73188 6.60274 6.7319L7.03201 6.87491L6.60204 7.01809L6.60185 7.01815C6.26206 7.13145 5.95332 7.32233 5.70012 7.57567C5.44691 7.82902 5.2562 8.13786 5.14309 8.47771L5.00007 8.90699L4.85689 8.47701L4.85685 8.47689C4.74364 8.13719 4.55288 7.82851 4.29968 7.57531C4.04648 7.32211 3.7378 7.13134 3.39809 7.01813L3.39797 7.01809L2.9682 6.87498L3.39797 6.73187L3.39809 6.73183C3.7378 6.61862 4.04648 6.42785 4.29968 6.17465C4.55288 5.92146 4.74364 5.61278 4.85685 5.27307L4.85689 5.27295L5 4.84318L5.14311 5.27295ZM2.22107 2.22105C2.33263 2.1095 2.42653 1.98226 2.50005 1.84378C2.64836 2.12301 2.87697 2.35163 3.1562 2.49994C3.01772 2.57345 2.89049 2.66736 2.77893 2.77891C2.6674 2.89044 2.57351 3.01765 2.5 3.1561C2.42649 3.01765 2.3326 2.89044 2.22107 2.77891C2.10954 2.66738 1.98234 2.57349 1.84388 2.49998C1.98234 2.42647 2.10954 2.33258 2.22107 2.22105ZM2.37125 0.71748L2.5 0.760113L2.50037 0.760236L2.66067 0.813315L2.66088 0.813938L2.50024 0.760438L2.5 0.760359L2.49986 0.760312L2.49963 0.760236L2.37125 0.71748ZM6.73356 1.25031C6.78461 1.20705 6.83202 1.15968 6.87532 1.10867C6.91852 1.15958 6.96583 1.20686 7.01675 1.25004C6.9913 1.27163 6.96669 1.29429 6.943 1.31798C6.91929 1.34169 6.89661 1.36632 6.875 1.3918C6.8534 1.36632 6.83072 1.34169 6.80701 1.31798C6.78341 1.29438 6.75891 1.27181 6.73356 1.25031Z" fill="#1F2937" stroke="#1F2937"/>
</g>
<defs>
<clipPath id="clip0_1_997022">
<rect width="10" height="10" fill="white"/>
</clipPath>
</defs>
</svg>
