<svg width="11" height="10" viewBox="0 0 11 10" fill="none" xmlns="http://www.w3.org/2000/svg">
<g clip-path="url(#clip0_1_997252)">
<path d="M6.72907 1.47755C6.72904 1.47756 6.72901 1.47757 6.72898 1.47758L6.72907 1.47755ZM6.72907 1.47755L6.72939 1.47745L6.65331 1.2492M5.54314 5.27295L5.5432 5.27313C5.65649 5.61293 5.84738 5.92166 6.10072 6.17487C6.35403 6.42803 6.66282 6.61873 7.00261 6.73185C7.00266 6.73186 7.00271 6.73188 7.00276 6.7319L7.43203 6.87491L7.00206 7.01809L7.00188 7.01815C6.66208 7.13145 6.35335 7.32233 6.10014 7.57567C5.84694 7.82902 5.65622 8.13786 5.54311 8.47771L5.4001 8.90699L5.25692 8.47701L5.25688 8.47689C5.14366 8.13719 4.9529 7.82851 4.6997 7.57531C4.4465 7.32211 4.13782 7.13134 3.79812 7.01813L3.798 7.01809L3.36822 6.87498L3.798 6.73187L3.79812 6.73183C4.13782 6.61862 4.4465 6.42785 4.6997 6.17465C4.9529 5.92146 5.14366 5.61278 5.25688 5.27307L5.25692 5.27295L5.40003 4.84318L5.54314 5.27295ZM2.6211 2.22105C2.73265 2.1095 2.82655 1.98226 2.90007 1.84378C3.04838 2.12301 3.27699 2.35163 3.55622 2.49994C3.41774 2.57345 3.29051 2.66736 3.17896 2.77891C3.06743 2.89044 2.97354 3.01765 2.90003 3.1561C2.82652 3.01765 2.73263 2.89044 2.6211 2.77891C2.50957 2.66738 2.38236 2.57349 2.24391 2.49998C2.38236 2.42647 2.50957 2.33258 2.6211 2.22105ZM2.77128 0.71748L2.90003 0.760113L2.9004 0.760236L3.0607 0.813315L3.0609 0.813938L2.90026 0.760438L2.90003 0.760359L2.89988 0.760312L2.89966 0.760236L2.77128 0.71748ZM7.13359 1.25031C7.18464 1.20705 7.23205 1.15968 7.27534 1.10867C7.31854 1.15958 7.36585 1.20686 7.41678 1.25004C7.39133 1.27163 7.36672 1.29429 7.34303 1.31798C7.31931 1.34169 7.29663 1.36632 7.27503 1.3918C7.25343 1.36632 7.23074 1.34169 7.20703 1.31798C7.18343 1.29438 7.15893 1.27181 7.13359 1.25031Z" fill="#1F2937" stroke="#1F2937"/>
</g>
<defs>
<clipPath id="clip0_1_997252">
<rect width="10" height="10" fill="white" transform="translate(0.400024)"/>
</clipPath>
</defs>
</svg>
