<svg width="11" height="10" viewBox="0 0 11 10" fill="none" xmlns="http://www.w3.org/2000/svg">
<g clip-path="url(#clip0_1_997327)">
<path d="M6.52905 1.47755C6.52903 1.47756 6.529 1.47757 6.52897 1.47758L6.52905 1.47755ZM6.52905 1.47755L6.52938 1.47745L6.4533 1.2492M5.34313 5.27295L5.34319 5.27313C5.45648 5.61293 5.64737 5.92166 5.90071 6.17487C6.15402 6.42803 6.4628 6.61873 6.8026 6.73185C6.80265 6.73186 6.8027 6.73188 6.80275 6.7319L7.23202 6.87491L6.80205 7.01809L6.80186 7.01815C6.46207 7.13145 6.15334 7.32233 5.90013 7.57567C5.64692 7.82902 5.45621 8.13786 5.3431 8.47771L5.20008 8.90699L5.05691 8.47701L5.05687 8.47689C4.94365 8.13719 4.75289 7.82851 4.49969 7.57531C4.24649 7.32211 3.93781 7.13134 3.5981 7.01813L3.59798 7.01809L3.16821 6.87498L3.59798 6.73187L3.5981 6.73183C3.93781 6.61862 4.24649 6.42785 4.49969 6.17465C4.75289 5.92146 4.94365 5.61278 5.05687 5.27307L5.05691 5.27295L5.20002 4.84318L5.34313 5.27295ZM2.42109 2.22105C2.53264 2.1095 2.62654 1.98226 2.70006 1.84378C2.84837 2.12301 3.07698 2.35163 3.35621 2.49994C3.21773 2.57345 3.0905 2.66736 2.97895 2.77891C2.86742 2.89044 2.77353 3.01765 2.70002 3.1561C2.62651 3.01765 2.53262 2.89044 2.42109 2.77891C2.30955 2.66738 2.18235 2.57349 2.0439 2.49998C2.18235 2.42647 2.30955 2.33258 2.42109 2.22105ZM2.57127 0.71748L2.70002 0.760113L2.70039 0.760236L2.86068 0.813315L2.86089 0.813938L2.70025 0.760438L2.70002 0.760359L2.69987 0.760312L2.69964 0.760236L2.57127 0.71748ZM6.93358 1.25031C6.98462 1.20705 7.03204 1.15968 7.07533 1.10867C7.11853 1.15958 7.16584 1.20686 7.21677 1.25004C7.19131 1.27163 7.16671 1.29429 7.14301 1.31798C7.1193 1.34169 7.09662 1.36632 7.07502 1.3918C7.05341 1.36632 7.03073 1.34169 7.00702 1.31798C6.98342 1.29438 6.95892 1.27181 6.93358 1.25031Z" fill="#1F2937" stroke="#1F2937"/>
</g>
<defs>
<clipPath id="clip0_1_997327">
<rect width="10" height="10" fill="white" transform="translate(0.200012)"/>
</clipPath>
</defs>
</svg>
