<svg width="84" height="12" viewBox="0 0 84 12" fill="none" xmlns="http://www.w3.org/2000/svg">
<path d="M81.3338 6.04766V4.49332C80.4325 4.76568 79.5688 4.93473 78.691 5.06152V5.47945C79.3623 5.64851 79.489 5.69077 79.489 6.44681V9.61653C79.489 10.5181 79.3435 10.6027 78.5455 10.6872V11.1474H82.5542V10.6872C81.423 10.5839 81.3385 10.5181 81.3385 9.61653V6.907C81.592 6.3388 81.883 6.15097 82.1552 6.15097C82.4087 6.15097 82.573 6.25428 82.8265 6.46559C82.9298 6.55012 83.08 6.59238 83.2865 6.52664C83.6855 6.38106 84 5.95844 84 5.4325C84 4.93004 83.601 4.53089 83.0142 4.53089C82.4697 4.53089 81.9018 5.16013 81.376 6.06174H81.3338V6.04766ZM75.4756 5.10378C76.0436 5.10378 76.3769 5.85982 76.3769 6.61586C76.3581 6.86944 76.2924 6.88822 76.0624 6.9117C75.4521 6.93518 74.9311 6.93518 74.3209 6.95396C74.4054 5.77999 74.9311 5.10848 75.4521 5.10848H75.4709L75.4756 5.10378ZM77.8461 9.36765C77.3438 9.80906 76.7946 9.9969 76.2079 9.9969C75.1564 9.9969 74.2974 9.1986 74.2364 7.64426C75.6634 7.58321 77.4706 7.43294 77.7194 7.41416C78.0573 7.3719 78.1371 7.18406 78.1371 6.88822C78.1559 5.69077 77.1091 4.53558 75.7666 4.53558H75.7479C74.9499 4.53558 74.1519 4.93473 73.5041 5.58746C72.8035 6.28873 72.41 7.23975 72.4104 8.23124C72.4104 9.91237 73.5041 11.3587 75.4521 11.3587C76.0624 11.3587 77.1936 11.0629 78.0949 9.71984L77.8414 9.36295L77.8461 9.36765ZM71.6312 6.44681C71.6124 6.15097 71.4199 5.10378 71.2744 4.76568C70.9365 4.62011 70.5375 4.49332 69.8662 4.49332C68.336 4.49332 67.4112 5.43719 67.4112 6.5736C67.4112 7.83209 68.6082 8.4003 69.2795 8.7384C70.1807 9.15633 70.392 9.5367 70.392 9.95463C70.392 10.396 70.0775 10.7529 69.594 10.7529C68.6927 10.7529 68.0215 9.74332 67.707 8.82293L67.2657 8.86519C67.2845 9.57896 67.4112 10.5886 67.4957 10.8375C67.7914 11.0488 68.566 11.3399 69.3405 11.3399C70.5797 11.3399 71.9645 10.6261 71.9645 9.17512C71.9645 8.04341 71.1665 7.51747 69.993 7.01031C69.2372 6.67221 68.8992 6.3388 68.8992 5.87861C68.8992 5.41841 69.256 5.0803 69.655 5.0803C70.3497 5.0803 70.8097 5.69077 71.2087 6.5689L71.6265 6.44211L71.6312 6.44681ZM67.1202 11.1709V10.7107C66.2377 10.5839 66.1767 10.5228 66.1767 9.51322V4.5168C65.3599 4.7469 64.393 4.93473 63.5105 5.04274V5.46067C64.224 5.58746 64.3085 5.62972 64.3085 6.59238V9.48974C64.3085 10.5416 64.224 10.5839 63.365 10.6872V11.1474H67.1202V11.1709ZM65.1065 3.59171C65.7167 3.59171 66.1579 3.13151 66.1579 2.56331C66.1579 1.97632 65.6979 1.53491 65.1065 1.53491C64.5385 1.53491 64.055 1.97632 64.055 2.56331C64.0738 3.10803 64.5572 3.59171 65.1065 3.59171ZM63.0927 10.6261L62.9472 10.1237C62.6937 10.2505 62.4637 10.2927 62.2102 10.2927C61.8957 10.2927 61.37 10.1659 61.37 9.01076V5.39962H62.7125C62.9425 5.27284 62.9847 4.8549 62.797 4.68585H61.37V2.56331L61.1588 2.47878L59.5018 3.61049V4.68115H58.915L58.4972 5.20709L58.5583 5.37615H59.483V9.48974C59.483 10.814 60.1355 11.3352 61.2667 11.3352C61.37 11.3352 61.6047 11.293 61.8769 11.1662L63.0927 10.6214V10.6261ZM55.5588 6.04766V4.49332C54.6575 4.76568 53.7938 4.93473 52.916 5.06152V5.47945C53.5873 5.64851 53.714 5.69077 53.714 6.44681V9.61653C53.714 10.5181 53.5685 10.6027 52.7705 10.6872V11.1474H56.7792V10.6872C55.6479 10.5839 55.5635 10.5181 55.5635 9.61653V6.907C55.8169 6.3388 56.108 6.15097 56.3802 6.15097C56.6337 6.15097 56.798 6.25428 57.0515 6.46559C57.1547 6.55012 57.3049 6.59238 57.5115 6.52664C57.9105 6.38106 58.225 5.95844 58.225 5.4325C58.225 4.93004 57.826 4.53089 57.2392 4.53089C56.6947 4.53089 56.1267 5.16013 55.601 6.06174H55.5588V6.04766ZM49.7006 5.10378C50.2686 5.10378 50.6018 5.85982 50.6018 6.61586C50.5831 6.86944 50.5173 6.88822 50.2873 6.9117C49.6771 6.93518 49.1561 6.93518 48.5458 6.95396C48.6303 5.77999 49.1561 5.10848 49.6771 5.10848H49.6959L49.7006 5.10378ZM52.0711 9.36765C51.5688 9.80906 51.0196 9.9969 50.4329 9.9969C49.3814 9.9969 48.5224 9.1986 48.4614 7.64426C49.8883 7.58321 51.6956 7.43294 51.9443 7.41416C52.2823 7.3719 52.3621 7.18406 52.3621 6.88822C52.3809 5.69077 51.3341 4.53558 49.9916 4.53558H49.9728C49.1749 4.53558 48.3769 4.93473 47.7291 5.58746C47.0284 6.28873 46.635 7.23975 46.6354 8.23124C46.6354 9.91237 47.7291 11.3587 49.6771 11.3587C50.2873 11.3587 51.4186 11.0629 52.3199 9.71984L52.0664 9.36295L52.0711 9.36765ZM47.0766 4.68585H44.4339V5.14605C45.2319 5.27284 45.2929 5.46067 45.1286 5.94435C44.7906 6.95396 44.3306 8.29699 44.0349 8.9685C43.8236 8.35803 43.2791 6.93048 42.9224 5.90208C42.7346 5.39962 42.7956 5.29162 43.4904 5.14605V4.68585H39.8806V5.14605C40.5941 5.3151 40.7819 5.46067 41.0354 6.1134C41.7489 7.79453 42.4201 9.49444 43.1571 11.3211H43.7251C44.6075 9.09529 45.321 7.32963 45.8655 6.13688C46.18 5.44189 46.349 5.27753 47.0813 5.15074V4.69055L47.0766 4.68585ZM37.3177 9.9969C37.0032 10.2082 36.7732 10.227 36.5197 10.227C35.8484 10.227 34.797 9.532 34.797 7.72878C34.797 5.50293 35.9282 5.12726 36.285 5.12726C36.7028 5.12726 37.1018 5.38084 37.3365 5.8833V9.9969H37.3177ZM40.1951 10.3115L39.8806 10.288C39.2704 10.2035 39.1859 10.1613 39.1859 9.32069V0.858704C38.4302 1.07002 37.2754 1.27664 36.3319 1.38464V1.84484C37.2332 1.94815 37.3177 2.01389 37.3177 2.81219V4.59663C37.0032 4.55437 36.8342 4.53558 36.7075 4.53558C34.4215 4.53558 32.6987 6.17445 32.6987 8.14672C32.6987 10.3303 34.4402 11.3587 35.6795 11.3587C35.8484 11.3587 36.055 11.3399 36.4352 11.0863L37.3177 10.5181V11.3587C38.4724 11.0206 39.8572 10.8562 40.2139 10.7905V10.3068L40.1951 10.3115ZM28.8168 7.26859H26.5308C26.9063 6.21671 27.2865 5.16953 27.6855 4.09886H27.7277L28.8215 7.26859H28.8168ZM33.1635 11.1756V10.6496C32.2387 10.5228 32.051 10.335 31.5487 9.05302C30.6052 6.53133 29.6805 3.97208 28.7557 1.40812L28 1.59596L25.0005 9.13285C24.517 10.3726 24.348 10.5181 23.3623 10.6449L23.3435 11.1474H26.6199V10.6449C25.5497 10.5181 25.5262 10.3068 25.7187 9.59305C25.8877 9.00607 26.0754 8.48013 26.2444 8.01993H29.0562C29.2674 8.63039 29.4974 9.23616 29.6429 9.67758C29.8729 10.3303 29.8119 10.4947 28.9482 10.6214V11.1239H33.1681L33.1635 11.1756ZM19.3348 5.10378C19.9028 5.10378 20.236 5.85982 20.236 6.61586C20.2173 6.86944 20.1516 6.88822 19.9215 6.9117C19.3113 6.93518 18.7903 6.93518 18.1801 6.95396C18.2645 5.77999 18.7903 5.10848 19.3113 5.10848H19.3301L19.3348 5.10378ZM21.7053 9.36765C21.203 9.80906 20.6538 9.9969 20.0905 9.9969C19.0391 9.9969 18.18 9.1986 18.119 7.64426C19.546 7.58321 21.3532 7.43294 21.602 7.41416C21.94 7.3719 22.0198 7.18406 22.0198 6.88822C22.0386 5.69077 20.9918 4.53558 19.6493 4.53558H19.6305C18.8325 4.53558 18.0345 4.93473 17.3868 5.58746C16.6861 6.28873 16.2927 7.23975 16.293 8.23124C16.293 9.91237 17.3868 11.3587 19.3348 11.3587C19.945 11.3587 21.0763 11.0629 21.9775 9.71984L21.7053 9.36295V9.36765ZM16.4808 11.1756V10.7154C15.7251 10.5886 15.6406 10.5886 15.6406 9.64471V6.95866C15.6406 5.34327 14.8848 4.52149 13.6268 4.52149C12.9133 4.52149 12.1764 4.96291 11.6741 5.46537V0.868095C10.7916 1.09819 9.76362 1.28603 8.9891 1.39403V1.81197C9.74484 1.89649 9.80587 1.89649 9.80587 2.7981V9.62123C9.80587 10.5463 9.72137 10.6074 8.88114 10.6919V11.1521H12.3453V10.6919C11.7351 10.5886 11.6741 10.4806 11.6741 9.68227V6.00539C11.9886 5.69077 12.3876 5.58746 12.7256 5.58746C13.2935 5.58746 13.777 5.96313 13.777 7.09954V9.68227C13.777 10.4806 13.7348 10.5839 13.0213 10.6919V11.1521H16.4855L16.4808 11.1756ZM8.60888 4.12234C8.54786 3.17847 8.46337 1.89649 8.4399 1.28603H8.08315C7.82967 1.55839 7.62313 1.64292 7.24292 1.64292H1.3425C0.924728 1.64292 0.732272 1.61944 0.502263 1.28603H0.168986C0.15021 2.04207 0.0422464 3.11273 0 4.18339H0.525733C0.713495 3.45083 0.901257 2.94368 1.13596 2.71358C1.34719 2.48348 1.61945 2.31443 2.81643 2.31443H3.31869V9.24556C3.31869 10.4853 3.17318 10.5886 1.93395 10.6731V11.1756H6.71718V10.6496C5.43571 10.5463 5.29019 10.4618 5.29019 9.22208V2.29095H5.96144C6.82045 2.29095 7.20067 2.37547 7.44945 2.64784C7.72171 2.9202 7.90947 3.40387 8.10193 4.15991L8.60419 4.11765L8.60888 4.12234Z" fill="white"/>
</svg>
