<svg width="12" height="14" viewBox="0 0 12 14" fill="none" xmlns="http://www.w3.org/2000/svg">
<path d="M6.69999 2.8V4.9H8.79999V6.3H6.69999V8.4H5.29999V6.3H3.19999V4.9H5.29999V2.8H6.69999ZM10.2 5.74C10.2 3.199 8.34499 1.4 5.99999 1.4C3.65499 1.4 1.79999 3.199 1.79999 5.74C1.79999 7.378 3.16499 9.548 5.99999 12.138C8.83499 9.548 10.2 7.378 10.2 5.74ZM5.99999 0C8.93999 0 11.6 2.254 11.6 5.74C11.6 8.064 9.73099 10.815 5.99999 14C2.26899 10.815 0.399994 8.064 0.399994 5.74C0.399994 2.254 3.05999 0 5.99999 0Z" fill="black"/>
</svg>
