<svg width="8" height="8" viewBox="0 0 8 8" fill="none" xmlns="http://www.w3.org/2000/svg">
<path fill-rule="evenodd" clip-rule="evenodd" d="M6.92701 1.07302C6.95029 1.09624 6.96876 1.12383 6.98137 1.1542C6.99397 1.18458 7.00046 1.21714 7.00046 1.25002C7.00046 1.2829 6.99397 1.31546 6.98137 1.34584C6.96876 1.37621 6.95029 1.4038 6.92701 1.42702L1.42701 6.92702C1.38007 6.97396 1.3164 7.00034 1.25001 7.00034C1.18362 7.00034 1.11995 6.97396 1.07301 6.92702C1.02607 6.88008 0.999695 6.81641 0.999695 6.75002C0.999695 6.68363 1.02607 6.61996 1.07301 6.57302L6.57301 1.07302C6.59623 1.04974 6.62382 1.03127 6.65419 1.01866C6.68457 1.00606 6.71713 0.999573 6.75001 0.999573C6.78289 0.999573 6.81545 1.00606 6.84583 1.01866C6.8762 1.03127 6.90379 1.04974 6.92701 1.07302V1.07302Z" fill="#1F2937"/>
<path fill-rule="evenodd" clip-rule="evenodd" d="M1.07302 1.07302C1.04974 1.09624 1.03127 1.12383 1.01866 1.1542C1.00606 1.18458 0.999573 1.21714 0.999573 1.25002C0.999573 1.2829 1.00606 1.31546 1.01866 1.34584C1.03127 1.37621 1.04974 1.4038 1.07302 1.42702L6.57302 6.92702C6.61996 6.97396 6.68363 7.00034 6.75002 7.00034C6.81641 7.00034 6.88008 6.97396 6.92702 6.92702C6.97396 6.88008 7.00034 6.81641 7.00034 6.75002C7.00034 6.68363 6.97396 6.61996 6.92702 6.57302L1.42702 1.07302C1.4038 1.04974 1.37621 1.03127 1.34584 1.01866C1.31546 1.00606 1.2829 0.999573 1.25002 0.999573C1.21714 0.999573 1.18458 1.00606 1.1542 1.01866C1.12383 1.03127 1.09624 1.04974 1.07302 1.07302V1.07302Z" fill="#1F2937"/>
</svg>
