<svg width="8" height="8" viewBox="0 0 8 8" fill="none" xmlns="http://www.w3.org/2000/svg">
<path fill-rule="evenodd" clip-rule="evenodd" d="M6.92701 1.073C6.95029 1.09622 6.96876 1.12381 6.98137 1.15418C6.99397 1.18456 7.00046 1.21712 7.00046 1.25C7.00046 1.28288 6.99397 1.31544 6.98137 1.34582C6.96876 1.37619 6.95029 1.40378 6.92701 1.427L1.42701 6.927C1.38007 6.97394 1.3164 7.00032 1.25001 7.00032C1.18362 7.00032 1.11995 6.97394 1.07301 6.927C1.02607 6.88006 0.999695 6.81639 0.999695 6.75C0.999695 6.68361 1.02607 6.61994 1.07301 6.573L6.57301 1.073C6.59623 1.04972 6.62382 1.03125 6.65419 1.01864C6.68457 1.00604 6.71713 0.999554 6.75001 0.999554C6.78289 0.999554 6.81545 1.00604 6.84583 1.01864C6.8762 1.03125 6.90379 1.04972 6.92701 1.073V1.073Z" fill="#3B82F6"/>
<path fill-rule="evenodd" clip-rule="evenodd" d="M1.07299 1.073C1.04971 1.09622 1.03124 1.12381 1.01863 1.15418C1.00603 1.18456 0.999542 1.21712 0.999542 1.25C0.999542 1.28288 1.00603 1.31544 1.01863 1.34582C1.03124 1.37619 1.04971 1.40378 1.07299 1.427L6.57299 6.927C6.61993 6.97394 6.6836 7.00032 6.74999 7.00032C6.81638 7.00032 6.88005 6.97394 6.92699 6.927C6.97393 6.88006 7.0003 6.81639 7.0003 6.75C7.0003 6.68361 6.97393 6.61994 6.92699 6.573L1.42699 1.073C1.40377 1.04972 1.37618 1.03125 1.34581 1.01864C1.31543 1.00604 1.28287 0.999554 1.24999 0.999554C1.21711 0.999554 1.18454 1.00604 1.15417 1.01864C1.1238 1.03125 1.09621 1.04972 1.07299 1.073V1.073Z" fill="#3B82F6"/>
</svg>
