<svg width="9" height="8" viewBox="0 0 9 8" fill="none" xmlns="http://www.w3.org/2000/svg">
<path fill-rule="evenodd" clip-rule="evenodd" d="M7.59365 1.07302C7.61693 1.09624 7.6354 1.12383 7.64801 1.1542C7.66061 1.18458 7.6671 1.21714 7.6671 1.25002C7.6671 1.2829 7.66061 1.31546 7.64801 1.34584C7.6354 1.37621 7.61693 1.4038 7.59365 1.42702L2.09365 6.92702C2.04671 6.97396 1.98304 7.00034 1.91665 7.00034C1.85026 7.00034 1.7866 6.97396 1.73965 6.92702C1.69271 6.88008 1.66634 6.81641 1.66634 6.75002C1.66634 6.68363 1.69271 6.61996 1.73965 6.57302L7.23965 1.07302C7.26287 1.04974 7.29046 1.03127 7.32084 1.01866C7.35121 1.00606 7.38377 0.999573 7.41665 0.999573C7.44954 0.999573 7.4821 1.00606 7.51247 1.01866C7.54284 1.03127 7.57043 1.04974 7.59365 1.07302V1.07302Z" fill="#1F2937"/>
<path fill-rule="evenodd" clip-rule="evenodd" d="M1.73966 1.07302C1.71638 1.09624 1.69791 1.12383 1.6853 1.1542C1.6727 1.18458 1.66621 1.21714 1.66621 1.25002C1.66621 1.2829 1.6727 1.31546 1.6853 1.34584C1.69791 1.37621 1.71638 1.4038 1.73966 1.42702L7.23966 6.92702C7.2866 6.97396 7.35027 7.00034 7.41666 7.00034C7.48305 7.00034 7.54672 6.97396 7.59366 6.92702C7.6406 6.88008 7.66698 6.81641 7.66698 6.75002C7.66698 6.68363 7.6406 6.61996 7.59366 6.57302L2.09366 1.07302C2.07044 1.04974 2.04285 1.03127 2.01248 1.01866C1.98211 1.00606 1.94954 0.999573 1.91666 0.999573C1.88378 0.999573 1.85122 1.00606 1.82084 1.01866C1.79047 1.03127 1.76288 1.04974 1.73966 1.07302V1.07302Z" fill="#1F2937"/>
</svg>
