<svg width="9" height="8" viewBox="0 0 9 8" fill="none" xmlns="http://www.w3.org/2000/svg">
<path fill-rule="evenodd" clip-rule="evenodd" d="M7.26031 1.07302C7.28359 1.09624 7.30206 1.12383 7.31466 1.1542C7.32727 1.18458 7.33376 1.21714 7.33376 1.25002C7.33376 1.2829 7.32727 1.31546 7.31466 1.34584C7.30206 1.37621 7.28359 1.4038 7.26031 1.42702L1.76031 6.92702C1.71337 6.97396 1.6497 7.00034 1.58331 7.00034C1.51692 7.00034 1.45325 6.97396 1.40631 6.92702C1.35936 6.88008 1.33299 6.81641 1.33299 6.75002C1.33299 6.68363 1.35936 6.61996 1.40631 6.57302L6.90631 1.07302C6.92953 1.04974 6.95712 1.03127 6.98749 1.01866C7.01786 1.00606 7.05042 0.999573 7.08331 0.999573C7.11619 0.999573 7.14875 1.00606 7.17912 1.01866C7.2095 1.03127 7.23709 1.04974 7.26031 1.07302V1.07302Z" fill="#1F2937"/>
<path fill-rule="evenodd" clip-rule="evenodd" d="M1.40632 1.07302C1.38304 1.09624 1.36456 1.12383 1.35196 1.1542C1.33936 1.18458 1.33287 1.21714 1.33287 1.25002C1.33287 1.2829 1.33936 1.31546 1.35196 1.34584C1.36456 1.37621 1.38304 1.4038 1.40632 1.42702L6.90632 6.92702C6.95326 6.97396 7.01693 7.00034 7.08332 7.00034C7.14971 7.00034 7.21337 6.97396 7.26032 6.92702C7.30726 6.88008 7.33363 6.81641 7.33363 6.75002C7.33363 6.68363 7.30726 6.61996 7.26032 6.57302L1.76032 1.07302C1.73709 1.04974 1.70951 1.03127 1.67913 1.01866C1.64876 1.00606 1.6162 0.999573 1.58332 0.999573C1.55043 0.999573 1.51787 1.00606 1.4875 1.01866C1.45713 1.03127 1.42954 1.04974 1.40632 1.07302V1.07302Z" fill="#1F2937"/>
</svg>
