<svg width="9" height="8" viewBox="0 0 9 8" fill="none" xmlns="http://www.w3.org/2000/svg">
<path fill-rule="evenodd" clip-rule="evenodd" d="M7.727 1.07302C7.75028 1.09624 7.76875 1.12383 7.78135 1.1542C7.79396 1.18458 7.80045 1.21714 7.80045 1.25002C7.80045 1.2829 7.79396 1.31546 7.78135 1.34584C7.76875 1.37621 7.75028 1.4038 7.727 1.42702L2.227 6.92702C2.18006 6.97396 2.11639 7.00034 2.05 7.00034C1.98361 7.00034 1.91994 6.97396 1.873 6.92702C1.82606 6.88008 1.79968 6.81641 1.79968 6.75002C1.79968 6.68363 1.82606 6.61996 1.873 6.57302L7.373 1.07302C7.39622 1.04974 7.42381 1.03127 7.45418 1.01866C7.48455 1.00606 7.51711 0.999573 7.55 0.999573C7.58288 0.999573 7.61544 1.00606 7.64581 1.01866C7.67619 1.03127 7.70378 1.04974 7.727 1.07302V1.07302Z" fill="#1F2937"/>
<path fill-rule="evenodd" clip-rule="evenodd" d="M1.87298 1.07302C1.8497 1.09624 1.83122 1.12383 1.81862 1.1542C1.80602 1.18458 1.79953 1.21714 1.79953 1.25002C1.79953 1.2829 1.80602 1.31546 1.81862 1.34584C1.83122 1.37621 1.8497 1.4038 1.87298 1.42702L7.37298 6.92702C7.41992 6.97396 7.48359 7.00034 7.54998 7.00034C7.61636 7.00034 7.68003 6.97396 7.72698 6.92702C7.77392 6.88008 7.80029 6.81641 7.80029 6.75002C7.80029 6.68363 7.77392 6.61996 7.72698 6.57302L2.22698 1.07302C2.20375 1.04974 2.17617 1.03127 2.14579 1.01866C2.11542 1.00606 2.08286 0.999573 2.04998 0.999573C2.01709 0.999573 1.98453 1.00606 1.95416 1.01866C1.92379 1.03127 1.8962 1.04974 1.87298 1.07302V1.07302Z" fill="#1F2937"/>
</svg>
