<svg width="9" height="8" viewBox="0 0 9 8" fill="none" xmlns="http://www.w3.org/2000/svg">
<path fill-rule="evenodd" clip-rule="evenodd" d="M7.32702 1.07302C7.3503 1.09624 7.36877 1.12383 7.38138 1.1542C7.39398 1.18458 7.40047 1.21714 7.40047 1.25002C7.40047 1.2829 7.39398 1.31546 7.38138 1.34584C7.36877 1.37621 7.3503 1.4038 7.32702 1.42702L1.82702 6.92702C1.78008 6.97396 1.71641 7.00034 1.65002 7.00034C1.58363 7.00034 1.51996 6.97396 1.47302 6.92702C1.42608 6.88008 1.3997 6.81641 1.3997 6.75002C1.3997 6.68363 1.42608 6.61996 1.47302 6.57302L6.97302 1.07302C6.99624 1.04974 7.02383 1.03127 7.0542 1.01866C7.08458 1.00606 7.11714 0.999573 7.15002 0.999573C7.1829 0.999573 7.21546 1.00606 7.24584 1.01866C7.27621 1.03127 7.3038 1.04974 7.32702 1.07302V1.07302Z" fill="#1F2937"/>
<path fill-rule="evenodd" clip-rule="evenodd" d="M1.47303 1.07302C1.44975 1.09624 1.43128 1.12383 1.41867 1.1542C1.40607 1.18458 1.39958 1.21714 1.39958 1.25002C1.39958 1.2829 1.40607 1.31546 1.41867 1.34584C1.43128 1.37621 1.44975 1.4038 1.47303 1.42702L6.97303 6.92702C7.01997 6.97396 7.08364 7.00034 7.15003 7.00034C7.21642 7.00034 7.28009 6.97396 7.32703 6.92702C7.37397 6.88008 7.40034 6.81641 7.40034 6.75002C7.40034 6.68363 7.37397 6.61996 7.32703 6.57302L1.82703 1.07302C1.80381 1.04974 1.77622 1.03127 1.74585 1.01866C1.71547 1.00606 1.68291 0.999573 1.65003 0.999573C1.61715 0.999573 1.58458 1.00606 1.55421 1.01866C1.52384 1.03127 1.49625 1.04974 1.47303 1.07302V1.07302Z" fill="#1F2937"/>
</svg>
