<svg width="9" height="8" viewBox="0 0 9 8" fill="none" xmlns="http://www.w3.org/2000/svg">
<path fill-rule="evenodd" clip-rule="evenodd" d="M7.52705 1.07302C7.55033 1.09624 7.5688 1.12383 7.5814 1.1542C7.59401 1.18458 7.60049 1.21714 7.60049 1.25002C7.60049 1.2829 7.59401 1.31546 7.5814 1.34584C7.5688 1.37621 7.55033 1.4038 7.52705 1.42702L2.02705 6.92702C1.9801 6.97396 1.91644 7.00034 1.85005 7.00034C1.78366 7.00034 1.71999 6.97396 1.67305 6.92702C1.6261 6.88008 1.59973 6.81641 1.59973 6.75002C1.59973 6.68363 1.6261 6.61996 1.67305 6.57302L7.17305 1.07302C7.19627 1.04974 7.22386 1.03127 7.25423 1.01866C7.2846 1.00606 7.31716 0.999573 7.35005 0.999573C7.38293 0.999573 7.41549 1.00606 7.44586 1.01866C7.47624 1.03127 7.50382 1.04974 7.52705 1.07302V1.07302Z" fill="#1F2937"/>
<path fill-rule="evenodd" clip-rule="evenodd" d="M1.67303 1.07302C1.64974 1.09624 1.63127 1.12383 1.61867 1.1542C1.60607 1.18458 1.59958 1.21714 1.59958 1.25002C1.59958 1.2829 1.60607 1.31546 1.61867 1.34584C1.63127 1.37621 1.64974 1.4038 1.67303 1.42702L7.17303 6.92702C7.21997 6.97396 7.28364 7.00034 7.35003 7.00034C7.41641 7.00034 7.48008 6.97396 7.52703 6.92702C7.57397 6.88008 7.60034 6.81641 7.60034 6.75002C7.60034 6.68363 7.57397 6.61996 7.52703 6.57302L2.02703 1.07302C2.0038 1.04974 1.97622 1.03127 1.94584 1.01866C1.91547 1.00606 1.88291 0.999573 1.85003 0.999573C1.81714 0.999573 1.78458 1.00606 1.75421 1.01866C1.72384 1.03127 1.69625 1.04974 1.67303 1.07302V1.07302Z" fill="#1F2937"/>
</svg>
