<svg width="9" height="8" viewBox="0 0 9 8" fill="none" xmlns="http://www.w3.org/2000/svg">
<path fill-rule="evenodd" clip-rule="evenodd" d="M7.12702 1.07302C7.1503 1.09624 7.16878 1.12383 7.18138 1.1542C7.19398 1.18458 7.20047 1.21714 7.20047 1.25002C7.20047 1.2829 7.19398 1.31546 7.18138 1.34584C7.16878 1.37621 7.1503 1.4038 7.12702 1.42702L1.62702 6.92702C1.58008 6.97396 1.51641 7.00034 1.45002 7.00034C1.38363 7.00034 1.31997 6.97396 1.27302 6.92702C1.22608 6.88008 1.19971 6.81641 1.19971 6.75002C1.19971 6.68363 1.22608 6.61996 1.27302 6.57302L6.77302 1.07302C6.79625 1.04974 6.82383 1.03127 6.85421 1.01866C6.88458 1.00606 6.91714 0.999573 6.95002 0.999573C6.98291 0.999573 7.01547 1.00606 7.04584 1.01866C7.07621 1.03127 7.1038 1.04974 7.12702 1.07302V1.07302Z" fill="#1F2937"/>
<path fill-rule="evenodd" clip-rule="evenodd" d="M1.273 1.07302C1.24972 1.09624 1.23125 1.12383 1.21865 1.1542C1.20604 1.18458 1.19955 1.21714 1.19955 1.25002C1.19955 1.2829 1.20604 1.31546 1.21865 1.34584C1.23125 1.37621 1.24972 1.4038 1.273 1.42702L6.773 6.92702C6.81994 6.97396 6.88361 7.00034 6.95 7.00034C7.01639 7.00034 7.08006 6.97396 7.127 6.92702C7.17394 6.88008 7.20032 6.81641 7.20032 6.75002C7.20032 6.68363 7.17394 6.61996 7.127 6.57302L1.627 1.07302C1.60378 1.04974 1.57619 1.03127 1.54582 1.01866C1.51545 1.00606 1.48289 0.999573 1.45 0.999573C1.41712 0.999573 1.38456 1.00606 1.35418 1.01866C1.32381 1.03127 1.29622 1.04974 1.273 1.07302V1.07302Z" fill="#1F2937"/>
</svg>
